<svg xmlns="http://www.w3.org/2000/svg" xmlns:xlink="http://www.w3.org/1999/xlink" width="232" zoomAndPan="magnify" viewBox="0 0 174 50.999998" height="68" preserveAspectRatio="xMidYMid meet" version="1.0"><defs><g/><clipPath id="id1"><path d="M 5.101562 3.152344 L 48.601562 3.152344 L 48.601562 46.652344 L 5.101562 46.652344 Z M 5.101562 3.152344 " clip-rule="nonzero"/></clipPath></defs><g fill="#272425" fill-opacity="1"><g transform="translate(57.720405, 32.105613)"><g><path d="M 1.171875 -13.453125 L 4.671875 -13.453125 L 8.390625 -4.421875 L 8.546875 -4.421875 L 12.25 -13.453125 L 15.75 -13.453125 L 15.75 0 L 13 0 L 13 -8.75 L 12.890625 -8.75 L 9.40625 -0.0625 L 7.515625 -0.0625 L 4.046875 -8.796875 L 3.921875 -8.796875 L 3.921875 0 L 1.171875 0 Z M 1.171875 -13.453125 "/></g></g></g><g fill="#272425" fill-opacity="1"><g transform="translate(74.80712, 32.105613)"><g><path d="M 4 0.1875 C 3.03125 0.1875 2.226562 -0.0625 1.59375 -0.5625 C 0.957031 -1.070312 0.640625 -1.820312 0.640625 -2.8125 C 0.640625 -3.570312 0.816406 -4.164062 1.171875 -4.59375 C 1.523438 -5.019531 1.988281 -5.332031 2.5625 -5.53125 C 3.144531 -5.726562 3.769531 -5.859375 4.4375 -5.921875 C 5.3125 -6.015625 5.9375 -6.109375 6.3125 -6.203125 C 6.6875 -6.296875 6.875 -6.503906 6.875 -6.828125 L 6.875 -6.875 C 6.875 -7.289062 6.742188 -7.609375 6.484375 -7.828125 C 6.222656 -8.054688 5.851562 -8.171875 5.375 -8.171875 C 4.875 -8.171875 4.472656 -8.0625 4.171875 -7.84375 C 3.878906 -7.625 3.6875 -7.347656 3.59375 -7.015625 L 1 -7.234375 C 1.1875 -8.148438 1.660156 -8.875 2.421875 -9.40625 C 3.191406 -9.945312 4.179688 -10.21875 5.390625 -10.21875 C 6.140625 -10.21875 6.835938 -10.097656 7.484375 -9.859375 C 8.140625 -9.628906 8.664062 -9.265625 9.0625 -8.765625 C 9.46875 -8.265625 9.671875 -7.613281 9.671875 -6.8125 L 9.671875 0 L 7.015625 0 L 7.015625 -1.40625 L 6.9375 -1.40625 C 6.695312 -0.9375 6.332031 -0.550781 5.84375 -0.25 C 5.351562 0.0390625 4.738281 0.1875 4 0.1875 Z M 4.796875 -1.734375 C 5.410156 -1.734375 5.910156 -1.910156 6.296875 -2.265625 C 6.691406 -2.628906 6.890625 -3.078125 6.890625 -3.609375 L 6.890625 -4.671875 C 6.785156 -4.597656 6.617188 -4.53125 6.390625 -4.46875 C 6.160156 -4.414062 5.914062 -4.367188 5.65625 -4.328125 C 5.394531 -4.285156 5.160156 -4.25 4.953125 -4.21875 C 4.460938 -4.15625 4.066406 -4.019531 3.765625 -3.8125 C 3.460938 -3.601562 3.3125 -3.300781 3.3125 -2.90625 C 3.3125 -2.519531 3.453125 -2.226562 3.734375 -2.03125 C 4.015625 -1.832031 4.367188 -1.734375 4.796875 -1.734375 Z M 4.796875 -1.734375 "/></g></g></g><g fill="#272425" fill-opacity="1"><g transform="translate(85.537214, 32.105613)"><g><path d="M 6.484375 -10.09375 L 6.484375 -7.984375 L 4.578125 -7.984375 L 4.578125 -3.09375 C 4.578125 -2.707031 4.664062 -2.445312 4.84375 -2.3125 C 5.019531 -2.175781 5.25 -2.109375 5.53125 -2.109375 C 5.664062 -2.109375 5.796875 -2.117188 5.921875 -2.140625 C 6.054688 -2.171875 6.160156 -2.191406 6.234375 -2.203125 L 6.671875 -0.125 C 6.523438 -0.0820312 6.328125 -0.03125 6.078125 0.03125 C 5.828125 0.09375 5.519531 0.128906 5.15625 0.140625 C 4.132812 0.179688 3.316406 -0.0351562 2.703125 -0.515625 C 2.085938 -1.003906 1.78125 -1.742188 1.78125 -2.734375 L 1.78125 -7.984375 L 0.40625 -7.984375 L 0.40625 -10.09375 L 1.78125 -10.09375 L 1.78125 -12.515625 L 4.578125 -12.515625 L 4.578125 -10.09375 Z M 6.484375 -10.09375 "/></g></g></g><g fill="#272425" fill-opacity="1"><g transform="translate(92.721253, 32.105613)"><g><path d="M 3.921875 -5.828125 L 3.921875 0 L 1.109375 0 L 1.109375 -13.453125 L 3.84375 -13.453125 L 3.84375 -8.3125 L 3.953125 -8.3125 C 4.179688 -8.90625 4.550781 -9.367188 5.0625 -9.703125 C 5.570312 -10.046875 6.207031 -10.21875 6.96875 -10.21875 C 8.019531 -10.21875 8.863281 -9.878906 9.5 -9.203125 C 10.144531 -8.535156 10.460938 -7.609375 10.453125 -6.421875 L 10.453125 0 L 7.65625 0 L 7.65625 -5.921875 C 7.664062 -6.546875 7.507812 -7.03125 7.1875 -7.375 C 6.875 -7.71875 6.429688 -7.890625 5.859375 -7.890625 C 5.285156 -7.890625 4.816406 -7.707031 4.453125 -7.34375 C 4.097656 -6.988281 3.921875 -6.484375 3.921875 -5.828125 Z M 3.921875 -5.828125 "/></g></g></g><g fill="#272425" fill-opacity="1"><g transform="translate(104.265617, 32.105613)"><g><path d="M 9.515625 -7.21875 L 6.953125 -7.0625 C 6.878906 -7.382812 6.695312 -7.660156 6.40625 -7.890625 C 6.125 -8.117188 5.742188 -8.234375 5.265625 -8.234375 C 4.828125 -8.234375 4.457031 -8.140625 4.15625 -7.953125 C 3.863281 -7.773438 3.71875 -7.535156 3.71875 -7.234375 C 3.71875 -6.992188 3.8125 -6.789062 4 -6.625 C 4.195312 -6.457031 4.53125 -6.328125 5 -6.234375 L 6.828125 -5.859375 C 8.765625 -5.460938 9.738281 -4.550781 9.75 -3.125 C 9.75 -2.46875 9.550781 -1.890625 9.15625 -1.390625 C 8.769531 -0.890625 8.238281 -0.5 7.5625 -0.21875 C 6.894531 0.0625 6.125 0.203125 5.25 0.203125 C 3.914062 0.203125 2.851562 -0.078125 2.0625 -0.640625 C 1.269531 -1.203125 0.804688 -1.960938 0.671875 -2.921875 L 3.421875 -3.0625 C 3.503906 -2.65625 3.703125 -2.34375 4.015625 -2.125 C 4.335938 -1.914062 4.75 -1.8125 5.25 -1.8125 C 5.738281 -1.8125 6.132812 -1.90625 6.4375 -2.09375 C 6.738281 -2.289062 6.890625 -2.539062 6.890625 -2.84375 C 6.878906 -3.34375 6.453125 -3.675781 5.609375 -3.84375 L 3.859375 -4.203125 C 1.898438 -4.585938 0.925781 -5.546875 0.9375 -7.078125 C 0.9375 -8.054688 1.328125 -8.820312 2.109375 -9.375 C 2.890625 -9.9375 3.925781 -10.21875 5.21875 -10.21875 C 6.488281 -10.21875 7.488281 -9.945312 8.21875 -9.40625 C 8.957031 -8.875 9.390625 -8.144531 9.515625 -7.21875 Z M 9.515625 -7.21875 "/></g></g></g><g fill="#272425" fill-opacity="1"><g transform="translate(114.654231, 32.105613)"><g><path d="M 4.015625 -13.453125 L 4.015625 0 L 1.171875 0 L 1.171875 -13.453125 Z M 4.015625 -13.453125 "/></g></g></g><g fill="#272425" fill-opacity="1"><g transform="translate(119.841975, 32.105613)"><g><path d="M 9.515625 -7.21875 L 6.953125 -7.0625 C 6.878906 -7.382812 6.695312 -7.660156 6.40625 -7.890625 C 6.125 -8.117188 5.742188 -8.234375 5.265625 -8.234375 C 4.828125 -8.234375 4.457031 -8.140625 4.15625 -7.953125 C 3.863281 -7.773438 3.71875 -7.535156 3.71875 -7.234375 C 3.71875 -6.992188 3.8125 -6.789062 4 -6.625 C 4.195312 -6.457031 4.53125 -6.328125 5 -6.234375 L 6.828125 -5.859375 C 8.765625 -5.460938 9.738281 -4.550781 9.75 -3.125 C 9.75 -2.46875 9.550781 -1.890625 9.15625 -1.390625 C 8.769531 -0.890625 8.238281 -0.5 7.5625 -0.21875 C 6.894531 0.0625 6.125 0.203125 5.25 0.203125 C 3.914062 0.203125 2.851562 -0.078125 2.0625 -0.640625 C 1.269531 -1.203125 0.804688 -1.960938 0.671875 -2.921875 L 3.421875 -3.0625 C 3.503906 -2.65625 3.703125 -2.34375 4.015625 -2.125 C 4.335938 -1.914062 4.75 -1.8125 5.25 -1.8125 C 5.738281 -1.8125 6.132812 -1.90625 6.4375 -2.09375 C 6.738281 -2.289062 6.890625 -2.539062 6.890625 -2.84375 C 6.878906 -3.34375 6.453125 -3.675781 5.609375 -3.84375 L 3.859375 -4.203125 C 1.898438 -4.585938 0.925781 -5.546875 0.9375 -7.078125 C 0.9375 -8.054688 1.328125 -8.820312 2.109375 -9.375 C 2.890625 -9.9375 3.925781 -10.21875 5.21875 -10.21875 C 6.488281 -10.21875 7.488281 -9.945312 8.21875 -9.40625 C 8.957031 -8.875 9.390625 -8.144531 9.515625 -7.21875 Z M 9.515625 -7.21875 "/></g></g></g><g fill="#272425" fill-opacity="1"><g transform="translate(130.230589, 32.105613)"><g><path d="M 1.171875 0 L 1.171875 -13.453125 L 10.078125 -13.453125 L 10.078125 -11.109375 L 4.015625 -11.109375 L 4.015625 -7.90625 L 9.484375 -7.90625 L 9.484375 -5.5625 L 4.015625 -5.5625 L 4.015625 0 Z M 1.171875 0 "/></g></g></g><g fill="#272425" fill-opacity="1"><g transform="translate(141.046044, 32.105613)"><g><path d="M 7.59375 -4.296875 L 7.59375 -10.09375 L 10.390625 -10.09375 L 10.390625 0 L 7.703125 0 L 7.703125 -1.828125 L 7.59375 -1.828125 C 7.363281 -1.242188 6.984375 -0.769531 6.453125 -0.40625 C 5.929688 -0.0507812 5.289062 0.125 4.53125 0.125 C 3.519531 0.125 2.695312 -0.210938 2.0625 -0.890625 C 1.4375 -1.566406 1.117188 -2.492188 1.109375 -3.671875 L 1.109375 -10.09375 L 3.921875 -10.09375 L 3.921875 -4.171875 C 3.921875 -3.566406 4.078125 -3.09375 4.390625 -2.75 C 4.710938 -2.40625 5.132812 -2.234375 5.65625 -2.234375 C 6.164062 -2.234375 6.613281 -2.40625 7 -2.75 C 7.394531 -3.101562 7.59375 -3.617188 7.59375 -4.296875 Z M 7.59375 -4.296875 "/></g></g></g><g fill="#272425" fill-opacity="1"><g transform="translate(152.544449, 32.105613)"><g><path d="M 3.921875 -5.828125 L 3.921875 0 L 1.109375 0 L 1.109375 -10.09375 L 3.78125 -10.09375 L 3.78125 -8.3125 L 3.90625 -8.3125 C 4.132812 -8.894531 4.507812 -9.359375 5.03125 -9.703125 C 5.550781 -10.046875 6.1875 -10.21875 6.9375 -10.21875 C 7.988281 -10.21875 8.832031 -9.878906 9.46875 -9.203125 C 10.101562 -8.523438 10.421875 -7.597656 10.421875 -6.421875 L 10.421875 0 L 7.625 0 L 7.625 -5.921875 C 7.625 -6.546875 7.460938 -7.03125 7.140625 -7.375 C 6.828125 -7.71875 6.390625 -7.890625 5.828125 -7.890625 C 5.265625 -7.890625 4.804688 -7.707031 4.453125 -7.34375 C 4.097656 -6.988281 3.921875 -6.484375 3.921875 -5.828125 Z M 3.921875 -5.828125 "/></g></g></g><g fill="#272425" fill-opacity="1"><g transform="translate(164.042853, 32.105613)"><g><path d="M 4.453125 -13.453125 L 4.203125 -4.03125 L 1.796875 -4.03125 L 1.53125 -13.453125 Z M 3 0.171875 C 2.570312 0.171875 2.203125 0.0195312 1.890625 -0.28125 C 1.578125 -0.59375 1.421875 -0.96875 1.421875 -1.40625 C 1.421875 -1.832031 1.578125 -2.195312 1.890625 -2.5 C 2.203125 -2.8125 2.570312 -2.96875 3 -2.96875 C 3.425781 -2.96875 3.796875 -2.8125 4.109375 -2.5 C 4.421875 -2.195312 4.578125 -1.832031 4.578125 -1.40625 C 4.578125 -0.96875 4.421875 -0.59375 4.109375 -0.28125 C 3.796875 0.0195312 3.425781 0.171875 3 0.171875 Z M 3 0.171875 "/></g></g></g><path fill="#272425" d="M 6.09375 4.144531 L 26.84375 4.144531 L 26.84375 24.898438 L 6.09375 24.898438 Z M 6.09375 4.144531 " fill-opacity="1" fill-rule="evenodd"/><path fill="#272425" d="M 26.84375 4.144531 L 47.597656 4.144531 L 47.597656 24.898438 L 26.84375 24.898438 Z M 26.84375 4.144531 " fill-opacity="1" fill-rule="evenodd"/><path fill="#272425" d="M 26.84375 24.898438 L 47.597656 24.898438 L 47.597656 45.652344 L 26.84375 45.652344 Z M 26.84375 24.898438 " fill-opacity="1" fill-rule="evenodd"/><path fill="#272425" d="M 6.09375 24.898438 L 26.84375 24.898438 L 26.84375 45.652344 L 6.09375 45.652344 Z M 6.09375 24.898438 " fill-opacity="1" fill-rule="evenodd"/><g clip-path="url(#id1)"><path fill="#ffffff" d="M 5.097656 4.144531 L 5.097656 45.652344 C 5.097656 46.203125 5.542969 46.648438 6.09375 46.648438 L 47.597656 46.648438 C 47.871094 46.648438 48.117188 46.539062 48.296875 46.359375 L 48.339844 46.316406 L 48.378906 46.269531 L 48.4375 46.1875 L 48.476562 46.121094 L 48.503906 46.0625 C 48.523438 46.023438 48.539062 45.984375 48.550781 45.941406 C 48.570312 45.878906 48.582031 45.808594 48.589844 45.742188 L 48.59375 45.652344 L 48.59375 4.144531 C 48.59375 3.597656 48.148438 3.148438 47.597656 3.148438 L 6.09375 3.148438 C 5.542969 3.148438 5.097656 3.597656 5.097656 4.144531 Z M 25.847656 44.65625 L 25.847656 25.894531 L 7.089844 25.894531 L 7.089844 44.65625 Z M 36.328125 44.65625 L 27.839844 44.65625 L 27.839844 25.894531 C 27.839844 25.894531 46.601562 25.894531 46.601562 25.894531 C 46.601562 25.894531 46.601562 44.65625 46.601562 44.65625 Z M 16.007812 33.867188 L 13.707031 31.566406 C 13.320312 31.179688 12.6875 31.179688 12.300781 31.566406 C 11.910156 31.957031 11.910156 32.585938 12.300781 32.976562 L 14.601562 35.273438 L 12.300781 37.574219 C 11.910156 37.964844 11.910156 38.59375 12.300781 38.984375 C 12.6875 39.371094 13.320312 39.371094 13.707031 38.984375 L 16.007812 36.683594 L 18.308594 38.984375 C 18.695312 39.371094 19.328125 39.371094 19.714844 38.984375 C 20.105469 38.59375 20.105469 37.964844 19.714844 37.574219 L 17.417969 35.273438 L 19.714844 32.976562 C 20.105469 32.585938 20.105469 31.957031 19.714844 31.566406 C 19.328125 31.179688 18.695312 31.179688 18.308594 31.566406 Z M 33.800781 38.394531 L 40.847656 38.394531 C 41.398438 38.394531 41.84375 37.949219 41.84375 37.398438 C 41.84375 36.847656 41.398438 36.402344 40.847656 36.402344 L 33.800781 36.402344 C 33.25 36.402344 32.804688 36.847656 32.804688 37.398438 C 32.804688 37.949219 33.25 38.394531 33.800781 38.394531 Z M 33.59375 34.148438 L 40.640625 34.148438 C 41.191406 34.148438 41.636719 33.699219 41.636719 33.152344 C 41.636719 32.601562 41.191406 32.15625 40.640625 32.15625 L 33.59375 32.15625 C 33.046875 32.15625 32.597656 32.601562 32.597656 33.152344 C 32.597656 33.699219 33.046875 34.148438 33.59375 34.148438 Z M 7.089844 5.140625 L 7.089844 23.902344 L 25.847656 23.902344 L 25.847656 5.140625 Z M 27.839844 5.140625 L 46.601562 5.140625 L 46.601562 23.902344 L 27.839844 23.902344 Z M 15.011719 13.527344 L 11.757812 13.527344 C 11.210938 13.527344 10.765625 13.972656 10.765625 14.523438 C 10.765625 15.070312 11.210938 15.519531 11.757812 15.519531 L 15.011719 15.519531 L 15.011719 18.769531 C 15.011719 19.320312 15.457031 19.765625 16.007812 19.765625 C 16.558594 19.765625 17.003906 19.320312 17.003906 18.769531 L 17.003906 15.519531 L 20.257812 15.519531 C 20.804688 15.519531 21.253906 15.070312 21.253906 14.523438 C 21.253906 13.972656 20.804688 13.527344 20.257812 13.527344 L 17.003906 13.527344 L 17.003906 10.273438 C 17.003906 9.722656 16.558594 9.277344 16.007812 9.277344 C 15.457031 9.277344 15.011719 9.722656 15.011719 10.273438 Z M 40.226562 16.113281 C 39.445312 16.113281 38.8125 16.746094 38.8125 17.527344 C 38.8125 18.304688 39.445312 18.9375 40.226562 18.9375 C 41.003906 18.9375 41.636719 18.304688 41.636719 17.527344 C 41.636719 16.746094 41.003906 16.113281 40.226562 16.113281 Z M 39.519531 10.8125 L 33.511719 16.820312 C 33.125 17.210938 33.125 17.84375 33.511719 18.230469 C 33.902344 18.621094 34.53125 18.621094 34.921875 18.230469 L 40.929688 12.222656 C 41.316406 11.832031 41.316406 11.203125 40.929688 10.8125 C 40.539062 10.425781 39.910156 10.425781 39.519531 10.8125 Z M 34.21875 10.105469 C 33.4375 10.105469 32.804688 10.738281 32.804688 11.519531 C 32.804688 12.296875 33.4375 12.929688 34.21875 12.929688 C 34.996094 12.929688 35.628906 12.296875 35.628906 11.519531 C 35.628906 10.738281 34.996094 10.105469 34.21875 10.105469 Z M 34.21875 10.105469 " fill-opacity="1" fill-rule="evenodd"/></g></svg>