<?xml version="1.0" encoding="UTF-8" standalone="no"?>
<!-- Copyright 2021 mathsisfun.com -->
<svg xmlns:sodipodi="http://sodipodi.sourceforge.net/DTD/sodipodi-0.dtd" xmlns="http://www.w3.org/2000/svg" width="257.6" height="114.2" version="1.1" style="font-size:22.5px; stroke-width:0.47px;">
<defs>
	<marker style="overflow:visible;" orient="auto">
		<path transform="matrix(-0.8,0,0,-0.8,-10,0)" style="stroke:black; stroke-width:1pt;" d="M 0,0 5,-5 -12.5,0 5,5 Z"/>
	</marker>
	<marker style="overflow:visible;" orient="auto">
		<path transform="matrix(0.8,0,0,0.8,10,0)" style="stroke:black; stroke-width:1pt;" d="M 0,0 5,-5 -12.5,0 5,5 Z"/>
	</marker>
	<marker style="overflow:visible;" orient="auto">
		<path transform="matrix(-0.8,0,0,-0.8,-10,0)" style="fill:#0000ff; stroke:#0000ff; stroke-width:1pt;" d="M 0,0 5,-5 -12.5,0 5,5 Z"/>
	</marker>
</defs>
<g transform="translate(-875.019,-702.922)">
	<path style="fill:none; fill-opacity:0.75; stroke:#0000ff;" d="m 890.6,754.6 v 34.3"/>
	<path style="fill:none; fill-opacity:0.75; stroke:#0000ff;" d="m 926.3,754.6 v 34.3"/>
	<path style="fill:none; fill-opacity:0.75; stroke:#0000ff;" d="m 962,754.6 v 34.3"/>
	<path style="fill:none; fill-opacity:0.75; stroke:#0000ff;" d="m 997.6,754.6 v 34.3"/>
	<path style="fill:none; fill-opacity:0.75; stroke:#0000ff;" d="m 1033.3,754.6 v 34.3"/>
	<path style="fill:none; fill-opacity:0.75; stroke:#0000ff;" d="m 1069,754.6 v 34.3"/>
	<text x="885.3" y="816.9" style="font-family:Arial; fill:#0000ff;">4</text>
	<text x="920.5" y="816.7" style="font-family:Arial; fill:#0000ff;">5</text>
	<text x="956.3" y="816.8" style="font-family:Arial; fill:#0000ff;">6</text>
	<text x="991.8" y="816.8" style="font-family:Arial; fill:#0000ff;">7</text>
	<text x="1027.5" y="816.8" style="font-family:Arial; fill:#0000ff;">8</text>
	<text x="1063.1" y="816.8" style="font-family:Arial; fill:#0000ff;">9</text>
	<path style="fill:none; fill-opacity:0.75; stroke:#0000ff;" d="m 1104.7,754.6 v 34.3"/>
	<text x="1091.7" y="816.8" style="font-family:Arial; fill:#0000ff;">10</text>
	<path style="fill:#0000ff; fill-opacity:0.75; stroke:#0000ff; stroke-width:1.78;" d="M 875,774 H 1132.6"/>
	<path style="fill:#fce94f; stroke:#3465a4; stroke-width:1px;" d="m 970,773.6 a 7.4,7.4 0 0 1 -7.3,7.4 7.4,7.4 0 0 1 -7.5,-7.3 7.4,7.4 0 0 1 7.2,-7.5 7.4,7.4 0 0 1 7.6,7.2" sodipodi:type="arc" sodipodi:cx="962.649" sodipodi:cy="773.661" sodipodi:rx="7.4009" sodipodi:ry="7.4009" sodipodi:start="6.27793" sodipodi:end="6.25535" />
	<g style="fill:#ff9900; stroke:#ff9900;" transform="matrix(0.213914,0,0,0.343874,798.933,331.576)">
		<path style="fill:#ff9900; stroke:#ff9900; stroke-width:1.73px;" d="m 760.8,1212.8 c 0.5,-1.2 1.3,-2.2 1.9,-3.3 1.1,-1.8 2.4,-3.5 3.7,-5.2 1.9,-2.5 4,-4.8 6.1,-7.2 2.5,-2.8 5.2,-5.6 7.8,-8.3 2.4,-2.6 5.1,-5 7.7,-7.4 2.8,-2.5 5.8,-4.7 8.8,-6.9 2.8,-2.1 5.9,-3.9 8.9,-5.7 3,-1.8 6.2,-3.2 9.4,-4.8 3.3,-1.6 6.7,-2.9 10,-4.2 2.9,-1.1 5.9,-2 8.9,-2.8 4.5,-1.4 9.1,-2.4 13.6,-3.3 2.4,-0.5 4.8,-0.5 7.3,-0.7 2.1,-0.1 4.3,0 6.4,0 2,0.1 4,0.3 6,0.5 2,0.3 4,0.7 6,1 2.1,0.3 4.1,0.9 6.1,1.5 2,0.5 3.9,1.3 5.8,2 1.8,0.7 3.6,1.6 5.3,2.4 1.8,0.8 3.5,1.8 5.3,2.8 1.7,0.9 3.3,2 4.9,3.1 1.4,0.9 2.7,2 4,3 1.2,0.9 2.3,2 3.5,3.1 1,0.9 1.9,2 2.9,3 0.9,0.8 1.5,1.9 2.3,2.9 0.8,1.1 1.3,2.3 1.9,3.5 0.6,1.3 1.1,2.6 1.7,3.9 0.5,1.1 0.8,2.2 1.3,3.2 0.4,1.1 0.7,2.3 1,3.4 0.3,1.1 0.6,2.3 0.8,3.4 0.3,1.1 0.5,2.2 0.7,3.2 0.2,1.1 0.5,2.1 0.7,3.2 0.2,0.8 0.3,1.6 0.5,2.4 0.1,0.6 0.3,1.1 0.4,1.6 0.2,1 0.3,2.1 0.5,3.1 0.1,1.1 0.3,2.1 0.5,3.2 l -7.3,1.6 c -0.2,-1.1 -0.4,-2.2 -0.5,-3.3 -0.1,-1 -0.2,-1.9 -0.5,-2.9 -0.1,-0.5 -0.3,-1.1 -0.4,-1.6 -0.2,-0.8 -0.3,-1.6 -0.5,-2.4 -0.2,-1.1 -0.5,-2.1 -0.7,-3.2 -0.2,-1.1 -0.4,-2.1 -0.7,-3.2 -0.3,-1.1 -0.5,-2.2 -0.8,-3.4 -0.3,-1 -0.6,-2.1 -1,-3.1 -0.4,-1.1 -0.8,-2.1 -1.2,-3.1 -0.5,-1.2 -1,-2.5 -1.6,-3.6 -0.6,-1 -1,-2.1 -1.8,-3 -0.7,-0.8 -1.3,-1.7 -2.1,-2.5 -0.9,-0.9 -1.8,-1.9 -2.8,-2.8 -1.1,-0.9 -2.2,-2 -3.3,-2.8 -1.3,-0.9 -2.6,-1.9 -3.9,-2.8 -1.6,-1 -3.1,-2 -4.7,-2.9 -1.7,-0.9 -3.4,-1.8 -5.2,-2.6 -1.7,-0.8 -3.4,-1.6 -5.2,-2.3 -1.8,-0.6 -3.7,-1.3 -5.5,-1.8 -2,-0.5 -3.9,-1 -5.9,-1.3 -2,-0.3 -3.9,-0.7 -5.9,-0.8 -1.9,-0.1 -3.9,-0.4 -5.8,-0.4 -2.1,0 -4.1,0 -6.2,0.2 -2.3,0.3 -4.7,0.4 -7,1 -2.3,0.5 -11.9,2.8 -2.1,0.4 -3,0.8 -5.9,1.6 -8.8,2.6 -3.3,1.2 -6.7,2.4 -10,3.9 -3.1,1.4 -6.3,2.8 -9.3,4.5 -3,1.7 -6,3.4 -8.8,5.4 -3,2.1 -6,4.2 -8.8,6.6 -2.6,2.3 -5.3,4.6 -7.7,7.2 -2.6,2.7 -5.3,5.4 -7.8,8.2 -2,2.3 -4.1,4.5 -6,6.9 -1.2,1.6 -2.5,3.2 -3.7,5 -0.6,1 -1.3,1.9 -1.9,3 z"/>
		<path style="fill:#ff9900; stroke:#ff9900; stroke-width:1.73px;" d="m 888.5,1192.5 c 3.3,-3.2 5.6,-1.1 8.7,-1.7 1.2,-0.1 2.3,0.3 3.4,0.5 1.2,0.3 2.3,0.9 3.4,1.4 1.3,0.6 2.4,1.4 3.6,2.2 1.1,0.7 2.1,1.5 3.2,2.2 1,0.7 1.8,1.5 2.7,2.2 0.9,0.8 1.7,1.5 2.5,2.3 0.8,0.7 1.4,1.6 2.2,2.4 0.6,0.8 1.2,1.7 1.8,2.5 0.4,0.6 0.9,1.3 1.3,1.9 0.3,0.4 0.6,0.8 0.9,1.2 0.3,0.4 0.4,1 0.6,1.4 0.1,0.3 0.2,0.7 0.3,1 0,0.1 0.1,0.3 0.1,0.4 0,0 0.1,0.1 0.1,0.2 -1.5,1.7 -4.6,0.4 -6.9,0.5 0.1,-1 0.1,-1.9 0.2,-2.9 0.1,-1.3 0.3,-2.6 0.5,-3.9 0.3,-1.6 0.7,-3.2 1,-4.8 0.4,-1.7 0.9,-3.4 1.4,-5 0.6,-1.9 1.2,-3.8 1.8,-5.6 0.5,-1.7 1.1,-3.4 1.7,-5.1 0.4,-1.5 1.3,-2.8 2,-4.1 0.6,-1 1.3,-1.9 1.9,-2.9 0.4,-0.6 0.8,-1.2 1.2,-1.8 0.2,-0.3 0.5,-0.7 0.7,-1.1 0.1,-0.2 0.3,-0.4 0.4,-0.7 0.1,-0.1 0.2,-0.3 0.3,-0.4 0,0 0,0 0,0 l 7.4,0.8 c -0,0 -0,0 -0,0 -0.1,0.1 -0.2,0.3 -0.3,0.4 -0.1,0.2 -0.3,0.4 -0.4,0.7 -0.2,0.3 -0.5,0.7 -0.7,1.1 -0.4,0.6 -0.8,1.2 -1.2,1.8 -0.6,0.9 -1.3,1.8 -1.9,2.8 -0.6,1.2 -1.5,2.2 -1.9,3.5 -0.6,1.6 -1.2,3.3 -1.7,5 -0.6,1.9 -1.2,3.7 -1.8,5.6 -0.5,1.6 -1,3.2 -1.4,4.9 -0.4,1.5 -0.8,3.1 -1.1,4.6 -0.2,1.2 -0.5,2.4 -0.5,3.6 -0.1,1 -0.2,1.9 -0.2,2.9 -1.4,0.6 4.9,15.9 -7.4,3.1 -0.1,-0.2 -0.2,-0.4 -0.3,-0.6 -0.1,-0.3 -0.2,-0.5 -0.2,-0.7 -0.1,-0.3 -0.2,-0.6 -0.3,-0.9 -0.1,-0.3 -0.2,-0.5 -0.4,-0.8 -0.3,-0.4 -0.5,-0.8 -0.8,-1.1 -0.4,-0.6 -0.9,-1.3 -1.3,-1.9 -0.6,-0.8 -1.1,-1.6 -1.7,-2.3 -0.7,-0.7 -1.2,-1.4 -2,-2 -0.8,-0.7 -1.6,-1.5 -2.4,-2.2 -0.9,-0.7 -1.7,-1.4 -2.6,-1.9 -1,-0.7 -2,-1.4 -3.1,-2.1 -1.1,-0.6 -2.2,-1.4 -3.4,-1.8 -1,-0.3 -1.9,-0.8 -2.9,-0.8 -1,0 -2,-0.1 -2.9,0 1.1,-0.3 2.1,-0.7 3.2,-0.9 z"/>
	</g>
	<text x="975.7" y="720.1" style="font-family:'Trebuchet MS'; fill:#ff9900;">1</text>
	<g style="fill:#ff9900; stroke:#ff9900;" transform="matrix(0.213914,0,0,0.343874,835.643,331.576)">
		<path style="fill:#ff9900; stroke:#ff9900; stroke-width:1.73px;" d="m 760.8,1212.8 c 0.5,-1.2 1.3,-2.2 1.9,-3.3 1.1,-1.8 2.4,-3.5 3.7,-5.2 1.9,-2.5 4,-4.8 6.1,-7.2 2.5,-2.8 5.2,-5.6 7.8,-8.3 2.4,-2.6 5.1,-5 7.7,-7.4 2.8,-2.5 5.8,-4.7 8.8,-6.9 2.8,-2.1 5.9,-3.9 8.9,-5.7 3,-1.8 6.2,-3.2 9.4,-4.8 3.3,-1.6 6.7,-2.9 10,-4.2 2.9,-1.1 5.9,-2 8.9,-2.8 4.5,-1.4 9.1,-2.4 13.6,-3.3 2.4,-0.5 4.8,-0.5 7.3,-0.7 2.1,-0.1 4.3,0 6.4,0 2,0.1 4,0.3 6,0.5 2,0.3 4,0.7 6,1 2.1,0.3 4.1,0.9 6.1,1.5 2,0.5 3.9,1.3 5.8,2 1.8,0.7 3.6,1.6 5.3,2.4 1.8,0.8 3.5,1.8 5.3,2.8 1.7,0.9 3.3,2 4.9,3.1 1.4,0.9 2.7,2 4,3 1.2,0.9 2.3,2 3.5,3.1 1,0.9 1.9,2 2.9,3 0.9,0.8 1.5,1.9 2.3,2.9 0.8,1.1 1.3,2.3 1.9,3.5 0.6,1.3 1.1,2.6 1.7,3.9 0.5,1.1 0.8,2.2 1.3,3.2 0.4,1.1 0.7,2.3 1,3.4 0.3,1.1 0.6,2.3 0.8,3.4 0.3,1.1 0.5,2.2 0.7,3.2 0.2,1.1 0.5,2.1 0.7,3.2 0.2,0.8 0.3,1.6 0.5,2.4 0.1,0.6 0.3,1.1 0.4,1.6 0.2,1 0.3,2.1 0.5,3.1 0.1,1.1 0.3,2.1 0.5,3.2 l -7.3,1.6 c -0.2,-1.1 -0.4,-2.2 -0.5,-3.3 -0.1,-1 -0.2,-1.9 -0.5,-2.9 -0.1,-0.5 -0.3,-1.1 -0.4,-1.6 -0.2,-0.8 -0.3,-1.6 -0.5,-2.4 -0.2,-1.1 -0.5,-2.1 -0.7,-3.2 -0.2,-1.1 -0.4,-2.1 -0.7,-3.2 -0.3,-1.1 -0.5,-2.2 -0.8,-3.4 -0.3,-1 -0.6,-2.1 -1,-3.1 -0.4,-1.1 -0.8,-2.1 -1.2,-3.1 -0.5,-1.2 -1,-2.5 -1.6,-3.6 -0.6,-1 -1,-2.1 -1.8,-3 -0.7,-0.8 -1.3,-1.7 -2.1,-2.5 -0.9,-0.9 -1.8,-1.9 -2.8,-2.8 -1.1,-0.9 -2.2,-2 -3.3,-2.8 -1.3,-0.9 -2.6,-1.9 -3.9,-2.8 -1.6,-1 -3.1,-2 -4.7,-2.9 -1.7,-0.9 -3.4,-1.8 -5.2,-2.6 -1.7,-0.8 -3.4,-1.6 -5.2,-2.3 -1.8,-0.6 -3.7,-1.3 -5.5,-1.8 -2,-0.5 -3.9,-1 -5.9,-1.3 -2,-0.3 -3.9,-0.7 -5.9,-0.8 -1.9,-0.1 -3.9,-0.4 -5.8,-0.4 -2.1,0 -4.1,0 -6.2,0.2 -2.3,0.3 -4.7,0.4 -7,1 -2.3,0.5 -11.9,2.8 -2.1,0.4 -3,0.8 -5.9,1.6 -8.8,2.6 -3.3,1.2 -6.7,2.4 -10,3.9 -3.1,1.4 -6.3,2.8 -9.3,4.5 -3,1.7 -6,3.4 -8.8,5.4 -3,2.1 -6,4.2 -8.8,6.6 -2.6,2.3 -5.3,4.6 -7.7,7.2 -2.6,2.7 -5.3,5.4 -7.8,8.2 -2,2.3 -4.1,4.5 -6,6.9 -1.2,1.6 -2.5,3.2 -3.7,5 -0.6,1 -1.3,1.9 -1.9,3 z"/>
		<path style="fill:#ff9900; stroke:#ff9900; stroke-width:1.73px;" d="m 888.5,1192.5 c 3.3,-3.2 5.6,-1.1 8.7,-1.7 1.2,-0.1 2.3,0.3 3.4,0.5 1.2,0.3 2.3,0.9 3.4,1.4 1.3,0.6 2.4,1.4 3.6,2.2 1.1,0.7 2.1,1.5 3.2,2.2 1,0.7 1.8,1.5 2.7,2.2 0.9,0.8 1.7,1.5 2.5,2.3 0.8,0.7 1.4,1.6 2.2,2.4 0.6,0.8 1.2,1.7 1.8,2.5 0.4,0.6 0.9,1.3 1.3,1.9 0.3,0.4 0.6,0.8 0.9,1.2 0.3,0.4 0.4,1 0.6,1.4 0.1,0.3 0.2,0.7 0.3,1 0,0.1 0.1,0.3 0.1,0.4 0,0 0.1,0.1 0.1,0.2 -1.5,1.7 -4.6,0.4 -6.9,0.5 0.1,-1 0.1,-1.9 0.2,-2.9 0.1,-1.3 0.3,-2.6 0.5,-3.9 0.3,-1.6 0.7,-3.2 1,-4.8 0.4,-1.7 0.9,-3.4 1.4,-5 0.6,-1.9 1.2,-3.8 1.8,-5.6 0.5,-1.7 1.1,-3.4 1.7,-5.1 0.4,-1.5 1.3,-2.8 2,-4.1 0.6,-1 1.3,-1.9 1.9,-2.9 0.4,-0.6 0.8,-1.2 1.2,-1.8 0.2,-0.3 0.5,-0.7 0.7,-1.1 0.1,-0.2 0.3,-0.4 0.4,-0.7 0.1,-0.1 0.2,-0.3 0.3,-0.4 0,0 0,0 0,0 l 7.4,0.8 c -0,0 -0,0 -0,0 -0.1,0.1 -0.2,0.3 -0.3,0.4 -0.1,0.2 -0.3,0.4 -0.4,0.7 -0.2,0.3 -0.5,0.7 -0.7,1.1 -0.4,0.6 -0.8,1.2 -1.2,1.8 -0.6,0.9 -1.3,1.8 -1.9,2.8 -0.6,1.2 -1.5,2.2 -1.9,3.5 -0.6,1.6 -1.2,3.3 -1.7,5 -0.6,1.9 -1.2,3.7 -1.8,5.6 -0.5,1.6 -1,3.2 -1.4,4.9 -0.4,1.5 -0.8,3.1 -1.1,4.6 -0.2,1.2 -0.5,2.4 -0.5,3.6 -0.1,1 -0.2,1.9 -0.2,2.9 -1.4,0.6 4.9,15.9 -7.4,3.1 -0.1,-0.2 -0.2,-0.4 -0.3,-0.6 -0.1,-0.3 -0.2,-0.5 -0.2,-0.7 -0.1,-0.3 -0.2,-0.6 -0.3,-0.9 -0.1,-0.3 -0.2,-0.5 -0.4,-0.8 -0.3,-0.4 -0.5,-0.8 -0.8,-1.1 -0.4,-0.6 -0.9,-1.3 -1.3,-1.9 -0.6,-0.8 -1.1,-1.6 -1.7,-2.3 -0.7,-0.7 -1.2,-1.4 -2,-2 -0.8,-0.7 -1.6,-1.5 -2.4,-2.2 -0.9,-0.7 -1.7,-1.4 -2.6,-1.9 -1,-0.7 -2,-1.4 -3.1,-2.1 -1.1,-0.6 -2.2,-1.4 -3.4,-1.8 -1,-0.3 -1.9,-0.8 -2.9,-0.8 -1,0 -2,-0.1 -2.9,0 1.1,-0.3 2.1,-0.7 3.2,-0.9 z"/>
	</g>
	<g style="fill:#ff9900; stroke:#ff9900;" transform="matrix(0.213914,0,0,0.343874,872.353,331.576)">
		<path style="fill:#ff9900; stroke:#ff9900; stroke-width:1.73px;" d="m 760.8,1212.8 c 0.5,-1.2 1.3,-2.2 1.9,-3.3 1.1,-1.8 2.4,-3.5 3.7,-5.2 1.9,-2.5 4,-4.8 6.1,-7.2 2.5,-2.8 5.2,-5.6 7.8,-8.3 2.4,-2.6 5.1,-5 7.7,-7.4 2.8,-2.5 5.8,-4.7 8.8,-6.9 2.8,-2.1 5.9,-3.9 8.9,-5.7 3,-1.8 6.2,-3.2 9.4,-4.8 3.3,-1.6 6.7,-2.9 10,-4.2 2.9,-1.1 5.9,-2 8.9,-2.8 4.5,-1.4 9.1,-2.4 13.6,-3.3 2.4,-0.5 4.8,-0.5 7.3,-0.7 2.1,-0.1 4.3,0 6.4,0 2,0.1 4,0.3 6,0.5 2,0.3 4,0.7 6,1 2.1,0.3 4.1,0.9 6.1,1.5 2,0.5 3.9,1.3 5.8,2 1.8,0.7 3.6,1.6 5.3,2.4 1.8,0.8 3.5,1.8 5.3,2.8 1.7,0.9 3.3,2 4.9,3.1 1.4,0.9 2.7,2 4,3 1.2,0.9 2.3,2 3.5,3.1 1,0.9 1.9,2 2.9,3 0.9,0.8 1.5,1.9 2.3,2.9 0.8,1.1 1.3,2.3 1.9,3.5 0.6,1.3 1.1,2.6 1.7,3.9 0.5,1.1 0.8,2.2 1.3,3.2 0.4,1.1 0.7,2.3 1,3.4 0.3,1.1 0.6,2.3 0.8,3.4 0.3,1.1 0.5,2.2 0.7,3.2 0.2,1.1 0.5,2.1 0.7,3.2 0.2,0.8 0.3,1.6 0.5,2.4 0.1,0.6 0.3,1.1 0.4,1.6 0.2,1 0.3,2.1 0.5,3.1 0.1,1.1 0.3,2.1 0.5,3.2 l -7.3,1.6 c -0.2,-1.1 -0.4,-2.2 -0.5,-3.3 -0.1,-1 -0.2,-1.9 -0.5,-2.9 -0.1,-0.5 -0.3,-1.1 -0.4,-1.6 -0.2,-0.8 -0.3,-1.6 -0.5,-2.4 -0.2,-1.1 -0.5,-2.1 -0.7,-3.2 -0.2,-1.1 -0.4,-2.1 -0.7,-3.2 -0.3,-1.1 -0.5,-2.2 -0.8,-3.4 -0.3,-1 -0.6,-2.1 -1,-3.1 -0.4,-1.1 -0.8,-2.1 -1.2,-3.1 -0.5,-1.2 -1,-2.5 -1.6,-3.6 -0.6,-1 -1,-2.1 -1.8,-3 -0.7,-0.8 -1.3,-1.7 -2.1,-2.5 -0.9,-0.9 -1.8,-1.9 -2.8,-2.8 -1.1,-0.9 -2.2,-2 -3.3,-2.8 -1.3,-0.9 -2.6,-1.9 -3.9,-2.8 -1.6,-1 -3.1,-2 -4.7,-2.9 -1.7,-0.9 -3.4,-1.8 -5.2,-2.6 -1.7,-0.8 -3.4,-1.6 -5.2,-2.3 -1.8,-0.6 -3.7,-1.3 -5.5,-1.8 -2,-0.5 -3.9,-1 -5.9,-1.3 -2,-0.3 -3.9,-0.7 -5.9,-0.8 -1.9,-0.1 -3.9,-0.4 -5.8,-0.4 -2.1,0 -4.1,0 -6.2,0.2 -2.3,0.3 -4.7,0.4 -7,1 -2.3,0.5 -11.9,2.8 -2.1,0.4 -3,0.8 -5.9,1.6 -8.8,2.6 -3.3,1.2 -6.7,2.4 -10,3.9 -3.1,1.4 -6.3,2.8 -9.3,4.5 -3,1.7 -6,3.4 -8.8,5.4 -3,2.1 -6,4.2 -8.8,6.6 -2.6,2.3 -5.3,4.6 -7.7,7.2 -2.6,2.7 -5.3,5.4 -7.8,8.2 -2,2.3 -4.1,4.5 -6,6.9 -1.2,1.6 -2.5,3.2 -3.7,5 -0.6,1 -1.3,1.9 -1.9,3 z"/>
		<path style="fill:#ff9900; stroke:#ff9900; stroke-width:1.73px;" d="m 888.5,1192.5 c 3.3,-3.2 5.6,-1.1 8.7,-1.7 1.2,-0.1 2.3,0.3 3.4,0.5 1.2,0.3 2.3,0.9 3.4,1.4 1.3,0.6 2.4,1.4 3.6,2.2 1.1,0.7 2.1,1.5 3.2,2.2 1,0.7 1.8,1.5 2.7,2.2 0.9,0.8 1.7,1.5 2.5,2.3 0.8,0.7 1.4,1.6 2.2,2.4 0.6,0.8 1.2,1.7 1.8,2.5 0.4,0.6 0.9,1.3 1.3,1.9 0.3,0.4 0.6,0.8 0.9,1.2 0.3,0.4 0.4,1 0.6,1.4 0.1,0.3 0.2,0.7 0.3,1 0,0.1 0.1,0.3 0.1,0.4 0,0 0.1,0.1 0.1,0.2 -1.5,1.7 -4.6,0.4 -6.9,0.5 0.1,-1 0.1,-1.9 0.2,-2.9 0.1,-1.3 0.3,-2.6 0.5,-3.9 0.3,-1.6 0.7,-3.2 1,-4.8 0.4,-1.7 0.9,-3.4 1.4,-5 0.6,-1.9 1.2,-3.8 1.8,-5.6 0.5,-1.7 1.1,-3.4 1.7,-5.1 0.4,-1.5 1.3,-2.8 2,-4.1 0.6,-1 1.3,-1.9 1.9,-2.9 0.4,-0.6 0.8,-1.2 1.2,-1.8 0.2,-0.3 0.5,-0.7 0.7,-1.1 0.1,-0.2 0.3,-0.4 0.4,-0.7 0.1,-0.1 0.2,-0.3 0.3,-0.4 0,0 0,0 0,0 l 7.4,0.8 c -0,0 -0,0 -0,0 -0.1,0.1 -0.2,0.3 -0.3,0.4 -0.1,0.2 -0.3,0.4 -0.4,0.7 -0.2,0.3 -0.5,0.7 -0.7,1.1 -0.4,0.6 -0.8,1.2 -1.2,1.8 -0.6,0.9 -1.3,1.8 -1.9,2.8 -0.6,1.2 -1.5,2.2 -1.9,3.5 -0.6,1.6 -1.2,3.3 -1.7,5 -0.6,1.9 -1.2,3.7 -1.8,5.6 -0.5,1.6 -1,3.2 -1.4,4.9 -0.4,1.5 -0.8,3.1 -1.1,4.6 -0.2,1.2 -0.5,2.4 -0.5,3.6 -0.1,1 -0.2,1.9 -0.2,2.9 -1.4,0.6 4.9,15.9 -7.4,3.1 -0.1,-0.2 -0.2,-0.4 -0.3,-0.6 -0.1,-0.3 -0.2,-0.5 -0.2,-0.7 -0.1,-0.3 -0.2,-0.6 -0.3,-0.9 -0.1,-0.3 -0.2,-0.5 -0.4,-0.8 -0.3,-0.4 -0.5,-0.8 -0.8,-1.1 -0.4,-0.6 -0.9,-1.3 -1.3,-1.9 -0.6,-0.8 -1.1,-1.6 -1.7,-2.3 -0.7,-0.7 -1.2,-1.4 -2,-2 -0.8,-0.7 -1.6,-1.5 -2.4,-2.2 -0.9,-0.7 -1.7,-1.4 -2.6,-1.9 -1,-0.7 -2,-1.4 -3.1,-2.1 -1.1,-0.6 -2.2,-1.4 -3.4,-1.8 -1,-0.3 -1.9,-0.8 -2.9,-0.8 -1,0 -2,-0.1 -2.9,0 1.1,-0.3 2.1,-0.7 3.2,-0.9 z"/>
	</g>
	<path style="fill:#fce94f; stroke:#3465a4; stroke-width:1px;" d="m 1005.6,773.6 a 7.4,7.4 0 0 1 -7.3,7.4 7.4,7.4 0 0 1 -7.5,-7.3 7.4,7.4 0 0 1 7.2,-7.5 7.4,7.4 0 0 1 7.6,7.2" sodipodi:type="arc" sodipodi:cx="998.238" sodipodi:cy="773.661" sodipodi:rx="7.4009" sodipodi:ry="7.4009" sodipodi:start="6.27793" sodipodi:end="6.25535"/>
	<path style="fill:#fce94f; stroke:#3465a4; stroke-width:1px;" d="m 1041.2,773.6 a 7.4,7.4 0 0 1 -7.3,7.4 7.4,7.4 0 0 1 -7.5,-7.3 7.4,7.4 0 0 1 7.2,-7.5 7.4,7.4 0 0 1 7.6,7.2" sodipodi:type="arc" sodipodi:cx="1033.83" sodipodi:cy="773.661" sodipodi:rx="7.4009" sodipodi:ry="7.4009" sodipodi:start="6.27793" sodipodi:end="6.25535"/>
	<path style="fill:#fce94f; stroke:#3465a4; stroke-width:1px;" d="m 1076.8,773.6 a 7.4,7.4 0 0 1 -7.3,7.4 7.4,7.4 0 0 1 -7.5,-7.3 7.4,7.4 0 0 1 7.2,-7.5 7.4,7.4 0 0 1 7.6,7.2" sodipodi:type="arc" sodipodi:cx="1069.41" sodipodi:cy="773.661" sodipodi:rx="7.4009" sodipodi:ry="7.4009" sodipodi:start="6.27793" sodipodi:end="6.25535"/>
	<text x="1010.8" y="720" style="font-family:'Trebuchet MS'; fill:#ff9900;">2</text>
	<text x="1047.8" y="719.7" style="font-family:'Trebuchet MS'; fill:#ff9900;">3</text>
</g>
</svg>
