<?xml version="1.0" encoding="UTF-8" standalone="no"?>
<!-- Copyright 2017 mathsisfun.com -->
<svg xmlns="http://www.w3.org/2000/svg" width="174" height="203.7" version="1.1">
<defs>
</defs>
<g transform="translate(-119.02,65.0766)">
<text x="172.9" y="-44.8" style="font-family:'Comic Sans MS'; font-size:26.7px; color:black; overflow:visible; fill:#75507b; stroke-width:0.24px;">14 + 5</text>
<text x="147.4" y="12" style="font-family:'Comic Sans MS'; font-size:26.7px; color:black; overflow:visible; fill:#75507b; stroke-width:0.24px;">10 + 4</text>
<text x="247.6" y="10.7" style="font-family:'Comic Sans MS'; font-size:26.7px; color:black; overflow:visible; fill:#75507b; stroke-width:0.24px;">+ 5</text>
<text x="180.8" y="75.3" style="font-family:'Comic Sans MS'; font-size:26.7px; color:black; overflow:visible; fill:#75507b; stroke-width:0.24px;">10 + 9</text>
<path d="m 219.1,16.2 c 4,7.5 11.3,12.1 18.9,15.3 5.5,1.7 10.8,7.7 9.4,13.2 -5.2,2.5 -1.8,-6.2 -5.8,-7.7 -7.8,-5.4 -18.2,-7.6 -23.3,-16.4 -2.6,-3.4 -2.7,-3.1 0.9,-4.4 z" style="color:black; overflow:visible; fill:#729fcf; stroke-width:1.6;"/>
<path d="m 239.8,40.5 c 3.5,1 9.5,6.9 4.1,5.3 2.4,-2.8 4.3,-8.8 8.9,-6.5 -2.5,2.5 -9.1,10.7 -9,8.2 -1.6,-3.8 -9.2,-4 -4,-7 z" style="color:black; overflow:visible; fill:#729fcf; stroke-width:1.6;"/>
<path d="m 275.9,16.9 c -6,8.1 -17,7.6 -24.8,12.7 -2.9,2.8 -4.4,6.9 -4.2,10.9 -4.1,1.6 -3.7,-2.1 -2.6,-5 1.4,-5.9 6.7,-9.6 12.4,-10.8 6.4,-1 12.1,-5.4 17.1,-8.1 0.7,0.1 1.4,0.2 2,0.3 z" style="color:black; overflow:visible; fill:#729fcf; stroke-width:1.6;"/>
<text x="202" y="137.4" style="font-family:'Comic Sans MS'; font-size:26.7px; color:black; overflow:visible; fill:#75507b; stroke-width:0.24px;">19</text>
<path d="m 191.8,81.2 c 0.4,7.6 8.9,8.2 14.3,10.5 6.5,2.4 12.5,7.5 12.8,14.9 -0.2,1.9 -4.7,1.7 -3.5,-1.3 -1.7,-8.6 -11.2,-11.6 -18.5,-13.8 -4.1,-0 -12.1,-9.5 -5.6,-10.2 l 0.4,-0 z" style="color:black; overflow:visible; fill:#729fcf; stroke-width:1.6;"/>
<path d="m 212.2,101.9 c 2.4,1.4 9,8.7 3.1,7.5 3.2,-2.5 5.6,-9.5 10.6,-6.9 -3.7,1.4 -8.3,12.6 -11.6,6.6 -0.7,-4.1 -7.6,-4.8 -2.1,-7.2 z" style="color:black; overflow:visible; fill:#729fcf; stroke-width:1.6;"/>
<path d="m 247.3,80.4 c -4.8,9.1 -16.2,9.5 -23.4,15.6 -4.7,1.3 -4.5,6.7 -6.7,8.5 -5.3,-0.5 1.4,-9.2 4.9,-10.3 6.7,-5.7 17.2,-6 21.9,-14.1 1.1,0 2.2,0.2 3.2,0.3 z" style="color:black; overflow:visible; fill:#729fcf; stroke-width:1.6;"/>
<text x="123.8" y="-34.1" style="font-family:'Comic Sans MS'; font-size:16.9px; color:black; overflow:visible; fill:#c17d11; stroke-width:0.24px;">Split</text>
<text x="261.6" y="38.9" style="font-family:'Comic Sans MS'; font-size:16.9px; color:black; overflow:visible; fill:#729fcf; stroke-width:0.24px;">Add</text>
<text x="236.7" y="104.2" style="font-family:'Comic Sans MS'; font-size:16.9px; color:black; overflow:visible; fill:#729fcf; stroke-width:0.24px;">Add</text>
<g transform="matrix(0.799271,0,0,1,29.1451,0)">
<path d="m 198.4,-37.4 c -3.1,9.5 -14.3,10.3 -22.6,11.5 -8,1.3 -16.8,0.1 -23.4,4.7 -1.4,2.3 -7,10.8 -6.3,4.8 2.2,-7.1 9.7,-9.6 16.3,-10.3 9.6,-1.7 20,-0.6 28.8,-5.2 3.3,-1.5 3,-7.1 7.2,-5.5 z" style="color:black; overflow:visible; opacity:0.63; fill:#c17d11; stroke-width:1.52;"/>
<path d="m 195.2,-37.4 c 3.1,9.5 14.3,10.3 22.6,11.5 8,1.3 16.8,0.1 23.4,4.7 1.4,2.3 7,10.8 6.3,4.8 -2.2,-7.1 -9.7,-9.6 -16.3,-10.3 -9.6,-1.7 -20,-0.6 -28.8,-5.2 -3.3,-1.5 -3,-7.1 -7.2,-5.5 z" style="color:black; overflow:visible; opacity:0.63; fill:#c17d11; stroke-width:1.52;"/>
</g>
<path d="m 242.6,-38.9 c 4.5,5.5 12.7,8.8 21.2,11.1 6.2,1.3 12.1,5.6 10.5,9.6 -5.9,1.9 -2,-4.5 -6.6,-5.6 -8.8,-3.9 -20.5,-5.6 -26.2,-11.9 -2.9,-2.5 -3.1,-2.3 1,-3.2 z" style="color:black; overflow:visible; fill:#729fcf; stroke-width:1.45;"/>
<path d="m 266.8,-20.3 c 3.6,-0.6 11.5,2.2 6,3 1,-3.6 0.1,-9.8 5.3,-9.7 -1.2,3.3 -3.6,13.5 -4.7,11.2 -3,-2.7 -10.1,0.3 -6.6,-4.6 z" style="color:black; overflow:visible; fill:#729fcf; stroke-width:1.6;"/>
<path d="m 169.1,17.7 c 2.7,6.5 9.6,12.1 17.2,16.7 5.6,3 10,8.8 7.4,12.2 -6.2,0.1 -0.7,-4.9 -4.7,-7.2 -7.3,-6.2 -18,-11.1 -21.7,-18.9 -2.1,-3.2 -2.3,-3.1 1.8,-2.8 z" style="color:black; overflow:visible; fill:#729fcf; stroke-width:1.45;"/>
<path d="m 187,42.4 c 3.6,0.4 10.4,5.3 4.9,4.6 1.9,-3.1 2.9,-9.4 7.8,-7.8 -2.1,2.8 -7.3,11.9 -7.7,9.5 -2.1,-3.5 -9.7,-2.6 -5,-6.3 z" style="color:black; overflow:visible; fill:#729fcf; stroke-width:1.6;"/>
</g>
</svg>
