<?xml version="1.0" encoding="UTF-8" standalone="no"?>
<!-- Copyright 2017 mathsisfun.com -->
<svg xmlns="http://www.w3.org/2000/svg" width="194.5" height="223.9" version="1.1">
<defs/>
<rect x="-0" y="169.3" ry="6.3" width="194.5" height="54.6" style="color:black; fill:#fefbdc;"/>
<path style="color:black; fill:#f57900;" d="m 40.4,50.1 c -0.6,1.1 2.1,-4.3 4.4,-3.7 3.4,-1.6 8.7,-3.2 11.3,0.7 2.7,5.4 -0.7,12.1 -5.3,15.4 -3.7,2.4 -7.6,4.8 -11.9,6.1 4.1,-1.8 -3.6,-4.7 1,-4.4 5.2,-1.7 11,-2 16.3,-0.5 3.1,0.2 0.4,2.9 0.1,4.6 -3.3,-1.6 -7,-1 -10.5,-1.1 -2.9,0.5 -10,3.9 -9.6,-1.5 C 39.3,63.4 43.6,62.9 46.6,60.3 50.2,58.2 53.6,54.1 52.9,49.7 50.3,48 47.1,50.5 44.6,51.4 43.6,50.5 45.6,50.2 44,51.1 42.8,50.8 41.5,50.1 40.4,50.1 Z"/>
<path style="color:black; fill:#edd400;" d="m 29.5,77.6 c -1.7,0.4 4.9,-1.7 6.2,-1.6 9.2,-1.1 18.6,-2 27.9,-1.2 3.8,-0.8 2.5,2.1 2.2,4.3 -2,0.6 -5.3,-0.5 -7.9,-0.2 -8,-0 -15.9,0.5 -23.8,2 -3.1,1.6 -5.1,1.9 -4.3,-2 -0,-0.5 0.2,-1 -0.3,-1.3 z"/>
<path style="color:black; fill:#005c94;" d="m 46.9,86.6 c -1.1,2.9 -3.2,6 -4.4,9.2 -1.3,1.8 -2.7,7.9 -3.7,2.9 -1.7,-1.2 4.9,-2.8 7.1,-2.2 5.5,0.9 8.2,7.9 5.1,12.4 -2.8,4.4 -8.1,8.5 -13.5,6.7 -2.2,-0.6 -4.1,-1.5 -2.1,-3.7 0.9,-3.5 4.8,1.6 7.3,-0.6 2.7,-1.7 6.8,-4.9 5.3,-8.5 -1.2,-3.2 -5.3,-2.2 -7.4,-0.7 -6,3 -4.9,-4.8 -2,-7.5 1.2,-2.3 3.4,-9.1 4.4,-8.1 1.1,0 3.4,-0.1 3.8,0.1 z"/>
<path style="color:black; fill:#005c94;" d="m 45.7,87.9 c -3,-3.5 1.9,-1.2 4.3,-1.7 2.4,-0 4.9,0.1 7.3,-0.3 -0.2,1.4 2,4.5 -0.3,4.3 -4.7,0.3 -9.6,0.6 -14.2,-0.6 -3.3,-2.5 1,-2.1 2.9,-2 0.2,-0 0,0.2 0,0.3 z"/>
<path style="color:black; fill:#edd400;" d="m 77.5,76.3 c 2.3,-1.1 5.1,-0.5 7.6,-0.8 7.5,-0 15.1,-0.8 22.5,0.9 2.7,-0.7 0.8,4 -0.1,4.3 -7.1,-1.8 -14.5,-1.3 -21.7,-1.1 -1.3,-0.3 -7.1,0.9 -5,-0.2 -1,-1 -2.6,-2.2 -3.3,-3.1 z"/>
<path style="color:black; fill:#f57900;" d="m 125.3,50.5 c 0.5,-2.2 3,-3.2 4.2,-5 2.1,-3.5 7,-1.1 5.3,2.7 -1.4,7.4 -1.3,15 -3.1,22.3 0.5,3.2 -1.7,2.1 -3.6,1.5 -2.3,-0.9 0.9,-5.1 0.4,-7 0.6,-6.2 1.2,-12.4 2.1,-18.6 1.5,2.3 4.4,0.4 1.4,2.9 -1.6,1.5 -3,3.9 -3.2,1.6 -0.8,-0.3 -3.9,0.5 -3.5,-0.4 z"/>
<path style="color:black; fill:#edd400;" d="m 117.3,74.8 c 8.2,-0.4 16.5,-0.4 24.7,0.9 2.4,0.5 7.7,-0.8 5.8,3.1 0.1,3.9 -5.7,0 -7.9,0.9 -7.5,-1.1 -15.2,-1.1 -22.8,-0.7 0.1,-1.2 -0.3,-3.5 0.2,-4.2 z"/>
<path style="color:black; fill:#005c94;" d="m 128.2,87.5 c -2.1,5 -3.4,10.3 -5.6,15.3 1.5,-3.4 -5.5,-2 -1.2,-4.1 4.6,-3.4 12.7,-2.9 15.1,3 2.3,5.1 -2.4,10.3 -7.1,11.8 -4.1,1.7 -8.9,2.7 -12.9,0.1 -1.4,-0.3 0.9,-4.2 1.8,-3.8 4.3,2.5 9.4,0.2 13,-2.5 2.5,-1.9 1.3,-5.8 -1.5,-6.4 -3,-0.6 -5.9,0.7 -8,2.7 -6.7,0.7 -0.7,-7.2 -0.1,-10.5 1.6,-1.8 1.5,-8.4 3.8,-7.7 0.8,0.6 2,1.7 2.7,2.1 z"/>
<path style="color:black; fill:#005c94;" d="m 124.8,88.8 c 4.5,-0.8 -1.6,-5.2 2.8,-4.1 4,0 8,0 11.9,0 -0.3,1.3 1,4 -0.3,4.3 -5.1,-0.1 -10.2,0.3 -15.3,-0.2 -4,-1.5 1.4,-6.7 0.6,-1.8 0.2,0.5 -0.2,1.7 0.3,1.8 z"/>
<path style="color:black; fill:#edd400;" d="m 97.8,60.4 c -1.3,8.9 -1.5,18 -3.8,26.8 -0.4,3.2 -0.5,7.2 -4.5,5.4 C 87.2,90.8 90.9,84.8 90.8,81.7 c 1.5,-6.9 1.7,-13.9 2.5,-20.9 -0.3,-1.4 1.9,0.6 3.6,-0.1 0.2,-0.1 1.1,0.3 0.9,-0.2 z"/>
<text x="75.4" y="158.9" style="font-family:'Comic Sans MS'; font-size:17.3px; font-style:italic; color:black; fill:#005c94;">denominators</text>
<g transform="matrix(0.15143,0,0,0.15143,67.12,96.46)">
<path style="color:black; fill:#005c94;" d="m 159.9,314.6 c -6.6,0.3 -21.9,2.7 -11.3,-8.3 18.8,-22.9 38.8,-48.1 67.6,-58.4 23,-7.7 43.5,20.3 65.6,6.7 30.5,-17 53.5,-44.1 77.1,-69.3 12.7,7.1 10.5,15 -0.9,23.2 -22.8,23.2 -45.3,48.9 -75.7,62 -21,10.5 -39.9,-9.1 -60.5,-8.8 -25.8,8.9 -43.4,31.9 -60.4,52.2 0.1,3.4 -9.9,-1.1 -16.3,0.3 4.7,0.2 11,-0.4 14.8,0.3 z"/>
<path style="color:black; fill:#005c94;" d="m 306.5,196 c 10.8,2.5 -8.9,-0.8 6.5,-2.3 16.9,-5.4 32,-16.8 49.9,-18.4 17.7,8 15,31.6 16.9,47.8 0.2,7.3 0,14.6 0.1,21.9 -5,-2 -17.3,2.8 -15,-6 -0,-16.5 0.4,-33.5 -5.8,-49 -4.7,3.3 -22.8,9.8 -32.3,14.6 -12.1,3.2 -28,13.6 -20.2,-0.4 -0,-2.7 0.1,-5.5 -0.1,-8.2 z"/>
</g>
<g transform="matrix(-0.14313,-0.049437,-0.049437,0.14313,109.29,115.41)">
<path style="color:black; fill:#005c94;" d="m 159.9,314.6 c -6.6,0.3 -21.9,2.7 -11.3,-8.3 18.8,-22.9 38.8,-48.1 67.6,-58.4 23,-7.7 43.5,20.3 65.6,6.7 30.5,-17 53.5,-44.1 77.1,-69.3 12.7,7.1 10.5,15 -0.9,23.2 -22.8,23.2 -45.3,48.9 -75.7,62 -21,10.5 -39.9,-9.1 -60.5,-8.8 -25.8,8.9 -43.4,31.9 -60.4,52.2 0.1,3.4 -9.9,-1.1 -16.3,0.3 4.7,0.2 11,-0.4 14.8,0.3 z"/>
<path style="color:black; fill:#005c94;" d="m 306.5,196 c 10.8,2.5 -8.9,-0.8 6.5,-2.3 16.9,-5.4 32,-16.8 49.9,-18.4 17.7,8 15,31.6 16.9,47.8 0.2,7.3 0,14.6 0.1,21.9 -5,-2 -17.3,2.8 -15,-6 -0,-16.5 0.4,-33.5 -5.8,-49 -4.7,3.3 -22.8,9.8 -32.3,14.6 -12.1,3.2 -28,13.6 -20.2,-0.4 -0,-2.7 0.1,-5.5 -0.1,-8.2 z"/>
</g>
<text x="2.2" y="11.2" style="font-family:'Comic Sans MS'; font-size:17.3px; font-style:italic; color:black; fill:#f57900;">numerators</text>
<g transform="matrix(-0.15143,0,0,-0.15143,112.88,63.62)">
<path style="color:black; fill:#f57900;" d="m 159.9,314.6 c -3.7,-1 -16.2,3.3 -14.4,-2.7 11.7,-19.4 28.5,-35.6 45.7,-50.2 13.8,-11.9 33.3,-19.8 50.9,-11.3 17.1,11.2 38.3,9.7 53.4,-4.1 23.7,-17.5 43.6,-39.3 63.4,-60.9 8.1,6.2 15.8,12.4 2.5,19.5 -23,23.9 -45.9,49.8 -76.2,64.6 -16.6,8.7 -34.5,1 -50.1,-5.9 -20.7,-7.4 -37.6,12.2 -51.2,24.7 -10.4,6.1 -20,30.2 -27,26.2 -3.9,0.1 -18.3,-0.1 -6.5,-0.2 2.9,0.2 7.6,-0.3 9.5,0.3 z"/>
<path style="color:black; fill:#f57900;" d="m 306.5,196 c 10.3,2.5 -8.5,-0.7 6.5,-2.3 16.9,-5.4 32,-16.8 49.9,-18.4 17.7,8 15,31.6 16.9,47.8 0.2,7.3 0,14.6 0.1,21.9 -4.6,-2 -16.2,2.6 -15,-4.8 -0,-16.8 0.5,-34.3 -5.8,-50.2 -4.6,3.3 -22.8,9.7 -32.2,14.5 -8.8,3.4 -29.7,11.7 -20.3,2.3 -0,-3.6 0.1,-7.3 -0.1,-10.9 z"/>
</g>
<g transform="matrix(0.14313,0.049437,0.049437,-0.14313,63.17,44.57)">
<path style="color:black; fill:#f57900;" d="m 159.9,314.6 c -3.7,-1 -16.2,3.3 -14.4,-2.7 11.7,-19.4 28.5,-35.6 45.7,-50.2 13.8,-11.9 33.3,-19.8 50.9,-11.3 17.1,11.2 38.3,9.7 53.4,-4.1 23.7,-17.5 43.6,-39.3 63.4,-60.9 8.1,6.2 15.8,12.4 2.5,19.5 -23,23.9 -45.9,49.8 -76.2,64.6 -16.6,8.7 -34.5,1 -50.1,-5.9 -20.7,-7.4 -37.6,12.2 -51.2,24.7 -10.4,6.1 -20,30.2 -27,26.2 -3.9,0.1 -18.3,-0.1 -6.5,-0.2 2.9,0.2 7.6,-0.3 9.5,0.3 z"/>
<path style="color:black; fill:#f57900;" d="m 306.5,196 c 10.3,2.5 -8.5,-0.7 6.5,-2.3 16.9,-5.4 32,-16.8 49.9,-18.4 17.7,8 15,31.6 16.9,47.8 0.2,7.3 0,14.6 0.1,21.9 -4.6,-2 -16.2,2.6 -15,-4.8 -0,-16.8 0.5,-34.3 -5.8,-50.2 -4.6,3.3 -22.8,9.7 -32.2,14.5 -8.8,3.4 -29.7,11.7 -20.3,2.3 -0,-3.6 0.1,-7.3 -0.1,-10.9 z"/>
</g>
<text x="21.1" y="191" style="font-family:'Comic Sans MS'; font-size:16px; color:black; fill:#204a87;">These denominators</text>
<text x="10.8" y="210.7" style="font-family:'Comic Sans MS'; font-size:16px; color:black; fill:#204a87;">are common (the same)</text>
</svg>
