<?xml version="1.0" encoding="UTF-8" standalone="no"?>
<!-- Copyright 2017 mathsisfun.com -->
<svg xmlns="http://www.w3.org/2000/svg" xmlns:xlink="http://www.w3.org/1999/xlink" width="296.9" height="84.5" version="1.1">
<defs>
</defs>
<g transform="translate(-4.6706847,-397.24587)">
<path style="overflow:visible; fill:#204a87; stroke-width:2.3;" d="m 267.3,468.4 c 2.2,-3.7 5.4,-2.5 6.6,0.9 0.3,1.7 0.7,3.3 1.2,5 -3,1.6 -2.8,0.6 -2.2,-2.5 0.2,-1.8 0.6,-3.5 0.9,-5.3 0.3,-1.8 0.6,-3.6 1,-5.4 0.4,-1.6 0.9,-3.3 1.4,-4.9 1,-3.8 2,-4.1 6.1,-5.4 1.8,0 3.6,0.2 5.3,0.2 1.8,-0 3.5,-0.1 5.3,-0.1 1.7,0 3.4,-0 5.1,-0.1 1.2,-0 2.3,0 3.5,0 l -2.7,2.9 c -1.2,-0 -2.3,-0 -3.5,0 -1.7,0 -3.4,0.1 -5.2,0 -1.8,0 -3.6,0.1 -5.4,0.1 -1.7,-0 -3.4,-0.2 -5,0 3.8,-1.5 0.6,-0.6 0.2,2.1 -0.5,1.6 -1,3.2 -1.4,4.8 -0.4,1.7 -0.7,3.5 -1,5.2 -0.3,1.7 -0.6,3.5 -0.9,5.2 -0.5,3.6 -1.4,5.5 -5.5,4.1 -0.5,-1.6 -0.9,-3.3 -1.2,-5 -0.9,-2.6 2.8,-4.6 1.2,-1.8 l -4,-0.2 z"/>
<path style="overflow:visible; fill:#204a87; stroke-width:12.83;" d="m 293.5,463.4 c 0.9,-1.2 1.8,-2.5 2.8,-3.7 0.3,-0.4 0.6,-0.8 0.8,-1.2 l 3.6,0.2 c -0.3,0.5 -0.5,0.9 -0.8,1.4 -1,1.2 -1.9,2.4 -2.8,3.7 l -3.6,-0.3 z"/>
<path style="overflow:visible; fill:#204a87; stroke-width:12.83;" d="m 300.8,458.8 c -0.2,1.6 -0.6,3.2 -1,4.7 -0.3,1.5 -0.6,3.1 -0.8,4.6 -0.2,1.5 -0.5,3.1 -0.7,4.6 -0,0.3 -0.1,0.5 -0.2,0.8 l -3.6,0.3 c 0,-0.2 0.1,-0.5 0.2,-0.7 0.3,-1.5 0.6,-3 0.7,-4.5 0.2,-1.6 0.5,-3.1 0.8,-4.7 0.4,-1.5 0.7,-3.1 1,-4.6 l 3.6,-0.4 z"/>
<path style="overflow:visible; fill:#204a87; stroke-width:2.3;" d="m 283.1,463.4 c 1.6,0 3.2,-0.1 4.8,-0.1 1.3,0 2.6,0 3.9,0.1 l -2.4,2.6 c -1.3,-0 -2.6,-0.1 -3.9,-0 -1.7,0 -3.3,0.2 -5,-0 l 2.5,-2.5 z"/>
<path style="overflow:visible; fill:#204a87; stroke-width:2.3;" d="m 210,409.9 c -0.6,1.7 -1,3.4 -1.4,5.1 -0.4,1.7 -0.5,3.5 -0.7,5.2 -0.1,1.8 0.6,2.8 1.9,3.9 1.9,0.6 2.5,-0 0.4,0.2 l 4.1,1.1 c -2.3,1.9 -5.7,2.6 -8.2,0.8 -1.6,-1.5 -2.4,-3.3 -2.4,-5.5 0.2,-1.8 0.3,-3.7 0.7,-5.5 0.4,-1.8 0.9,-3.6 1.4,-5.3 l 4.2,-0 z"/>
<path style="overflow:visible; fill:#204a87; stroke-width:2.3;" d="m 209.8,403.9 c 0.4,0.7 1,1.3 1.6,2 l -3.8,1.8 c -0.6,-0.8 -1.3,-1.5 -1.7,-2.3 l 4,-1.4 z"/>
<text x="112.6" y="426.7" style="font-family:'Comic Sans MS'; font-size:38.3px; font-style:italic; overflow:visible; fill:#0197fd; stroke-width:5.1;">a</text>
<text x="143" y="426.7" style="font-family:'Comic Sans MS'; font-size:38.3px; overflow:visible; fill:#121513; stroke-width:5.1;">+</text>
<text x="174.7" y="426.7" style="font-family:'Comic Sans MS'; font-size:38.3px; font-style:italic; overflow:visible; fill:#fdca01; stroke-width:5.1;">b</text>
<path style="overflow:visible; fill:#0197fd; stroke-width:5.1;" d="m 72,453.8 c 2.7,-3.2 6.1,-5.9 9.8,-8 1.7,-1 3.5,-1.8 5.5,-2.1 2.5,-0.6 4.8,1.2 5.8,3.3 0.8,1 0.8,2.7 2,3.2 1.7,-0 2.9,-1.5 4.2,-2.4 2.1,-1.8 4.1,-3.7 6,-5.6 -0.6,0.6 -2,2 -2.1,2.1 1.9,-1.9 3.7,-3.8 5.6,-5.6 -0.6,0.6 -1.9,1.8 -2.1,2.1 1.3,-1.1 2.2,-2.6 3.4,-3.8 1.2,-0.1 2.4,-0.3 3.6,-0.4 -1.8,2.2 -3.6,4.5 -5.7,6.3 -0.4,0.4 -1.7,1.7 -0.6,0.6 0.5,-0.5 2.3,-2.3 1,-1 -3.6,3.5 -7,7.3 -11.2,10.2 -1.6,1.2 -4.3,1.4 -5.5,-0.4 -1.1,-1.7 -1.4,-4 -3.3,-5.1 -1.7,-0.6 -3.5,0.4 -5.1,1 -3.2,1.6 -6.1,3.7 -8.7,6.3 0.6,-0.5 2.7,-2.6 1.1,-1.1 -1.2,0.2 -2.4,0.3 -3.7,0.5 z"/>
<path style="overflow:visible; fill:#0197fd; stroke-width:5.1;" d="m 101.4,440.4 c 1.6,-1.1 3.3,-2.2 5,-3.2 1.8,-1 3.6,-1.9 5.4,-2.8 0.7,-0.2 1.3,-0.6 2,-0.5 0.9,0.2 1.4,1.2 1.3,2.1 -0.1,1.7 -0.9,3.2 -1.5,4.7 -0.5,1.1 -1,2.2 -1.6,3.3 -0.2,0.6 -0.5,1.2 -0.8,1.7 -1.2,0.3 -2.4,0.6 -3.7,0.9 0.4,-0.9 0.8,-1.8 1.2,-2.7 1.1,-2.1 2.1,-4.2 2.8,-6.4 0,-0.4 0.2,-0.9 0.5,-0.4 0.7,0.4 -0.6,0.5 -0.8,0.7 -2,1.1 -4.1,2 -5.9,3.2 -1.5,1 -3.1,2 -4.5,3 0.2,-1.2 0.4,-2.4 0.6,-3.6 z"/>
<text x="3.7" y="466.3" style="font-family:'Comic Sans MS'; font-size:16.9px; overflow:visible; fill:#0197fd; stroke-width:5.1;">Real Part</text>
<path style="overflow:visible; fill:#fdca01; stroke-width:5.1;" d="m 139.4,465.1 c 2.6,-3.5 5.3,-6.9 8.5,-9.8 1.1,-1 2.5,-2.2 4.1,-2 1.9,0.2 2.7,2.2 4.1,3 1.5,-0.2 2.7,-1.4 3.9,-2.3 0.6,-0.5 2.2,-2.1 2.2,-2.1 -0.6,0.6 -2.2,2.2 -0.8,0.8 2.9,-3 5.7,-6.1 8,-9.6 0.9,-1.1 1.7,-2.3 2.6,-3.4 1.2,-0.2 2.5,-0.3 3.7,-0.5 -2.3,2.9 -4.5,5.9 -6.8,8.8 -2.8,3.3 -5.8,6.4 -9,9.3 -1.5,1.2 -3.4,2.7 -5.5,2.3 -1.6,-0.4 -2.3,-2 -3.6,-2.9 -1.7,-0 -2.8,1.8 -4.1,2.8 -0.2,0.2 2.7,-2.7 0.9,-1 -1.8,1.8 -3.3,4 -4.9,5.9 -1.2,0.2 -2.4,0.4 -3.6,0.6 z"/>
<path style="overflow:visible; fill:#fdca01; stroke-width:5.1;" d="m 163.5,443.4 c 1,-0.6 2,-1.2 2.9,-1.9 1.5,-1 2.9,-2.1 4.3,-3.2 0.8,-0.6 1.6,-1.2 2.4,-1.8 0.8,-0.4 1.7,0.2 2.1,0.8 0.7,0.9 0.7,2.1 0.6,3.2 -0,1.2 -0.2,2.3 -0.3,3.5 -0,1.4 -0.2,2.8 -0.2,4.2 -1.2,0.5 -2.3,1 -3.5,1.5 0.1,-2.3 0.3,-4.5 0.4,-6.7 0.1,-1 0.2,-1.9 0,-2.9 -0,-0.4 -0.2,-0.2 0.1,-0 -0.2,0.6 -1.1,0.9 -1.5,1.4 -1.1,0.8 -2.1,1.7 -3.3,2.5 -1.3,0.9 -2.6,1.8 -4,2.6 -0.2,0 -0.9,0.8 -0.8,0.3 0.2,-1.1 0.4,-2.3 0.6,-3.4 z"/>
<text x="110.5" y="477" style="font-family:'Comic Sans MS'; font-size:16.9px; overflow:visible; fill:#fdca01; stroke-width:5.1;">Imaginary Part</text>
<path style="overflow:visible; fill:#204a87; stroke-width:5.1;" d="m 221.6,434 c 3.2,2.8 6.5,5.5 10.2,7.6 3,1.7 6.2,3.7 9.7,4.1 1.4,0.6 4,-1.3 4.1,-1.6 -0.7,0.5 -2.4,2.3 -0.9,0.8 1.7,-2.3 4.1,-4.6 7.1,-5 3.2,-0.2 5.9,1.9 8.4,3.7 2.9,2.5 5.4,5.4 8.3,7.9 0.5,0.9 3,1.5 1.6,2.5 -0.6,0.7 -1.3,1.3 -1.9,2 -3.7,-2.9 -6.9,-6.5 -10.4,-9.6 -2.1,-1.5 -4.3,-3.5 -7.1,-3.2 -1,-0 -3.4,1.9 -3,1.7 0.8,-0.6 3,-2.7 1.2,-1 -1.7,2.4 -4.1,4.7 -7.1,5 -4,0 -7.6,-2.2 -11,-4.1 -4,-2.2 -7.8,-5 -11.2,-8.1 -0.3,-0.5 0.9,-1.1 1.2,-1.6 0.4,-0.4 0.8,-0.8 1.1,-1.2 z"/>
<path style="overflow:visible; fill:#204a87; stroke-width:5.1;" d="m 222.2,434 c 0.9,0.4 1.7,0.8 2.6,1.1 1.1,0.4 2.1,0.8 3.2,1 1,0.2 2.1,0.4 3.2,0.4 0.7,0 1.4,0.1 2.1,0.1 0.2,-0 -0.1,0.3 -0.1,0.5 -0.5,0.9 -0.9,1.9 -1.4,2.8 -1.6,-0.2 -3.3,-0.2 -4.9,-0.6 -2,-0.5 -3.9,-1.2 -5.8,-2 -0.3,-0.2 -1,-0.2 -1,-0.5 0.7,-1 1.4,-1.9 2.1,-2.9 z"/>
<path style="overflow:visible; fill:#204a87; stroke-width:5.1;" d="m 221.6,433.9 c 0.9,0.7 1.4,1.8 2,2.8 1,1.6 1.7,3.3 2.3,5.1 0.6,1.6 0.9,3.2 1,4.8 0.2,0.4 -0,0.5 -0.4,0.6 -1,0.5 -2,0.9 -3,1.4 -0,-1.4 -0.2,-2.9 -0.6,-4.3 -0.5,-1.9 -1.2,-3.7 -2.2,-5.3 -0.5,-0.8 -0.9,-1.7 -1.7,-2.4 0.9,-0.9 1.7,-1.8 2.6,-2.6 z"/>
</g>
</svg>
