<?xml version="1.0" encoding="UTF-8" standalone="no"?>
<!-- Copyright 2017 mathsisfun.com -->

<svg
   width="263.571"
   height="91.9386"
   version="1.1"
   style="font-size:34.9px;font-family:'Comic Sans MS';fill:#eec73e;stroke-width:5.1"
   id="svg50"
   sodipodi:docname="complex-conjugate.svg"
   inkscape:version="1.1 (c68e22c387, 2021-05-23)"
   xmlns:inkscape="http://www.inkscape.org/namespaces/inkscape"
   xmlns:sodipodi="http://sodipodi.sourceforge.net/DTD/sodipodi-0.dtd"
   xmlns="http://www.w3.org/2000/svg"
   xmlns:svg="http://www.w3.org/2000/svg">
  <sodipodi:namedview
     id="namedview52"
     pagecolor="#ffffff"
     bordercolor="#666666"
     borderopacity="1.0"
     inkscape:pageshadow="2"
     inkscape:pageopacity="0.0"
     inkscape:pagecheckerboard="0"
     showgrid="false"
     inkscape:current-layer="svg50" />
  <defs
     id="defs2" />
  <g
     transform="matrix(-0.448658,0,0,-0.64304,71.1127,204.857)"
     id="g10">
    <path
       d="m 25.6,185.9 c 0.7,0 1.4,0 2.1,0 0.9,0 1.8,0 2.8,0.1 1.1,0 2.3,0.2 3.4,0.4 1.2,0.2 2.4,0.4 3.5,0.7 1.3,0.3 2.5,0.6 3.7,1 1.3,0.4 2.6,0.8 3.8,1.2 1.3,0.4 2.6,0.9 3.8,1.4 1.3,0.6 2.6,1.2 3.9,1.9 1.3,0.7 2.5,1.5 3.8,2.2 1.2,0.8 2.4,1.6 3.6,2.4 1.2,0.8 2.3,1.8 3.4,2.7 1.1,0.9 2.1,1.9 3.2,3 1,1 1.9,2 2.9,3 1,1.1 1.8,2.2 2.6,3.4 0.8,1.2 1.6,2.4 2.3,3.6 0.7,1.2 1.3,2.5 2,3.7 0.6,1.3 1.2,2.6 1.6,3.9 0.5,1.3 0.9,2.7 1.2,4 0.3,1.4 0.6,2.8 0.8,4.2 0.2,1.4 0.3,2.9 0.4,4.4 0,1.5 0,2.9 0,4.4 0,1.5 -0.2,2.9 -0.5,4.4 -0.2,1.4 -0.5,2.9 -0.9,4.3 -0.3,1.4 -0.8,2.7 -1.2,4.1 -0.5,1.3 -1,2.6 -1.6,3.9 -0.6,1.2 -1.2,2.5 -1.9,3.6 -0.7,1.2 -1.4,2.3 -2.2,3.4 -0.8,1.1 -1.6,2.1 -2.4,3.1 -2.8,3.3 -5.9,6.3 -9.2,9.2 -1,0.8 -2,1.6 -3,2.4 -1.1,0.7 -2.2,1.4 -3.3,2.1 -1.1,0.6 -2.1,1.3 -3.2,1.8 -1,0.6 -2.1,1.1 -3.2,1.6 -1.1,0.5 -2.2,1 -3.3,1.4 -1.1,0.4 -2.2,0.8 -3.3,1.2 -1,0.3 -2.1,0.7 -3.1,1 -1,0.3 -2,0.5 -3,0.8 -1,0.2 -1.9,0.4 -2.9,0.6 -0.9,0.2 -1.8,0.3 -2.6,0.5 -0.8,0.1 -1.6,0.2 -2.5,0.3 -0.7,0.1 -1.5,0.2 -2.3,0.2 -0.7,0 -1.4,0.1 -2,0.2 -0.6,0 -1.2,0 -1.8,0.1 -0.5,0 -1.1,0 -1.6,0.1 -0.5,0 -0.9,0 -1.4,0.1 -0.5,0 -0.9,0 -1.4,0 -0.4,0 -0.9,0 -1.3,0 -0.4,0 -0.8,0 -1.2,-0.1 -0.3,0 -0.6,0 -0.9,0 -0.3,0 -0.5,0 -0.8,0 -0.2,0 -0.5,0 -0.7,0 -0.2,0 -0.4,0 -0.7,0 -0.3,0 -0.5,0 -0.8,0 -0.3,0 -0.6,-0.1 -0.9,-0.2 -0.2,0 -0.4,0 -0.7,0 -0.1,0 -0.2,0 -0.3,0 l 5.8,-11 c 0.1,0 0.2,0 0.3,0 0.2,0 0.4,0 0.6,0 0.2,0 0.4,0 0.6,0 0.3,0 0.5,0 0.8,0 0.2,0 0.5,0 0.7,0 0.2,0 0.5,0 0.7,0 0.3,0 0.5,0 0.8,0 0.3,0 0.6,0 0.9,0 0.3,0 0.6,0 0.9,0 0.4,0 0.7,0 1.1,0 0.4,0 0.8,0 1.2,-0.1 0.5,0 0.9,0 1.4,0 0.5,0 1,0 1.6,-0.1 0.6,0 1.2,0 1.8,-0.1 0.6,0 1.3,-0.1 1.9,-0.2 0.7,0 1.4,-0.2 2.1,-0.3 0.8,-0.1 1.5,-0.2 2.3,-0.4 0.8,-0.2 1.7,-0.3 2.5,-0.5 0.9,-0.2 1.7,-0.4 2.6,-0.6 0.9,-0.2 1.8,-0.5 2.7,-0.8 1,-0.3 2,-0.6 2.9,-1 1,-0.4 2,-0.8 3,-1.2 1,-0.5 2,-1 3,-1.5 1,-0.5 2,-1.1 2.9,-1.7 1,-0.6 2,-1.2 2.9,-1.9 1,-0.7 1.9,-1.4 2.8,-2.2 0.9,-0.8 1.8,-1.6 2.6,-2.4 4.3,-4.3 -9.4,9.2 -3.8,3.9 0.9,-0.9 1.7,-1.7 2.5,-2.7 0.8,-0.9 1.5,-1.9 2.2,-2.9 0.7,-1 1.4,-2.1 2,-3.1 0.6,-1.1 1.2,-2.2 1.7,-3.4 0.5,-1.2 1,-2.4 1.4,-3.6 0.4,-1.3 0.8,-2.5 1.1,-3.8 0.3,-1.3 0.5,-2.6 0.7,-3.9 0.1,-1.3 0.2,-2.6 0.2,-3.9 0,-1.3 0,-2.6 -0.1,-3.9 -0.1,-1.2 -0.3,-2.5 -0.5,-3.7 -0.3,-1.2 -0.5,-2.4 -0.9,-3.5 -0.4,-1.2 -0.8,-2.3 -1.3,-3.5 -0.5,-1.2 -1.1,-2.3 -1.7,-3.4 -0.6,-1.1 -1.3,-2.2 -2,-3.3 -0.7,-1 -1.4,-2 -2.2,-2.9 -0.8,-1 -1.7,-1.9 -2.6,-2.8 -0.9,-0.9 -1.9,-1.8 -2.9,-2.7 -1,-0.8 -2,-1.7 -3.1,-2.4 -1.1,-0.8 -2.2,-1.5 -3.3,-2.2 -1.1,-0.7 -2.3,-1.4 -3.4,-2 -1.1,-0.6 -2.3,-1.1 -3.5,-1.6 -1.2,-0.5 -2.4,-0.9 -3.5,-1.3 -1.2,-0.4 -2.4,-0.7 -3.6,-1 -1.1,-0.3 -2.3,-0.5 -3.4,-0.7 -1.1,-0.2 -2.1,-0.3 -3.2,-0.4 -1,-0.1 -2,-0.1 -3,-0.1 -0.9,0 -1.7,0 -2.6,0.1 -0.7,0 -1.4,0 -2.1,0 l 4.9,-11.1 z"
       id="path4" />
    <path
       d="m -4.6,286.7 c 0.8,-0.2 1.7,-0.4 2.5,-0.7 1.2,-0.3 2.3,-0.7 3.5,-1 1.4,-0.4 2.8,-0.6 4.2,-0.9 1.6,-0.3 3.3,-0.5 4.9,-0.7 4.7,-0.6 9.5,-0.6 14.2,-0.3 1.8,0.1 3.5,0.3 5.3,0.6 1.8,0.3 3.6,0.6 5.3,1 1.8,0.4 3.6,0.8 5.4,1.3 1.7,0.5 3.5,1 5.2,1.6 1.7,0.6 3.3,1.3 4.9,1.9 1.5,0.6 3.1,1.3 4.6,2 1.4,0.6 2.8,1.3 4.2,1.9 1.2,0.6 2.5,1.1 3.7,1.7 0.8,0.4 0.4,0.2 1.1,0.5 l -10.3,6 c -0.7,-0.4 -0.4,-0.2 -1.1,-0.5 -1.2,-0.6 -2.4,-1.2 -3.7,-1.7 -1.4,-0.6 -2.7,-1.3 -4.1,-1.9 -1.5,-0.7 -2.9,-1.3 -4.4,-1.9 -1.6,-0.6 -3.1,-1.2 -4.7,-1.7 -1.6,-0.5 -3.3,-1 -4.9,-1.3 -1.7,-0.4 -3.4,-0.8 -5.2,-1.1 -1.7,-0.3 -3.4,-0.5 -5.2,-0.7 -1.7,-0.1 -3.3,-0.3 -5,-0.3 -0.8,10e-4 -1.6,0 -2.5,0 -0.3,0 -1.1,0 -0.8,0 9.2,-0.4 10.7,-0.4 7.3,-0.3 -1.5,0 -3,0.2 -4.6,0.4 -1.3,0.2 -2.7,0.4 -4,0.7 -1.1,0.2 -2.2,0.5 -3.2,0.8 -0.8,0.2 -1.6,0.5 -2.3,0.7 l -10.4,-6.5 z"
       id="path6" />
    <path
       d="m -4.8,283.7 c 0.6,-0.2 1.3,-0.4 1.9,-0.5 0.7,-0.2 1.4,-0.5 2.2,-0.7 0.8,-0.2 1.6,-0.5 2.3,-0.8 0.9,-0.3 1.7,-0.7 2.6,-1 0.9,-0.4 1.8,-0.8 2.7,-1.2 0.9,-0.4 1.8,-0.9 2.7,-1.4 0.9,-0.5 1.8,-1.1 2.7,-1.6 0.9,-0.6 1.8,-1.2 2.7,-1.8 0.9,-0.6 1.7,-1.3 2.5,-1.9 0.9,-0.7 1.7,-1.5 2.5,-2.2 0.8,-0.8 1.6,-1.6 2.4,-2.4 0.8,-0.8 1.5,-1.6 2.2,-2.3 0.7,-0.7 1.4,-1.5 2,-2.3 0.6,-0.7 1.2,-1.5 1.8,-2.3 0.6,-0.7 1.1,-1.4 1.6,-2.2 0.4,-0.6 0.8,-1.1 1.2,-1.7 l 11.7,3 c -0.4,0.6 -0.8,1.2 -1.2,1.8 -0.5,0.8 -1.1,1.6 -1.7,2.3 -0.6,0.8 -1.3,1.6 -1.9,2.4 -0.7,0.9 -1.4,1.7 -2.1,2.5 -0.7,0.8 -1.5,1.7 -2.3,2.5 -0.8,0.9 -1.7,1.7 -2.5,2.6 -0.9,0.9 -1.7,1.7 -2.6,2.5 -0.9,0.8 -1.7,1.6 -2.7,2.3 -0.9,0.7 -1.8,1.4 -2.8,2.1 -0.9,0.7 -1.9,1.3 -2.8,1.9 -0.9,0.6 -1.9,1.2 -2.8,1.7 -0.9,0.5 -1.8,1 -2.8,1.4 -0.9,0.4 -1.7,0.9 -2.6,1.3 -0.8,0.4 -1.6,0.7 -2.4,1 -0.7,0.3 -1.5,0.6 -2.2,0.8 -0.7,0.3 -1.3,0.5 -2,0.7 l -10.3,-6.4 z"
       id="path8" />
  </g>
  <path
     style="fill:#0197fd;stroke-width:2.29999"
     d="m 170.238,7.68074 c -0.56,1.6795 -1.009,3.47086 -1.456,5.26226 -0.448,1.7914 -0.56,3.5828 -0.783,5.3742 -0.112,1.7914 0.671,2.7991 1.902,4.0307 1.904,0.6718 2.575,0 0.337,0.2239 l 4.143,1.1197 c -2.352,2.0153 -5.822,2.6871 -8.286,0.7837 -1.568,-1.5675 -2.463,-3.3589 -2.463,-5.5981 0.223,-1.9034 0.336,-3.8068 0.672,-5.5982 0.448,-1.7914 0.895,-3.58276 1.455,-5.37426 h 4.367 z"
     id="path12" />
  <path
     style="fill:#0197fd;stroke-width:2.29999"
     d="m 170.293,1.63473 c 0.448,0.78374 1.008,1.34356 1.569,2.01533 l -3.92,1.90338 C 167.27,4.76969 166.598,4.09792 166.15,3.20221 l 4.031,-1.45552 z"
     id="path14" />
  <text
     x="82.5125"
     y="25.7319"
     style="font-style:normal;font-variant:normal;font-weight:normal;font-stretch:normal;font-family:'Trebuchet MS';-inkscape-font-specification:'Trebuchet MS';fill:#0197fd"
     id="text16">a</text>
  <text
     x="111.071"
     y="26.4529"
     style="font-style:normal;font-variant:normal;font-weight:normal;font-stretch:normal;font-size:36px;font-family:'Trebuchet MS';-inkscape-font-specification:'Trebuchet MS';fill:#4e9a06"
     id="text18">+</text>
  <text
     x="139.312"
     y="25.7319"
     style="font-style:normal;font-variant:normal;font-weight:normal;font-stretch:normal;font-family:'Trebuchet MS';-inkscape-font-specification:'Trebuchet MS';fill:#0197fd"
     id="text20">b</text>
  <path
     style="fill:#0197fd;stroke-width:2.29999"
     d="m 170.237,74.0167 c -0.559,1.6795 -1.007,3.4709 -1.455,5.2623 -0.448,1.7914 -0.56,3.5828 -0.784,5.3742 -0.112,1.7914 0.672,2.7991 1.904,4.0307 1.903,0.6718 2.575,0 0.335,0.2239 l 4.143,1.1196 c -2.351,2.0154 -5.822,2.6871 -8.285,0.7838 -1.568,-1.5675 -2.463,-3.3589 -2.463,-5.5982 0.224,-1.9033 0.335,-3.8067 0.671,-5.5981 0.448,-1.7914 0.896,-3.5828 1.456,-5.3743 h 4.366 z"
     id="path22" />
  <path
     style="fill:#0197fd;stroke-width:2.29999"
     d="m 170.293,67.9707 c 0.448,0.7838 1.008,1.3436 1.568,2.0154 l -3.919,1.9033 c -0.672,-0.7837 -1.343,-1.4555 -1.791,-2.3512 l 4.031,-1.4555 z"
     id="path24" />
  <text
     x="82.5125"
     y="91.0319"
     style="font-style:normal;font-variant:normal;font-weight:normal;font-stretch:normal;font-family:'Trebuchet MS';-inkscape-font-specification:'Trebuchet MS';fill:#0197fd"
     id="text26">a</text>
  <text
     x="111.071"
     y="92.8529"
     style="font-style:normal;font-variant:normal;font-weight:normal;font-stretch:normal;font-size:36px;font-family:'Trebuchet MS';-inkscape-font-specification:'Trebuchet MS';fill:#4e9a06"
     id="text28">−</text>
  <text
     x="139.312"
     y="91.0319"
     style="font-style:normal;font-variant:normal;font-weight:normal;font-stretch:normal;font-family:'Trebuchet MS';-inkscape-font-specification:'Trebuchet MS';fill:#0197fd"
     id="text30">b</text>
  <g
     transform="matrix(0.452226,0,0,0.601,188.066,-95.5843)"
     id="g38">
    <path
       d="m 25.6,185.9 c 0.7,0 1.4,0 2.1,0 0.9,0 1.8,0 2.8,0.1 1.1,0 2.3,0.2 3.4,0.4 1.2,0.2 2.4,0.4 3.5,0.7 1.3,0.3 2.5,0.6 3.7,1 1.3,0.4 2.6,0.8 3.8,1.2 1.3,0.4 2.6,0.9 3.8,1.4 1.3,0.6 2.6,1.2 3.9,1.9 1.3,0.7 2.5,1.5 3.8,2.2 1.2,0.8 2.4,1.6 3.6,2.4 1.2,0.8 2.3,1.8 3.4,2.7 1.1,0.9 2.1,1.9 3.2,3 1,1 1.9,2 2.9,3 1,1.1 1.8,2.2 2.6,3.4 0.8,1.2 1.6,2.4 2.3,3.6 0.7,1.2 1.3,2.5 2,3.7 0.6,1.3 1.2,2.6 1.6,3.9 0.5,1.3 0.9,2.7 1.2,4 0.3,1.4 0.6,2.8 0.8,4.2 0.2,1.4 0.3,2.9 0.4,4.4 0,1.5 0,2.9 0,4.4 0,1.5 -0.2,2.9 -0.5,4.4 -0.2,1.4 -0.5,2.9 -0.9,4.3 -0.3,1.4 -0.8,2.7 -1.2,4.1 -0.5,1.3 -1,2.6 -1.6,3.9 -0.6,1.2 -1.2,2.5 -1.9,3.6 -0.7,1.2 -1.4,2.3 -2.2,3.4 -0.8,1.1 -1.6,2.1 -2.4,3.1 -2.8,3.3 -5.9,6.3 -9.2,9.2 -1,0.8 -2,1.6 -3,2.4 -1.1,0.7 -2.2,1.4 -3.3,2.1 -1.1,0.6 -2.1,1.3 -3.2,1.8 -1,0.6 -2.1,1.1 -3.2,1.6 -1.1,0.5 -2.2,1 -3.3,1.4 -1.1,0.4 -2.2,0.8 -3.3,1.2 -1,0.3 -2.1,0.7 -3.1,1 -1,0.3 -2,0.5 -3,0.8 -1,0.2 -1.9,0.4 -2.9,0.6 -0.9,0.2 -1.8,0.3 -2.6,0.5 -0.8,0.1 -1.6,0.2 -2.5,0.3 -0.7,0.1 -1.5,0.2 -2.3,0.2 -0.7,0 -1.4,0.1 -2,0.2 -0.6,0 -1.2,0 -1.8,0.1 -0.5,0 -1.1,0 -1.6,0.1 -0.5,0 -0.9,0 -1.4,0.1 -0.5,0 -0.9,0 -1.4,0 -0.4,0 -0.9,0 -1.3,0 -0.4,0 -0.8,0 -1.2,-0.1 -0.3,0 -0.6,0 -0.9,0 -0.3,0 -0.5,0 -0.8,0 -0.2,0 -0.5,0 -0.7,0 -0.2,0 -0.4,0 -0.7,0 -0.3,0 -0.5,0 -0.8,0 -0.3,0 -0.6,-0.1 -0.9,-0.2 -0.2,0 -0.4,0 -0.7,0 -0.1,0 -0.2,0 -0.3,0 l 5.8,-11 c 0.1,0 0.2,0 0.3,0 0.2,0 0.4,0 0.6,0 0.2,0 0.4,0 0.6,0 0.3,0 0.5,0 0.8,0 0.2,0 0.5,0 0.7,0 0.2,0 0.5,0 0.7,0 0.3,0 0.5,0 0.8,0 0.3,0 0.6,0 0.9,0 0.3,0 0.6,0 0.9,0 0.4,0 0.7,0 1.1,0 0.4,0 0.8,0 1.2,-0.1 0.5,0 0.9,0 1.4,0 0.5,0 1,0 1.6,-0.1 0.6,0 1.2,0 1.8,-0.1 0.6,0 1.3,-0.1 1.9,-0.2 0.7,0 1.4,-0.2 2.1,-0.3 0.8,-0.1 1.5,-0.2 2.3,-0.4 0.8,-0.2 1.7,-0.3 2.5,-0.5 0.9,-0.2 1.7,-0.4 2.6,-0.6 0.9,-0.2 1.8,-0.5 2.7,-0.8 1,-0.3 2,-0.6 2.9,-1 1,-0.4 2,-0.8 3,-1.2 1,-0.5 2,-1 3,-1.5 1,-0.5 2,-1.1 2.9,-1.7 1,-0.6 2,-1.2 2.9,-1.9 1,-0.7 1.9,-1.4 2.8,-2.2 0.9,-0.8 1.8,-1.6 2.6,-2.4 4.3,-4.3 -9.4,9.2 -3.8,3.9 0.9,-0.9 1.7,-1.7 2.5,-2.7 0.8,-0.9 1.5,-1.9 2.2,-2.9 0.7,-1 1.4,-2.1 2,-3.1 0.6,-1.1 1.2,-2.2 1.7,-3.4 0.5,-1.2 1,-2.4 1.4,-3.6 0.4,-1.3 0.8,-2.5 1.1,-3.8 0.3,-1.3 0.5,-2.6 0.7,-3.9 0.1,-1.3 0.2,-2.6 0.2,-3.9 0,-1.3 0,-2.6 -0.1,-3.9 -0.1,-1.2 -0.3,-2.5 -0.5,-3.7 -0.3,-1.2 -0.5,-2.4 -0.9,-3.5 -0.4,-1.2 -0.8,-2.3 -1.3,-3.5 -0.5,-1.2 -1.1,-2.3 -1.7,-3.4 -0.6,-1.1 -1.3,-2.2 -2,-3.3 -0.7,-1 -1.4,-2 -2.2,-2.9 -0.8,-1 -1.7,-1.9 -2.6,-2.8 -0.9,-0.9 -1.9,-1.8 -2.9,-2.7 -1,-0.8 -2,-1.7 -3.1,-2.4 -1.1,-0.8 -2.2,-1.5 -3.3,-2.2 -1.1,-0.7 -2.3,-1.4 -3.4,-2 -1.1,-0.6 -2.3,-1.1 -3.5,-1.6 -1.2,-0.5 -2.4,-0.9 -3.5,-1.3 -1.2,-0.4 -2.4,-0.7 -3.6,-1 -1.1,-0.3 -2.3,-0.5 -3.4,-0.7 -1.1,-0.2 -2.1,-0.3 -3.2,-0.4 -1,-0.1 -2,-0.1 -3,-0.1 -0.9,0 -1.7,0 -2.6,0.1 -0.7,0 -1.4,0 -2.1,0 l 4.9,-11.1 z"
       id="path32" />
    <path
       d="m -4.6,286.7 c 0.8,-0.2 1.7,-0.4 2.5,-0.7 1.2,-0.3 2.3,-0.7 3.5,-1 1.4,-0.4 2.8,-0.6 4.2,-0.9 1.6,-0.3 3.3,-0.5 4.9,-0.7 4.7,-0.6 9.5,-0.6 14.2,-0.3 1.8,0.1 3.5,0.3 5.3,0.6 1.8,0.3 3.6,0.6 5.3,1 1.8,0.4 3.6,0.8 5.4,1.3 1.7,0.5 3.5,1 5.2,1.6 1.7,0.6 3.3,1.3 4.9,1.9 1.5,0.6 3.1,1.3 4.6,2 1.4,0.6 2.8,1.3 4.2,1.9 1.2,0.6 2.5,1.1 3.7,1.7 0.8,0.4 0.4,0.2 1.1,0.5 l -10.3,6 c -0.7,-0.4 -0.4,-0.2 -1.1,-0.5 -1.2,-0.6 -2.4,-1.2 -3.7,-1.7 -1.4,-0.6 -2.7,-1.3 -4.1,-1.9 -1.5,-0.7 -2.9,-1.3 -4.4,-1.9 -1.6,-0.6 -3.1,-1.2 -4.7,-1.7 -1.6,-0.5 -3.3,-1 -4.9,-1.3 -1.7,-0.4 -3.4,-0.8 -5.2,-1.1 -1.7,-0.3 -3.4,-0.5 -5.2,-0.7 -1.7,-0.1 -3.3,-0.3 -5,-0.3 -0.8,10e-4 -1.6,0 -2.5,0 -0.3,0 -1.1,0 -0.8,0 9.2,-0.4 10.7,-0.4 7.3,-0.3 -1.5,0 -3,0.2 -4.6,0.4 -1.3,0.2 -2.7,0.4 -4,0.7 -1.1,0.2 -2.2,0.5 -3.2,0.8 -0.8,0.2 -1.6,0.5 -2.3,0.7 l -10.4,-6.5 z"
       id="path34" />
    <path
       d="m -4.8,283.7 c 0.6,-0.2 1.3,-0.4 1.9,-0.5 0.7,-0.2 1.4,-0.5 2.2,-0.7 0.8,-0.2 1.6,-0.5 2.3,-0.8 0.9,-0.3 1.7,-0.7 2.6,-1 0.9,-0.4 1.8,-0.8 2.7,-1.2 0.9,-0.4 1.8,-0.9 2.7,-1.4 0.9,-0.5 1.8,-1.1 2.7,-1.6 0.9,-0.6 1.8,-1.2 2.7,-1.8 0.9,-0.6 1.7,-1.3 2.5,-1.9 0.9,-0.7 1.7,-1.5 2.5,-2.2 0.8,-0.8 1.6,-1.6 2.4,-2.4 0.8,-0.8 1.5,-1.6 2.2,-2.3 0.7,-0.7 1.4,-1.5 2,-2.3 0.6,-0.7 1.2,-1.5 1.8,-2.3 0.6,-0.7 1.1,-1.4 1.6,-2.2 0.4,-0.6 0.8,-1.1 1.2,-1.7 l 11.7,3 c -0.4,0.6 -0.8,1.2 -1.2,1.8 -0.5,0.8 -1.1,1.6 -1.7,2.3 -0.6,0.8 -1.3,1.6 -1.9,2.4 -0.7,0.9 -1.4,1.7 -2.1,2.5 -0.7,0.8 -1.5,1.7 -2.3,2.5 -0.8,0.9 -1.7,1.7 -2.5,2.6 -0.9,0.9 -1.7,1.7 -2.6,2.5 -0.9,0.8 -1.7,1.6 -2.7,2.3 -0.9,0.7 -1.8,1.4 -2.8,2.1 -0.9,0.7 -1.9,1.3 -2.8,1.9 -0.9,0.6 -1.9,1.2 -2.8,1.7 -0.9,0.5 -1.8,1 -2.8,1.4 -0.9,0.4 -1.7,0.9 -2.6,1.3 -0.8,0.4 -1.6,0.7 -2.4,1 -0.7,0.3 -1.5,0.6 -2.2,0.8 -0.7,0.3 -1.3,0.5 -2,0.7 l -10.3,-6.4 z"
       id="path36" />
  </g>
  <text
     x="-0.6875"
     y="53.1319"
     style="font-style:normal;font-variant:normal;font-weight:normal;font-stretch:normal;font-size:17.6px;font-family:'Trebuchet MS';-inkscape-font-specification:'Trebuchet MS';fill:#f57900"
     id="text42">Conjugate</text>
  <text
     x="183.812"
     y="52.1319"
     style="font-style:normal;font-variant:normal;font-weight:normal;font-stretch:normal;font-size:17.6px;font-family:'Trebuchet MS';-inkscape-font-specification:'Trebuchet MS';fill:#f57900"
     id="text46">Conjugate</text>
</svg>
