<?xml version="1.0" encoding="UTF-8" standalone="no"?>
<!-- Copyright 2017 mathsisfun.com -->
<svg xmlns="http://www.w3.org/2000/svg" width="386.9" height="71.2" version="1.1">
<defs>
</defs>
<g transform="translate(1174.21,-172.998)">
<text x="-1094.6" y="188" style="font-family:'Comic Sans MS'; text-align:center; text-anchor:middle; font-size:18px; overflow:visible; fill:#121513; stroke-width:2.24;">12 divided by 3 is 4</text>
<text x="-1102.8" y="232.3" style="font-family:'Comic Sans MS'; text-align:center; text-anchor:middle; font-size:18px; overflow:visible; fill:#121513; stroke-width:2.24;">12 divided by 0 is</text>
<text x="-847.2" y="189.8" style="font-family:'Comic Sans MS'; text-align:center; text-anchor:middle; font-size:18px; overflow:visible; fill:#121513; stroke-width:2.24;">4 times 3 is 12</text>
<text x="-839" y="234.1" style="font-family:'Comic Sans MS'; text-align:center; text-anchor:middle; font-size:18px; overflow:visible; fill:#121513; stroke-width:2.24;">times 0 is 12</text>
<path style="overflow:visible; fill:#fdca01; stroke-width:2.24;" d="m -988.2,182.7 c 0.3,-0.2 0.6,-0.3 0.9,-0.5 0.4,-0.2 0.7,-0.3 1.1,-0.5 0.4,-0.2 0.8,-0.3 1.2,-0.4 0.4,-0.1 0.9,-0.2 1.3,-0.4 0.5,-0.1 0.9,-0.2 1.4,-0.3 0.5,-0.1 1,-0.2 1.4,-0.2 0.5,-0 1,-0.1 1.5,-0.2 0.5,-0 1.1,-0 1.6,-0 0.5,0 1,-0 1.6,-0 0.5,0 1.1,0 1.6,0 0.6,0 1.1,0 1.7,0 0.5,0 1.1,0 1.6,0 0.6,0 1.1,0 1.7,0 0.6,0 1.1,0 1.7,0.1 0.6,0 1.1,0 1.7,0.1 0.6,0 1.1,0.1 1.7,0.2 0.6,0 1.1,0.1 1.7,0.2 0.5,0 1.1,0.1 1.6,0.2 0.5,0 1,0 1.6,0.1 0.5,0 1,0 1.6,0.1 0.5,0 1.1,0 1.6,0.1 0.5,0 1.1,0 1.6,0.1 0.5,0 1.1,0 1.6,0 0.5,0 1.1,0 1.6,0 0.5,0 1.1,0 1.6,0 0.5,0 1,0 1.6,0 0.5,0 1,0 1.5,0 0.5,0 0.9,-0 1.4,-0 0.5,-0 0.9,-0 1.4,-0.1 0.4,-0 0.9,-0 1.3,-0.1 0.4,-0 0.9,-0.1 1.3,-0.2 0.4,-0 0.8,-0.1 1.2,-0.2 0.4,-0 0.8,-0.1 1.2,-0.2 0.4,-0 0.8,-0.1 1.2,-0.2 0.4,-0 0.7,-0.1 1.1,-0.2 0.2,-0 0.3,-0 0.5,-0 l -1.4,4.3 c -0.2,0 -0.3,0 -0.5,0 -0.4,0 -0.7,0.1 -1.1,0.2 -0.4,0 -0.8,0.1 -1.2,0.2 -0.4,0 -0.8,0.1 -1.3,0.2 -0.4,0 -0.9,0.1 -1.3,0.2 -0.4,0 -0.9,0.1 -1.3,0.1 -0.5,0 -0.9,0 -1.4,0.1 -0.5,0 -1,0 -1.5,0 -0.5,0 -1,0 -1.5,0 -0.5,0 -1,-0 -1.5,-0 -0.5,0 -1,-0 -1.6,-0 -0.5,-0 -1.1,-0 -1.6,-0 -0.5,-0 -1.1,-0 -1.6,-0 -0.5,-0 -1.1,-0 -1.6,-0 -0.5,-0 -1.1,-0 -1.6,-0.1 -0.5,-0 -1.1,-0 -1.6,-0.1 -0.5,-0 -1.1,-0 -1.6,-0.1 -0.5,-0 -1.1,-0 -1.6,-0.1 -0.5,-0 -1.1,-0.1 -1.6,-0.2 -0.6,-0 -1.1,-0.1 -1.7,-0.2 -0.6,-0 -1.1,-0.1 -1.7,-0.2 -0.5,-0 -1.1,-0 -1.6,-0.1 -0.5,-0 -1.1,-0 -1.6,-0.1 -0.6,-0 -1.1,-0 -1.7,-0 -0.5,-0 -1.1,-0 -1.6,-0 -0.5,-0 -1.1,-0 -1.6,-0 -0.5,-0 -1,-0 -1.6,-0 -0.5,0 -1,0 -1.5,0 -0.5,0 -1,0 -1.5,0.1 -0.5,0 -0.9,0.1 -1.4,0.2 -0.4,0 -0.9,0.2 -1.3,0.3 -0.4,0.1 -0.9,0.2 -1.3,0.3 -0.4,0.1 -0.8,0.2 -1.2,0.4 -0.4,0.1 -0.7,0.3 -1.1,0.5 -0.3,0.2 -0.6,0.3 -1,0.5 -0.3,0.2 -0.5,0.3 -0.8,0.5 z"/>
<path style="overflow:visible; fill:#fdca01; stroke-width:2.24;" d="m -950.1,173 c 0.2,0.2 0.5,0.4 0.7,0.6 0.2,0.2 0.5,0.4 0.7,0.7 0.3,0.2 0.5,0.4 0.8,0.7 0.3,0.2 0.6,0.4 0.9,0.7 0.3,0.2 0.6,0.4 0.9,0.7 0.3,0.2 0.6,0.4 0.9,0.6 0.3,0.2 0.6,0.4 0.9,0.6 0.3,0.2 0.6,0.4 0.9,0.6 0.3,0.2 0.6,0.4 0.9,0.5 0.3,0.2 0.6,0.3 0.9,0.5 0.3,0.2 0.6,0.3 1,0.5 0.3,0.2 0.6,0.3 0.9,0.5 0.3,0.1 0.6,0.3 1,0.4 0.3,0.1 0.7,0.3 1,0.4 0.3,0.1 0.6,0.3 0.9,0.4 0.3,0.1 0.6,0.2 0.9,0.4 0.3,0.1 0.6,0.2 0.9,0.3 0.3,0.1 0.6,0.2 0.9,0.3 0.3,0 0.5,0.2 0.8,0.3 0.3,0 0.5,0.2 0.8,0.2 l -2.6,3.6 c -0.3,-0 -0.5,-0.2 -0.8,-0.3 -0.3,-0 -0.6,-0.2 -0.8,-0.3 -0.3,-0.1 -0.6,-0.2 -0.9,-0.3 -0.3,-0.1 -0.6,-0.2 -0.9,-0.4 -0.3,-0.1 -0.6,-0.3 -1,-0.4 -0.3,-0.1 -0.7,-0.3 -1,-0.4 -0.3,-0.1 -0.7,-0.3 -1,-0.4 -0.3,-0.2 -0.7,-0.3 -1,-0.5 -0.3,-0.2 -0.7,-0.3 -1,-0.5 -0.3,-0.2 -0.7,-0.3 -1,-0.5 -0.3,-0.2 -0.7,-0.4 -1,-0.5 -0.3,-0.2 -0.7,-0.4 -1,-0.6 -0.3,-0.2 -0.6,-0.4 -1,-0.6 -0.3,-0.2 -0.6,-0.4 -1,-0.6 -0.3,-0.2 -0.6,-0.4 -1,-0.7 -0.3,-0.2 -0.6,-0.5 -1,-0.7 -0.3,-0.2 -0.6,-0.5 -0.9,-0.7 -0.3,-0.2 -0.6,-0.5 -0.8,-0.7 -0.3,-0.2 -0.5,-0.4 -0.8,-0.7 -0.2,-0.2 -0.5,-0.4 -0.7,-0.6 z"/>
<path style="overflow:visible; fill:#fdca01; stroke-width:2.24;" d="m -951.7,192.4 c 0.2,-0.3 0.5,-0.5 0.7,-0.8 0.3,-0.3 0.6,-0.6 0.9,-0.8 1.2,-1.1 2.5,-2 3.7,-3 0.4,-0.3 0.8,-0.6 1.2,-0.8 0.4,-0.3 0.8,-0.5 1.2,-0.8 0.4,-0.3 0.8,-0.5 1.2,-0.7 0.4,-0.2 0.8,-0.4 1.3,-0.7 0.4,-0.2 0.8,-0.4 1.3,-0.6 0.4,-0.2 0.8,-0.4 1.3,-0.6 0.4,-0.2 0.8,-0.3 1.2,-0.5 0.4,-0.2 0.8,-0.3 1.1,-0.4 0.2,-0 0.1,-0 0.4,-0.1 l -1.5,4.2 c -0.2,0 -0.1,0 -0.3,0.1 -0.4,0.1 -0.7,0.3 -1.1,0.4 -0.4,0.2 -0.8,0.3 -1.1,0.5 -0.4,0.2 -0.8,0.4 -1.2,0.6 -0.4,0.2 -0.8,0.4 -1.2,0.6 -0.4,0.2 -0.8,0.4 -1.2,0.7 -0.4,0.2 -0.7,0.5 -1.1,0.7 -0.4,0.3 -0.7,0.5 -1.1,0.8 -0.4,0.3 -0.7,0.5 -1.1,0.8 -1.3,1 3.8,-3 1.6,-1.2 -0.3,0.2 -0.6,0.5 -0.9,0.7 -0.2,0.2 -0.5,0.4 -0.7,0.6 z"/>
<text x="-963.1" y="407.2" transform="rotate(9.71576)" style="font-family:'Comic Sans MS'; text-align:center; text-anchor:middle; font-size:34.6px; overflow:visible; fill:#ff0000; stroke:#ff0000; stroke-width:1.25;">?</text>
<path style="overflow:visible; fill:#fdca01; stroke-width:2.24;" d="m -986.7,226.8 c 0.3,-0.2 0.6,-0.3 0.9,-0.5 0.4,-0.2 0.7,-0.3 1.1,-0.5 0.4,-0.2 0.8,-0.3 1.2,-0.4 0.4,-0.1 0.9,-0.2 1.3,-0.4 0.5,-0.1 0.9,-0.2 1.4,-0.3 0.5,-0.1 1,-0.2 1.4,-0.2 0.5,-0 1,-0.1 1.5,-0.2 0.5,-0 1.1,-0 1.6,-0 0.5,-0 1,-0 1.6,-0 0.5,0 1.1,0 1.6,0 0.6,0 1.1,0 1.7,0 0.5,0 1.1,0 1.6,0 0.6,0 1.1,0 1.7,0 0.6,0 1.1,0 1.7,0.1 0.6,0 1.1,0 1.7,0.1 0.6,0 1.1,0.1 1.7,0.2 0.6,0 1.1,0.1 1.7,0.2 0.5,0 1.1,0.1 1.6,0.2 0.5,0 1,0 1.6,0.1 0.5,0 1,0 1.6,0.1 0.5,0 1.1,0 1.6,0.1 0.5,0 1.1,0 1.6,0.1 0.5,0 1.1,0 1.6,0 0.5,0 1.1,0 1.6,0 0.5,0 1.1,0 1.6,0 0.5,0 1,0 1.6,0 0.5,0 1,0 1.5,0 0.5,0 0.9,-0 1.4,-0 0.5,-0 0.9,-0 1.4,-0.1 0.4,-0 0.9,-0 1.3,-0.1 0.4,-0 0.9,-0.1 1.3,-0.2 0.4,-0 0.8,-0.1 1.2,-0.2 0.4,-0 0.8,-0.1 1.2,-0.2 0.4,-0 0.8,-0.1 1.2,-0.2 0.4,-0 0.7,-0.1 1.1,-0.2 0.2,-0 0.3,-0 0.5,-0 l -1.4,4.3 c -0.2,0 -0.3,0 -0.5,0 -0.4,0 -0.7,0.1 -1.1,0.2 -0.4,0 -0.8,0.1 -1.2,0.2 -0.4,0 -0.8,0.1 -1.3,0.2 -0.4,0 -0.9,0.1 -1.3,0.2 -0.4,0 -0.9,0.1 -1.3,0.1 -0.5,0 -0.9,0 -1.4,0.1 -0.5,0 -1,0 -1.5,0 -0.5,0 -1,0 -1.5,0 -0.5,0 -1,-0 -1.5,-0 -0.5,-0 -1,-0 -1.6,-0 -0.5,-0 -1.1,-0 -1.6,-0 -0.5,-0 -1.1,-0 -1.6,-0 -0.5,-0 -1.1,-0 -1.6,-0 -0.5,-0 -1.1,-0 -1.6,-0.1 -0.5,-0 -1.1,-0 -1.6,-0.1 -0.5,-0 -1.1,-0 -1.6,-0.1 -0.5,-0 -1.1,-0 -1.6,-0.1 -0.5,-0 -1.1,-0.1 -1.6,-0.2 -0.6,-0 -1.1,-0.1 -1.7,-0.2 -0.6,-0 -1.1,-0.1 -1.7,-0.2 -0.5,-0 -1.1,-0 -1.6,-0.1 -0.5,-0 -1.1,-0 -1.6,-0.1 -0.6,-0 -1.1,-0 -1.7,-0 -0.5,-0 -1.1,-0 -1.6,-0 -0.5,-0 -1.1,-0 -1.6,-0 -0.5,-0 -1,-0 -1.6,0 -0.5,0 -1,0 -1.5,0 -0.5,0 -1,0 -1.5,0.1 -0.5,0 -0.9,0.1 -1.4,0.2 -0.4,0 -0.9,0.2 -1.3,0.3 -0.4,0.1 -0.9,0.2 -1.3,0.3 -0.4,0.1 -0.8,0.2 -1.2,0.4 -0.4,0.1 -0.7,0.3 -1.1,0.5 -0.3,0.2 -0.6,0.3 -1,0.5 -0.3,0.2 -0.5,0.3 -0.8,0.5 z"/>
<path style="overflow:visible; fill:#fdca01; stroke-width:2.24;" d="m -948.6,217.1 c 0.2,0.2 0.5,0.4 0.7,0.6 0.2,0.2 0.5,0.4 0.7,0.7 0.3,0.2 0.5,0.4 0.8,0.7 0.3,0.2 0.6,0.4 0.9,0.7 0.3,0.2 0.6,0.4 0.9,0.7 0.3,0.2 0.6,0.4 0.9,0.6 0.3,0.2 0.6,0.4 0.9,0.6 0.3,0.2 0.6,0.4 0.9,0.6 0.3,0.2 0.6,0.4 0.9,0.5 0.3,0.2 0.6,0.3 0.9,0.5 0.3,0.2 0.6,0.3 1,0.5 0.3,0.2 0.6,0.3 0.9,0.5 0.3,0.1 0.6,0.3 1,0.4 0.3,0.1 0.7,0.3 1,0.4 0.3,0.1 0.6,0.3 0.9,0.4 0.3,0.1 0.6,0.2 0.9,0.4 0.3,0.1 0.6,0.2 0.9,0.3 0.3,0.1 0.6,0.2 0.9,0.3 0.3,0 0.5,0.2 0.8,0.3 0.3,0 0.5,0.2 0.8,0.2 l -2.6,3.6 c -0.3,-0 -0.5,-0.2 -0.8,-0.3 -0.3,-0 -0.6,-0.2 -0.8,-0.3 -0.3,-0.1 -0.6,-0.2 -0.9,-0.3 -0.3,-0.1 -0.6,-0.2 -0.9,-0.4 -0.3,-0.1 -0.6,-0.3 -1,-0.4 -0.3,-0.1 -0.7,-0.3 -1,-0.4 -0.3,-0.1 -0.7,-0.3 -1,-0.4 -0.3,-0.2 -0.7,-0.3 -1,-0.5 -0.3,-0.2 -0.7,-0.3 -1,-0.5 -0.3,-0.2 -0.7,-0.3 -1,-0.5 -0.3,-0.2 -0.7,-0.4 -1,-0.5 -0.3,-0.2 -0.7,-0.4 -1,-0.6 -0.3,-0.2 -0.6,-0.4 -1,-0.6 -0.3,-0.2 -0.6,-0.4 -1,-0.6 -0.3,-0.2 -0.6,-0.4 -1,-0.7 -0.3,-0.2 -0.6,-0.5 -1,-0.7 -0.3,-0.2 -0.6,-0.5 -0.9,-0.7 -0.3,-0.2 -0.6,-0.5 -0.8,-0.7 -0.3,-0.2 -0.5,-0.4 -0.8,-0.7 -0.2,-0.2 -0.5,-0.4 -0.7,-0.6 z"/>
<path style="overflow:visible; fill:#fdca01; stroke-width:2.24;" d="m -950.2,236.5 c 0.2,-0.3 0.5,-0.5 0.7,-0.8 0.3,-0.3 0.6,-0.6 0.9,-0.8 1.2,-1.1 2.5,-2 3.7,-3 0.4,-0.3 0.8,-0.6 1.2,-0.8 0.4,-0.3 0.8,-0.5 1.2,-0.8 0.4,-0.3 0.8,-0.5 1.2,-0.7 0.4,-0.2 0.8,-0.4 1.3,-0.7 0.4,-0.2 0.8,-0.4 1.3,-0.6 0.4,-0.2 0.8,-0.4 1.3,-0.6 0.4,-0.2 0.8,-0.3 1.2,-0.5 0.4,-0.2 0.8,-0.3 1.1,-0.4 0.2,-0 0.1,-0 0.4,-0.1 l -1.5,4.2 c -0.2,0 -0.1,0 -0.3,0.1 -0.4,0.1 -0.7,0.3 -1.1,0.4 -0.4,0.2 -0.8,0.3 -1.1,0.5 -0.4,0.2 -0.8,0.4 -1.2,0.6 -0.4,0.2 -0.8,0.4 -1.2,0.6 -0.4,0.2 -0.8,0.4 -1.2,0.7 -0.4,0.2 -0.7,0.5 -1.1,0.7 -0.4,0.3 -0.7,0.5 -1.1,0.8 -0.4,0.3 -0.7,0.5 -1.1,0.8 -1.3,1 3.8,-3 1.6,-1.2 -0.3,0.2 -0.6,0.5 -0.9,0.7 -0.2,0.2 -0.5,0.4 -0.7,0.6 z"/>
<text x="-854.2" y="391" transform="rotate(9.71576)" style="font-family:'Comic Sans MS'; text-align:center; text-anchor:middle; font-size:34.6px; overflow:visible; fill:#ff0000; stroke:#ff0000; stroke-width:1.25;">?</text>
</g>
</svg>
