<?xml version="1.0" encoding="UTF-8" standalone="no"?>
<!-- Copyright 2017 mathsisfun.com -->
<svg xmlns="http://www.w3.org/2000/svg" width="180" height="188.1" version="1.1">
<defs>
<marker id="id03" style="overflow:visible;" orient="auto">
<path transform="matrix(0.4,0,0,0.4,4,0)" style="fill:#78974f; stroke:#78974f; stroke-width:1pt;" d="M 0,0 5,-5 -12.5,0 5,5 Z"/>
</marker>
<marker id="id04" style="overflow:visible;" orient="auto">
<path transform="matrix(-0.4,0,0,-0.4,-4,0)" style="fill:#78974f; stroke:#78974f; stroke-width:1pt;" d="M 0,0 5,-5 -12.5,0 5,5 Z"/>
</marker>
<marker id="id01" style="overflow:visible;" orient="auto">
<path transform="matrix(0.4,0,0,0.4,4,0)" style="fill:#78974f; stroke:#78974f; stroke-width:1pt;" d="M 0,0 5,-5 -12.5,0 5,5 Z"/>
</marker>
<marker id="id02" style="overflow:visible;" orient="auto">
<path transform="matrix(-0.4,0,0,-0.4,-4,0)" style="fill:#78974f; stroke:#78974f; stroke-width:1pt;" d="M 0,0 5,-5 -12.5,0 5,5 Z"/>
</marker>
</defs>
<g transform="translate(-69.0041,-742.773)">
<circle cx="149.1" cy="838.6" r="79.5999" style="color:black; overflow:visible; fill:#00f200; fill-opacity:0.07; stroke:#e6da4f; stroke-width:1.04;"/>
<path style="color:black; overflow:visible; fill:#00f200; fill-opacity:0.07; stroke:#e6da4f; stroke-width:1.04;" d="m 228.7,838.6 a 79.6,79.6 0 0 1 -44.2,71.3 79.6,79.6 0 0 1 -83.5,-7.9 l 48.2,-63.4 z"/>
<path style="color:black; marker-start:url(#id01); marker-end:url(#id02); overflow:visible; fill:none; fill-opacity:0.07; stroke:#78974f; stroke-width:1.74;" d="m 121.6,867.9 a 40.2,40.2 0 0 1 -8.7,-46.7 40.2,40.2 0 0 1 41.9,-22.4 40.2,40.2 0 0 1 33.9,33.2"/>
<path style="color:black; marker-start:url(#id03); marker-end:url(#id04); overflow:visible; fill:none; fill-opacity:0.07; stroke:#78974f; stroke-width:1.74;" d="m 189.1,842.7 a 40.2,40.2 0 0 1 -21.1,31.3 40.2,40.2 0 0 1 -37.8,0"/>
<text x="114.6" y="794.5" style="font-family:'Comic Sans MS'; font-size:16px; color:black; overflow:visible; fill:#78974f; stroke-width:0.24px;">222.5°</text>
<text x="160.2" y="893.6" style="font-family:'Comic Sans MS'; font-size:16px; color:black; overflow:visible; fill:#78974f; stroke-width:0.24px;">137.5°</text>
<text x="82.8" y="754.8" style="font-family:'Comic Sans MS'; font-size:14.7px; overflow:visible; fill:#edd400; stroke-width:0.24px;">0.618 Turns</text>
<text x="165.2" y="929.6" style="font-family:'Comic Sans MS'; font-size:14.7px; overflow:visible; fill:#edd400; stroke-width:0.24px;">0.382 Turns</text>
</g>
</svg>
