<?xml version="1.0" encoding="UTF-8" standalone="no"?>
<!-- Created with Inkscape (http://www.inkscape.org/) -->

<svg
   width="261.296"
   height="215.388"
   id="svg18275"
   sodipodi:version="0.32"
   inkscape:version="1.1 (c68e22c387, 2021-05-23)"
   sodipodi:docname="golden-ratio-construct.svg"
   inkscape:output_extension="org.inkscape.output.svg.inkscape"
   version="1.1"
   xmlns:inkscape="http://www.inkscape.org/namespaces/inkscape"
   xmlns:sodipodi="http://sodipodi.sourceforge.net/DTD/sodipodi-0.dtd"
   xmlns="http://www.w3.org/2000/svg"
   xmlns:svg="http://www.w3.org/2000/svg"
   xmlns:rdf="http://www.w3.org/1999/02/22-rdf-syntax-ns#"
   xmlns:cc="http://creativecommons.org/ns#"
   xmlns:dc="http://purl.org/dc/elements/1.1/">
  <defs
     id="defs18277">
    <inkscape:perspective
       sodipodi:type="inkscape:persp3d"
       inkscape:vp_x="0 : 526.181 : 1"
       inkscape:vp_y="0 : 1000 : 0"
       inkscape:vp_z="744.094 : 526.181 : 1"
       inkscape:persp3d-origin="372.047 : 350.787 : 1"
       id="perspective2610" />
    <marker
       inkscape:stockid="Arrow1Lend"
       orient="auto"
       refY="0"
       refX="0"
       id="Arrow1Lend"
       style="overflow:visible">
      <path
         id="path7459"
         d="M 0,0 5,-5 -12.5,0 5,5 Z"
         style="fill-rule:evenodd;stroke:#000000;stroke-width:1pt;marker-start:none"
         transform="matrix(-0.8,0,0,-0.8,-10,0)"
         inkscape:connector-curvature="0" />
    </marker>
    <marker
       inkscape:stockid="Arrow1Lend3904"
       orient="auto"
       refY="0"
       refX="0"
       style="overflow:visible"
       id="Arrow1Lend3904">
      <path
         id="path984"
         d="M 0,0 5,-5 -12.5,0 5,5 Z"
         style="fill-rule:evenodd;stroke:#204a87;stroke-width:1pt;marker-start:none;stroke-opacity:1;fill-opacity:1;fill:#204a87"
         transform="matrix(-0.8,0,0,-0.8,-10,0)"
         inkscape:connector-curvature="0" />
    </marker>
  </defs>
  <sodipodi:namedview
     id="base"
     pagecolor="#ffffff"
     bordercolor="#000000"
     borderopacity="1"
     inkscape:pageopacity="0.0"
     inkscape:pageshadow="0"
     inkscape:zoom="1"
     inkscape:cx="409.92149"
     inkscape:cy="1325.5509"
     inkscape:document-units="px"
     inkscape:current-layer="layer1"
     inkscape:window-width="1536"
     inkscape:window-height="801"
     inkscape:window-x="1528"
     inkscape:window-y="-8"
     showgrid="false"
     inkscape:window-maximized="1"
     showguides="true"
     inkscape:guide-bbox="true"
     inkscape:snap-global="false"
     inkscape:pagecheckerboard="0" />
  <metadata
     id="metadata18280">
    <rdf:RDF>
      <cc:Work
         rdf:about="">
        <dc:format>image/svg+xml</dc:format>
        <dc:type
           rdf:resource="http://purl.org/dc/dcmitype/StillImage" />
        <dc:title />
      </cc:Work>
    </rdf:RDF>
  </metadata>
  <g
     inkscape:label="Layer 1"
     inkscape:groupmode="layer"
     id="layer1"
     transform="translate(-822.652,-455.907)">
    <rect
       style="color:#000000;display:inline;overflow:visible;visibility:visible;opacity:1;fill:none;fill-opacity:1;fill-rule:nonzero;stroke:#0084c8;stroke-width:1.5921;stroke-linecap:butt;stroke-linejoin:miter;stroke-miterlimit:4;stroke-dasharray:4.7763, 4.7763;stroke-dashoffset:0;stroke-opacity:1;marker:none;marker-start:none;marker-mid:none;marker-end:none"
       id="rect27255"
       width="148.829"
       height="148.829"
       x="843.667"
       y="474.793" />
    <rect
       y="474.793"
       x="843.667"
       height="148.829"
       width="239.485"
       id="rect33542"
       style="color:#000000;display:inline;overflow:visible;visibility:visible;opacity:1;fill:none;fill-opacity:1;fill-rule:nonzero;stroke:#c4a000;stroke-width:1.59248;stroke-linecap:butt;stroke-linejoin:miter;stroke-miterlimit:4;stroke-dasharray:none;stroke-dashoffset:0;stroke-opacity:1;marker:none;marker-start:none;marker-mid:none;marker-end:none" />
    <path
       style="fill:none;fill-opacity:0.75;fill-rule:evenodd;stroke:#204a87;stroke-width:2.468;stroke-linecap:butt;stroke-linejoin:miter;stroke-miterlimit:4;stroke-dasharray:none;stroke-opacity:1"
       d="m 918.287,622.891 73.88,-148.592"
       id="path29029"
       inkscape:connector-curvature="0" />
    <path
       id="path29031"
       d="m 917.743,623.469 165.937,0.159"
       style="fill:#204a87;fill-opacity:0.75;fill-rule:evenodd;stroke:#204a87;stroke-width:2.468344;stroke-linecap:butt;stroke-linejoin:miter;stroke-miterlimit:4;stroke-dasharray:none;stroke-opacity:1"
       inkscape:transform-center-y="0.259384"
       inkscape:transform-center-x="-83.5024"
       inkscape:connector-curvature="0" />
    <path
       sodipodi:type="arc"
       style="color:#000000;display:inline;overflow:visible;visibility:visible;opacity:1;fill:none;fill-opacity:1;fill-rule:nonzero;stroke:#204a87;stroke-width:0.79624;stroke-linecap:butt;stroke-linejoin:miter;stroke-miterlimit:4;stroke-dasharray:4.777438, 0.79624;stroke-dashoffset:0;stroke-opacity:1;marker:none;marker-start:none;marker-mid:none;marker-end:none"
       id="path29033"
       sodipodi:cx="917.37"
       sodipodi:cy="621.742"
       sodipodi:rx="165.437"
       sodipodi:ry="165.437"
       d="m 843.557,473.684 a 165.437,165.437 0 0 1 161.713,7.905 165.437,165.437 0 0 1 77.53,142.139"
       sodipodi:start="4.24991"
       sodipodi:end="0.0120074"
       sodipodi:open="true" />
    <text
       id="text29049"
       y="671.266"
       x="995.132"
       style="color:#000000;font-style:normal;font-variant:normal;font-weight:normal;font-stretch:normal;font-size:19.7098px;line-height:125%;font-family:'Comic Sans MS';text-indent:0;text-align:start;text-decoration:none;text-decoration-line:none;letter-spacing:normal;word-spacing:normal;text-transform:none;writing-mode:lr-tb;direction:ltr;text-anchor:start;display:inline;overflow:visible;visibility:visible;opacity:1;fill:#204a87;fill-opacity:1;fill-rule:nonzero;stroke:none;stroke-width:0.79624px;stroke-linecap:butt;stroke-linejoin:miter;stroke-miterlimit:4;stroke-dasharray:none;stroke-dashoffset:0;stroke-opacity:1;marker:none;marker-start:none;marker-mid:none;marker-end:none"
       xml:space="preserve"><tspan
         y="671.266"
         x="995.132"
         id="tspan29051"
         sodipodi:role="line"
         style="stroke-width:0.79624px;fill:#204a87">2</tspan></text>
    <path
       d="m 986.134,652.728 c 0,0 0,0 0.08,0 0.08,0 0.119,0 0.174,0 0.112,0 0.224,0 0.335,0 0.12,0 0.247,0 0.375,0 0.135,0 0.271,0 0.406,0 0.167,0 0.334,0 0.501,0 0.239,0 0.486,0 0.724,0 0.311,0 0.622,0 0.933,0 0.35,0 0.708,0 1.058,0 0.399,0 0.797,0 1.186,0 0.407,0 0.813,0 1.219,0 0.398,0 0.791,0 1.187,0 0.378,0 0.747,0 1.134,0 0.351,0 0.72,0 1.08,0 0.342,0 0.684,0 1.035,0 0.324,0 0.657,0 0.99,0 0.342,0 0.675,0 1.008,0 0.333,0 0.681,0 1.011,0 0.36,0 0.72,0 1.08,0 0.37,0 0.75,0 1.11,0 0.39,0 0.78,0 1.17,0 0.4,0 0.8,0 1.2,0 0.41,0 0.82,0 1.23,0 0.4,0 0.81,0 1.21,0 0.41,0 0.81,0 1.22,0 0.4,0 0.81,0 1.22,0 0.38,0 0.76,0 1.15,0 0.35,0 0.7,0 1.05,0 0.31,0 0.63,0 0.95,0 0.27,0 0.55,0 0.83,0 0.23,0 0.47,0 0.72,0 0.22,0 0.45,0 0.67,0 0.2,0 0.4,0 0.6,0 0.11,0 0.23,0 0.35,0 l -1.96,1.542 c -0.12,0 -0.24,0 -0.36,0 -0.19,0 -0.39,0 -0.59,0 -0.22,0 -0.44,0 -0.67,0 -0.25,0 -0.48,0 -0.72,0 -0.28,0 -0.56,0 -0.83,0 -0.32,0 -0.63,0 -0.95,0 -0.35,0 -0.7,0 -1.05,0 -0.39,0 -0.77,0 -1.15,0 -0.42,0 -0.82,0 -1.23,0 -0.4,0 -0.81,0 -1.21,0 -0.41,0 -0.81,0 -1.21,0 -0.41,0 -0.82,0 -1.22,0 -0.42,0 -0.81,0 -1.22,0 -0.38,0 -0.77,0 -1.16,0 -0.38,0 -0.74,0 -1.124,0 -0.36,0 -0.711,0 -1.071,0 -0.333,0 -0.675,0 -1.017,0 -0.333,0 -0.666,0 -0.999,0 -0.324,0 -0.666,0 -0.99,0 -0.351,0 -0.693,0 -1.035,0 -0.36,0 -0.72,0 -1.081,0 -0.381,0 -0.756,0 -1.13,0 -0.398,0 -0.789,0 -1.186,0 -0.407,0 -0.813,0 -1.219,0 -0.39,0 -0.788,0 -1.186,0 -0.35,0 -0.709,0 -1.06,0 -0.31,0 -0.621,0 -0.931,0 -0.239,0 -0.486,0 -0.725,0 -0.167,0 -0.334,0 -0.501,0 -0.136,0 -0.271,0 -0.414,0 -0.12,0 -0.247,0 -0.374,0 -0.104,0 -0.215,0 -0.327,0 -0.05,0 -0.118,0 -0.176,0 -0.02,0 -0.03,0 -0.04,0 z"
       id="path29974"
       style="color:#000000;display:inline;overflow:visible;visibility:visible;opacity:1;fill:#204a87;fill-opacity:1;fill-rule:nonzero;stroke:none;stroke-width:1.59248;stroke-linecap:butt;stroke-linejoin:miter;stroke-miterlimit:4;stroke-dasharray:none;stroke-dashoffset:0;stroke-opacity:1;marker:none;marker-start:none;marker-mid:none;marker-end:none"
       inkscape:connector-curvature="0" />
    <text
       xml:space="preserve"
       style="color:#000000;font-style:normal;font-variant:normal;font-weight:normal;font-stretch:normal;font-size:19.7098px;line-height:125%;font-family:'Comic Sans MS';text-indent:0;text-align:start;text-decoration:none;text-decoration-line:none;letter-spacing:normal;word-spacing:normal;text-transform:none;writing-mode:lr-tb;direction:ltr;text-anchor:start;display:inline;overflow:visible;visibility:visible;opacity:1;fill:#204a87;fill-opacity:1;fill-rule:nonzero;stroke:none;stroke-width:0.79624px;stroke-linecap:butt;stroke-linejoin:miter;stroke-miterlimit:4;stroke-dasharray:none;stroke-dashoffset:0;stroke-opacity:1;marker:none;marker-start:none;marker-mid:none;marker-end:none"
       x="997.085"
       y="648.818"
       id="text29976"><tspan
         sodipodi:role="line"
         id="tspan29978"
         x="997.085"
         y="648.818"
         style="stroke-width:0.79624px;fill:#204a87">5</tspan></text>
    <text
       xml:space="preserve"
       style="color:#000000;font-style:normal;font-variant:normal;font-weight:normal;font-stretch:normal;font-size:19.7098px;line-height:125%;font-family:'Comic Sans MS';text-indent:0;text-align:start;text-decoration:none;text-decoration-line:none;letter-spacing:normal;word-spacing:normal;text-transform:none;writing-mode:lr-tb;direction:ltr;text-anchor:start;display:inline;overflow:visible;visibility:visible;opacity:1;fill:#0084c8;fill-opacity:1;fill-rule:nonzero;stroke:none;stroke-width:0.79624px;stroke-linecap:butt;stroke-linejoin:miter;stroke-miterlimit:4;stroke-dasharray:none;stroke-dashoffset:0;stroke-opacity:1;marker:none;marker-start:none;marker-mid:none;marker-end:none"
       x="871.926"
       y="667.763"
       id="text29980"><tspan
         sodipodi:role="line"
         id="tspan29982"
         x="871.926"
         y="667.763"
         style="fill:#0084c8;stroke-width:0.79624px">2</tspan></text>
    <path
       style="color:#000000;display:inline;overflow:visible;visibility:visible;opacity:1;fill:#0084c8;fill-opacity:1;fill-rule:nonzero;stroke:none;stroke-width:1.59248;stroke-linecap:butt;stroke-linejoin:miter;stroke-miterlimit:4;stroke-dasharray:none;stroke-dashoffset:0;stroke-opacity:1;marker:none;marker-start:none;marker-mid:none;marker-end:none"
       id="path29988"
       d="m 868.398,649 c 0,0 0.02,0 0.04,0 0.04,0 0.08,0 0.126,0 0.08,0 0.157,0 0.235,0 0.09,0 0.179,0 0.268,0 0.1,0 0.196,0 0.295,0 0.119,0 0.238,0 0.357,0 0.174,10e-4 0.348,10e-4 0.521,10e-4 0.223,0 0.444,0 0.665,0 0.253,0 0.505,0 0.759,0 0.284,0 0.567,0 0.851,0 0.289,0 0.579,0 0.87,0 0.283,0 0.566,0 0.849,0 0.27,0 0.539,0 0.808,0 0.26,0 0.519,0 0.778,0 0.246,0 0.492,0 0.737,0 0.238,0 0.475,0 0.712,0 0.241,0 0.48,0 0.72,0 0.243,0 0.485,0 0.728,0 0.255,0 0.511,0 0.765,0 0.269,0 0.536,0 0.803,0 0.277,0 0.556,0 0.833,0 0.287,10e-4 0.575,0 0.864,0 0.291,10e-4 0.584,0 0.877,0 0.288,10e-4 0.577,10e-4 0.865,0 0.291,0 0.581,0 0.871,0 0.291,10e-4 0.582,10e-4 0.873,10e-4 0.276,0 0.551,0 0.827,0 0.252,0 0.502,0 0.753,0 0.226,0 0.453,0 0.678,0 0.198,0 0.396,0 0.593,0 0.172,0 0.345,0 0.519,0 0.16,0 0.32,0 0.48,0 0.143,0 0.285,0 0.428,0 0.08,0 0.167,0 0.251,0 l -1.404,1.542 c -0.08,0 -0.167,0 -0.251,0 -0.143,0 -0.285,0 -0.427,0 -0.161,0 -0.321,0 -0.481,0 -0.173,0 -0.346,0 -0.518,0 -0.198,0 -0.396,0 -0.594,0 -0.225,0 -0.45,0 -0.677,0 -0.25,0 -0.502,0 -0.753,0 -0.276,0 -0.551,0 -0.827,0 -0.29,0 -0.582,0 -0.873,0 -0.29,0 -0.58,0 -0.871,0 -0.289,0 -0.577,0 -0.866,0 -0.293,0 -0.585,0 -0.878,0 -0.288,0 -0.576,0 -0.864,0 -0.278,0 -0.555,0 -0.833,0 -0.268,0 -0.537,0 -0.804,0 -0.257,0 -0.512,0 -0.768,0 -0.242,0 -0.485,0 -0.727,0 -0.239,0 -0.476,0 -0.714,0 -0.237,0 -0.474,0 -0.713,0 -0.244,0 -0.491,0 -0.736,0 -0.26,0 -0.518,0 -0.778,0 -0.269,0 -0.539,0 -0.809,0 -0.282,0 -0.566,0 -0.848,0 -0.291,0 -0.581,0 -0.871,0 -0.283,0 -0.567,0 -0.85,0 -0.254,0 -0.507,0 -0.759,0 -0.222,0 -0.443,0 -0.665,0 -0.174,0 -0.348,0 -0.523,0 -0.119,0 -0.238,0 -0.357,0 -0.1,0 -0.196,0 -0.295,0 -0.09,0 -0.178,0 -0.267,0 -0.08,0 -0.158,0 -0.236,0 -0.04,0 -0.08,0 -0.127,0 0,0 -0.02,0 -0.03,0 z"
       inkscape:connector-curvature="0" />
    <text
       id="text29990"
       y="645.316"
       x="873.883"
       style="color:#000000;font-style:normal;font-variant:normal;font-weight:normal;font-stretch:normal;font-size:19.7098px;line-height:125%;font-family:'Comic Sans MS';text-indent:0;text-align:start;text-decoration:none;text-decoration-line:none;letter-spacing:normal;word-spacing:normal;text-transform:none;writing-mode:lr-tb;direction:ltr;text-anchor:start;display:inline;overflow:visible;visibility:visible;opacity:1;fill:#0084c8;fill-opacity:1;fill-rule:nonzero;stroke:none;stroke-width:0.79624px;stroke-linecap:butt;stroke-linejoin:miter;stroke-miterlimit:4;stroke-dasharray:none;stroke-dashoffset:0;stroke-opacity:1;marker:none;marker-start:none;marker-mid:none;marker-end:none"
       xml:space="preserve"><tspan
         y="645.316"
         x="873.883"
         id="tspan29992"
         sodipodi:role="line"
         style="fill:#0084c8;stroke-width:0.79624px">1</tspan></text>
    <text
       xml:space="preserve"
       style="color:#000000;font-style:normal;font-variant:normal;font-weight:normal;font-stretch:normal;font-size:31.8496px;line-height:125%;font-family:'Comic Sans MS';text-indent:0;text-align:start;text-decoration:none;text-decoration-line:none;letter-spacing:normal;word-spacing:normal;text-transform:none;writing-mode:lr-tb;direction:ltr;text-anchor:start;display:inline;overflow:visible;visibility:visible;opacity:1;fill:#0084c8;fill-opacity:1;fill-rule:nonzero;stroke:none;stroke-width:0.79624px;stroke-linecap:butt;stroke-linejoin:miter;stroke-miterlimit:4;stroke-dasharray:none;stroke-dashoffset:0;stroke-opacity:1;marker:none;marker-start:none;marker-mid:none;marker-end:none"
       x="820.195"
       y="560.705"
       id="text29994"><tspan
         sodipodi:role="line"
         id="tspan29996"
         x="820.195"
         y="560.705"
         style="fill:#0084c8;stroke-width:0.79624px">1</tspan></text>
    <path
       d="m 964.539,533.705 a 101.23,101.23 0 0 1 54.261,86.43"
       sodipodi:ry="101.23"
       sodipodi:rx="101.23"
       sodipodi:cy="623.405"
       sodipodi:cx="917.62"
       id="path31768"
       style="color:#000000;display:inline;overflow:visible;visibility:visible;opacity:1;fill:none;fill-opacity:1;fill-rule:nonzero;stroke:#204a87;stroke-width:1.433232;stroke-linecap:butt;stroke-linejoin:miter;stroke-miterlimit:4;stroke-dasharray:none;stroke-dashoffset:0;stroke-opacity:1;marker:none;marker-start:none;marker-mid:none;marker-end:url(#Arrow1Lend3904)"
       sodipodi:type="arc"
       sodipodi:start="5.19432"
       sodipodi:end="6.25088"
       sodipodi:open="true" />
    <circle
       style="color:#000000;display:inline;overflow:visible;visibility:visible;opacity:1;fill:#ffffff;fill-opacity:1;fill-rule:nonzero;stroke:#204a87;stroke-width:1.592483;stroke-linecap:butt;stroke-linejoin:miter;stroke-miterlimit:4;stroke-dasharray:none;stroke-dashoffset:0;stroke-opacity:1;marker:none;marker-start:none;marker-mid:none;marker-end:none"
       id="path29027"
       cx="918.083"
       cy="623.481"
       r="3.26272" />
    <text
       xml:space="preserve"
       style="color:#000000;font-style:normal;font-variant:normal;font-weight:normal;font-stretch:normal;font-size:19.7098px;line-height:125%;font-family:'Comic Sans MS';text-indent:0;text-align:start;text-decoration:none;text-decoration-line:none;letter-spacing:normal;word-spacing:normal;text-transform:none;writing-mode:lr-tb;direction:ltr;text-anchor:start;display:inline;overflow:visible;visibility:visible;opacity:1;fill:#204a87;fill-opacity:1;fill-rule:nonzero;stroke:none;stroke-width:0.79624px;stroke-linecap:butt;stroke-linejoin:miter;stroke-miterlimit:4;stroke-dasharray:none;stroke-dashoffset:0;stroke-opacity:1;marker:none;marker-start:none;marker-mid:none;marker-end:none"
       x="930.983"
       y="557.453"
       id="text1609"><tspan
         style="stroke-width:0.79624px;fill:#204a87"
         sodipodi:role="line"
         id="tspan1607"
         x="930.983"
         y="557.453">2</tspan></text>
    <path
       inkscape:connector-curvature="0"
       style="color:#000000;display:inline;overflow:visible;visibility:visible;opacity:1;fill:#204a87;fill-opacity:1;fill-rule:nonzero;stroke:none;stroke-width:1.59248;stroke-linecap:butt;stroke-linejoin:miter;stroke-miterlimit:4;stroke-dasharray:none;stroke-dashoffset:0;stroke-opacity:1;marker:none;marker-start:none;marker-mid:none;marker-end:none"
       id="path1615"
       d="m 921.985,538.915 c 0,0 0,0 0.08,0 0.08,0 0.118,0 0.174,0 0.112,0 0.223,0 0.335,0 0.12,0 0.247,0 0.374,0 0.135,0 0.271,0 0.406,0 0.168,0 0.335,0 0.502,0 0.239,0 0.486,0 0.724,0 0.311,0 0.622,0 0.932,0 0.351,0 0.709,0 1.059,0 0.399,0 0.796,0 1.186,0 0.407,0 0.813,0 1.219,0 0.397,0 0.791,0 1.187,0 0.378,0 0.747,0 1.134,0 0.351,0 0.72,0 1.08,0 0.342,0 0.684,0 1.035,0 0.324,0 0.657,0 0.99,0 0.342,0 0.675,0 1.008,0 0.333,0 0.675,0 1.008,0 0.36,0 0.72,0 1.08,0 0.369,0 0.747,0 1.116,0 0.387,0 0.774,0 1.161,0 0.405,0 0.801,0 1.206,0 0.405,0 0.819,0 1.224,0 0.405,0 0.81,0 1.215,0 0.405,0 0.81,0 1.215,0 0.405,0 0.81,0 1.224,0 0.378,0 0.765,0 1.152,0 0.351,0 0.702,0 1.053,0 0.306,0 0.63,0 0.945,0 0.27,0 0.549,0 0.828,0 0.234,0 0.477,0 0.72,0 0.225,0 0.45,0 0.675,0 0.198,0 0.396,0 0.594,0 0.117,0 0.234,0 0.351,0 l -1.962,1.542 c -0.117,0 -0.234,0 -0.351,0 -0.198,0 -0.396,0 -0.594,0 -0.225,0 -0.441,0 -0.666,0 -0.252,0 -0.486,0 -0.729,0 -0.279,0 -0.558,0 -0.828,0 -0.315,0 -0.63,0 -0.945,0 -0.351,0 -0.702,0 -1.053,0 -0.387,0 -0.774,0 -1.152,0 -0.414,0 -0.819,0 -1.224,0 -0.405,0 -0.81,0 -1.215,0 -0.405,-10e-4 -0.81,-10e-4 -1.206,0 -0.414,-10e-4 -0.819,0 -1.224,0 -0.414,-10e-4 -0.81,0 -1.215,0 -0.387,0 -0.774,0 -1.161,0 -0.378,0 -0.747,0 -1.125,0 -0.36,0 -0.711,0 -1.071,0 -0.333,0 -0.675,0 -1.017,0 -0.333,0 -0.666,0 -0.999,0 -0.324,0 -0.666,0 -0.99,0 -0.351,0 -0.693,0 -1.035,0 -0.36,0 -0.72,0 -1.081,0 -0.382,0 -0.756,0 -1.131,0 -0.397,0 -0.788,0 -1.186,0 -0.407,0 -0.812,0 -1.218,0 -0.39,0 -0.789,0 -1.187,0 -0.35,0 -0.709,0 -1.059,0 -0.31,0 -0.621,0 -0.931,0 -0.239,0 -0.486,0 -0.725,0 -0.167,0 -0.335,0 -0.501,0 -0.136,0 -0.271,0 -0.414,0 -0.12,0 -0.248,0 -0.375,0 -0.103,0 -0.215,0 -0.326,0 -0.05,0 -0.118,0 -0.177,0 -0.02,0 -0.03,0 -0.04,0 z" />
    <text
       id="text1619"
       y="535.005"
       x="932.936"
       style="color:#000000;font-style:normal;font-variant:normal;font-weight:normal;font-stretch:normal;font-size:19.7098px;line-height:125%;font-family:'Comic Sans MS';text-indent:0;text-align:start;text-decoration:none;text-decoration-line:none;letter-spacing:normal;word-spacing:normal;text-transform:none;writing-mode:lr-tb;direction:ltr;text-anchor:start;display:inline;overflow:visible;visibility:visible;opacity:1;fill:#204a87;fill-opacity:1;fill-rule:nonzero;stroke:none;stroke-width:0.79624px;stroke-linecap:butt;stroke-linejoin:miter;stroke-miterlimit:4;stroke-dasharray:none;stroke-dashoffset:0;stroke-opacity:1;marker:none;marker-start:none;marker-mid:none;marker-end:none"
       xml:space="preserve"><tspan
         style="stroke-width:0.79624px;fill:#204a87"
         y="535.005"
         x="932.936"
         id="tspan1617"
         sodipodi:role="line">5</tspan></text>
    <path
       style="fill:none;fill-rule:evenodd;stroke:#204a87;stroke-width:1.8;stroke-linecap:butt;stroke-linejoin:miter;stroke-miterlimit:4;stroke-dasharray:none;stroke-opacity:1"
       d="m 1012.21,630.421 h -16.142 l -4.452,20.112 -2.228,-7.717 -2.147,1.432"
       id="path2234"
       inkscape:connector-curvature="0" />
    <path
       style="fill:none;fill-rule:evenodd;stroke:#204a87;stroke-width:1.8;stroke-linecap:butt;stroke-linejoin:miter;stroke-miterlimit:4;stroke-dasharray:none;stroke-opacity:1"
       d="M 947.356,516.418 H 931.21 l -4.452,20.112 -2.227,-7.717 -2.148,1.432"
       id="path2234-8"
       inkscape:connector-curvature="0" />
  </g>
</svg>
