<?xml version="1.0" encoding="UTF-8" standalone="no"?>
<!-- Created with Inkscape (http://www.inkscape.org/) -->

<svg
   width="188.493"
   height="220.698"
   id="svg18275"
   sodipodi:version="0.32"
   inkscape:version="1.1 (c68e22c387, 2021-05-23)"
   sodipodi:docname="golden-ratio-construct-1.svg"
   inkscape:output_extension="org.inkscape.output.svg.inkscape"
   version="1.1"
   xmlns:inkscape="http://www.inkscape.org/namespaces/inkscape"
   xmlns:sodipodi="http://sodipodi.sourceforge.net/DTD/sodipodi-0.dtd"
   xmlns="http://www.w3.org/2000/svg"
   xmlns:svg="http://www.w3.org/2000/svg"
   xmlns:rdf="http://www.w3.org/1999/02/22-rdf-syntax-ns#"
   xmlns:cc="http://creativecommons.org/ns#"
   xmlns:dc="http://purl.org/dc/elements/1.1/">
  <defs
     id="defs18277">
    <inkscape:perspective
       sodipodi:type="inkscape:persp3d"
       inkscape:vp_x="0 : 526.181 : 1"
       inkscape:vp_y="0 : 1000 : 0"
       inkscape:vp_z="744.094 : 526.181 : 1"
       inkscape:persp3d-origin="372.047 : 350.787 : 1"
       id="perspective2610" />
    <marker
       inkscape:stockid="Arrow1Lend"
       orient="auto"
       refY="0"
       refX="0"
       id="Arrow1Lend"
       style="overflow:visible">
      <path
         id="path7459"
         d="M 0,0 5,-5 -12.5,0 5,5 Z"
         style="fill-rule:evenodd;stroke:#000000;stroke-width:1pt;marker-start:none"
         transform="matrix(-0.8,0,0,-0.8,-10,0)"
         inkscape:connector-curvature="0" />
    </marker>
  </defs>
  <sodipodi:namedview
     id="base"
     pagecolor="#ffffff"
     bordercolor="#000000"
     borderopacity="1"
     inkscape:pageopacity="0.0"
     inkscape:pageshadow="0"
     inkscape:zoom="1"
     inkscape:cx="409.92149"
     inkscape:cy="1325.5509"
     inkscape:document-units="px"
     inkscape:current-layer="layer1"
     inkscape:window-width="1536"
     inkscape:window-height="801"
     inkscape:window-x="1528"
     inkscape:window-y="-8"
     showgrid="false"
     inkscape:window-maximized="1"
     showguides="true"
     inkscape:guide-bbox="true"
     inkscape:snap-object-midpoints="true"
     inkscape:pagecheckerboard="0" />
  <metadata
     id="metadata18280">
    <rdf:RDF>
      <cc:Work
         rdf:about="">
        <dc:format>image/svg+xml</dc:format>
        <dc:type
           rdf:resource="http://purl.org/dc/dcmitype/StillImage" />
        <dc:title />
      </cc:Work>
    </rdf:RDF>
  </metadata>
  <g
     inkscape:label="Layer 1"
     inkscape:groupmode="layer"
     id="layer1"
     transform="translate(-818.961,-446.409)">
    <rect
       y="474.109"
       x="839.658"
       height="148.829"
       width="148.829"
       id="rect1007"
       style="color:#000000;display:inline;overflow:visible;visibility:visible;opacity:1;fill:none;fill-opacity:1;fill-rule:nonzero;stroke:#19aeff;stroke-width:1.35;stroke-linecap:butt;stroke-linejoin:miter;stroke-miterlimit:4;stroke-dasharray:none;stroke-dashoffset:0;stroke-opacity:1;marker:none;marker-start:none;marker-mid:none;marker-end:none" />
    <text
       id="text975"
       y="667.078"
       x="948.448"
       style="color:#000000;font-style:normal;font-variant:normal;font-weight:normal;font-stretch:normal;font-size:19.7098px;line-height:125%;font-family:'Trebuchet MS';text-indent:0;text-align:start;text-decoration:none;text-decoration-line:none;letter-spacing:normal;word-spacing:normal;text-transform:none;writing-mode:lr-tb;direction:ltr;text-anchor:start;display:inline;overflow:visible;visibility:visible;opacity:1;fill:#19aeff;fill-opacity:1;fill-rule:nonzero;stroke:none;stroke-width:0.79624px;stroke-linecap:butt;stroke-linejoin:miter;stroke-miterlimit:4;stroke-dasharray:none;stroke-dashoffset:0;stroke-opacity:1;marker:none;marker-start:none;marker-mid:none;marker-end:none"
       xml:space="preserve"><tspan
         style="fill:#19aeff;stroke-width:0.79624px"
         y="667.078"
         x="948.448"
         id="tspan973"
         sodipodi:role="line">2</tspan></text>
    <path
       inkscape:connector-curvature="0"
       d="m 943.293,648.316 c 0,0 0.02,0 0.04,0 0.04,0 0.08,0 0.126,0 0.08,0 0.158,0 0.236,0 0.09,0 0.178,0 0.267,0 0.1,0 0.197,0 0.296,0 0.118,0 0.237,0 0.357,0 0.174,10e-4 0.347,10e-4 0.521,10e-4 0.222,0 0.444,0 0.665,0 0.253,0 0.505,0 0.759,0 0.283,0 0.567,0 0.85,0 0.29,0 0.58,0 0.871,0 0.282,0 0.566,0 0.848,0 0.27,0 0.539,0 0.809,0 0.26,0 0.519,0 0.778,0 0.246,0 0.491,0 0.737,0 0.238,0 0.474,0 0.712,0 0.24,0 0.48,0 0.72,0 0.243,0 0.485,0 0.728,0 0.255,0 0.51,0 0.765,0 0.268,0 0.536,0 0.803,0 0.277,0 0.555,0 0.832,0 0.288,10e-4 0.576,0 0.864,0 0.292,10e-4 0.585,0 0.878,0 0.288,10e-4 0.577,10e-4 0.865,0 0.291,0 0.58,0 0.871,0 0.291,10e-4 0.581,10e-4 0.873,10e-4 0.275,0 0.551,10e-4 0.827,10e-4 0.251,0 0.501,0 0.753,0 0.225,0 0.452,0 0.678,0 0.197,0 0.395,0 0.592,0 0.173,0 0.346,0 0.52,0 0.16,0 0.32,0 0.479,0 0.143,0 0.286,0 0.429,0 0.08,0 0.166,0 0.251,0 l -1.404,1.541 c -0.08,0 -0.168,0 -0.251,0 -0.143,0 -0.286,0 -0.428,0 -0.16,0 -0.32,0 -0.48,0 -0.173,0 -0.346,0 -0.519,0 -0.197,0 -0.395,0 -0.593,0 -0.225,0 -0.451,0 -0.678,0 -0.25,0 -0.501,0 -0.752,0 -0.276,0 -0.552,0 -0.827,0 -0.291,0 -0.582,0 -0.873,0 -0.291,0 -0.581,0 -0.871,0 -0.289,0 -0.577,0 -0.866,0 -0.293,0 -0.585,0 -0.878,0 -0.288,0 -0.576,0 -0.864,0 -0.279,0 -0.556,0 -0.833,0 -0.268,0 -0.537,0 -0.805,0 -0.256,0 -0.512,0 -0.767,0 -0.242,0 -0.485,0 -0.727,0 -0.239,0 -0.477,0 -0.714,0 -0.238,0 -0.474,0 -0.713,0 -0.245,0 -0.491,0 -0.736,0 -0.26,0 -0.519,0 -0.779,0 -0.269,0 -0.539,0 -0.808,0 -0.282,0 -0.566,0 -0.849,0 -0.29,0 -0.58,0 -0.87,0 -0.283,0 -0.567,0 -0.85,0 -0.254,0 -0.507,0 -0.759,0 -0.222,0 -0.444,0 -0.665,0 -0.175,0 -0.348,0 -0.523,0 -0.119,0 -0.239,0 -0.357,0 -0.1,0 -0.197,0 -0.296,0 -0.09,0 -0.178,0 -0.266,0 -0.08,0 -0.158,0 -0.237,0 -0.04,0 -0.08,0 -0.127,0 0,0 -0.02,0 -0.03,0 z"
       id="path977"
       style="color:#000000;display:inline;overflow:visible;visibility:visible;opacity:1;fill:#19aeff;fill-opacity:1;fill-rule:nonzero;stroke:none;stroke-width:1.59248;stroke-linecap:butt;stroke-linejoin:miter;stroke-miterlimit:4;stroke-dasharray:none;stroke-dashoffset:0;stroke-opacity:1;marker:none;marker-start:none;marker-mid:none;marker-end:none" />
    <text
       xml:space="preserve"
       style="color:#000000;direction:ltr;display:inline;fill:#19aeff;fill-opacity:1;fill-rule:nonzero;font-family:Trebuchet MS;font-size:19.7098px;font-stretch:normal;font-style:normal;font-variant:normal;font-weight:normal;letter-spacing:normal;line-height:125%;marker:none;marker-end:none;marker-mid:none;marker-start:none;opacity:1;overflow:visible;stroke:none;stroke-dasharray:none;stroke-dashoffset:0;stroke-linecap:butt;stroke-linejoin:miter;stroke-miterlimit:4;stroke-opacity:1;stroke-width:0.79624px;text-align:start;text-anchor:start;text-decoration:none;text-decoration-line:none;text-indent:0;text-transform:none;visibility:visible;word-spacing:normal;writing-mode:lr-tb"
       x="949.074"
       y="644.631"
       id="text981"><tspan
         style="fill:#19aeff;stroke-width:0.79624px"
         sodipodi:role="line"
         id="tspan979"
         x="949.074"
         y="644.631">1</tspan></text>
    <text
       id="text985"
       y="560.021"
       x="996.19"
       style="-inkscape-font-specification:Trebuchet MS;color:#000000;direction:ltr;display:inline;fill:#19aeff;fill-opacity:1;fill-rule:nonzero;font-family:Trebuchet MS;font-feature-settings:normal;font-size:28.8px;font-stretch:normal;font-style:normal;font-variant:normal;font-variant-caps:normal;font-variant-ligatures:normal;font-variant-numeric:normal;font-weight:normal;letter-spacing:normal;line-height:125%;marker:none;marker-end:none;marker-mid:none;marker-start:none;opacity:1;overflow:visible;stroke:none;stroke-dasharray:none;stroke-dashoffset:0;stroke-linecap:butt;stroke-linejoin:miter;stroke-miterlimit:4;stroke-opacity:1;stroke-width:0.79624px;text-align:start;text-anchor:start;text-decoration:none;text-decoration-line:none;text-indent:0;text-transform:none;visibility:visible;word-spacing:normal;writing-mode:lr-tb"
       xml:space="preserve"><tspan
         style="-inkscape-font-specification:Trebuchet MS;fill:#19aeff;font-family:Trebuchet MS;font-feature-settings:normal;font-size:28.8px;font-stretch:normal;font-style:normal;font-variant:normal;font-variant-caps:normal;font-variant-ligatures:normal;font-variant-numeric:normal;font-weight:normal;stroke-width:0.79624px;text-align:start;text-anchor:start;writing-mode:lr-tb"
         y="560.021"
         x="996.19"
         id="tspan983"
         sodipodi:role="line">1</tspan></text>
    <text
       xml:space="preserve"
       style="-inkscape-font-specification:Trebuchet MS;color:#000000;direction:ltr;display:inline;fill:#19aeff;fill-opacity:1;fill-rule:nonzero;font-family:Trebuchet MS;font-feature-settings:normal;font-size:28.8px;font-stretch:normal;font-style:normal;font-variant:normal;font-variant-caps:normal;font-variant-ligatures:normal;font-variant-numeric:normal;font-weight:normal;letter-spacing:normal;line-height:125%;marker:none;marker-end:none;marker-mid:none;marker-start:none;opacity:1;overflow:visible;stroke:none;stroke-dasharray:none;stroke-dashoffset:0;stroke-linecap:butt;stroke-linejoin:miter;stroke-miterlimit:4;stroke-opacity:1;stroke-width:0.79624px;text-align:start;text-anchor:start;text-decoration:none;text-decoration-line:none;text-indent:0;text-transform:none;visibility:visible;word-spacing:normal;writing-mode:lr-tb"
       x="906.84"
       y="468.332"
       id="text991"><tspan
         sodipodi:role="line"
         id="tspan989"
         x="906.84"
         y="468.332"
         style="-inkscape-font-specification:Trebuchet MS;fill:#19aeff;font-family:Trebuchet MS;font-feature-settings:normal;font-size:28.8px;font-stretch:normal;font-style:normal;font-variant:normal;font-variant-caps:normal;font-variant-ligatures:normal;font-variant-numeric:normal;font-weight:normal;stroke-width:0.79624px;text-align:start;text-anchor:start;writing-mode:lr-tb">1</tspan></text>
    <text
       id="text995"
       y="561.892"
       x="816.739"
       style="-inkscape-font-specification:Trebuchet MS;color:#000000;direction:ltr;display:inline;fill:#19aeff;fill-opacity:1;fill-rule:nonzero;font-family:Trebuchet MS;font-feature-settings:normal;font-size:28.8px;font-stretch:normal;font-style:normal;font-variant:normal;font-variant-caps:normal;font-variant-ligatures:normal;font-variant-numeric:normal;font-weight:normal;letter-spacing:normal;line-height:125%;marker:none;marker-end:none;marker-mid:none;marker-start:none;opacity:1;overflow:visible;stroke:none;stroke-dasharray:none;stroke-dashoffset:0;stroke-linecap:butt;stroke-linejoin:miter;stroke-miterlimit:4;stroke-opacity:1;stroke-width:0.79624px;text-align:start;text-anchor:start;text-decoration:none;text-decoration-line:none;text-indent:0;text-transform:none;visibility:visible;word-spacing:normal;writing-mode:lr-tb"
       xml:space="preserve"><tspan
         style="-inkscape-font-specification:Trebuchet MS;fill:#19aeff;font-family:Trebuchet MS;font-feature-settings:normal;font-size:28.8px;font-stretch:normal;font-style:normal;font-variant:normal;font-variant-caps:normal;font-variant-ligatures:normal;font-variant-numeric:normal;font-weight:normal;stroke-width:0.79624px;text-align:start;text-anchor:start;writing-mode:lr-tb"
         y="561.892"
         x="816.739"
         id="tspan993"
         sodipodi:role="line">1</tspan></text>
    <text
       xml:space="preserve"
       style="color:#000000;font-style:normal;font-variant:normal;font-weight:normal;font-stretch:normal;font-size:19.7098px;line-height:125%;font-family:'Trebuchet MS';text-indent:0;text-align:start;text-decoration:none;text-decoration-line:none;letter-spacing:normal;word-spacing:normal;text-transform:none;writing-mode:lr-tb;direction:ltr;text-anchor:start;display:inline;overflow:visible;visibility:visible;opacity:1;fill:#19aeff;fill-opacity:1;fill-rule:nonzero;stroke:none;stroke-width:0.79624px;stroke-linecap:butt;stroke-linejoin:miter;stroke-miterlimit:4;stroke-dasharray:none;stroke-dashoffset:0;stroke-opacity:1;marker:none;marker-start:none;marker-mid:none;marker-end:none"
       x="868.454"
       y="667.078"
       id="text999"><tspan
         sodipodi:role="line"
         id="tspan997"
         x="868.454"
         y="667.078"
         style="fill:#19aeff;stroke-width:0.79624px">2</tspan></text>
    <path
       style="color:#000000;display:inline;overflow:visible;visibility:visible;opacity:1;fill:#19aeff;fill-opacity:1;fill-rule:nonzero;stroke:none;stroke-width:1.59248;stroke-linecap:butt;stroke-linejoin:miter;stroke-miterlimit:4;stroke-dasharray:none;stroke-dashoffset:0;stroke-opacity:1;marker:none;marker-start:none;marker-mid:none;marker-end:none"
       id="path1001"
       d="m 863.299,648.316 c 0,0 0.02,0 0.04,0 0.04,0 0.08,0 0.126,0 0.08,0 0.157,0 0.235,0 0.09,0 0.179,0 0.268,0 0.1,0 0.196,0 0.295,0 0.119,0 0.237,0 0.357,0 0.174,10e-4 0.348,10e-4 0.521,10e-4 0.223,0 0.444,0 0.665,0 0.253,0 0.505,0 0.759,0 0.284,0 0.567,0 0.851,0 0.289,0 0.579,0 0.87,0 0.282,0 0.566,0 0.849,0 0.27,0 0.539,0 0.808,0 0.26,0 0.519,0 0.778,0 0.246,0 0.492,0 0.737,0 0.238,0 0.475,0 0.712,0 0.241,0 0.48,0 0.72,0 0.243,0 0.485,0 0.728,0 0.255,0 0.511,0 0.765,0 0.269,0 0.536,0 0.803,0 0.277,0 0.555,0 0.833,0 0.287,10e-4 0.575,0 0.864,0 0.291,10e-4 0.584,0 0.877,0 0.288,10e-4 0.577,10e-4 0.865,0 0.291,0 0.581,0 0.871,0 0.291,10e-4 0.582,10e-4 0.873,10e-4 0.276,0 0.551,10e-4 0.827,10e-4 0.251,0 0.502,0 0.753,0 0.226,0 0.452,0 0.678,0 0.197,0 0.395,0 0.593,0 0.172,0 0.345,0 0.519,0 0.16,0 0.32,0 0.48,0 0.143,0 0.285,0 0.428,0 0.08,0 0.166,0 0.251,0 l -1.404,1.541 c -0.08,0 -0.167,0 -0.251,0 -0.143,0 -0.285,0 -0.428,0 -0.16,0 -0.32,0 -0.48,0 -0.173,0 -0.346,0 -0.519,0 -0.197,0 -0.395,0 -0.593,0 -0.225,0 -0.451,0 -0.677,0 -0.251,0 -0.502,0 -0.753,0 -0.276,0 -0.551,0 -0.827,0 -0.291,0 -0.582,0 -0.873,0 -0.291,0 -0.58,0 -0.871,0 -0.289,0 -0.577,0 -0.866,0 -0.293,0 -0.585,0 -0.878,0 -0.288,0 -0.576,0 -0.864,0 -0.278,0 -0.556,0 -0.833,0 -0.268,0 -0.537,0 -0.804,0 -0.257,0 -0.512,0 -0.768,0 -0.242,0 -0.485,0 -0.727,0 -0.239,0 -0.476,0 -0.714,0 -0.238,0 -0.474,0 -0.713,0 -0.245,0 -0.491,0 -0.736,0 -0.26,0 -0.518,0 -0.778,0 -0.27,0 -0.54,0 -0.809,0 -0.282,0 -0.566,0 -0.848,0 -0.291,0 -0.581,0 -0.871,0 -0.283,0 -0.567,0 -0.85,0 -0.254,0 -0.507,0 -0.759,0 -0.222,0 -0.444,0 -0.665,0 -0.175,0 -0.348,0 -0.523,0 -0.119,0 -0.238,0 -0.357,0 -0.1,0 -0.196,0 -0.295,0 -0.09,0 -0.179,0 -0.267,0 -0.08,0 -0.158,0 -0.236,0 -0.04,0 -0.08,0 -0.127,0 0,0 -0.02,0 -0.03,0 z"
       inkscape:connector-curvature="0" />
    <text
       id="text1005"
       y="644.631"
       x="869.08"
       style="color:#000000;direction:ltr;display:inline;fill:#19aeff;fill-opacity:1;fill-rule:nonzero;font-family:Trebuchet MS;font-size:19.7098px;font-stretch:normal;font-style:normal;font-variant:normal;font-weight:normal;letter-spacing:normal;line-height:125%;marker:none;marker-end:none;marker-mid:none;marker-start:none;opacity:1;overflow:visible;stroke:none;stroke-dasharray:none;stroke-dashoffset:0;stroke-linecap:butt;stroke-linejoin:miter;stroke-miterlimit:4;stroke-opacity:1;stroke-width:0.79624px;text-align:start;text-anchor:start;text-decoration:none;text-decoration-line:none;text-indent:0;text-transform:none;visibility:visible;word-spacing:normal;writing-mode:lr-tb"
       xml:space="preserve"><tspan
         y="644.631"
         x="869.08"
         id="tspan1003"
         sodipodi:role="line"
         style="fill:#19aeff;stroke-width:0.79624px">1</tspan></text>
    <path
       style="opacity:1;vector-effect:none;fill:#204a87;fill-opacity:1;fill-rule:evenodd;stroke:#3465a4;stroke-width:2.468344;stroke-linecap:butt;stroke-linejoin:miter;stroke-miterlimit:4;stroke-dasharray:none;stroke-dashoffset:0;stroke-opacity:1"
       d="M 988.487,474.109 914.072,622.938"
       id="path1011"
       inkscape:connector-curvature="0" />
    <circle
       style="color:#000000;display:inline;overflow:visible;visibility:visible;opacity:1;fill:#ffffff;fill-opacity:1;fill-rule:nonzero;stroke:#204a87;stroke-width:1.592483;stroke-linecap:butt;stroke-linejoin:miter;stroke-miterlimit:4;stroke-dasharray:none;stroke-dashoffset:0;stroke-opacity:1;marker:none;marker-start:none;marker-mid:none;marker-end:none"
       id="path29027"
       cx="914.073"
       cy="622.938"
       r="3.26272" />
  </g>
</svg>
