<?xml version="1.0" encoding="UTF-8" standalone="no"?>
<!-- Copyright 2017 mathsisfun.com -->
<svg xmlns="http://www.w3.org/2000/svg" xmlns:xlink="http://www.w3.org/1999/xlink" width="274.4" height="273.4" version="1.1">
<defs>
<marker id="id1" style="overflow:visible;" orient="auto">
<path transform="matrix(-0.4,0,0,-0.4,-4,0)" style="fill:#ef2929; stroke:#ef2929; stroke-width:1pt;" d="M 0,0 5,-5 -12.5,0 5,5 Z"/>
</marker>
<marker id="id2" style="overflow:visible;" orient="auto">
<path transform="matrix(-0.4,0,0,-0.4,-4,0)" style="fill:#005c94; stroke:#005c94; stroke-width:1pt;" d="M 0,0 5,-5 -12.5,0 5,5 Z"/>
</marker>
</defs>
<path style="color:black; marker-end:url(#id1); overflow:visible; fill:none; stroke:#ef2929; stroke-width:2.01; stroke-linejoin:round;" d="M 131.7,273.4 V 5.5"/>
<path style="color:black; marker-end:url(#id2); overflow:visible; fill:none; stroke:#005c94; stroke-width:2.02; stroke-linejoin:round;" d="M 0,139.3 H 268.8"/>
<path id="id6" style="color:black; overflow:visible; fill:#fef8c9; fill-opacity:0.77; stroke-width:6;" d="m 155.1,56.1 a 24.2,24.2 0 0 1 -24.1,24.2 24.2,24.2 0 0 1 -24.2,-24.1 24.2,24.2 0 0 1 24,-24.3 24.2,24.2 0 0 1 24.3,24"/>
<use id="id7" transform="translate(-87.771,83.5)" xlink:href="#id3"/>
<g id="id10" transform="matrix(-0.11179,0.11179,0.11179,0.11179,411.27,-101.96)">
<path style="color:black; overflow:visible; opacity:0.72; fill:#8ae234; stroke:#8ae234; stroke-width:2.3;" d="m 2177.7,-622.7 c 12.1,-7.4 25,-13.7 38,-19.8 21.8,-9.6 46.1,-12.7 69.8,-17.1 15.6,-1.6 31,0.6 46.4,2.7 15,2.4 29.4,6.4 43.8,10.4 13.4,3.9 27.1,6.4 41,8.4 13.8,1.4 27.6,-0.2 41.3,-1.3 4.7,-0.4 9.3,-1.2 13.9,-1.8 l -21,21.2 c -4.9,0.5 -9.7,1.2 -14.5,1.4 -14.7,0.8 -29.4,1.7 -43.9,-0.9 -14.2,-2.7 -28.4,-5.6 -42.2,-9.6 -13.9,-3.6 -27.9,-7.2 -42.4,-9 -14.5,-1.4 -28.9,-2.7 -43.4,-0.2 -2.5,0.4 -9.8,1.9 -7.4,1.2 40.1,-11.4 -1.5,0.8 -10.3,3.3 -13,5.3 -25.7,10.9 -37.4,18.1 z"/>
<path style="color:black; overflow:visible; opacity:0.72; fill:#8ae234; stroke:#8ae234; stroke-width:2.3;" d="m 2434.2,-673.6 c 6.7,10 16.1,17.6 26.6,24.7 11.5,7.5 23.6,8.1 37.5,7.9 l -22.7,20 c -15.9,-1.8 -30.3,-4.7 -43,-13.8 -11,-8.4 -21.2,-17.2 -28.6,-28.1 l 30.2,-10.6 z"/>
<path style="color:black; overflow:visible; opacity:0.72; fill:#8ae234; stroke:#8ae234; stroke-width:2.3;" d="m 2402.8,-591.3 c 9.8,-9.1 21,-16.8 32.5,-24.4 19.4,-13.2 40.3,-17.4 64.2,-22.9 4.7,-0.6 9.4,-1.4 14.1,-2.1 l -20.6,21.5 c -4.5,0.8 -9,1.4 -13.4,2.5 42,-10.2 -4.3,0.2 -12.6,7.7 -11.2,6.8 -22.4,13.8 -31.9,22.4 z"/>
</g>
<g id="id4" transform="matrix(0.1581,0,0,0.1581,215.04,51.24)">
<path style="color:black; overflow:visible; fill:#204a87; stroke:#204a87; stroke-width:2.3;" d="m -526.2,-22.8 c -4.6,13.8 -8.1,28 -11.6,42.2 -3.3,14.2 -4.4,28.8 -5.8,43.3 -1,14.6 5.1,23 15,32.4 15.3,5.1 20.2,-0.3 2.9,1.4 l 33,8.8 c -18.7,16 -45.7,21.3 -65.7,6.5 -12.6,-12.6 -19.2,-27 -19.1,-45 1.4,-15.2 2.4,-30.4 5.6,-45.3 3.4,-14.7 7,-29.3 11.5,-43.7 l 34.1,-0.5 z"/>
<path style="color:black; overflow:visible; fill:#204a87; stroke:#204a87; stroke-width:2.3;" d="m -527.7,-72.2 c 3.2,6.2 8.2,10.9 12.6,16.1 l -30.7,15 c -4.9,-6.3 -10.5,-12.1 -14,-19.4 l 32.1,-11.8 z"/>
</g>
<use transform="translate(4.5746,166.01)" xlink:href="#id4"/>
<use transform="translate(5.4029,-117.87)" xlink:href="#id5"/>
<use id="id3" transform="translate(88.563,82.79)" xlink:href="#id6"/>
<use transform="translate(-85.295,-85.09)" xlink:href="#id7"/>
<g id="id8" transform="matrix(0.1581,0,0,0.1581,117.28,12.34)">
<path style="color:black; overflow:visible; fill:#204a87; stroke:#4e9a06; stroke-width:2.3;" d="m 618.7,778 c 8.8,-12 17.5,-24.1 26.4,-36.1 3.1,-3.6 5.3,-7.8 7.9,-11.7 l 34.1,1.7 c -2.7,4.4 -4.9,9.1 -8,13.3 -9.1,11.9 -18,23.8 -26.5,36.2 l -34,-3.3 z"/>
<path style="color:black; overflow:visible; fill:#204a87; stroke:#4e9a06; stroke-width:2.3;" d="m 688.3,733.1 c -2.2,15.6 -5.7,30.9 -9.1,46.2 -3.3,14.8 -5.6,29.7 -7.9,44.7 -1.7,15 -4.3,29.9 -7.1,44.8 -0.6,2.5 -1.1,4.9 -1.7,7.4 l -34,2.7 c 0.6,-2.2 1.2,-4.4 1.7,-6.7 2.7,-14.7 5.6,-29.4 7.1,-44.3 2.3,-15.3 4.6,-30.5 7.9,-45.6 3.4,-15 6.9,-30.1 9.2,-45.3 l 33.9,-4 z"/>
</g>
<use transform="translate(-168.76,-1.31)" xlink:href="#id8"/>
<path id="id9" style="color:black; overflow:visible; fill:#204a87; stroke:#191300; stroke-width:0.36;" d="m 32.5,136.3 c 2.4,0.2 4.8,0 7.1,0 1.6,0 3.1,0.1 4.7,0.2 l -3.8,3.8 c -1.5,0 -3.1,-0.1 -4.6,0 -2.4,0 -4.9,0.1 -7.3,-0.2 z"/>
<use transform="translate(83.066,85.44)" xlink:href="#id9"/>
<use id="id11" transform="rotate(-90,130.1,140.94)" xlink:href="#id10"/>
<use id="id12" transform="rotate(-90,130.8,138.74)" xlink:href="#id11"/>
<use transform="rotate(-90,133,139.04)" xlink:href="#id12"/>
<g id="id14" transform="matrix(0.1581,0,0,0.1581,-219.52,240.44)">
<path style="color:black; overflow:visible; fill:#729fcf; stroke:#729fcf; stroke-width:2.3;" d="m 2523.9,-959.1 c 8.8,-7.5 17.6,-15.1 26.4,-22.5 8.6,-7 16.7,-14.6 24.7,-22.3 7.9,-8 15.4,-16.3 22.9,-24.7 6.3,-7 12.5,-14.2 18.8,-21.3 l 24.6,2.7 c -6.3,7.1 -12.5,14.3 -18.8,21.4 -7.6,8.4 -15.2,16.9 -23,25.2 -8,8 -16,16 -24.8,23.1 -8.8,7.5 -17.7,14.9 -26.4,22.6 z"/>
<path style="color:black; overflow:visible; fill:#729fcf; stroke:#729fcf; stroke-width:2.3;" d="m 2571,-1050.9 c 6.5,9.7 12.5,19.8 18.4,29.8 5.7,9.9 12.1,19.4 18.7,28.8 6.4,9 14.4,16.7 22.2,24.4 2.7,2.4 5.1,5.3 7.6,7.9 l -21.3,12.9 c -2.5,-2.5 -4.9,-5.2 -7.5,-7.6 -8.2,-8.2 -16.3,-16.4 -23,-26 -6.7,-9.7 -13.2,-19.4 -19.1,-29.6 -5.9,-9.9 -11.8,-19.9 -18.2,-29.5 z"/>
<path style="color:black; overflow:visible; fill:#729fcf; stroke:#729fcf; stroke-width:2.3;" d="m 2740.3,-1066.7 c -4.9,13.6 -8.5,27.5 -12.2,41.3 -3.5,14 -4.6,28.3 -6,42.6 -1.1,14.3 5.3,22.6 15.7,31.8 16.1,5 21.3,-0.3 3.1,1.4 l 34.8,8.6 c -19.7,15.7 -48.2,20.9 -69.3,6.4 -13.3,-12.4 -20.3,-26.5 -20.1,-44.2 1.4,-14.9 2.5,-29.8 5.9,-44.5 3.6,-14.4 7.3,-28.7 12.1,-42.8 l 36,-0.5 z"/>
<path style="color:black; overflow:visible; fill:#729fcf; stroke:#729fcf; stroke-width:2.3;" d="m 2738.8,-1115.1 c 3.3,6 8.6,10.7 13.3,15.8 l -32.4,14.7 c -5.1,-6.1 -11,-11.8 -14.7,-19 z"/>
</g>
<use id="id5" transform="translate(-132.72,-4.49)" xlink:href="#id13"/>
<use id="id13" transform="translate(-3.1497,118.78)" xlink:href="#id14"/>
<text x="143.5" y="135.6" style="font-family:'Comic Sans MS'; font-size:22.5px; color:black; overflow:visible; fill:#005c94; stroke-width:1px;">Real</text>
<text x="-192.7" y="122.1" transform="rotate(-90)" style="font-family:'Comic Sans MS'; font-size:22.5px; color:black; overflow:visible; fill:#ef2929; stroke-width:1px;">Imaginary</text>
</svg>
