<?xml version="1.0" encoding="UTF-8" standalone="no"?>
<!-- Copyright 2017 mathsisfun.com -->
<svg xmlns="http://www.w3.org/2000/svg" xmlns:xlink="http://www.w3.org/1999/xlink" width="221.4" height="214.6" version="1.1">
<defs/>
<g transform="translate(-21.8831,-2212.32)">
<g transform="matrix(0.1581,0,0,0.1581,42.83,2019.6)">
<path id="id04" style="color:black; overflow:visible; fill:#fce94f; fill-opacity:0.25; stroke-width:6;" d="M 707.7,1371.9 A 152.9,152.9 0 0 1 555.1,1524.8 152.9,152.9 0 0 1 402,1372.5 152.9,152.9 0 0 1 553.9,1219 152.9,152.9 0 0 1 707.7,1370.7"/>
<use id="id05" transform="translate(-555.16,528.13)" xlink:href="#id01"/>
<g id="id08" transform="matrix(-0.70711,0.70711,0.70711,0.70711,2350.7,373.76)">
<path style="color:black; overflow:visible; opacity:0.72; fill:#8ae234; stroke:#8ae234; stroke-width:2.3;" d="m 2177.7,-622.7 c 12.1,-7.4 25,-13.7 38,-19.8 21.8,-9.6 46.1,-12.7 69.8,-17.1 15.6,-1.6 31,0.6 46.4,2.7 15,2.4 29.4,6.4 43.8,10.4 13.4,3.9 27.1,6.4 41,8.4 13.8,1.4 27.6,-0.2 41.3,-1.3 4.7,-0.4 9.3,-1.2 13.9,-1.8 l -21,21.2 c -4.9,0.5 -9.7,1.2 -14.5,1.4 -14.7,0.8 -29.4,1.7 -43.9,-0.9 -14.2,-2.7 -28.4,-5.6 -42.2,-9.6 -13.9,-3.6 -27.9,-7.2 -42.4,-9 -14.5,-1.4 -28.9,-2.7 -43.4,-0.2 -2.5,0.4 -9.8,1.9 -7.4,1.2 40.1,-11.4 -1.5,0.8 -10.3,3.3 -13,5.3 -25.7,10.9 -37.4,18.1 z"/>
<path style="color:black; overflow:visible; opacity:0.72; fill:#8ae234; stroke:#8ae234; stroke-width:2.3;" d="m 2434.2,-673.6 c 6.7,10 16.1,17.6 26.6,24.7 11.5,7.5 23.6,8.1 37.5,7.9 l -22.7,20 c -15.9,-1.8 -30.3,-4.7 -43,-13.8 -11,-8.4 -21.2,-17.2 -28.6,-28.1 l 30.2,-10.6 z"/>
<path style="color:black; overflow:visible; opacity:0.72; fill:#8ae234; stroke:#8ae234; stroke-width:2.3;" d="m 2402.8,-591.3 c 9.8,-9.1 21,-16.8 32.5,-24.4 19.4,-13.2 40.3,-17.4 64.2,-22.9 4.7,-0.6 9.4,-1.4 14.1,-2.1 l -20.6,21.5 c -4.5,0.8 -9,1.4 -13.4,2.5 42,-10.2 -4.3,0.2 -12.6,7.7 -11.2,6.8 -22.4,13.8 -31.9,22.4 z"/>
</g>
<g id="id02" transform="translate(1080.6,1339.3)">
<path style="color:black; overflow:visible; fill:#204a87; stroke:#204a87; stroke-width:2.3;" d="m -526.2,-22.8 c -4.6,13.8 -8.1,28 -11.6,42.2 -3.3,14.2 -4.4,28.8 -5.8,43.3 -1,14.6 5.1,23 15,32.4 15.3,5.1 20.2,-0.3 2.9,1.4 l 33,8.8 c -18.7,16 -45.7,21.3 -65.7,6.5 -12.6,-12.6 -19.2,-27 -19.1,-45 1.4,-15.2 2.4,-30.4 5.6,-45.3 3.4,-14.7 7,-29.3 11.5,-43.7 l 34.1,-0.5 z"/>
<path style="color:black; overflow:visible; fill:#204a87; stroke:#204a87; stroke-width:2.3;" d="m -527.7,-72.2 c 3.2,6.2 8.2,10.9 12.6,16.1 l -30.7,15 c -4.9,-6.3 -10.5,-12.1 -14,-19.4 l 32.1,-11.8 z"/>
</g>
<use transform="translate(22.731,1050)" xlink:href="#id02"/>
<use transform="translate(34.174,-745.57)" xlink:href="#id03"/>
<use id="id01" transform="translate(560.17,523.68)" xlink:href="#id04"/>
<use transform="translate(-539.5,-538.2)" xlink:href="#id05"/>
<g id="id06" transform="translate(460.13,1101.5)">
<path style="color:black; overflow:visible; fill:#204a87; stroke:#4e9a06; stroke-width:2.3;" d="m 618.7,778 c 8.8,-12 17.5,-24.1 26.4,-36.1 3.1,-3.6 5.3,-7.8 7.9,-11.7 l 34.1,1.7 c -2.7,4.4 -4.9,9.1 -8,13.3 -9.1,11.9 -18,23.8 -26.5,36.2 l -34,-3.3 z"/>
<path style="color:black; overflow:visible; fill:#204a87; stroke:#4e9a06; stroke-width:2.3;" d="m 688.3,733.1 c -2.2,15.6 -5.7,30.9 -9.1,46.2 -3.3,14.8 -5.6,29.7 -7.9,44.7 -1.7,15 -4.3,29.9 -7.1,44.8 -0.6,2.5 -1.1,4.9 -1.7,7.4 l -34,2.7 c 0.6,-2.2 1.2,-4.4 1.7,-6.7 2.7,-14.7 5.6,-29.4 7.1,-44.3 2.3,-15.3 4.6,-30.5 7.9,-45.6 3.4,-15 6.9,-30.1 9.2,-45.3 l 33.9,-4 z"/>
</g>
<use transform="translate(-1075.7,-22.765)" xlink:href="#id06"/>
<path id="id07" style="color:black; overflow:visible; fill:#204a87; stroke:#191300; stroke-width:2.3;" d="m -67.8,1879.5 c 15,1.1 30.1,0 45.1,-0.2 9.9,0 19.8,0.5 29.7,0.9 l -23.9,24.4 c -9.7,-0.3 -19.5,-0.7 -29.2,-0.4 -15.4,0.4 -30.8,0.9 -46.1,-0.9 z"/>
<use transform="translate(515.06,532.14)" xlink:href="#id07"/>
<use id="id09" transform="rotate(-90,559.85,1920.65)" xlink:href="#id08"/>
<use id="id10" transform="rotate(-90,553.8,1894.5)" xlink:href="#id09"/>
<use transform="rotate(-90,567.9,1896.5)" xlink:href="#id10"/>
<g id="id12" transform="translate(-1661.9,2537.7)">
<path style="color:black; overflow:visible; fill:#729fcf; stroke:#729fcf; stroke-width:2.3;" d="m 2523.9,-959.1 c 8.8,-7.5 17.6,-15.1 26.4,-22.5 8.6,-7 16.7,-14.6 24.7,-22.3 7.9,-8 15.4,-16.3 22.9,-24.7 6.3,-7 12.5,-14.2 18.8,-21.3 l 24.6,2.7 c -6.3,7.1 -12.5,14.3 -18.8,21.4 -7.6,8.4 -15.2,16.9 -23,25.2 -8,8 -16,16 -24.8,23.1 -8.8,7.5 -17.7,14.9 -26.4,22.6 z"/>
<path style="color:black; overflow:visible; fill:#729fcf; stroke:#729fcf; stroke-width:2.3;" d="m 2571,-1050.9 c 6.5,9.7 12.5,19.8 18.4,29.8 5.7,9.9 12.1,19.4 18.7,28.8 6.4,9 14.4,16.7 22.2,24.4 2.7,2.4 5.1,5.3 7.6,7.9 l -21.3,12.9 c -2.5,-2.5 -4.9,-5.2 -7.5,-7.6 -8.2,-8.2 -16.3,-16.4 -23,-26 -6.7,-9.7 -13.2,-19.4 -19.1,-29.6 -5.9,-9.9 -11.8,-19.9 -18.2,-29.5 z"/>
<path style="color:black; overflow:visible; fill:#729fcf; stroke:#729fcf; stroke-width:2.3;" d="m 2740.3,-1066.7 c -4.9,13.6 -8.5,27.5 -12.2,41.3 -3.5,14 -4.6,28.3 -6,42.6 -1.1,14.3 5.3,22.6 15.7,31.8 16.1,5 21.3,-0.3 3.1,1.4 l 34.8,8.6 c -19.7,15.7 -48.2,20.9 -69.3,6.4 -13.3,-12.4 -20.3,-26.5 -20.1,-44.2 1.4,-14.9 2.5,-29.8 5.9,-44.5 3.6,-14.4 7.3,-28.7 12.1,-42.8 l 36,-0.5 z"/>
<path style="color:black; overflow:visible; fill:#729fcf; stroke:#729fcf; stroke-width:2.3;" d="m 2738.8,-1115.1 c 3.3,6 8.6,10.7 13.3,15.8 l -32.4,14.7 c -5.1,-6.1 -11,-11.8 -14.7,-19 z"/>
</g>
<use id="id03" transform="translate(-839.46,-28.426)" xlink:href="#id11"/>
<use id="id11" transform="translate(-19.922,751.27)" xlink:href="#id12"/>
</g>
</g>
</svg>
