<?xml version="1.0" encoding="UTF-8" standalone="no"?>
<!-- Copyright 2017 mathsisfun.com -->
<svg xmlns="http://www.w3.org/2000/svg" width="134.8" height="44.4" version="1.1" style="fill:#4e9a06; stroke-width:0.41;">
<defs>
</defs>
<g transform="translate(38.9681,-875.93)">
	<path style="color:black; fill:#fcaf3e; stroke:#fcaf3e;" d="m -1.5,899.3 c 6.8,0 13.7,-0.1 20.5,-0 -1.4,1.5 -2.8,3 -4.2,4.5 -6.9,-0.2 -13.7,0.2 -20.6,-0 1.4,-1.5 2.9,-2.9 4.3,-4.4 z"/>
	<path style="color:black; fill:#fcaf3e; stroke:#fcaf3e;" d="m 1.5,891.6 c 6.8,0 13.7,-0.1 20.5,-0 -1.4,1.5 -2.8,3 -4.2,4.5 -6.9,-0.2 -13.7,0.2 -20.6,-0 1.4,-1.5 2.9,-2.9 4.3,-4.4 z"/>
	<path style="color:black; fill:#8ae234; stroke:#8ae234;" d="m 36.7,907.2 c 2.4,-6.5 11.3,-3.7 11.5,2.6 0.9,3.4 3.5,10.2 -2.3,8.5 -0.4,-4.1 1,-8.2 1.5,-12.3 1.3,-8.5 2.8,-17.1 6.2,-24.9 2.7,-3.6 7.7,-5.2 12.1,-4.7 9.9,0.4 19.7,-0.5 29.6,-0.2 -1.5,1.7 -3.1,3.3 -4.6,5 -10.1,-0 -20.2,0.6 -30.3,0.3 -3.7,0.7 -0.7,-0.3 1,-1 -3.8,3.9 -4,10 -5.6,15 -1.5,7.2 -2.1,14.6 -4,21.6 -2.3,5.6 -10.9,2.9 -9.6,-3.2 -2,-2 -0.4,-10.5 2,-7.9 -0.4,2.7 -3.6,0.9 -5.5,1.2 -0.7,-0 -1.3,-0 -2,-0.1 z"/>
	<g transform="matrix(0.180057,0,0,0.180057,-31.9517,754.645)">
		<path style="color:black; stroke:#4e9a06; stroke-width:2.3;" d="m 618.7,778 c 16.6,-13 21.9,-49.4 45.3,-47.3 12.6,0.6 32.4,-2.1 15.1,14.4 -14.1,13.4 -19.8,43.6 -43.7,34.5 -5.6,-0.5 -11.1,-1.1 -16.7,-1.6 z"/>
		<path style="color:black; stroke:#4e9a06; stroke-width:2.3;" d="m 688.3,733.1 c -8.5,43.2 -17,86.4 -23.1,130.1 2.9,18.6 -16.3,12.6 -27.8,15 -20.5,3.7 3.7,-32.3 -0.7,-44.6 5.2,-31.8 9.2,-70 20.8,-96.9 10.3,-1.2 20.5,-2.4 30.8,-3.6 z"/>
	</g>
	<path style="color:black; stroke:#4e9a06;" d="m 63.7,898.5 c 4.2,0.3 12.5,-1.2 14.3,0.6 -1.2,1.3 -2.4,2.6 -3.6,3.9 -4.3,-0.8 -12.6,1.2 -14.5,-0.7 1.2,-1.3 2.5,-2.5 3.7,-3.8 z"/>
	<path style="color:black; fill:#204a87; stroke:#204a87;" d="m -29.5,887.9 c -1.7,5.8 -3.7,11.9 -2.8,18 0.2,2.1 3.9,4.4 4.5,3.5 -3.5,-0.1 1.8,0.8 3.1,1.3 2.7,1.4 -6.2,4.3 -8.4,2.6 -5.2,-1.9 -6.3,-8.5 -5.2,-13.3 1.4,-3.5 0,-11.8 4.7,-12 1.4,-0 2.8,-0 4.2,-0 z"/>
	<path style="color:black; fill:#204a87; stroke:#204a87;" d="m -29.8,879 c 2.9,2.4 1.9,3.5 -1,4.5 -2.1,2.9 -6.6,-2.6 -3.1,-3 1.4,-0.5 2.8,-1 4.2,-1.5 z"/>
</g>
</svg>