<?xml version="1.0" encoding="UTF-8" standalone="no"?>
<!-- Copyright 2021 mathsisfun.com -->

<svg
   width="413.2"
   height="116.6"
   version="1.1"
   style="font-size:3px;fill:#0000ff;stroke-width:0.25px"
   id="svg1066"
   sodipodi:docname="jump-strategy.svg"
   inkscape:version="1.1 (c68e22c387, 2021-05-23)"
   xmlns:inkscape="http://www.inkscape.org/namespaces/inkscape"
   xmlns:sodipodi="http://sodipodi.sourceforge.net/DTD/sodipodi-0.dtd"
   xmlns="http://www.w3.org/2000/svg"
   xmlns:svg="http://www.w3.org/2000/svg">
  <sodipodi:namedview
     id="namedview1068"
     pagecolor="#ffffff"
     bordercolor="#666666"
     borderopacity="1.0"
     inkscape:pageshadow="2"
     inkscape:pageopacity="0.0"
     inkscape:pagecheckerboard="0"
     showgrid="false"
     inkscape:current-layer="svg1066" />
  <defs
     id="defs920">
    <marker
       id="id1"
       style="overflow:visible"
       orient="auto">
      <path
         transform="matrix(-0.8,0,0,-0.8,-10,0)"
         style="stroke:#0000ff;stroke-width:1pt"
         d="M 0,0 5,-5 -12.5,0 5,5 Z"
         id="path917" />
    </marker>
  </defs>
  <path
     style="fill:none;fill-opacity:0.75;stroke:#4e9a06;stroke-width:1.05"
     d="m 3.49,82.033 v 18.3"
     id="path922" />
  <path
     style="fill:none;fill-opacity:0.75;stroke:#0000ff"
     d="m 22.59,82.033 v 18.3"
     id="path924" />
  <path
     style="fill:none;fill-opacity:0.75;stroke:#0000ff"
     d="m 41.59,82.033 v 18.3"
     id="path926" />
  <path
     style="fill:none;fill-opacity:0.75;stroke:#0000ff"
     d="m 60.59,82.033 v 18.3"
     id="path928" />
  <path
     style="fill:none;fill-opacity:0.75;stroke:#0000ff"
     d="m 79.69,82.033 v 18.3"
     id="path930" />
  <path
     style="fill:none;fill-opacity:0.75;stroke:#0000ff"
     d="m 98.69,82.033 v 18.3"
     id="path932" />
  <path
     style="fill:none;fill-opacity:0.75;stroke:#0000ff"
     d="m 117.69,82.033 v 18.3"
     id="path934" />
  <path
     style="fill:none;fill-opacity:0.75;stroke:#0000ff"
     d="m 136.79,82.033 v 18.3"
     id="path936" />
  <path
     style="fill:none;fill-opacity:0.75;stroke:#0000ff"
     d="m 155.79,82.033 v 18.3"
     id="path938" />
  <path
     style="fill:none;fill-opacity:0.75;stroke:#0000ff"
     d="m 174.89,82.033 v 18.3"
     id="path940" />
  <text
     x="-0.710024"
     y="116.333"
     style="font-family:Arial;fill:#4e9a06;font-size:12px"
     id="text942">0</text>
  <text
     x="20.09"
     y="115.333"
     style="font-family:Arial;font-size:12px"
     id="text944">1</text>
  <text
     x="38.79"
     y="115.333"
     style="font-family:Arial;font-size:12px"
     id="text946">2</text>
  <text
     x="57.69"
     y="115.233"
     style="font-family:Arial;font-size:12px"
     id="text948">3</text>
  <text
     x="76.89"
     y="115.333"
     style="font-family:Arial;font-size:12px"
     id="text950">4</text>
  <text
     x="95.69"
     y="115.233"
     style="font-family:Arial;font-size:12px"
     id="text952">5</text>
  <text
     x="114.69"
     y="115.233"
     style="font-family:Arial;font-size:12px"
     id="text954">6</text>
  <text
     x="133.69"
     y="115.233"
     style="font-family:Arial;font-size:12px"
     id="text956">7</text>
  <text
     x="152.69"
     y="115.233"
     style="font-family:Arial;font-size:12px"
     id="text958">8</text>
  <text
     x="171.69"
     y="115.233"
     style="font-family:Arial;font-size:12px"
     id="text960">9</text>
  <path
     style="fill:none;fill-opacity:0.75;stroke:#0000ff"
     d="m 193.89,82.033 v 18.3"
     id="path962" />
  <text
     x="186.99"
     y="115.233"
     style="font-family:Arial;font-size:12px"
     id="text964">10</text>
  <path
     style="fill-opacity:0.75;stroke:#0000ff;stroke-width:0.95;marker-end:url(#id1)"
     d="m 2.99,92.333 h 408.4"
     id="path966" />
  <path
     style="fill:none;fill-opacity:0.75;stroke:#0000ff"
     d="m 213.69,82.033 v 18.3"
     id="path968" />
  <path
     style="fill:none;fill-opacity:0.75;stroke:#0000ff"
     d="m 232.69,82.033 v 18.3"
     id="path970" />
  <path
     style="fill:none;fill-opacity:0.75;stroke:#0000ff"
     d="m 251.69,82.033 v 18.3"
     id="path972" />
  <path
     style="fill:none;fill-opacity:0.75;stroke:#0000ff"
     d="m 270.79,82.033 v 18.3"
     id="path974" />
  <path
     style="fill:none;fill-opacity:0.75;stroke:#0000ff"
     d="m 289.79,82.033 v 18.3"
     id="path976" />
  <path
     style="fill:none;fill-opacity:0.75;stroke:#0000ff"
     d="m 308.89,82.033 v 18.3"
     id="path978" />
  <path
     style="fill:none;fill-opacity:0.75;stroke:#0000ff"
     d="m 327.89,82.033 v 18.3"
     id="path980" />
  <path
     style="fill:none;fill-opacity:0.75;stroke:#0000ff"
     d="m 346.89,82.033 v 18.3"
     id="path982" />
  <path
     style="fill:none;fill-opacity:0.75;stroke:#0000ff"
     d="m 365.99,82.033 v 18.3"
     id="path984" />
  <text
     x="207.19"
     y="115.333"
     style="font-family:Arial;font-size:12px"
     id="text986">11</text>
  <text
     x="225.89"
     y="115.333"
     style="font-family:Arial;font-size:12px"
     id="text988">12</text>
  <text
     x="244.69"
     y="115.233"
     style="font-family:Arial;font-size:12px"
     id="text990">13</text>
  <text
     x="263.89"
     y="115.333"
     style="font-family:Arial;font-size:12px"
     id="text992">14</text>
  <text
     x="282.69"
     y="115.233"
     style="font-family:Arial;font-size:12px"
     id="text994">15</text>
  <text
     x="301.79"
     y="115.233"
     style="font-family:Arial;font-size:12px"
     id="text996">16</text>
  <text
     x="320.69"
     y="115.233"
     style="font-family:Arial;font-size:12px"
     id="text998">17</text>
  <text
     x="339.69"
     y="115.233"
     style="font-family:Arial;font-size:12px"
     id="text1000">18</text>
  <text
     x="358.69"
     y="115.233"
     style="font-family:Arial;font-size:12px"
     id="text1002">19</text>
  <path
     style="fill:none;fill-opacity:0.75;stroke:#0000ff"
     d="m 384.99,82.033 v 18.3"
     id="path1004" />
  <text
     x="378.09"
     y="115.233"
     style="font-family:Arial;font-size:12px"
     id="text1006">20</text>
  <path
     style="stroke-width:0.53;stroke-opacity:0.48"
     d="m 150.39,3.733 c -2.2,2.6 -5.6,4.7 -8.1,7.3 -2.7,2.3 -4.8,6.3 -7.3,8.1 -0.7,-2.8 5.9,-1.4 8,-2.4 5,-0.3 10,-1.2 15,-0.6 -1.3,1.2 -2.3,3.1 -3.8,4 -7.1,-0.1 -14.1,0.9 -21.1,1.9 -7.1,-0.4 -0.5,-6.4 1.6,-9 3,-3.6 6.6,-6.7 10.3,-9.5 1,0.7 3.4,0 4.9,0.2 h 0.3 z"
     id="path1008" />
  <path
     style="stroke-width:0.53;stroke-opacity:0.48"
     d="m 145.79,6.333 c 2.1,2 5.3,-5.1 3.8,-0.1 -1.3,7.6 -1.3,15.3 -3.1,22.8 -1.7,0.2 -3.7,0.7 -5.2,0.8 2,-8.3 2.2,-17 3.6,-25.5 2.4,-3.5 5.8,-2.4 2.2,0.6 -0.4,0.5 -0.8,1 -1.2,1.5 z"
     id="path1010" />
  <path
     style="stroke-width:0.53;stroke-opacity:0.48"
     d="m 193.59,3.733 c -1,5.9 -1.8,11.9 -2.6,17.9 0.9,3.6 -1.1,4.5 -4.1,4.6 -3.6,1 0,-6.1 -0.6,-8.2 1,-4.3 1,-9.2 2.1,-13.2 1.5,-0.2 3.5,-0.8 5.1,-1.1 z"
     id="path1012" />
  <path
     style="stroke-width:0.53;stroke-opacity:0.48"
     d="m 194.09,8.333 c 2.6,-3.3 7.2,-5.1 11.3,-6.2 4.8,-0.5 6.5,5.9 4.5,9.4 -2.2,5.3 -6.8,9.5 -11.6,12.3 -2.9,-5.8 7.3,-3.1 10.5,-1.7 4.4,-0.3 2.6,1.2 0.8,3.5 -3.1,2.9 -8.3,-2.9 -12.3,-1 -3,3 -6.4,-1.8 -2.3,-3.1 4.7,-3.2 10.1,-7.5 10.4,-13.7 0.2,-4.2 -7.9,0.9 -2.9,-1.6 5,-2.6 -2.2,1.6 -3.8,2.1 -1.6,-0.1 -3.2,-0.2 -4.8,-0.3 z"
     id="path1014" />
  <path
     style="stroke-width:0.53;stroke-opacity:0.48"
     d="m 221.99,8.833 c 5.6,0.5 11.3,-0.1 16.9,-0.3 -1.1,1.4 -2.3,2.7 -3.4,4.1 -5.5,0.5 -11.6,0.5 -16.8,0.3 1.1,-1.4 2.2,-2.7 3.3,-4.1 z"
     id="path1016" />
  <path
     style="stroke-width:0.53;stroke-opacity:0.48"
     d="m 221.49,16.533 c 6,0.1 11.9,-0.5 17.9,-0.5 -1.2,1.3 -2.3,3 -3.6,4 -5.8,0.5 -11.7,0.6 -17.6,0.6 1.1,-1.4 2.2,-2.8 3.3,-4.1 z"
     id="path1018" />
  <path
     style="stroke-width:0.53;stroke-opacity:0.48"
     d="m 254.29,2.333 c -1.1,1.7 -1.6,7.9 -2.4,11.2 -1.1,4 -1.1,8.8 -2.4,12.4 -1.5,0.2 -3.9,1.4 -4.9,0.9 1.3,-8.1 2.7,-16.1 4.4,-24.1 0.2,-1.5 2.9,-0.3 4.3,-0.5 0.4,0 0.7,0.1 1.1,0.1 z"
     id="path1020" />
  <path
     style="stroke-width:0.53;stroke-opacity:0.48"
     d="m 270.89,0.033 c -1.3,3.6 -6.5,6.1 -7.9,10.4 -1.9,3.4 -4,8.3 -1.4,11.8 1.4,2.1 7,-0.6 2.7,1.1 -1.5,1.3 3.9,-3 2.1,-5.4 -0.8,-3.7 -7.9,-3.1 -7.8,-4.6 1.5,-1.2 2.3,-4.3 4.6,-3.1 4.9,0.6 10.3,5.5 8.2,10.7 -1.3,4.6 -7.4,7.3 -11.8,5.8 -5.3,-2.1 -4.8,-9.1 -3.2,-13.5 1.9,-4.9 5.6,-9.8 9.2,-12.9 0.3,1.8 3.4,-0.3 4.9,-0.2 l 0.3,-0.1 z"
     id="path1022" />
  <path
     style="stroke-width:0.53;stroke-opacity:0.48"
     d="m 176.19,2.333 c -0.4,2.1 -1.6,6.2 -2,9.2 -1.6,3.5 0.1,10.2 -3.5,11.6 -2.5,0.6 -5.1,1.4 -3.3,-2.4 1.1,-5.9 2.1,-12.5 3.6,-18 0.5,1.6 3.6,-0.4 5.2,-0.4 z"
     id="path1024" />
  <path
     style="stroke-width:0.53;stroke-opacity:0.48"
     d="m 163.19,10.633 c 6.8,-0.9 13.8,-0.2 20.6,-0.3 -1.3,1.3 -2.2,3.2 -3.6,4.1 -6.8,0.1 -13.6,-0.5 -20.3,0.3 1.1,-1.4 2.2,-2.8 3.3,-4.1 z"
     id="path1026" />
  <path
     style="fill:#00d400;stroke-width:0.53;stroke-opacity:0.48"
     d="m 81.89,77.833 c -5.5,-1.7 -0.6,2.8 1.5,-2.7 18.4,-11.3 39.5,-17.5 60.6,-21 23.1,-3.2 46.6,-3.2 69.9,-1.9 17.9,2.1 37.4,4.1 52.1,15.6 2.3,2.7 10.1,11 4.6,12.8 -1.5,-6.8 -6.8,-13 -13.5,-15.8 -16.4,-8.3 -35.1,-10.1 -53.2,-11.2 -30.6,-0.7 -62,-0.4 -91.2,9.9 -10.4,3.6 -21.3,7.4 -29.8,14.7 -0.7,2 2.1,3.2 -2.5,1.6 0.5,-0.7 1,-1.3 1.5,-2 z"
     id="path1028" />
  <path
     style="fill:#00d400;stroke-width:0.53;stroke-opacity:0.48"
     d="m 263.09,73.633 c -3.8,-0.5 7.5,1.1 8.2,5.7 3.1,1.8 -2.3,3.7 -1,0.3 -0.5,-3.6 4.2,-11.6 5.9,-9.7 -1.8,2.6 1.9,-0.7 -1.6,3.3 -2.8,2.3 0,9.9 -4.3,9 -2.1,-3 -4.8,-6.5 -8.7,-6.6 4,-1.4 -2.3,1.3 1.4,-1.9 z"
     id="path1030" />
  <g
     transform="matrix(0.287057,0,0,0.25,-234.6,-64.588)"
     id="g1036">
    <path
       style="fill:#00d400;stroke-width:2.1;stroke-opacity:0.48"
       d="m 1756.5,538.4 c -16.8,11 12.3,-33.7 20.9,-38.6 36.4,-30.1 51.3,30.6 52,57.5 7.6,20.4 -17.1,21.3 -10.1,-1.2 2.3,-25.2 -22,-76.4 -39.6,-48.3 -18.2,8.4 -15,51.7 -26.4,36.5 1.1,-1.9 2.1,-3.9 3.2,-5.8 z"
       id="path1032" />
    <path
       style="fill:#00d400;stroke-width:2.1;stroke-opacity:0.48"
       d="m 1806.3,533.5 c 12.2,8.9 18.6,57.6 18.3,36.8 -1,-17.1 40.4,-40.5 18.2,-13.5 -4.8,16.7 -26.3,40.7 -31.8,11.5 -1.2,-14.8 -19,-25.4 -4.7,-34.8 z"
       id="path1034" />
  </g>
  <g
     transform="matrix(0.287057,0,0,0.25,-215.248,-64.588)"
     id="g1042">
    <path
       style="fill:#00d400;stroke-width:2.1;stroke-opacity:0.48"
       d="m 1756.5,538.4 c -16.8,11 12.3,-33.7 20.9,-38.6 36.4,-30.1 51.3,30.6 52,57.5 7.6,20.4 -17.1,21.3 -10.1,-1.2 2.3,-25.2 -22,-76.4 -39.6,-48.3 -18.2,8.4 -15,51.7 -26.4,36.5 1.1,-1.9 2.1,-3.9 3.2,-5.8 z"
       id="path1038" />
    <path
       style="fill:#00d400;stroke-width:2.1;stroke-opacity:0.48"
       d="m 1806.3,533.5 c 12.2,8.9 18.6,57.6 18.3,36.8 -1,-17.1 40.4,-40.5 18.2,-13.5 -4.8,16.7 -26.3,40.7 -31.8,11.5 -1.2,-14.8 -19,-25.4 -4.7,-34.8 z"
       id="path1040" />
  </g>
  <path
     style="fill:#00d400;stroke-width:0.53;stroke-opacity:0.48"
     d="m 178.79,36.533 c 5.5,-2.3 -1.4,8.4 -1.7,10.8 -4.3,1.1 0.5,-10.7 2.9,-11.1 3.2,-0.7 -0.6,0.2 -1.2,0.4 z"
     id="path1044" />
  <path
     style="fill:#00d400;stroke-width:0.53;stroke-opacity:0.48"
     d="m 184.89,39.433 c 1.6,-2.6 -4.5,8 2,6.3 0.8,1.5 6,-6.4 0.5,-7.8 -4,0.3 3.1,-4.4 4.1,0 3.9,5.4 -4.8,12.7 -9.5,8.7 -4.6,-3 4.7,-12.2 3.5,-8.1 -0.2,0.3 -0.5,0.6 -0.7,0.9 z"
     id="path1046" />
  <path
     style="fill:#00d400;stroke-width:0.53;stroke-opacity:0.48"
     d="m 270.29,46.633 c 1.7,-3.7 10.5,-3.1 12.9,-2.8 -2.8,3.7 -8.9,1.2 -12.9,2.8 1.5,-2.9 1.7,-1.7 0,0 z"
     id="path1048" />
  <path
     style="fill:#00d400;stroke-width:0.53;stroke-opacity:0.48"
     d="m 279.49,39.633 c 0.1,2.3 -1.1,6.9 -1.4,10.1 -4,3.9 -2,-3.9 -1.4,-6.3 0.8,-3.2 -0.7,-3.5 2.8,-3.8 z"
     id="path1050" />
  <path
     style="fill:#00d400;stroke-width:0.53;stroke-opacity:0.48"
     d="m 288.99,38.533 c 1,3.6 -1.4,7.9 -2.1,11.7 -4.1,3 -1.8,-2.8 -1,-5.1 0.8,-4.2 0.5,-4.2 3.1,-6.6 z"
     id="path1052" />
  <path
     style="fill:#00d400;stroke-width:0.53;stroke-opacity:0.48"
     d="m 161.19,43.333 c 1.7,-3.7 10.5,-3.1 12.9,-2.8 -2.8,3.7 -8.9,1.3 -12.9,2.8 1.5,-2.9 1.7,-1.7 0,0 z"
     id="path1054" />
  <path
     style="fill:#00d400;stroke-width:0.53;stroke-opacity:0.48"
     d="m 170.39,36.233 c 0.1,2.3 -1.1,6.9 -1.4,10.1 -4,3.9 -2,-3.9 -1.4,-6.3 0.8,-3.4 -1.1,-3.4 2.8,-3.8 z"
     id="path1056" />
  <path
     style="fill:#00d400;stroke-width:0.53;stroke-opacity:0.48"
     d="m 293.39,46.833 c 1.7,-3.7 10.5,-3.1 12.9,-2.8 -2.8,3.7 -8.9,1.3 -12.9,2.8 1.5,-2.9 1.8,-1.7 0,0 z"
     id="path1058" />
  <path
     style="fill:#00d400;stroke-width:0.53;stroke-opacity:0.48"
     d="m 302.59,39.833 c 0.1,2.3 -1.1,6.9 -1.4,10.1 -4,3.9 -2,-3.9 -1.4,-6.3 0.9,-3.3 -1.1,-3.4 2.8,-3.8 z"
     id="path1060" />
  <path
     style="fill:#00d400;stroke-width:0.53;stroke-opacity:0.48"
     d="m 311.99,38.733 c 1,3.6 -1.4,7.9 -2.1,11.7 -4.1,3 -1.8,-2.8 -1,-5.1 0.8,-4.2 0.4,-4.2 3.1,-6.6 z"
     id="path1062" />
</svg>
