<?xml version="1.0" encoding="UTF-8" standalone="no"?>
<!-- Copyright 2017 mathsisfun.com -->
<svg xmlns="http://www.w3.org/2000/svg" width="108.8" height="30.2" version="1.1">
<defs/>
<g transform="translate(-1814.23,-1531.14)">
<path style="fill:#3465a4; stroke-width:0.68;" d="m 1828.9,1546.7 c 1.1,0.3 2,0.8 2.6,1.5 0.6,0.7 0.9,1.6 0.9,2.8 0,1.6 -0.6,2.9 -1.9,3.8 -1.3,0.9 -3.1,1.3 -5.6,1.3 -0.9,0 -1.7,-0.1 -2.6,-0.2 -0.9,-0.1 -1.7,-0.3 -2.6,-0.6 v -3.3 c 0.8,0.4 1.6,0.7 2.4,0.9 0.8,0.2 1.6,0.3 2.4,0.3 1.1,0 2,-0.2 2.6,-0.6 0.6,-0.4 0.9,-1 0.9,-1.7 0,-0.8 -0.3,-1.4 -1,-1.7 -0.6,-0.4 -1.6,-0.6 -2.8,-0.6 h -1.7 v -2.8 h 1.8 c 1.1,0 1.9,-0.2 2.4,-0.5 0.5,-0.4 0.8,-0.9 0.8,-1.6 0,-0.6 -0.3,-1.1 -0.8,-1.5 -0.5,-0.4 -1.3,-0.5 -2.2,-0.5 -0.7,0 -1.4,0.1 -2.1,0.2 -0.7,0.2 -1.4,0.4 -2.1,0.7 v -3.2 c 0.9,-0.2 1.7,-0.4 2.6,-0.5 0.8,-0.1 1.7,-0.2 2.5,-0.2 2.2,0 3.8,0.4 4.9,1.1 1.1,0.7 1.6,1.8 1.6,3.2 0,1 -0.3,1.8 -0.8,2.4 -0.5,0.6 -1.3,1.1 -2.3,1.3 z"/>
<path style="fill:#3465a4; stroke-width:0.68;" d="m 1848.6,1552.8 h 3.8 v -10.8 l -3.9,0.8 v -2.9 l 3.9,-0.8 h 4.1 v 13.7 h 3.8 v 3 h -11.8 z"/>
<path style="fill:#3465a4; stroke-width:0.68;" d="m 1872.5,1547.4 c 0,-2.1 -0.2,-3.6 -0.6,-4.4 -0.4,-0.9 -1.1,-1.3 -2,-1.3 -0.9,0 -1.6,0.4 -2,1.3 -0.4,0.9 -0.6,2.3 -0.6,4.4 0,2.1 0.2,3.6 0.6,4.5 0.4,0.9 1.1,1.3 2,1.3 0.9,0 1.6,-0.4 2,-1.3 0.4,-0.9 0.6,-2.4 0.6,-4.5 z m 4.3,0 c 0,2.8 -0.6,4.9 -1.8,6.4 -1.2,1.5 -2.9,2.3 -5.1,2.3 -2.2,0 -3.9,-0.8 -5.1,-2.3 -1.2,-1.5 -1.8,-3.6 -1.8,-6.4 0,-2.8 0.6,-4.9 1.8,-6.4 1.2,-1.5 2.9,-2.3 5.1,-2.3 2.2,0 3.9,0.8 5.1,2.3 1.2,1.5 1.8,3.6 1.8,6.4 z"/>
<path style="fill:#3465a4; stroke-width:0.68;" d="m 1880.3,1551.4 h 4 v 4.3 h -4 z"/>
<path style="fill:#3465a4; stroke-width:0.68;" d="m 1897.3,1547.4 c 0,-2.1 -0.2,-3.6 -0.6,-4.4 -0.4,-0.9 -1.1,-1.3 -2,-1.3 -0.9,0 -1.6,0.4 -2,1.3 -0.4,0.9 -0.6,2.3 -0.6,4.4 0,2.1 0.2,3.6 0.6,4.5 0.4,0.9 1.1,1.3 2,1.3 0.9,0 1.6,-0.4 2,-1.3 0.4,-0.9 0.6,-2.4 0.6,-4.5 z m 4.3,0 c 0,2.8 -0.6,4.9 -1.8,6.4 -1.2,1.5 -2.9,2.3 -5.1,2.3 -2.2,0 -3.9,-0.8 -5.1,-2.3 -1.2,-1.5 -1.8,-3.6 -1.8,-6.4 0,-2.8 0.6,-4.9 1.8,-6.4 1.2,-1.5 2.9,-2.3 5.1,-2.3 2.2,0 3.9,0.8 5.1,2.3 1.2,1.5 1.8,3.6 1.8,6.4 z"/>
<path style="fill:#3465a4; stroke-width:0.68;" d="m 1913.3,1547.4 c 0,-2.1 -0.2,-3.6 -0.6,-4.4 -0.4,-0.9 -1.1,-1.3 -2,-1.3 -0.9,0 -1.6,0.4 -2,1.3 -0.4,0.9 -0.6,2.3 -0.6,4.4 0,2.1 0.2,3.6 0.6,4.5 0.4,0.9 1.1,1.3 2,1.3 0.9,0 1.6,-0.4 2,-1.3 0.4,-0.9 0.6,-2.4 0.6,-4.5 z m 4.3,0 c 0,2.8 -0.6,4.9 -1.8,6.4 -1.2,1.5 -2.9,2.3 -5.1,2.3 -2.2,0 -3.9,-0.8 -5.1,-2.3 -1.2,-1.5 -1.8,-3.6 -1.8,-6.4 0,-2.8 0.6,-4.9 1.8,-6.4 1.2,-1.5 2.9,-2.3 5.1,-2.3 2.2,0 3.9,0.8 5.1,2.3 1.2,1.5 1.8,3.6 1.8,6.4 z"/>
<path style="fill:none; stroke:black; stroke-width:0.39px;" d="m 1840.1,1532.8 h 70.5"/>
<path style="fill:none; stroke:black; stroke-width:0.39px;" d="m 1840.5,1533.4 v 26.5"/>
</g>
</svg>
