<?xml version="1.0" encoding="UTF-8" standalone="no"?>
<!-- Copyright 2017 mathsisfun.com -->
<svg xmlns="http://www.w3.org/2000/svg" width="229.6" height="72.2" version="1.1">
<defs>
</defs>
<g transform="translate(-1823.44,-1627.38)">
<path style="fill:#3465a4; stroke-width:0.68;" d="m 1875.3,1636.3 c 1.1,0.3 2,0.8 2.6,1.5 0.6,0.7 0.9,1.6 0.9,2.7 0,1.7 -0.6,2.9 -1.9,3.8 -1.3,0.9 -3.1,1.3 -5.6,1.3 -0.9,0 -1.7,-0.1 -2.6,-0.2 -0.9,-0.2 -1.7,-0.3 -2.6,-0.6 v -3.3 c 0.8,0.4 1.6,0.7 2.4,0.9 0.8,0.2 1.6,0.3 2.4,0.3 1.1,0 2,-0.2 2.6,-0.6 0.6,-0.4 0.9,-1 0.9,-1.7 0,-0.8 -0.3,-1.3 -0.9,-1.7 -0.6,-0.4 -1.6,-0.6 -2.8,-0.6 h -1.7 v -2.8 h 1.8 c 1.1,0 1.9,-0.2 2.4,-0.5 0.5,-0.4 0.8,-0.9 0.8,-1.6 0,-0.6 -0.3,-1.1 -0.8,-1.5 -0.5,-0.3 -1.3,-0.5 -2.2,-0.5 -0.7,0 -1.4,0.1 -2.1,0.2 -0.7,0.2 -1.4,0.4 -2.1,0.7 v -3.1 c 0.9,-0.3 1.7,-0.4 2.5,-0.6 0.8,-0.1 1.7,-0.2 2.5,-0.2 2.2,0 3.8,0.4 4.9,1.1 1.1,0.7 1.6,1.8 1.6,3.2 0,1 -0.3,1.8 -0.8,2.4 -0.5,0.6 -1.3,1.1 -2.3,1.3 z"/>
<path style="fill:#3465a4; stroke-width:0.68;" d="m 1832.6,1667 c 1.2,0.3 2,0.8 2.6,1.5 0.6,0.7 0.9,1.6 0.9,2.7 0,1.7 -0.6,2.9 -1.9,3.8 -1.3,0.9 -3.1,1.3 -5.6,1.3 -0.9,0 -1.7,-0.1 -2.6,-0.2 -0.9,-0.1 -1.7,-0.3 -2.6,-0.6 v -3.3 c 0.8,0.4 1.6,0.7 2.4,0.9 0.8,0.2 1.6,0.3 2.4,0.3 1.2,0 2,-0.2 2.6,-0.6 0.6,-0.4 0.9,-1 0.9,-1.7 0,-0.8 -0.3,-1.4 -1,-1.7 -0.6,-0.4 -1.6,-0.6 -2.8,-0.6 h -1.7 v -2.8 h 1.8 c 1.1,0 1.9,-0.2 2.4,-0.5 0.5,-0.4 0.8,-0.9 0.8,-1.6 0,-0.6 -0.3,-1.1 -0.8,-1.5 -0.5,-0.3 -1.3,-0.5 -2.2,-0.5 -0.7,0 -1.4,0.1 -2.1,0.2 -0.7,0.2 -1.4,0.4 -2.1,0.7 v -3.2 c 0.9,-0.2 1.7,-0.4 2.5,-0.5 0.9,-0.1 1.7,-0.2 2.5,-0.2 2.2,0 3.8,0.4 4.9,1.1 1.1,0.7 1.6,1.8 1.6,3.2 0,1 -0.3,1.8 -0.8,2.4 -0.5,0.6 -1.3,1.1 -2.3,1.3 z"/>
<path style="fill:#3465a4; stroke-width:0.68;" d="m 1852.3,1673.1 h 3.8 v -10.8 l -3.9,0.8 v -2.9 l 3.9,-0.8 h 4.1 v 13.7 h 3.8 v 3 h -11.7 z"/>
<path style="fill:#3465a4; stroke-width:0.68;" d="m 1876.2,1667.7 c 0,-2.1 -0.2,-3.6 -0.6,-4.4 -0.4,-0.9 -1.1,-1.3 -2,-1.3 -0.9,0 -1.6,0.4 -2,1.3 -0.4,0.9 -0.6,2.3 -0.6,4.4 0,2.1 0.2,3.6 0.6,4.5 0.4,0.9 1.1,1.3 2,1.3 0.9,0 1.6,-0.4 2,-1.3 0.4,-0.9 0.6,-2.4 0.6,-4.5 z m 4.4,0 c 0,2.8 -0.6,4.9 -1.8,6.4 -1.2,1.5 -2.9,2.3 -5.1,2.3 -2.2,0 -3.9,-0.8 -5.1,-2.3 -1.2,-1.5 -1.8,-3.6 -1.8,-6.4 0,-2.8 0.6,-4.9 1.8,-6.4 1.2,-1.5 2.9,-2.3 5.1,-2.3 2.2,0 3.9,0.8 5.1,2.3 1.2,1.5 1.8,3.7 1.8,6.4 z"/>
<path style="fill:#3465a4; stroke-width:0.68;" d="m 1884,1671.7 h 4 v 4.3 h -4 z"/>
<path style="fill:#3465a4; stroke-width:0.68;" d="m 1901,1667.7 c 0,-2.1 -0.2,-3.6 -0.6,-4.4 -0.4,-0.9 -1.1,-1.3 -2,-1.3 -0.9,0 -1.6,0.4 -2,1.3 -0.4,0.9 -0.6,2.3 -0.6,4.4 0,2.1 0.2,3.6 0.6,4.5 0.4,0.9 1.1,1.3 2,1.3 0.9,0 1.6,-0.4 2,-1.3 0.4,-0.9 0.6,-2.4 0.6,-4.5 z m 4.3,0 c 0,2.8 -0.6,4.9 -1.8,6.4 -1.2,1.5 -2.9,2.3 -5.1,2.3 -2.2,0 -3.9,-0.8 -5.1,-2.3 -1.2,-1.5 -1.8,-3.6 -1.8,-6.4 0,-2.8 0.6,-4.9 1.8,-6.4 1.2,-1.5 2.9,-2.3 5.1,-2.3 2.2,0 3.9,0.8 5.1,2.3 1.2,1.5 1.8,3.7 1.8,6.4 z"/>
<path style="fill:#3465a4; stroke-width:0.68;" d="m 1917.1,1667.7 c 0,-2.1 -0.2,-3.6 -0.6,-4.4 -0.4,-0.9 -1,-1.3 -2,-1.3 -0.9,0 -1.6,0.4 -2,1.3 -0.4,0.9 -0.6,2.3 -0.6,4.4 0,2.1 0.2,3.6 0.6,4.5 0.4,0.9 1.1,1.3 2,1.3 0.9,0 1.6,-0.4 2,-1.3 0.4,-0.9 0.6,-2.4 0.6,-4.5 z m 4.3,0 c 0,2.8 -0.6,4.9 -1.8,6.4 -1.2,1.5 -2.9,2.3 -5.1,2.3 -2.2,0 -3.9,-0.8 -5.1,-2.3 -1.2,-1.5 -1.8,-3.6 -1.8,-6.4 0,-2.8 0.6,-4.9 1.8,-6.4 1.2,-1.5 2.9,-2.3 5.1,-2.3 2.2,0 3.9,0.8 5.1,2.3 1.2,1.5 1.8,3.7 1.8,6.4 z"/>
<path style="fill:#3465a4; stroke-width:0.68;" d="m 1865.4,1698.2 v -3.1 c 0.7,0.3 1.4,0.6 2,0.7 0.6,0.2 1.2,0.2 1.9,0.2 1.3,0 2.3,-0.4 3,-1.1 0.7,-0.7 1.2,-1.8 1.3,-3.2 -0.5,0.4 -1.1,0.7 -1.7,0.8 -0.6,0.2 -1.2,0.3 -1.9,0.3 -1.7,0 -3.1,-0.5 -4.2,-1.5 -1,-1 -1.6,-2.3 -1.6,-4 0,-1.8 0.6,-3.2 1.8,-4.3 1.2,-1.1 2.8,-1.6 4.7,-1.6 2.2,0 3.9,0.7 5.1,2.2 1.2,1.5 1.8,3.6 1.8,6.2 0,2.8 -0.7,4.9 -2.1,6.5 -1.4,1.6 -3.3,2.4 -5.8,2.4 -0.8,0 -1.5,-0.1 -2.3,-0.2 -0.7,-0.1 -1.4,-0.3 -2.1,-0.5 z m 5.4,-8 c 0.8,0 1.3,-0.2 1.7,-0.7 0.4,-0.5 0.6,-1.2 0.6,-2.2 0,-1 -0.2,-1.7 -0.6,-2.2 -0.4,-0.5 -1,-0.7 -1.7,-0.7 -0.8,0 -1.3,0.3 -1.7,0.7 -0.4,0.5 -0.6,1.2 -0.6,2.2 0,1 0.2,1.7 0.6,2.2 0.4,0.5 0.9,0.7 1.7,0.7 z"/>
<path style="fill:none; stroke:black; stroke-width:0.39px;" d="m 1843.8,1653.1 h 70.5"/>
<path style="fill:none; stroke:black; stroke-width:0.39px;" d="m 1844.3,1653.7 v 26.5"/>
<path style="fill:none; stroke:#0197fd; stroke-width:2.04px; stroke-linecap:round;" d="m 1940.3,1690.7 h -32.5"/>
<path style="fill:#0197fd; stroke:#0197fd; stroke-width:1.01px;" d="m 1915.9,1690.7 4.1,-4.1 -14.3,4.1 14.3,4.1 z"/>
<path style="fill:none; stroke:#0197fd; stroke-width:2.04px; stroke-linecap:round;" d="m 1939.3,1637.8 h -32.5"/>
<path style="fill:#0197fd; stroke:#0197fd; stroke-width:1.01px;" d="m 1914.9,1637.8 4.1,-4.1 -14.3,4.1 14.3,4.1 z"/>
<text x="1945.4" y="1643.7" style="font-family:'Comic Sans MS'; font-size:18.7px; font-style:italic; color:black; overflow:visible; fill:#0197fd; stroke-width:1px;">$3 so far</text>
<text x="1944.6" y="1696.6" style="font-family:'Comic Sans MS'; font-size:18.7px; font-style:italic; color:black; overflow:visible; fill:#0197fd; stroke-width:1px;">3 x $3 = $9</text>
</g>
</svg>
