<?xml version="1.0" encoding="UTF-8" standalone="no"?>
<!-- Copyright 2017 mathsisfun.com -->
<svg xmlns="http://www.w3.org/2000/svg" width="377.8" height="204.2" version="1.1" style="font-family:'Comic Sans MS'; fill:#3465a4; stroke-width:0.68;">
<g transform="translate(-1824.92,-2139.47)">
	<path d="m 1876.7,2147.5 c 1.1,0.3 2,0.8 2.6,1.5 0.6,0.7 0.9,1.6 0.9,2.8 0,1.7 -0.6,2.9 -1.9,3.8 -1.3,0.9 -3.1,1.3 -5.6,1.3 -0.9,0 -1.7,-0.1 -2.6,-0.2 -0.9,-0.1 -1.7,-0.3 -2.6,-0.6 v -3.3 c 0.8,0.4 1.6,0.7 2.4,0.9 0.8,0.2 1.6,0.3 2.4,0.3 1.2,0 2,-0.2 2.6,-0.6 0.6,-0.4 0.9,-1 0.9,-1.7 0,-0.8 -0.3,-1.3 -0.9,-1.7 -0.6,-0.4 -1.6,-0.6 -2.8,-0.6 h -1.7 v -2.8 h 1.8 c 1.1,0 1.9,-0.2 2.5,-0.5 0.5,-0.4 0.8,-0.9 0.8,-1.6 0,-0.6 -0.3,-1.1 -0.8,-1.5 -0.5,-0.4 -1.3,-0.5 -2.2,-0.5 -0.7,0 -1.4,0.1 -2.1,0.2 -0.7,0.2 -1.4,0.4 -2.1,0.7 v -3.2 c 0.9,-0.2 1.7,-0.4 2.5,-0.5 0.8,-0.1 1.7,-0.2 2.5,-0.2 2.2,0 3.8,0.4 4.9,1.1 1.1,0.7 1.6,1.8 1.6,3.2 0,1 -0.3,1.8 -0.8,2.4 -0.5,0.6 -1.3,1.1 -2.3,1.3 z"/>
	<path d="m 1884.4,2152.2 h 4.1 v 4.3 h -4.1 z"/>
	<path d="m 1901.6,2147.5 c 1.1,0.3 2,0.8 2.6,1.5 0.6,0.7 0.9,1.6 0.9,2.8 0,1.7 -0.6,2.9 -1.9,3.8 -1.3,0.9 -3.1,1.3 -5.6,1.3 -0.9,0 -1.7,-0.1 -2.6,-0.2 -0.9,-0.1 -1.7,-0.3 -2.6,-0.6 v -3.3 c 0.8,0.4 1.6,0.7 2.4,0.9 0.8,0.2 1.6,0.3 2.4,0.3 1.1,0 2,-0.2 2.6,-0.6 0.6,-0.4 0.9,-1 0.9,-1.7 0,-0.8 -0.3,-1.3 -1,-1.7 -0.6,-0.4 -1.5,-0.6 -2.8,-0.6 h -1.7 v -2.8 h 1.8 c 1.1,0 1.9,-0.2 2.4,-0.5 0.5,-0.4 0.8,-0.9 0.8,-1.6 0,-0.6 -0.3,-1.1 -0.8,-1.5 -0.5,-0.4 -1.3,-0.5 -2.2,-0.5 -0.7,0 -1.4,0.1 -2.1,0.2 -0.7,0.2 -1.4,0.4 -2.1,0.7 v -3.2 c 0.8,-0.2 1.7,-0.4 2.5,-0.5 0.8,-0.1 1.7,-0.2 2.5,-0.2 2.2,0 3.8,0.4 4.9,1.1 1.1,0.7 1.6,1.8 1.6,3.2 0,1 -0.3,1.8 -0.8,2.4 -0.5,0.6 -1.3,1.1 -2.3,1.3 z"/>
	<path d="m 1834.1,2178.2 c 1.1,0.3 2,0.8 2.6,1.5 0.6,0.7 0.9,1.6 0.9,2.7 0,1.7 -0.6,2.9 -1.9,3.8 -1.3,0.9 -3.1,1.3 -5.6,1.3 -0.9,0 -1.7,-0.1 -2.6,-0.2 -0.9,-0.1 -1.7,-0.3 -2.6,-0.6 v -3.3 c 0.8,0.4 1.6,0.7 2.4,0.9 0.8,0.2 1.6,0.3 2.4,0.3 1.2,0 2,-0.2 2.6,-0.6 0.6,-0.4 0.9,-1 0.9,-1.7 0,-0.8 -0.3,-1.3 -1,-1.7 -0.6,-0.4 -1.5,-0.6 -2.8,-0.6 h -1.7 v -2.8 h 1.8 c 1.1,0 1.9,-0.2 2.4,-0.5 0.5,-0.3 0.8,-0.9 0.8,-1.6 0,-0.6 -0.3,-1.1 -0.8,-1.5 -0.5,-0.3 -1.3,-0.5 -2.2,-0.5 -0.7,0 -1.4,0.1 -2.1,0.2 -0.7,0.2 -1.4,0.4 -2.1,0.7 v -3.2 c 0.9,-0.2 1.7,-0.4 2.6,-0.5 0.8,-0.1 1.7,-0.2 2.5,-0.2 2.2,0 3.8,0.4 4.9,1.1 1.1,0.7 1.6,1.8 1.6,3.2 0,1 -0.3,1.8 -0.8,2.4 -0.5,0.6 -1.3,1.1 -2.3,1.3 z"/>
	<path d="m 1853.8,2184.3 h 3.8 v -10.8 l -3.9,0.8 v -2.9 l 3.9,-0.8 h 4.1 v 13.7 h 3.8 v 3 h -11.8 z"/>
	<path d="m 1877.7,2178.9 c 0,-2.1 -0.2,-3.6 -0.6,-4.4 -0.4,-0.9 -1.1,-1.3 -2,-1.3 -0.9,0 -1.6,0.4 -2,1.3 -0.4,0.9 -0.6,2.3 -0.6,4.4 0,2.1 0.2,3.6 0.6,4.5 0.4,0.9 1.1,1.3 2,1.3 0.9,0 1.6,-0.4 2,-1.3 0.4,-0.9 0.6,-2.4 0.6,-4.5 z m 4.3,0.1 c 0,2.8 -0.6,4.9 -1.8,6.4 -1.2,1.5 -2.9,2.2 -5.1,2.2 -2.2,0 -3.9,-0.7 -5.1,-2.2 -1.2,-1.5 -1.8,-3.7 -1.8,-6.4 0,-2.8 0.6,-4.9 1.8,-6.4 1.2,-1.5 2.9,-2.3 5.1,-2.3 2.2,0 3.9,0.8 5.1,2.3 1.2,1.5 1.8,3.7 1.8,6.4 z"/>
	<path d="m 1885.5,2182.9 h 4 v 4.3 h -4 z"/>
	<path d="m 1902.5,2178.9 c 0,-2.1 -0.2,-3.6 -0.6,-4.4 -0.4,-0.9 -1.1,-1.3 -2,-1.3 -0.9,0 -1.6,0.4 -2,1.3 -0.4,0.9 -0.6,2.3 -0.6,4.4 0,2.1 0.2,3.6 0.6,4.5 0.4,0.9 1.1,1.3 2,1.3 0.9,0 1.6,-0.4 2,-1.3 0.4,-0.9 0.6,-2.4 0.6,-4.5 z m 4.3,0.1 c 0,2.8 -0.6,4.9 -1.8,6.4 -1.2,1.5 -2.9,2.2 -5.1,2.2 -2.2,0 -3.9,-0.7 -5.1,-2.2 -1.2,-1.5 -1.8,-3.7 -1.8,-6.4 0,-2.8 0.6,-4.9 1.8,-6.4 1.2,-1.5 2.9,-2.3 5.1,-2.3 2.2,0 3.9,0.8 5.1,2.3 1.2,1.5 1.8,3.7 1.8,6.4 z"/>
	<path d="m 1918.6,2178.9 c 0,-2.1 -0.2,-3.6 -0.6,-4.4 -0.4,-0.9 -1.1,-1.3 -2,-1.3 -0.9,0 -1.6,0.4 -2,1.3 -0.4,0.9 -0.6,2.3 -0.6,4.4 0,2.1 0.2,3.6 0.6,4.5 0.4,0.9 1.1,1.3 2,1.3 0.9,0 1.6,-0.4 2,-1.3 0.4,-0.9 0.6,-2.4 0.6,-4.5 z m 4.3,0.1 c 0,2.8 -0.6,4.9 -1.8,6.4 -1.2,1.5 -2.9,2.2 -5.1,2.2 -2.2,0 -3.9,-0.7 -5.1,-2.2 -1.2,-1.5 -1.8,-3.7 -1.8,-6.4 0,-2.8 0.6,-4.9 1.8,-6.4 1.2,-1.5 2.9,-2.3 5.1,-2.3 2.2,0 3.9,0.8 5.1,2.3 1.2,1.5 1.8,3.7 1.8,6.4 z"/>
	<path d="m 1866.9,2209.4 v -3.1 c 0.7,0.3 1.4,0.6 2,0.7 0.6,0.2 1.3,0.2 1.9,0.2 1.3,0 2.3,-0.4 3,-1.1 0.7,-0.7 1.1,-1.8 1.3,-3.2 -0.5,0.4 -1.1,0.7 -1.6,0.9 -0.6,0.2 -1.2,0.3 -1.9,0.3 -1.7,0 -3.1,-0.5 -4.2,-1.5 -1.1,-1 -1.6,-2.3 -1.6,-3.9 0,-1.8 0.6,-3.2 1.8,-4.3 1.2,-1.1 2.8,-1.6 4.7,-1.6 2.2,0 3.9,0.8 5.1,2.2 1.2,1.5 1.8,3.6 1.8,6.2 0,2.8 -0.7,4.9 -2.1,6.5 -1.4,1.6 -3.3,2.4 -5.8,2.4 -0.8,0 -1.6,-0.1 -2.3,-0.2 -0.7,-0.1 -1.4,-0.3 -2.1,-0.5 z m 5.4,-8 c 0.8,0 1.3,-0.3 1.7,-0.7 0.4,-0.5 0.6,-1.2 0.6,-2.2 0,-1 -0.2,-1.7 -0.6,-2.2 -0.4,-0.5 -0.9,-0.7 -1.7,-0.7 -0.8,0 -1.3,0.2 -1.7,0.7 -0.4,0.5 -0.6,1.2 -0.6,2.2 0,1 0.2,1.7 0.6,2.2 0.4,0.5 1,0.7 1.7,0.7 z"/>
	<path d="m 1867.4,2237.4 h 3.8 v -10.8 l -3.9,0.8 v -2.9 l 3.9,-0.8 h 4.1 v 13.7 h 3.8 v 3 h -11.7 z"/>
	<path d="m 1883.1,2236 h 4 v 4.3 h -4 z"/>
	<path d="m 1900.1,2232 c 0,-2.1 -0.2,-3.6 -0.6,-4.4 -0.4,-0.9 -1.1,-1.3 -2,-1.3 -0.9,0 -1.6,0.4 -2,1.3 -0.4,0.9 -0.6,2.3 -0.6,4.4 0,2.1 0.2,3.6 0.6,4.5 0.4,0.9 1.1,1.3 2,1.3 0.9,0 1.6,-0.4 2,-1.3 0.4,-0.9 0.6,-2.4 0.6,-4.5 z m 4.3,0 c 0,2.8 -0.6,4.9 -1.8,6.4 -1.2,1.5 -2.9,2.3 -5.1,2.3 -2.2,0 -3.9,-0.8 -5.1,-2.3 -1.2,-1.5 -1.8,-3.6 -1.8,-6.4 0,-2.8 0.6,-4.9 1.8,-6.4 1.2,-1.5 2.9,-2.3 5.1,-2.3 2.2,0 3.9,0.8 5.1,2.3 1.2,1.5 1.8,3.6 1.8,6.4 z"/>
	<path d="m 1916.2,2232 c 0,-2.1 -0.2,-3.6 -0.6,-4.4 -0.4,-0.9 -1,-1.3 -2,-1.3 -0.9,0 -1.6,0.4 -2,1.3 -0.4,0.9 -0.6,2.3 -0.6,4.4 0,2.1 0.2,3.6 0.6,4.5 0.4,0.9 1.1,1.3 2,1.3 0.9,0 1.6,-0.4 2,-1.3 0.4,-0.9 0.6,-2.4 0.6,-4.5 z m 4.3,0 c 0,2.8 -0.6,4.9 -1.8,6.4 -1.2,1.5 -2.9,2.3 -5.1,2.3 -2.2,0 -3.9,-0.8 -5.1,-2.3 -1.2,-1.5 -1.8,-3.6 -1.8,-6.4 0,-2.8 0.6,-4.9 1.8,-6.4 1.2,-1.5 2.9,-2.3 5.1,-2.3 2.2,0 3.9,0.8 5.1,2.3 1.2,1.5 1.8,3.6 1.8,6.4 z"/>
	<path d="m 1875.3,2253.6 c 0,-2.1 -0.2,-3.6 -0.6,-4.4 -0.4,-0.9 -1.1,-1.3 -2,-1.3 -0.9,0 -1.6,0.4 -2,1.3 -0.4,0.9 -0.6,2.3 -0.6,4.4 0,2.1 0.2,3.6 0.6,4.5 0.4,0.9 1.1,1.3 2,1.3 0.9,0 1.6,-0.4 2,-1.3 0.4,-0.9 0.6,-2.3 0.6,-4.5 z m 4.3,0 c 0,2.8 -0.6,4.9 -1.8,6.4 -1.2,1.5 -2.9,2.2 -5.1,2.2 -2.2,0 -3.9,-0.7 -5.1,-2.2 -1.2,-1.5 -1.8,-3.7 -1.8,-6.4 0,-2.8 0.6,-4.9 1.8,-6.4 1.2,-1.5 2.9,-2.3 5.1,-2.3 2.2,0 3.9,0.8 5.1,2.3 1.2,1.5 1.8,3.6 1.8,6.4 z"/>
	<path d="m 1883.1,2257.7 h 4.1 v 4.3 h -4.1 z"/>
	<path d="m 1891.8,2261.6 v -3.1 c 0.7,0.3 1.4,0.6 2,0.7 0.6,0.2 1.3,0.2 1.9,0.2 1.3,0 2.3,-0.4 3,-1.1 0.7,-0.7 1.1,-1.8 1.3,-3.2 -0.5,0.4 -1.1,0.7 -1.7,0.9 -0.6,0.2 -1.2,0.3 -1.9,0.3 -1.7,0 -3.1,-0.5 -4.2,-1.5 -1.1,-1 -1.6,-2.3 -1.6,-3.9 0,-1.8 0.6,-3.2 1.8,-4.3 1.2,-1.1 2.8,-1.6 4.7,-1.6 2.2,0 3.9,0.8 5.1,2.2 1.2,1.5 1.8,3.6 1.8,6.2 0,2.8 -0.7,4.9 -2.1,6.5 -1.4,1.6 -3.3,2.4 -5.8,2.4 -0.8,0 -1.6,-0.1 -2.3,-0.2 -0.7,-0.1 -1.4,-0.3 -2.1,-0.5 z m 5.4,-8 c 0.8,0 1.3,-0.2 1.7,-0.7 0.4,-0.5 0.6,-1.2 0.6,-2.2 0,-1 -0.2,-1.7 -0.6,-2.2 -0.4,-0.5 -1,-0.7 -1.7,-0.7 -0.8,0 -1.3,0.2 -1.7,0.7 -0.4,0.5 -0.6,1.2 -0.6,2.2 0,1 0.2,1.7 0.6,2.2 0.4,0.5 0.9,0.7 1.7,0.7 z"/>
	<path d="m 1916.1,2253.6 c 0,-2.1 -0.2,-3.6 -0.6,-4.4 -0.4,-0.9 -1.1,-1.3 -2,-1.3 -0.9,0 -1.6,0.4 -2,1.3 -0.4,0.9 -0.6,2.3 -0.6,4.4 0,2.1 0.2,3.6 0.6,4.5 0.4,0.9 1.1,1.3 2,1.3 0.9,0 1.6,-0.4 2,-1.3 0.4,-0.9 0.6,-2.3 0.6,-4.5 z m 4.3,0 c 0,2.8 -0.6,4.9 -1.8,6.4 -1.2,1.5 -2.9,2.2 -5.1,2.2 -2.2,0 -3.9,-0.7 -5.1,-2.2 -1.2,-1.5 -1.8,-3.7 -1.8,-6.4 0,-2.8 0.6,-4.9 1.8,-6.4 1.2,-1.5 2.9,-2.3 5.1,-2.3 2.2,0 3.9,0.8 5.1,2.3 1.2,1.5 1.8,3.6 1.8,6.4 z"/>
	<path style="fill:none; stroke:black; stroke-width:0.39px;" d="m 1865,2269.3 h 45"/>
	<path style="fill:none; stroke:black; stroke-width:0.39px;" d="m 1866,2216.8 h 44.9"/>
	<path style="fill:none; stroke:black; stroke-width:0.39px;" d="m 1845.3,2164.3 h 70.5"/>
	<path style="fill:none; stroke:black; stroke-width:0.39px;" d="m 1845.8,2164.8 v 26.5"/>
	<path d="m 1875.6,2283.7 c 0,-2.1 -0.2,-3.6 -0.6,-4.4 -0.4,-0.9 -1.1,-1.3 -2,-1.3 -0.9,0 -1.6,0.4 -2,1.3 -0.4,0.9 -0.6,2.3 -0.6,4.4 0,2.1 0.2,3.6 0.6,4.5 0.4,0.9 1.1,1.3 2,1.3 0.9,0 1.6,-0.4 2,-1.3 0.4,-0.9 0.6,-2.4 0.6,-4.5 z m 4.3,0 c 0,2.8 -0.6,4.9 -1.8,6.4 -1.2,1.5 -2.9,2.3 -5.1,2.3 -2.2,0 -3.9,-0.8 -5.1,-2.3 -1.2,-1.5 -1.8,-3.6 -1.8,-6.4 0,-2.8 0.6,-4.9 1.8,-6.4 1.2,-1.5 2.9,-2.3 5.1,-2.3 2.2,0 3.9,0.7 5.1,2.3 1.2,1.5 1.8,3.6 1.8,6.4 z"/>
	<path d="m 1883.4,2287.7 h 4.1 v 4.3 h -4.1 z"/>
	<path d="m 1892.5,2289.1 h 3.8 v -10.8 l -3.9,0.8 v -2.9 l 3.9,-0.8 h 4.1 v 13.7 h 3.8 v 3 h -11.8 z"/>
	<path d="m 1916.4,2283.7 c 0,-2.1 -0.2,-3.6 -0.6,-4.4 -0.4,-0.9 -1.1,-1.3 -2,-1.3 -0.9,0 -1.6,0.4 -2,1.3 -0.4,0.9 -0.6,2.3 -0.6,4.4 0,2.1 0.2,3.6 0.6,4.5 0.4,0.9 1.1,1.3 2,1.3 0.9,0 1.6,-0.4 2,-1.3 0.4,-0.9 0.6,-2.4 0.6,-4.5 z m 4.3,0 c 0,2.8 -0.6,4.9 -1.8,6.4 -1.2,1.5 -2.9,2.3 -5.1,2.3 -2.2,0 -3.9,-0.8 -5.1,-2.3 -1.2,-1.5 -1.8,-3.6 -1.8,-6.4 0,-2.8 0.6,-4.9 1.8,-6.4 1.2,-1.5 2.9,-2.3 5.1,-2.3 2.2,0 3.9,0.7 5.1,2.3 1.2,1.5 1.8,3.6 1.8,6.4 z"/>
	<path style="fill:#f0a513;" d="m 1875.6,2305.3 c 0,-2.1 -0.2,-3.6 -0.6,-4.4 -0.4,-0.9 -1,-1.3 -2,-1.3 -0.9,0 -1.6,0.4 -2,1.3 -0.4,0.8 -0.6,2.3 -0.6,4.4 0,2.1 0.2,3.6 0.6,4.5 0.4,0.9 1.1,1.3 2,1.3 0.9,0 1.6,-0.4 2,-1.3 0.4,-0.9 0.6,-2.3 0.6,-4.5 z m 4.3,0 c 0,2.8 -0.6,4.9 -1.8,6.4 -1.2,1.5 -2.9,2.3 -5.1,2.3 -2.2,0 -3.9,-0.8 -5.1,-2.3 -1.2,-1.5 -1.8,-3.6 -1.8,-6.4 0,-2.8 0.6,-4.9 1.8,-6.4 1.2,-1.5 2.9,-2.3 5.1,-2.3 2.2,0 3.9,0.8 5.1,2.3 1.2,1.5 1.8,3.6 1.8,6.4 z"/>
	<path style="fill:#f0a513;" d="m 1883.3,2309.4 h 4.1 v 4.3 h -4.1 z"/>
	<path style="fill:#f0a513;" d="m 1900.4,2305.3 c 0,-2.1 -0.2,-3.6 -0.6,-4.4 -0.4,-0.9 -1.1,-1.3 -2,-1.3 -0.9,0 -1.6,0.4 -2,1.3 -0.4,0.8 -0.6,2.3 -0.6,4.4 0,2.1 0.2,3.6 0.6,4.5 0.4,0.9 1.1,1.3 2,1.3 0.9,0 1.6,-0.4 2,-1.3 0.4,-0.9 0.6,-2.3 0.6,-4.5 z m 4.3,0 c 0,2.8 -0.6,4.9 -1.8,6.4 -1.2,1.5 -2.9,2.3 -5.1,2.3 -2.2,0 -3.9,-0.8 -5.1,-2.3 -1.2,-1.5 -1.8,-3.6 -1.8,-6.4 0,-2.8 0.6,-4.9 1.8,-6.4 1.2,-1.5 2.9,-2.3 5.1,-2.3 2.2,0 3.9,0.8 5.1,2.3 1.2,1.5 1.8,3.6 1.8,6.4 z"/>
	<path style="fill:#f0a513;" d="m 1908.1,2313.3 v -3.1 c 0.7,0.3 1.3,0.6 2,0.7 0.6,0.2 1.2,0.2 1.9,0.2 1.3,0 2.3,-0.4 3,-1.1 0.7,-0.7 1.1,-1.8 1.3,-3.2 -0.5,0.4 -1.1,0.7 -1.6,0.8 -0.6,0.2 -1.2,0.3 -1.9,0.3 -1.7,0 -3.1,-0.5 -4.2,-1.5 -1,-1 -1.6,-2.3 -1.6,-4 0,-1.8 0.6,-3.2 1.8,-4.3 1.2,-1.1 2.8,-1.6 4.7,-1.6 2.2,0 3.9,0.7 5.1,2.2 1.2,1.5 1.8,3.5 1.8,6.2 0,2.8 -0.7,4.9 -2.1,6.5 -1.4,1.6 -3.3,2.4 -5.8,2.4 -0.8,0 -1.5,-0.1 -2.3,-0.2 -0.7,-0.1 -1.4,-0.3 -2.1,-0.5 z m 5.3,-8.1 c 0.8,0 1.3,-0.2 1.7,-0.7 0.4,-0.5 0.6,-1.2 0.6,-2.2 0,-1 -0.2,-1.7 -0.6,-2.2 -0.4,-0.5 -1,-0.8 -1.7,-0.8 -0.8,0 -1.3,0.3 -1.7,0.8 -0.4,0.5 -0.6,1.2 -0.6,2.2 0,1 0.2,1.7 0.6,2.2 0.4,0.5 1,0.7 1.7,0.7 z"/>
	<path style="fill:none; stroke:black; stroke-width:0.39px;" d="m 1865.2,2321 h 45"/>
	<path style="fill:#f0a513;" d="m 1877,2334.8 c 0,-2.1 -0.2,-3.6 -0.6,-4.4 -0.4,-0.9 -1.1,-1.3 -2,-1.3 -0.9,0 -1.6,0.4 -2,1.3 -0.4,0.9 -0.6,2.3 -0.6,4.4 0,2.1 0.2,3.6 0.6,4.5 0.4,0.9 1.1,1.3 2,1.3 0.9,0 1.6,-0.4 2,-1.3 0.4,-0.9 0.6,-2.4 0.6,-4.5 z m 4.3,0 c 0,2.8 -0.6,4.9 -1.8,6.4 -1.2,1.5 -2.9,2.2 -5.1,2.2 -2.2,0 -3.9,-0.8 -5.1,-2.2 -1.2,-1.5 -1.8,-3.7 -1.8,-6.4 0,-2.8 0.6,-4.9 1.8,-6.4 1.2,-1.5 2.9,-2.3 5.1,-2.3 2.2,0 3.9,0.8 5.1,2.3 1.2,1.5 1.8,3.6 1.8,6.4 z"/>
	<path style="fill:#f0a513;" d="m 1884.7,2338.8 h 4.1 v 4.3 h -4.1 z"/>
	<path style="fill:#f0a513;" d="m 1901.8,2334.8 c 0,-2.1 -0.2,-3.6 -0.6,-4.4 -0.4,-0.9 -1.1,-1.3 -2,-1.3 -0.9,0 -1.6,0.4 -2,1.3 -0.4,0.9 -0.6,2.3 -0.6,4.4 0,2.1 0.2,3.6 0.6,4.5 0.4,0.9 1.1,1.3 2,1.3 0.9,0 1.6,-0.4 2,-1.3 0.4,-0.9 0.6,-2.4 0.6,-4.5 z m 4.3,0 c 0,2.8 -0.6,4.9 -1.8,6.4 -1.2,1.5 -2.9,2.2 -5.1,2.2 -2.2,0 -3.9,-0.8 -5.1,-2.2 -1.2,-1.5 -1.8,-3.7 -1.8,-6.4 0,-2.8 0.6,-4.9 1.8,-6.4 1.2,-1.5 2.9,-2.3 5.1,-2.3 2.2,0 3.9,0.8 5.1,2.3 1.2,1.5 1.8,3.6 1.8,6.4 z"/>
	<path style="fill:#f0a513;" d="m 1909.9,2340.2 h 3.8 v -10.8 l -3.9,0.8 v -2.9 l 3.9,-0.8 h 4.1 v 13.7 h 3.8 v 3 h -11.8 z"/>
	<path style="fill:#f0a513;" d="m 1917.2,2147.5 c 1.1,0.3 2,0.8 2.6,1.5 0.6,0.7 0.9,1.6 0.9,2.7 0,1.7 -0.7,2.9 -1.9,3.8 -1.3,0.9 -3.2,1.3 -5.6,1.3 -0.9,0 -1.7,-0.1 -2.6,-0.2 -0.9,-0.1 -1.7,-0.4 -2.6,-0.6 v -3.3 c 0.8,0.4 1.6,0.7 2.4,0.9 0.8,0.2 1.6,0.3 2.4,0.3 1.2,0 2,-0.2 2.6,-0.6 0.6,-0.4 0.9,-1 0.9,-1.7 0,-0.8 -0.3,-1.3 -1,-1.7 -0.6,-0.4 -1.5,-0.6 -2.8,-0.6 h -1.7 v -2.8 h 1.8 c 1.1,0 1.9,-0.2 2.4,-0.5 0.5,-0.3 0.8,-0.9 0.8,-1.6 0,-0.7 -0.3,-1.1 -0.8,-1.5 -0.5,-0.4 -1.3,-0.5 -2.2,-0.5 -0.7,0 -1.4,0.1 -2.1,0.2 -0.7,0.2 -1.4,0.4 -2.1,0.7 v -3.2 c 0.9,-0.2 1.7,-0.4 2.5,-0.5 0.9,-0.1 1.7,-0.2 2.5,-0.2 2.2,0 3.8,0.4 4.9,1.1 1.1,0.7 1.6,1.8 1.6,3.2 0,1 -0.3,1.8 -0.8,2.4 -0.5,0.6 -1.3,1.1 -2.3,1.3 z"/>
	<path style="fill:none; stroke:#0197fd; stroke-width:2.04px; stroke-linecap:round;" d="M 1963.3,2332.8 H 1930.8"/>
	<path style="fill:#0197fd; stroke:#0197fd; stroke-width:1.01px;" d="m 1938.9,2332.8 4.1,-4.1 -14.3,4.1 14.3,4.1 z"/>
	<path style="fill:none; stroke:#0197fd; stroke-width:2.04px; stroke-linecap:round;" d="m 1968.4,2150.8 h -32.5"/>
	<path style="fill:#0197fd; stroke:#0197fd; stroke-width:1.01px;" d="m 1944,2150.8 4.1,-4.1 -14.3,4.1 14.3,4.1 z"/>
	<text x="1973" y="2156.7" style="font-size:18.7px; font-style:italic; fill:#0197fd; stroke-width:1px;">Answer: $3.33</text>
	<text x="1969.3" y="2340.1" style="font-size:18.7px; font-style:italic; fill:#0197fd; stroke-width:1px;">Remainder $0.01, or 1 cent</text>
</g>
</svg>