<?xml version="1.0" encoding="UTF-8" standalone="no"?>
<!-- Copyright 2017 mathsisfun.com -->
<svg xmlns="http://www.w3.org/2000/svg" width="266.4" height="103.1" version="1.1">
<defs>
</defs>
<g transform="translate(-1813.82,-1755.98)">
<path style="fill:#3465a4; stroke-width:0.68;" d="m 1865.6,1764 c 1.1,0.3 2,0.8 2.6,1.5 0.6,0.7 0.9,1.6 0.9,2.7 0,1.7 -0.7,2.9 -1.9,3.8 -1.3,0.9 -3.1,1.3 -5.6,1.3 -0.9,0 -1.7,-0.1 -2.6,-0.2 -0.9,-0.2 -1.7,-0.4 -2.6,-0.6 v -3.3 c 0.8,0.4 1.6,0.7 2.4,0.9 0.8,0.2 1.6,0.3 2.4,0.3 1.1,0 2,-0.2 2.6,-0.6 0.6,-0.4 0.9,-1 0.9,-1.7 0,-0.8 -0.3,-1.3 -0.9,-1.7 -0.6,-0.4 -1.5,-0.6 -2.8,-0.6 h -1.7 v -2.8 h 1.8 c 1.1,0 1.9,-0.2 2.4,-0.5 0.5,-0.3 0.8,-0.9 0.8,-1.6 0,-0.7 -0.3,-1.1 -0.8,-1.5 -0.5,-0.4 -1.3,-0.5 -2.2,-0.5 -0.7,0 -1.4,0.1 -2.1,0.2 -0.7,0.2 -1.4,0.4 -2.1,0.7 v -3.2 c 0.9,-0.2 1.7,-0.4 2.5,-0.5 0.8,-0.1 1.7,-0.2 2.5,-0.2 2.2,0 3.8,0.4 4.9,1.1 1.1,0.7 1.6,1.8 1.6,3.2 0,1 -0.3,1.8 -0.8,2.4 -0.5,0.6 -1.3,1.1 -2.3,1.3 z"/>
<path style="fill:#3465a4; stroke-width:0.68;" d="m 1823,1794.6 c 1.1,0.3 2,0.8 2.6,1.5 0.6,0.7 0.9,1.6 0.9,2.7 0,1.7 -0.7,2.9 -1.9,3.8 -1.3,0.9 -3.2,1.3 -5.6,1.3 -0.9,0 -1.7,-0.1 -2.6,-0.2 -0.9,-0.1 -1.7,-0.4 -2.6,-0.6 v -3.3 c 0.8,0.4 1.6,0.7 2.4,0.9 0.8,0.2 1.6,0.3 2.3,0.3 1.2,0 2,-0.2 2.7,-0.6 0.6,-0.4 0.9,-1 0.9,-1.7 0,-0.8 -0.3,-1.3 -1,-1.7 -0.6,-0.4 -1.5,-0.6 -2.8,-0.6 h -1.7 v -2.8 h 1.8 c 1.1,0 1.9,-0.2 2.4,-0.5 0.5,-0.3 0.8,-0.9 0.8,-1.6 0,-0.7 -0.3,-1.1 -0.8,-1.5 -0.5,-0.3 -1.2,-0.5 -2.2,-0.5 -0.7,0 -1.4,0.1 -2.1,0.3 -0.7,0.2 -1.4,0.4 -2.1,0.7 v -3.1 c 0.9,-0.2 1.7,-0.4 2.6,-0.5 0.9,-0.1 1.7,-0.2 2.5,-0.2 2.2,0 3.8,0.4 4.9,1.1 1.1,0.7 1.6,1.8 1.6,3.2 0,1 -0.3,1.8 -0.8,2.4 -0.5,0.6 -1.3,1 -2.3,1.3 z"/>
<path style="fill:#3465a4; stroke-width:0.68;" d="m 1842.7,1800.7 h 3.8 v -10.8 l -3.9,0.8 v -2.9 l 3.9,-0.8 h 4.1 v 13.7 h 3.8 v 3 h -11.7 z"/>
<path style="fill:#3465a4; stroke-width:0.68;" d="m 1866.6,1795.3 c 0,-2.1 -0.2,-3.5 -0.6,-4.4 -0.4,-0.9 -1,-1.3 -2,-1.3 -0.9,0 -1.6,0.4 -2,1.3 -0.4,0.9 -0.6,2.3 -0.6,4.4 0,2.1 0.2,3.6 0.6,4.5 0.4,0.9 1.1,1.3 2,1.3 0.9,0 1.6,-0.4 2,-1.3 0.4,-0.9 0.6,-2.4 0.6,-4.5 z m 4.3,0.1 c 0,2.8 -0.6,4.9 -1.8,6.4 -1.2,1.5 -2.9,2.3 -5.1,2.3 -2.2,0 -3.9,-0.8 -5.1,-2.3 -1.2,-1.5 -1.8,-3.6 -1.8,-6.4 0,-2.8 0.6,-4.9 1.8,-6.4 1.2,-1.5 2.9,-2.3 5.1,-2.3 2.2,0 3.9,0.8 5.1,2.3 1.2,1.5 1.8,3.6 1.8,6.4 z"/>
<path style="fill:#3465a4; stroke-width:0.68;" d="m 1874.4,1799.4 h 4.1 v 4.3 h -4.1 z"/>
<path style="fill:#3465a4; stroke-width:0.68;" d="m 1891.4,1795.3 c 0,-2.1 -0.2,-3.5 -0.6,-4.4 -0.4,-0.9 -1.1,-1.3 -2,-1.3 -1,0 -1.6,0.4 -2,1.3 -0.4,0.9 -0.6,2.3 -0.6,4.4 0,2.1 0.2,3.6 0.6,4.5 0.4,0.9 1.1,1.3 2,1.3 0.9,0 1.6,-0.4 2,-1.3 0.4,-0.9 0.6,-2.4 0.6,-4.5 z m 4.3,0.1 c 0,2.8 -0.6,4.9 -1.8,6.4 -1.2,1.5 -2.9,2.3 -5.1,2.3 -2.2,0 -3.9,-0.8 -5.1,-2.3 -1.2,-1.5 -1.8,-3.6 -1.8,-6.4 0,-2.8 0.6,-4.9 1.8,-6.4 1.2,-1.5 2.9,-2.3 5.1,-2.3 2.2,0 3.9,0.8 5.1,2.3 1.2,1.5 1.8,3.6 1.8,6.4 z"/>
<path style="fill:#3465a4; stroke-width:0.68;" d="m 1907.4,1795.3 c 0,-2.1 -0.2,-3.5 -0.6,-4.4 -0.4,-0.9 -1.1,-1.3 -2,-1.3 -0.9,0 -1.6,0.4 -2,1.3 -0.4,0.9 -0.6,2.3 -0.6,4.4 0,2.1 0.2,3.6 0.6,4.5 0.4,0.9 1.1,1.3 2,1.3 0.9,0 1.6,-0.4 2,-1.3 0.4,-0.9 0.6,-2.4 0.6,-4.5 z m 4.4,0.1 c 0,2.8 -0.6,4.9 -1.8,6.4 -1.2,1.5 -2.9,2.3 -5.1,2.3 -2.2,0 -3.9,-0.8 -5.1,-2.3 -1.2,-1.5 -1.8,-3.6 -1.8,-6.4 0,-2.8 0.6,-4.9 1.8,-6.4 1.2,-1.5 2.9,-2.3 5.1,-2.3 2.2,0 3.9,0.8 5.1,2.3 1.2,1.5 1.8,3.6 1.8,6.4 z"/>
<path style="fill:#3465a4; stroke-width:0.68;" d="m 1855.8,1825.9 v -3.1 c 0.7,0.3 1.4,0.6 2,0.7 0.7,0.2 1.3,0.3 1.9,0.3 1.3,0 2.3,-0.4 3,-1.1 0.7,-0.7 1.1,-1.8 1.3,-3.2 -0.5,0.4 -1.1,0.7 -1.6,0.8 -0.6,0.2 -1.2,0.3 -1.9,0.3 -1.7,0 -3.1,-0.5 -4.2,-1.5 -1,-1 -1.6,-2.3 -1.6,-3.9 0,-1.8 0.6,-3.2 1.8,-4.3 1.2,-1.1 2.7,-1.6 4.7,-1.6 2.2,0 3.9,0.7 5.1,2.2 1.2,1.5 1.8,3.6 1.8,6.2 0,2.8 -0.7,4.9 -2.1,6.5 -1.4,1.6 -3.3,2.4 -5.8,2.4 -0.8,0 -1.5,-0.1 -2.3,-0.2 -0.7,-0.1 -1.4,-0.3 -2.1,-0.5 z m 5.4,-8.1 c 0.8,0 1.3,-0.2 1.7,-0.7 0.4,-0.5 0.6,-1.2 0.6,-2.2 0,-1 -0.2,-1.7 -0.6,-2.2 -0.4,-0.5 -1,-0.7 -1.7,-0.7 -0.8,0 -1.3,0.3 -1.7,0.7 -0.4,0.5 -0.6,1.2 -0.6,2.2 0,1 0.2,1.7 0.6,2.2 0.4,0.5 1,0.7 1.7,0.7 z"/>
<path style="fill:#3465a4; stroke-width:0.68;" d="m 1856.3,1853.9 h 3.8 v -10.8 l -3.9,0.8 v -2.9 l 3.9,-0.8 h 4.1 v 13.7 h 3.8 v 3 h -11.8 z"/>
<path style="fill:#3465a4; stroke-width:0.68;" d="m 1872,1852.5 h 4.1 v 4.3 h -4.1 z"/>
<path style="fill:#3465a4; stroke-width:0.68;" d="m 1889,1848.5 c 0,-2.1 -0.2,-3.6 -0.6,-4.4 -0.4,-0.9 -1,-1.3 -2,-1.3 -0.9,0 -1.6,0.4 -2,1.3 -0.4,0.9 -0.6,2.3 -0.6,4.4 0,2.1 0.2,3.6 0.6,4.5 0.4,0.9 1.1,1.3 2,1.3 0.9,0 1.6,-0.4 2,-1.3 0.4,-0.9 0.6,-2.4 0.6,-4.5 z m 4.3,0 c 0,2.8 -0.6,4.9 -1.8,6.4 -1.2,1.5 -2.9,2.3 -5.1,2.3 -2.2,0 -3.9,-0.8 -5.1,-2.3 -1.2,-1.5 -1.8,-3.6 -1.8,-6.4 0,-2.8 0.6,-4.9 1.8,-6.4 1.2,-1.5 2.9,-2.3 5.1,-2.3 2.2,0 3.9,0.8 5.1,2.3 1.2,1.5 1.8,3.6 1.8,6.4 z"/>
<path style="fill:#3465a4; stroke-width:0.68;" d="m 1905,1848.5 c 0,-2.1 -0.2,-3.6 -0.6,-4.4 -0.4,-0.9 -1.1,-1.3 -2,-1.3 -0.9,0 -1.6,0.4 -2,1.3 -0.4,0.9 -0.6,2.3 -0.6,4.4 0,2.1 0.2,3.6 0.6,4.5 0.4,0.9 1.1,1.3 2,1.3 0.9,0 1.6,-0.4 2,-1.3 0.4,-0.9 0.6,-2.4 0.6,-4.5 z m 4.4,0 c 0,2.8 -0.6,4.9 -1.8,6.4 -1.2,1.5 -2.9,2.3 -5.1,2.3 -2.2,0 -3.9,-0.8 -5.1,-2.3 -1.2,-1.5 -1.8,-3.6 -1.8,-6.4 0,-2.8 0.6,-4.9 1.8,-6.4 1.2,-1.5 2.9,-2.3 5.1,-2.3 2.2,0 3.9,0.8 5.1,2.3 1.2,1.5 1.8,3.6 1.8,6.4 z"/>
<path style="fill:none; stroke:black; stroke-width:0.39px;" d="m 1854.9,1833.3 h 44.9"/>
<path style="fill:none; stroke:black; stroke-width:0.39px;" d="m 1834.2,1780.8 h 70.4"/>
<path style="fill:none; stroke:black; stroke-width:0.39px;" d="m 1834.6,1781.3 v 26.5"/>
<path style="fill:none; stroke:#0197fd; stroke-width:2.04px; stroke-linecap:round;" d="m 1958.3,1849.3 h -32.5"/>
<path style="fill:#0197fd; stroke:#0197fd; stroke-width:1.01px;" d="m 1933.9,1849.3 4.1,-4.1 -14.3,4.1 14.3,4.1 z"/>
<text x="1962.7" y="1855.5" style="font-family:'Comic Sans MS'; font-size:18.7px; font-style:italic; color:black; overflow:visible; fill:#0197fd; stroke-width:1px;">$10 - $9 = $1</text>
</g>
</svg>
