<?xml version="1.0" encoding="UTF-8" standalone="no"?>
<!-- Generator: Adobe Illustrator 21.0.0, SVG Export Plug-In . SVG Version: 6.00 Build 0)  -->

<svg
   xmlns:dc="http://purl.org/dc/elements/1.1/"
   xmlns:cc="http://creativecommons.org/ns#"
   xmlns:rdf="http://www.w3.org/1999/02/22-rdf-syntax-ns#"
   xmlns:svg="http://www.w3.org/2000/svg"
   xmlns="http://www.w3.org/2000/svg"
   xmlns:sodipodi="http://sodipodi.sourceforge.net/DTD/sodipodi-0.dtd"
   xmlns:inkscape="http://www.inkscape.org/namespaces/inkscape"
   version="1.1"
   id="Layer_1"
   x="0px"
   y="0px"
   viewBox="0 0 387.944 102.323"
   xml:space="preserve"
   sodipodi:docname="number-systems.svg"
   width="387.944"
   height="102.323"
   inkscape:version="0.92.2 (5c3e80d, 2017-08-06)"><metadata
     id="metadata185"><rdf:RDF><cc:Work
         rdf:about=""><dc:format>image/svg+xml</dc:format><dc:type
           rdf:resource="http://purl.org/dc/dcmitype/StillImage" /></cc:Work></rdf:RDF></metadata><defs
     id="defs183" /><sodipodi:namedview
     pagecolor="#ffffff"
     bordercolor="#666666"
     borderopacity="1"
     objecttolerance="10"
     gridtolerance="10"
     guidetolerance="10"
     inkscape:pageopacity="0"
     inkscape:pageshadow="2"
     inkscape:window-width="640"
     inkscape:window-height="480"
     id="namedview181"
     showgrid="false"
     inkscape:snap-global="false"
     inkscape:current-layer="Layer_1" /><title
     id="title2">NUMERAL SYSTEMS OF THE WORLD</title><path
     inkscape:connector-curvature="0"
     id="path4"
     d="m 7.026,35.1872 h 3.421 v 4.965 H 7.026 Z"
     style="fill:#009100;stroke-width:0.5" /><path
     inkscape:connector-curvature="0"
     id="path6"
     d="m 36.1574,28.7246 h 2.359 v 17.8899 h -2.359 z"
     style="fill:#009100;stroke-width:0.5" /><path
     inkscape:connector-curvature="0"
     id="path8"
     d="m 60.6408,30.5941 v -1.8805 h 10.593 v 2.1725 h -8.04 l 5.576,15.7394 h -2.553 z"
     style="fill:#009100;stroke-width:0.5" /><path
     inkscape:connector-curvature="0"
     id="path10"
     d="m 87.9049,28.7156 h 2.527 l 1.194,4.0045 c 0.281,0.1115 0.584,0.1556 0.885,0.1285 0.519,0 0.888,-0.3334 1.106,-1 0.264,-1.024 0.375,-2.0809 0.332,-3.1374 h 2.359 c 0,0.7744 -0.03,1.5484 -0.115,2.3185 -0.06,0.5729 -0.21,1.1324 -0.443,1.6594 0.389,0.108 0.791,0.1605 1.195,0.155 0.632,0.037 1.217,-0.336 1.451,-0.925 0.278,-0.6165 0.416,-1.686 0.416,-3.2079 h 2.3591 v 0.363 c 0,2.0234 -0.317,3.4915 -0.952,4.4029 -0.6341,0.9115 -1.6921,1.376 -3.1721,1.394 -0.876,0.049 -1.746,-0.164 -2.5,-0.6105 -0.334,0.3645 -0.803,0.576 -1.297,0.584 -0.383,0.029 -0.765,-0.067 -1.088,-0.2745 l 3.929,12.0579 h -2.526 z"
     style="fill:#009100;stroke-width:0.5" /><path
     inkscape:connector-curvature="0"
     id="path12"
     d="m 123.643,46.9155 c -0.93,0.015 -1.855,-0.12 -2.744,-0.394 -0.709,-0.2 -1.357,-0.5745 -1.885,-1.0885 -0.411,-0.3955 -0.648,-0.9385 -0.659,-1.509 0,-0.64 0.442,-1.515 1.327,-2.624 0.992,-1.2135 2.125,-2.304 3.376,-3.248 l -1.363,-1.0885 c -1.787,-1.41 -2.681,-2.382 -2.681,-2.916 0.08,-0.7195 0.389,-1.3935 0.885,-1.9205 0.671,-0.8195 1.467,-1.5285 2.358,-2.102 1.046,-0.6855 2.181,-1.226 3.372,-1.606 l 0.726,2.022 c -0.695,0.2295 -1.367,0.526 -2.005,0.885 -0.716,0.3965 -1.394,0.857 -2.026,1.376 -0.64,0.522 -0.96,0.866 -0.96,1.031 0,0.2505 0.795,1.019 2.385,2.3055 l 2.075,1.699 c -2.118,2.1505 -3.367,3.447 -3.748,3.8895 -0.328,0.3625 -0.625,0.7535 -0.885,1.168 -0.174,0.264 -0.276,0.569 -0.296,0.885 0,0.345 0.28,0.64 0.84,0.885 0.669,0.262 1.384,0.3855 2.102,0.363 1.384,0.051 2.765,-0.138 4.084,-0.5575 v 1.956 c -1.384,0.4295 -2.83,0.628 -4.278,0.589 z"
     style="fill:#009100;stroke-width:0.5" /><path
     inkscape:connector-curvature="0"
     id="path14"
     d="m 151.695,46.8675 c -2.15,0 -3.715,-0.5902 -4.695,-1.7702 -0.979,-1.18 -1.467,-2.975 -1.464,-5.385 -0.01,-1.905 0.277,-3.7995 0.854,-5.615 0.437,-1.534 1.215,-2.9495 2.274,-4.1415 1.375,-1.7165 3.882,-1.9935 5.598,-0.6185 0.242,0.1935 0.46,0.4145 0.65,0.6585 1.042,1.2115 1.799,2.6425 2.213,4.186 0.542,1.7935 0.815,3.6575 0.81,5.531 0.05,1.393 -0.175,2.782 -0.66,4.0885 -0.376,0.973 -1.07,1.79 -1.969,2.3185 -1.121,0.5522 -2.363,0.8097 -3.611,0.7477 z m 0.05,-2.0357 c 1.331,0 2.288,-0.4335 2.872,-1.301 0.584,-0.8675 0.879,-2.161 0.885,-3.8805 0.01,-1.5855 -0.161,-3.1675 -0.517,-4.7125 -0.232,-1.1815 -0.697,-2.305 -1.368,-3.3055 -0.566,-0.755 -1.194,-1.133 -1.885,-1.133 -0.64,0 -1.24,0.3995 -1.801,1.199 -0.662,1.0405 -1.131,2.1915 -1.385,3.3985 -0.366,1.4915 -0.549,3.022 -0.544,4.5575 0,1.72 0.295,3.0135 0.885,3.8805 0.59,0.8675 1.537,1.2995 2.841,1.2965 h 0.01 z"
     style="fill:#009100;stroke-width:0.5" /><path
     inkscape:connector-curvature="0"
     id="path16"
     d="m 183.273,30.8751 h -8.23 v -2.1505 h 10.593 v 17.8899 h -2.358 z"
     style="fill:#009100;stroke-width:0.5" /><path
     inkscape:connector-curvature="0"
     id="path18"
     d="m 202.459,28.7246 h 2.438 l 3.217,12.1595 c 0.363,1.348 0.631,2.515 0.805,3.5 0.203,-1.182 0.476,-2.351 0.819,-3.5 l 3.217,-12.1595 h 2.464 l -5.031,17.8899 h -2.942 z"
     style="fill:#009100;stroke-width:0.5" /><path
     inkscape:connector-curvature="0"
     id="path20"
     d="m 236.051,28.7246 h 2.942 l 5.023,17.8899 h -2.465 l -3.208,-12.1773 c -0.35,-1.1471 -0.624,-2.3166 -0.818,-3.5 -0.174,1.0029 -0.443,2.1694 -0.806,3.5 l -3.217,12.1593 h -2.438 z"
     style="fill:#009100;stroke-width:0.5" /><path
     inkscape:connector-curvature="0"
     id="path22"
     d="m 269.559,39.6081 h -3.009 c -1.926,0 -3.417,-0.4865 -4.473,-1.46 -1.056,-0.9735 -1.583,-2.3525 -1.58,-4.1375 -0.07,-1.452 0.442,-2.872 1.425,-3.9425 1.005,-1.007 2.389,-1.5435 3.81,-1.478 2.118,0 3.657,0.6875 4.615,2.062 0.959,1.3745 1.44,3.5665 1.443,6.5755 v 9.5269 h -2.213 z m -0.02,-2.075 c 0.03,-1.3385 -0.1,-2.6755 -0.389,-3.9825 -0.163,-0.84 -0.577,-1.6115 -1.186,-2.2125 -0.629,-0.4935 -1.415,-0.7405 -2.213,-0.6945 -0.832,-0.046 -1.641,0.278 -2.212,0.885 -0.573,0.696 -0.86,1.583 -0.806,2.4825 0,2.3335 1.258,3.5 3.775,3.5 z"
     style="fill:#009100;stroke-width:0.5" /><path
     inkscape:connector-curvature="0"
     id="path92"
     d="M 3.065,9.382 C 3.065,3.053 5.274,0 8.749,0 c 3.45,0 5.659,3.0775 5.659,9.382 0,6.329 -2.209,9.4815 -5.659,9.4815 -3.475,0 -5.684,-3.1525 -5.684,-9.4815 z m 9.134,0 c 0,-5.3115 -1.39,-7.545 -3.45,-7.545 -2.085,0 -3.475,2.234 -3.475,7.545 0,5.361 1.39,7.6695 3.475,7.6695 2.06,0 3.45,-2.3085 3.45,-7.6695 z"
     style="fill:#3465a4;stroke-width:0.5" /><path
     inkscape:connector-curvature="0"
     id="path94"
     d="M 37.7869,18.5285 V 3.0655 h -3.227 V 1.626 c 1.613,-0.298 2.78,-0.72 3.773,-1.291 h 1.737 v 18.193 h -2.283 z"
     style="fill:#3465a4;stroke-width:0.5" /><path
     inkscape:connector-curvature="0"
     id="path96"
     d="m 60.2219,17.3618 c 5.709,-4.989 8.34,-8.6125 8.34,-11.74 0,-2.085 -1.092,-3.599 -3.351,-3.599 -1.489,0 -2.78,0.9185 -3.772,2.1095 l -1.316,-1.291 c 1.489,-1.613 3.053,-2.68 5.361,-2.68 3.251,0 5.286,2.1345 5.286,5.386 0,3.6235 -2.854,7.322 -7.123,11.3675 0.943,-0.075 2.06,-0.1735 2.978,-0.1735 h 5.039 v 1.961 h -11.442 z"
     style="fill:#3465a4;stroke-width:0.5" /><path
     inkscape:connector-curvature="0"
     id="path98"
     d="m 88.6393,16.381 1.142,-1.489 c 1.067,1.117 2.457,2.085 4.517,2.085 2.159,0 3.698,-1.2905 3.698,-3.3755 0,-2.1845 -1.465,-3.6485 -5.659,-3.6485 V 8.2155 c 3.748,0 5.038,-1.514 5.038,-3.475 0,-1.762 -1.191,-2.879 -3.078,-2.9285 -1.464,0.05 -2.755,0.794 -3.772,1.812 L 89.3093,2.1845 C 90.6743,0.9185 92.2883,0 94.3973,0 c 3.053,0 5.287,1.638 5.287,4.567 0,2.209 -1.316,3.6735 -3.252,4.393 v 0.1 c 2.16,0.4965 3.8717,2.1345 3.8717,4.6165 0,3.2515 -2.6057,5.1875 -5.8317,5.1875 -2.854,0 -4.641,-1.1915 -5.833,-2.4825 z"
     style="fill:#3465a4;stroke-width:0.5" /><path
     inkscape:connector-curvature="0"
     id="path100"
     d="m 129.292,13.5148 h -2.407 v 5.0135 h -2.16 v -5.0135 h -7.917 v -1.489 l 7.57,-11.6905 h 2.507 v 11.3675 h 2.407 z m -4.567,-1.812 V 6.1183 c 0,-0.8935 0.1,-2.358 0.149,-3.301 h -0.1 c -0.447,0.8935 -0.943,1.787 -1.465,2.6805 l -4.145,6.205 z"
     style="fill:#3465a4;stroke-width:0.5" /><path
     inkscape:connector-curvature="0"
     id="path102"
     d="m 145.758,16.2828 1.117,-1.4895 c 1.043,1.0425 2.358,2.0105 4.468,2.0105 2.134,0 3.872,-1.638 3.872,-4.294 0,-2.606 -1.489,-4.145 -3.773,-4.145 -1.216,0 -1.986,0.3725 -3.028,1.067 l -1.216,-0.7445 0.571,-8.5135 h 8.86 v 1.936 h -6.875 l -0.446,5.262 c 0.794,-0.4465 1.613,-0.7195 2.705,-0.7195 3.028,0 5.486,1.787 5.486,5.783 0,3.996 -2.879,6.2545 -5.957,6.2545 -2.83,0 -4.568,-1.191 -5.784,-2.407 z"
     style="fill:#3465a4;stroke-width:0.5" /><path
     inkscape:connector-curvature="0"
     id="path104"
     d="m 184.29,3.2768 c -0.72,-0.869 -1.812,-1.39 -2.928,-1.39 -2.482,0 -4.592,1.9115 -4.691,7.57 1.117,-1.365 2.705,-2.209 4.145,-2.209 3.077,0 5.038,1.911 5.038,5.7085 0,3.5245 -2.382,5.907 -5.212,5.907 -3.5,0 -6.081,-3.0035 -6.081,-9.0095 0,-7.1235 3.202,-9.8535 6.726,-9.8535 1.886,0 3.251,0.794 4.244,1.8615 z m -0.571,9.6795 c 0,-2.4575 -1.067,-4.021 -3.276,-4.021 -1.142,0 -2.532,0.6455 -3.723,2.333 0.273,3.7725 1.638,5.8325 3.921,5.8325 1.738,5e-4 3.078,-1.6625 3.078,-4.1445 z"
     style="fill:#3465a4;stroke-width:0.5" /><path
     inkscape:connector-curvature="0"
     id="path106"
     d="m 211.901,2.2713 h -8.811 v -1.936 h 11.392 v 1.365 c -4.269,5.4855 -5.063,9.7045 -5.336,16.828 h -2.358 c 0.298,-6.9 1.564,-11.293 5.113,-16.257 z"
     style="fill:#3465a4;stroke-width:0.5" /><path
     inkscape:connector-curvature="0"
     id="path108"
     d="m 231.606,13.9858 c 0,-2.4325 1.688,-4.12 3.35,-5.0135 v -0.124 c -1.34,-0.9185 -2.457,-2.2835 -2.457,-4.1945 0,-2.78 2.135,-4.6165 4.989,-4.6165 3.103,0 4.989,1.9855 4.989,4.7905 0,1.911 -1.34,3.5495 -2.432,4.393 v 0.124 c 1.588,0.9185 3.078,2.2835 3.078,4.7655 0,2.6555 -2.284,4.716 -5.709,4.716 -3.351,0 -5.808,-2.036 -5.808,-4.8405 z m 9.357,0.075 c 0,-2.4325 -2.234,-3.3505 -4.815,-4.393 -1.465,0.943 -2.482,2.3825 -2.482,4.12 0,1.936 1.613,3.3505 3.797,3.3505 2.085,0 3.5,-1.266 3.5,-3.0775 z m -0.422,-9.109 c 0,-1.787 -1.142,-3.2515 -3.103,-3.2515 -1.663,0 -2.879,1.1915 -2.879,2.9535 0,2.1845 1.961,3.1275 4.096,3.971 1.241,-1.092 1.886,-2.333 1.886,-3.673 z"
     style="fill:#3465a4;stroke-width:0.5" /><path
     inkscape:connector-curvature="0"
     id="path110"
     d="m 261.872,15.5873 c 0.769,0.869 1.886,1.39 3.053,1.39 2.358,0 4.393,-1.936 4.567,-7.595 -1.092,1.365 -2.656,2.2585 -4.195,2.2585 -3.028,0 -5.013,-1.961 -5.013,-5.7335 0,-3.5245 2.382,-5.907 5.211,-5.907 3.5,0 6.106,2.879 6.106,8.662 0,7.3715 -3.177,10.201 -6.602,10.201 -1.961,0 -3.351,-0.794 -4.369,-1.8615 z m 7.595,-8.0665 c -0.248,-3.748 -1.638,-5.7335 -3.971,-5.7335 -1.738,0 -3.078,1.638 -3.078,4.12 0,2.4575 1.092,4.046 3.252,4.046 1.215,0 2.58,-0.695 3.797,-2.4325 z"
     style="fill:#3465a4;stroke-width:0.5" /><path
     style="fill:#204a87;stroke-width:0.403989"
     inkscape:connector-curvature="0"
     id="path114"
     d="m 37.0052,87.7033 h 1.854 v 14.6197 h -1.854 z" /><g
     id="g1067"
     transform="matrix(0.40399,0,0,0.40399,44.9222,13.9773)"><path
       d="m 45.0433,182.494 h 4.591 v 36.19 h -4.591 z"
       id="path116"
       inkscape:connector-curvature="0"
       style="fill:#204a87" /><path
       d="m 57.5083,182.494 h 4.591 v 36.19 h -4.591 z"
       id="path118"
       inkscape:connector-curvature="0"
       style="fill:#204a87" /></g><g
     id="g1072"
     transform="matrix(0.40399,0,0,0.40399,53.2662,13.9773)"><path
       d="m 89.0313,182.494 h 4.591 v 36.19 h -4.591 z"
       id="path120"
       inkscape:connector-curvature="0"
       style="fill:#204a87" /><path
       d="m 101.496,182.494 h 4.591 v 36.19 h -4.591 z"
       id="path122"
       inkscape:connector-curvature="0"
       style="fill:#204a87" /><path
       d="m 113.96,182.494 h 4.591 v 36.19 h -4.591 z"
       id="path124"
       inkscape:connector-curvature="0"
       style="fill:#204a87" /></g><g
     id="g1076"
     transform="matrix(0.40399,0,0,0.40399,59.4161,13.9773)"><path
       d="m 141.484,182.494 h 4.591 v 36.19 h -4.591 z"
       id="path126"
       inkscape:connector-curvature="0"
       style="fill:#204a87" /><path
       d="m 149.061,182.494 h 4.789 l 5.875,19.601 c 1.284,4.246 2.123,7.702 3.505,11.948 h 0.198 c 1.333,-4.246 2.222,-7.702 3.505,-11.948 l 5.826,-19.601 h 4.641 l -11.504,36.19 h -5.283 z"
       id="path128"
       inkscape:connector-curvature="0"
       style="fill:#204a87" /></g><path
     style="fill:#204a87;stroke-width:0.403989"
     inkscape:connector-curvature="0"
     id="path130"
     d="m 146.737,87.7033 h 1.935 l 2.373,7.918 c 0.519,1.716 0.858,3.112 1.416,4.8267 h 0.08 c 0.538,-1.7147 0.898,-3.1107 1.416,-4.8267 l 2.354,-7.918 h 1.875 l -4.648,14.6197 h -2.134 z" /><g
     id="g1080"
     transform="matrix(0.40399,0,0,0.40399,81.7594,13.9773)"><path
       d="m 227.95,182.494 h 4.79 l 5.875,19.601 c 1.284,4.246 2.123,7.702 3.505,11.948 h 0.198 c 1.333,-4.246 2.222,-7.702 3.505,-11.948 l 5.826,-19.601 h 4.641 l -11.504,36.19 h -5.283 z"
       id="path132"
       inkscape:connector-curvature="0"
       style="fill:#204a87" /><path
       d="m 259.224,182.494 h 4.592 v 36.19 h -4.592 z"
       id="path134"
       inkscape:connector-curvature="0"
       style="fill:#204a87" /></g><g
     id="g1085"
     transform="matrix(0.40399,0,0,0.40399,86.0949,13.9773)"><path
       d="m 281.86,182.494 h 4.789 l 5.875,19.601 c 1.284,4.246 2.123,7.702 3.506,11.948 h 0.197 c 1.333,-4.246 2.222,-7.702 3.506,-11.948 l 5.825,-19.601 h 4.641 l -11.504,36.19 h -5.282 z"
       id="path136"
       inkscape:connector-curvature="0"
       style="fill:#204a87" /><path
       d="m 313.134,182.494 h 4.592 v 36.19 h -4.592 z"
       id="path138"
       inkscape:connector-curvature="0"
       style="fill:#204a87" /><path
       d="m 325.598,182.494 h 4.592 v 36.19 h -4.592 z"
       id="path140"
       inkscape:connector-curvature="0"
       style="fill:#204a87" /></g><g
     id="g1091"
     transform="matrix(0.40399,0,0,0.40399,84.5867,13.9773)"><path
       d="m 350.234,182.494 h 4.789 l 5.875,19.601 c 1.284,4.246 2.123,7.702 3.505,11.948 h 0.198 c 1.333,-4.246 2.222,-7.702 3.506,-11.948 l 5.825,-19.601 h 4.641 l -11.504,36.19 h -5.282 z"
       id="path142"
       inkscape:connector-curvature="0"
       style="fill:#204a87" /><path
       d="m 381.508,182.494 h 4.592 v 36.19 h -4.592 z"
       id="path144"
       inkscape:connector-curvature="0"
       style="fill:#204a87" /><path
       d="m 393.973,182.494 h 4.592 v 36.19 h -4.592 z"
       id="path146"
       inkscape:connector-curvature="0"
       style="fill:#204a87" /><path
       d="m 406.438,182.494 h 4.592 v 36.19 h -4.592 z"
       id="path148"
       inkscape:connector-curvature="0"
       style="fill:#204a87" /></g><g
     id="g1095"
     transform="matrix(0.40399,0,0,0.40399,81.3072,13.9773)"><path
       d="m 442.134,182.494 h 4.592 v 36.19 h -4.592 z"
       id="path150"
       inkscape:connector-curvature="0"
       style="fill:#204a87" /><path
       d="m 461.067,199.972 -9.875,-17.478 h 5.036 l 4.937,9.233 c 0.938,1.679 1.679,3.209 2.864,5.283 h 0.198 c 0.987,-2.073 1.679,-3.604 2.567,-5.283 l 4.839,-9.233 h 4.789 l -9.875,17.725 10.566,18.465 h -5.036 l -5.332,-9.776 c -0.938,-1.777 -1.926,-3.654 -3.11,-5.826 h -0.198 c -1.037,2.172 -1.975,4.048 -2.913,5.826 l -5.234,9.776 h -4.79 z"
       id="path152"
       inkscape:connector-curvature="0"
       style="fill:#204a87" /></g><path
     inkscape:connector-curvature="0"
     id="path158"
     d="m 8.736,57.4473 c 4.825,0 8.738,3.914 8.738,8.737 0,4.824 -3.913,8.737 -8.738,8.737 -4.823,0 -8.736,-3.913 -8.736,-8.737 0,-4.824 3.913,-8.737 8.736,-8.737 z m 0,1.492 c -4.01,0 -7.244,3.235 -7.244,7.245 0,4.01 3.234,7.245 7.244,7.245 4.01,0 7.246,-3.235 7.246,-7.245 0,-4.01 -3.236,-7.245 -7.246,-7.245 z"
     style="fill:#ff4141;stroke-width:0.338035" /><path
     inkscape:connector-curvature="0"
     id="path160"
     d="m 46.1345,65.3993 v 1.569 h -17.59 v -1.569 z"
     style="fill:#ff4141;stroke-width:0.338035" /><path
     inkscape:connector-curvature="0"
     id="path162"
     d="m 74.475,71.1043 v 1.569 H 57.409 v -1.569 z m -1.627,-11.41 v 1.53 H 59.036 v -1.53 z"
     style="fill:#ff4141;stroke-width:0.338035" /><path
     inkscape:connector-curvature="0"
     id="path164"
     d="m 102.884,71.9373 v 1.453 H 86.2051 v -1.453 z m -1.046,-12.96 v 1.434 H 87.3091 v -1.434 z m -1.511,6.277 v 1.453 H 88.5491 v -1.453 z"
     style="fill:#ff4141;stroke-width:0.338035" /><path
     inkscape:connector-curvature="0"
     id="path166"
     d="m 131.022,58.5023 v 15.227 h -1.472 v -1.298 h -12.844 v 1.434 h -1.433 v -15.363 z m -1.472,12.534 v -11.139 h -3.778 v 6.064 c 0,0.619 0.08,0.871 0.484,0.871 h 1.879 c 0.33,0 0.853,-0.04 1.124,-0.116 0.02,0.407 0.06,0.872 0.1,1.221 -0.232,0.1 -0.716,0.1 -1.161,0.1 h -2.093 c -1.356,0 -1.685,-0.601 -1.685,-2.112 v -6.025 h -2.673 c -0.116,5.211 -0.601,8.079 -3.933,9.687 -0.155,-0.348 -0.561,-0.853 -0.871,-1.124 2.944,-1.376 3.293,-3.836 3.39,-8.563 h -3.622 v 11.139 h 12.843 z"
     style="fill:#ff4141;stroke-width:0.338035" /><path
     inkscape:connector-curvature="0"
     id="path168"
     d="m 160.303,72.1403 v 1.415 h -17.106 v -1.415 h 4.708 c 0.387,-1.762 0.794,-4.029 1.181,-6.335 h -3.603 v -1.413 h 3.836 c 0.232,-1.434 0.445,-2.868 0.62,-4.166 h -5.521 v -1.414 h 14.49 v 1.414 h -7.439 c -0.194,1.298 -0.407,2.751 -0.639,4.166 h 4.882 l 0.252,-0.08 1.104,0.116 c -0.135,2.131 -0.407,5.192 -0.698,7.71 z m -9.686,-6.335 c -0.368,2.306 -0.775,4.572 -1.143,6.335 h 5.405 c 0.213,-2.072 0.445,-4.552 0.6,-6.335 z"
     style="fill:#ff4141;stroke-width:0.338035" /><path
     inkscape:connector-curvature="0"
     id="path170"
     d="m 178.124,66.4843 c -1.22,3.216 -3.1,6.374 -4.998,8.408 -0.31,-0.252 -1.007,-0.775 -1.414,-0.988 1.937,-1.879 3.719,-4.862 4.804,-7.846 z m 10.848,-3.08 H 172.06 v -1.472 h 7.633 v -4.456 h 1.511 v 4.456 h 7.768 z m -4.766,2.693 c 1.841,2.518 3.933,5.908 4.786,8.078 l -1.569,0.697 c -0.775,-2.131 -2.79,-5.618 -4.611,-8.194 z"
     style="fill:#ff4141;stroke-width:0.338035" /><path
     inkscape:connector-curvature="0"
     id="path172"
     d="m 213.691,72.8963 c 0.659,0 1.569,-0.06 2.015,-0.174 0.06,0.426 0.135,1.046 0.213,1.394 -0.407,0.1 -1.298,0.136 -2.248,0.136 h -4.688 c -2.247,0 -3.08,-0.833 -3.08,-3.158 v -5.172 l -5.211,0.834 -0.213,-1.415 5.424,-0.872 v -6.354 h 1.512 v 6.102 l 9.802,-1.569 0.213,1.434 -10.016,1.608 v 5.502 c 0,1.24 0.388,1.705 1.492,1.705 h 4.785 z"
     style="fill:#ff4141;stroke-width:0.338035" /><path
     inkscape:connector-curvature="0"
     id="path174"
     d="m 235.407,58.3483 c -0.485,5.812 -1.434,12.456 -5.56,16.099 -0.252,-0.291 -0.814,-0.776 -1.162,-1.008 3.971,-3.41 4.804,-9.764 5.172,-15.207 z m 4.92,-0.465 c 0.775,6.703 2.422,12.689 6.103,15.614 -0.407,0.213 -1.065,0.659 -1.395,0.988 -3.545,-3.08 -5.153,-8.737 -5.986,-15.168 h -1.821 v -1.434 z"
     style="fill:#ff4141;stroke-width:0.338035" /><path
     inkscape:connector-curvature="0"
     id="path176"
     d="m 272.872,73.1483 c 0.581,0 0.678,-0.561 0.755,-3.215 0.33,0.271 0.93,0.522 1.337,0.639 -0.135,3.022 -0.504,3.952 -1.976,3.952 h -2.189 c -1.569,0 -1.976,-0.504 -1.976,-2.228 v -9.241 h -4.301 c -0.387,4.747 -1.666,9.28 -6.024,11.953 -0.233,-0.349 -0.737,-0.852 -1.143,-1.124 4.145,-2.363 5.308,-6.47 5.637,-10.829 h -5.056 v -1.414 h 5.153 c 0.06,-1.434 0.06,-2.887 0.06,-4.281 h 1.55 c 0,1.394 -0.02,2.847 -0.1,4.281 h 5.695 v 10.655 c 0,0.716 0.1,0.852 0.679,0.852 z"
     style="fill:#ff4141;stroke-width:0.338035" /><text
     xml:space="preserve"
     style="color:#000000;font-style:italic;font-variant:normal;font-weight:normal;font-stretch:normal;font-size:13.333333px;line-height:12.5px;font-family:'Comic Sans MS';-inkscape-font-specification:'Comic Sans MS, Italic';font-variant-ligatures:normal;font-variant-caps:normal;font-variant-numeric:normal;font-feature-settings:normal;text-indent:0;text-align:start;text-decoration:none;text-decoration-line:none;text-decoration-style:solid;text-decoration-color:#000000;letter-spacing:0px;word-spacing:0px;text-transform:none;writing-mode:lr-tb;direction:ltr;baseline-shift:baseline;text-anchor:start;white-space:normal;clip-rule:nonzero;display:inline;overflow:visible;visibility:visible;opacity:1;isolation:auto;mix-blend-mode:normal;color-interpolation:sRGB;color-interpolation-filters:linearRGB;solid-color:#000000;solid-opacity:1;fill:#3465a4;fill-opacity:1;fill-rule:nonzero;stroke:none;stroke-width:0.5px;stroke-linecap:butt;stroke-linejoin:miter;stroke-miterlimit:4;stroke-dasharray:none;stroke-dashoffset:0;stroke-opacity:1;color-rendering:auto;image-rendering:auto;shape-rendering:auto;text-rendering:auto;enable-background:accumulate"
     x="293.96"
     y="16.1598"
     id="text994"><tspan
       sodipodi:role="line"
       id="tspan992"
       x="293.96"
       y="16.1598"
       style="font-style:italic;font-variant:normal;font-weight:normal;font-stretch:normal;font-size:13.333333px;font-family:'Comic Sans MS';-inkscape-font-specification:'Comic Sans MS, Italic';font-variant-ligatures:normal;font-variant-caps:normal;font-variant-numeric:normal;font-feature-settings:normal;text-align:start;writing-mode:lr-tb;text-anchor:start;stroke-width:0.5px">Hindu-Arabic</tspan></text>
<text
     id="text1049"
     y="42.2193"
     x="293.771"
     style="color:#000000;font-style:italic;font-variant:normal;font-weight:normal;font-stretch:normal;font-size:13.333333px;line-height:12.5px;font-family:'Comic Sans MS';-inkscape-font-specification:'Comic Sans MS, Italic';font-variant-ligatures:normal;font-variant-caps:normal;font-variant-numeric:normal;font-feature-settings:normal;text-indent:0;text-align:start;text-decoration:none;text-decoration-line:none;text-decoration-style:solid;text-decoration-color:#000000;letter-spacing:0px;word-spacing:0px;text-transform:none;writing-mode:lr-tb;direction:ltr;baseline-shift:baseline;text-anchor:start;white-space:normal;clip-rule:nonzero;display:inline;overflow:visible;visibility:visible;opacity:1;isolation:auto;mix-blend-mode:normal;color-interpolation:sRGB;color-interpolation-filters:linearRGB;solid-color:#000000;solid-opacity:1;fill:#009100;fill-opacity:1;fill-rule:nonzero;stroke:none;stroke-width:0.5px;stroke-linecap:butt;stroke-linejoin:miter;stroke-miterlimit:4;stroke-dasharray:none;stroke-dashoffset:0;stroke-opacity:1;color-rendering:auto;image-rendering:auto;shape-rendering:auto;text-rendering:auto;enable-background:accumulate"
     xml:space="preserve"><tspan
       y="42.2193"
       x="293.771"
       id="tspan1047"
       sodipodi:role="line"
       style="font-style:italic;font-variant:normal;font-weight:normal;font-stretch:normal;font-size:13.333333px;font-family:'Comic Sans MS';-inkscape-font-specification:'Comic Sans MS, Italic';font-variant-ligatures:normal;font-variant-caps:normal;font-variant-numeric:normal;font-feature-settings:normal;text-align:start;writing-mode:lr-tb;text-anchor:start;stroke-width:0.5px">Eastern Arabic</tspan></text>
<text
     xml:space="preserve"
     style="color:#000000;font-style:italic;font-variant:normal;font-weight:normal;font-stretch:normal;font-size:13.333333px;line-height:12.5px;font-family:'Comic Sans MS';-inkscape-font-specification:'Comic Sans MS, Italic';font-variant-ligatures:normal;font-variant-caps:normal;font-variant-numeric:normal;font-feature-settings:normal;text-indent:0;text-align:start;text-decoration:none;text-decoration-line:none;text-decoration-style:solid;text-decoration-color:#000000;letter-spacing:0px;word-spacing:0px;text-transform:none;writing-mode:lr-tb;direction:ltr;baseline-shift:baseline;text-anchor:start;white-space:normal;clip-rule:nonzero;display:inline;overflow:visible;visibility:visible;opacity:1;isolation:auto;mix-blend-mode:normal;color-interpolation:sRGB;color-interpolation-filters:linearRGB;solid-color:#000000;solid-opacity:1;fill:#204a87;fill-opacity:1;fill-rule:nonzero;stroke:none;stroke-width:0.5px;stroke-linecap:butt;stroke-linejoin:miter;stroke-miterlimit:4;stroke-dasharray:none;stroke-dashoffset:0;stroke-opacity:1;color-rendering:auto;image-rendering:auto;shape-rendering:auto;text-rendering:auto;enable-background:accumulate"
     x="294.018"
     y="98.8604"
     id="text1053"><tspan
       sodipodi:role="line"
       id="tspan1051"
       x="294.018"
       y="98.8604"
       style="font-style:italic;font-variant:normal;font-weight:normal;font-stretch:normal;font-size:13.333333px;font-family:'Comic Sans MS';-inkscape-font-specification:'Comic Sans MS, Italic';font-variant-ligatures:normal;font-variant-caps:normal;font-variant-numeric:normal;font-feature-settings:normal;text-align:start;writing-mode:lr-tb;text-anchor:start;stroke-width:0.5px">Roman</tspan></text>
<text
     id="text1057"
     y="70.6841"
     x="293.927"
     style="color:#000000;font-style:italic;font-variant:normal;font-weight:normal;font-stretch:normal;font-size:13.333333px;line-height:12.5px;font-family:'Comic Sans MS';-inkscape-font-specification:'Comic Sans MS, Italic';font-variant-ligatures:normal;font-variant-caps:normal;font-variant-numeric:normal;font-feature-settings:normal;text-indent:0;text-align:start;text-decoration:none;text-decoration-line:none;text-decoration-style:solid;text-decoration-color:#000000;letter-spacing:0px;word-spacing:0px;text-transform:none;writing-mode:lr-tb;direction:ltr;baseline-shift:baseline;text-anchor:start;white-space:normal;clip-rule:nonzero;display:inline;overflow:visible;visibility:visible;opacity:1;isolation:auto;mix-blend-mode:normal;color-interpolation:sRGB;color-interpolation-filters:linearRGB;solid-color:#000000;solid-opacity:1;fill:#ff4141;fill-opacity:1;fill-rule:nonzero;stroke:none;stroke-width:0.5px;stroke-linecap:butt;stroke-linejoin:miter;stroke-miterlimit:4;stroke-dasharray:none;stroke-dashoffset:0;stroke-opacity:1;color-rendering:auto;image-rendering:auto;shape-rendering:auto;text-rendering:auto;enable-background:accumulate"
     xml:space="preserve"><tspan
       y="70.6841"
       x="293.927"
       id="tspan1055"
       sodipodi:role="line"
       style="font-style:italic;font-variant:normal;font-weight:normal;font-stretch:normal;font-size:13.333333px;font-family:'Comic Sans MS';-inkscape-font-specification:'Comic Sans MS, Italic';font-variant-ligatures:normal;font-variant-caps:normal;font-variant-numeric:normal;font-feature-settings:normal;text-align:start;writing-mode:lr-tb;text-anchor:start;stroke-width:0.5px">Chinese</tspan></text>
</svg>