<?xml version="1.0" encoding="UTF-8" standalone="no"?>
<!-- Copyright 2021 mathsisfun.com -->

<svg
   width="172.634"
   height="181.016"
   version="1.1"
   style="font-size:25.1px;font-family:'Trebuchet MS';fill:#c17d11;stroke-width:1px"
   id="svg866"
   sodipodi:docname="paws-16.svg"
   inkscape:version="1.1 (c68e22c387, 2021-05-23)"
   xmlns:inkscape="http://www.inkscape.org/namespaces/inkscape"
   xmlns:sodipodi="http://sodipodi.sourceforge.net/DTD/sodipodi-0.dtd"
   xmlns="http://www.w3.org/2000/svg"
   xmlns:svg="http://www.w3.org/2000/svg">
  <sodipodi:namedview
     id="namedview868"
     pagecolor="#ffffff"
     bordercolor="#666666"
     borderopacity="1.0"
     inkscape:pageshadow="2"
     inkscape:pageopacity="0.0"
     inkscape:pagecheckerboard="0"
     showgrid="false"
     inkscape:current-layer="svg866" />
  <defs
     id="defs824" />
  <path
     style="stroke-width:2;stop-color:#000000"
     d="m 18.1347,35.6007 c 5.2205,6.0625 6.3151,14.5668 2.8628,17.8506 C 17.5453,56.7351 9.79886,55.4721 4.5784,49.4096 -0.642057,43.3472 -1.31567,34.8429 2.13658,31.5591 5.58881,28.2753 12.9143,29.6225 18.1347,35.6849 Z"
     id="path826" />
  <path
     style="stroke-width:2;stop-color:#000000"
     d="m 62.2559,25.665 c -3.4522,7.1571 -2.3576,15.6614 1.7682,17.9348 4.21,2.2734 11.3671,-0.9262 14.8189,-8.1675 3.4522,-7.157 1.9366,-15.6613 -2.1888,-17.9347 -4.21,-2.2734 -10.9461,0.9262 -14.3983,8.0832 z"
     id="path828" />
  <path
     style="stroke-width:2;stop-color:#000000"
     d="m 39.6059,13.4559 c -0.7578,8.5043 3.368,16.5034 8.2517,17.2612 4.8836,0.7578 10.7777,-5.1363 11.5355,-13.5563 C 60.1509,8.65646 55.604,0.825857 50.7204,0.068057 45.8368,-0.689743 40.3637,4.95166 39.6059,13.4559 Z"
     id="path830" />
  <path
     style="stroke-width:2;stop-color:#000000"
     d="m 33.4593,14.4664 c 2.947,7.9148 1.0104,16.7559 -3.5365,18.6925 C 25.376,35.0955 18.2189,30.9697 15.2719,23.0548 12.3249,15.14 14.6825,6.46726 19.3135,4.44646 c 4.5469,-1.9366 11.2829,2.0208 14.23,9.93574 z"
     id="path832" />
  <path
     d="m 28.8088,48.2491 c 4.9258,-6.6014 3.107,-10.8451 12.8827,-11.7882 9.7757,-0.943 7.2749,3.3681 16.5202,9.3632 9.2452,5.9951 11.3671,12.7988 7.275,18.1876 -4.168,5.3888 -10.7609,0.064 -19.021,0.8752 -8.2601,0.8088 -15.6109,8.488 -21.4459,2.0208 -5.8352,-6.4664 -1.1367,-12.1247 3.789,-18.726 z"
     id="path834"
     style="stroke-width:0.999999px" />
  <path
     style="stroke-width:2;stop-color:#000000"
     d="m 148.405,45.9221 c -5.388,6.2309 -6.483,14.9036 -2.947,18.2717 3.537,3.368 11.536,2.021 16.925,-4.2101 5.389,-6.2309 6.062,-14.9878 2.526,-18.3558 -3.537,-3.368 -11.115,-2.0208 -16.504,4.21 z"
     id="path836" />
  <path
     style="stroke-width:2;stop-color:#000000"
     d="m 104.2,35.9023 c 3.452,7.157 2.358,15.6613 -1.768,17.9347 -4.2102,2.2734 -11.3673,-0.9262 -14.8195,-8.1675 -3.4522,-7.157 -1.9366,-15.6613 2.1892,-17.9347 4.2101,-2.2734 10.9463,0.9262 14.3983,8.0833 z"
     id="path838" />
  <path
     style="stroke-width:2;stop-color:#000000"
     d="m 126.85,23.609 c 0.758,8.5042 -3.368,16.5033 -8.252,17.2611 -4.883,0.7578 -10.777,-5.1362 -11.535,-13.5563 -0.758,-8.5043 3.789,-16.335 8.673,-17.0928 4.883,-0.75784 10.356,4.8837 11.198,13.388 z"
     id="path840" />
  <path
     style="stroke-width:2;stop-color:#000000"
     d="m 132.997,24.7036 c -2.947,7.9148 -1.011,16.7559 3.536,18.6925 4.547,1.9366 11.704,-2.1892 14.651,-10.1041 2.947,-7.9148 0.589,-16.5875 -4.042,-18.6083 -4.546,-1.9366 -11.282,2.0208 -14.23,9.9357 z"
     id="path842" />
  <path
     d="m 137.179,60.1041 c -4.743,-7.3427 -2.477,-11.6453 -12.767,-13.3547 -10.29,-1.7094 -7.877,3.045 -18.059,8.702 -10.1806,5.6571 -12.9358,12.6943 -8.9368,18.7046 3.9978,6.0093 11.3368,0.8317 19.9758,2.2297 8.636,1.4626 15.874,10.1217 22.462,3.6816 6.584,-6.3738 2.074,-12.6881 -2.67,-20.0305 z"
     id="path844"
     style="stroke-width:0.999999px" />
  <text
     x="4.41852"
     y="49.4096"
     style="font-size:21.1344px;fill:#ffffff;stroke-width:1px"
     id="text846">1</text>
  <text
     x="43.5676"
     y="21.8844"
     style="font-size:21.1344px;fill:#ffffff;stroke-width:1px"
     id="text848">3</text>
  <text
     x="63.4432"
     y="37.3689"
     style="font-size:21.1344px;fill:#ffffff;stroke-width:1px"
     id="text850">4</text>
  <text
     x="90.3154"
     y="47.7745"
     style="font-size:21.1344px;fill:#ffffff;stroke-width:1px"
     id="text852">5</text>
  <text
     x="111.113"
     y="31.368"
     style="font-size:21.1344px;fill:#ffffff;stroke-width:1px"
     id="text854">6</text>
  <text
     x="136.626"
     y="37.5863"
     style="font-size:21.1344px;fill:#ffffff;stroke-width:1px"
     id="text856">7</text>
  <text
     x="149.583"
     y="60.8577"
     style="font-size:21.1344px;fill:#ffffff;stroke-width:1px"
     id="text858">8</text>
  <text
     x="18.3958"
     y="25.9176"
     style="font-size:21.1344px;fill:#ffffff;stroke-width:1px"
     id="text860">2</text>
  <path
     style="stroke-width:2;stop-color:#000000"
     d="m 21.4162,125.681 c 5.4458,5.861 6.861,14.318 3.5353,17.73 -3.3256,3.412 -11.1143,2.443 -16.56015,-3.418 -5.44585,-5.862 -6.44034,-14.334 -3.11475,-17.746 3.32568,-3.411 10.6969,-2.342 16.1427,3.518 z"
     id="path973" />
  <path
     style="stroke-width:2;stop-color:#000000"
     d="m 65.1303,114.085 c -3.1793,7.282 -1.7641,15.74 2.4448,17.856 4.2929,2.112 11.3243,-1.356 14.4995,-8.722 3.1795,-7.282 1.343,-15.724 -2.8645,-17.84 -4.2934,-2.112 -10.9037,1.34 -14.083,8.622 z"
     id="path975" />
  <path
     style="stroke-width:2;stop-color:#000000"
     d="m 42.0351,102.741 c -0.4359,8.527 3.9893,16.364 8.8981,16.937 4.9088,0.572 10.5759,-5.54 11.0149,-13.983 0.4359,-8.527 -4.4037,-16.1802 -9.3124,-16.7522 -4.9088,-0.573 -10.1647,5.271 -10.6006,13.7982 z"
     id="path977" />
  <path
     style="stroke-width:2;stop-color:#000000"
     d="m 35.931,103.983 c 3.244,7.797 1.643,16.706 -2.8274,18.813 -4.4705,2.107 -11.7783,-1.746 -15.0223,-9.544 -3.2441,-7.798 -1.2159,-16.553 3.3354,-18.7472 4.4705,-2.108 11.3513,1.5932 14.5953,9.3912 z"
     id="path979" />
  <path
     d="m 32.3379,139.81 c 4.6416,-6.762 2.6438,-10.942 12.3723,-12.213 9.7287,-1.27 7.413,3.122 16.9065,8.802 9.4936,5.681 11.9035,12.408 8.0431,17.93 -3.9359,5.526 -10.7504,0.429 -18.9702,1.514 -8.2198,1.085 -15.2387,9.006 -21.3446,2.74 -6.1059,-6.267 -1.6514,-12.078 2.9901,-18.84 z"
     id="path981"
     style="stroke-width:0.999999px" />
  <path
     style="stroke-width:2;stop-color:#000000"
     d="m 153.831,142.905 c -5.027,6.525 -5.631,15.246 -1.909,18.409 3.72,3.163 11.63,1.366 16.659,-5.16 5.028,-6.525 5.206,-15.306 1.485,-18.468 -3.721,-3.164 -11.21,-1.391 -16.239,5.135 z"
     id="path983" />
  <path
     style="stroke-width:2;stop-color:#000000"
     d="m 109.131,135.398 c 3.851,6.951 3.238,15.503 -0.753,18.006 -4.074,2.508 -11.4007,-0.283 -15.2562,-7.318 -3.8522,-6.951 -2.8182,-15.526 1.172,-18.03 4.0754,-2.507 10.9812,0.307 14.8322,7.258 z"
     id="path985" />
  <path
     style="stroke-width:2;stop-color:#000000"
     d="m 131.05,121.845 c 1.237,8.448 -2.43,16.667 -7.263,17.7 -4.833,1.032 -11.051,-4.52 -12.283,-12.884 -1.237,-8.448 2.861,-16.523 7.693,-17.555 4.833,-1.032 10.616,4.291 11.937,12.734 z"
     id="path987" />
  <path
     style="stroke-width:2;stop-color:#000000"
     d="m 137.249,122.59 c -2.495,8.069 -0.06,16.786 4.586,18.464 4.65,1.676 11.562,-2.847 14.058,-10.916 2.494,-8.069 -0.349,-16.594 -5.087,-18.35 -4.649,-1.677 -11.151,2.655 -13.646,10.723 z"
     id="path989" />
  <path
     d="m 143.764,158.484 c -5.666,-6.732 -3.981,-11.269 -14.41,-11.757 -10.43,-0.488 -7.415,3.948 -16.774,10.761 -9.357,6.813 -11.169,14.123 -6.417,19.619 4.753,5.496 11.353,-0.504 20.106,-0.135 8.757,0.438 17.067,8.183 22.76,1.015 5.695,-7.1 0.397,-12.839 -5.269,-19.57 z"
     id="path991"
     style="stroke-width:0.999999px" />
  <text
     x="8.85001"
     y="138.785"
     style="font-size:21.1344px;fill:#ffffff;stroke-width:1px"
     id="text993">9</text>
  <text
     x="46.0608"
     y="111.787"
     style="font-size:21.1344px;fill:#ffffff;stroke-width:1px"
     id="text995">B</text>
  <text
     x="66.8365"
     y="127.174"
     style="font-size:21.1344px;fill:#ffffff;stroke-width:1px"
     id="text997">C</text>
  <text
     x="94.8614"
     y="147.392"
     style="font-size:21.1344px;fill:#ffffff;stroke-width:1px"
     id="text999">D</text>
  <text
     x="116.004"
     y="131.582"
     style="font-size:21.1344px;fill:#ffffff;stroke-width:1px"
     id="text1001">E</text>
  <text
     x="141.184"
     y="134.64"
     style="font-size:21.1344px;fill:#ffffff;stroke-width:1px"
     id="text1003">F</text>
  <text
     x="158.931"
     y="157.705"
     style="font-size:21.1344px;fill:#ffffff;stroke-width:1px"
     id="text1005">0</text>
  <text
     x="21.0432"
     y="113.922"
     style="font-size:21.1344px;fill:#ffffff;stroke-width:1px"
     id="text1007">A</text>
  <text
     x="150.511"
     y="157.621"
     style="font-size:21.1344px;fill:#ffffff;stroke-width:1px"
     id="text1009">1</text>
</svg>
