<?xml version="1.0" encoding="UTF-8" standalone="no"?>
<!-- Copyright 2017 mathsisfun.com -->
<svg xmlns="http://www.w3.org/2000/svg" width="293.4" height="248" version="1.1">
<defs>
<marker id="id4" style="overflow:visible;" orient="auto">
<path transform="matrix(-0.4,0,0,-0.4,-4,0)" style="stroke:black; stroke-width:1pt;" d="M 0,0 5,-5 -12.5,0 5,5 Z"/>
</marker>
<marker id="id3" style="overflow:visible;" orient="auto">
<path transform="matrix(0.4,0,0,0.4,4,0)" style="stroke:black; stroke-width:1pt;" d="M 0,0 5,-5 -12.5,0 5,5 Z"/>
</marker>
<marker id="id1" style="overflow:visible;" orient="auto">
<path transform="matrix(0.4,0,0,0.4,4,0)" style="fill:#3465a4; stroke:#3465a4; stroke-width:1pt;" d="M 0,0 5,-5 -12.5,0 5,5 Z"/>
</marker>
<marker id="id2" style="overflow:visible;" orient="auto">
<path transform="matrix(-0.4,0,0,-0.4,-4,0)" style="fill:#3465a4; stroke:#3465a4; stroke-width:1pt;" d="M 0,0 5,-5 -12.5,0 5,5 Z"/>
</marker>
<marker id="id5" style="overflow:visible;" orient="auto">
<path transform="matrix(0.4,0,0,0.4,4,0)" style="fill:#f57900; stroke:#f57900; stroke-width:1pt;" d="M 0,0 5,-5 -12.5,0 5,5 Z"/>
</marker>
</defs>
<path style="fill:#fce94f; fill-opacity:0.2; stroke-width:0.16;" d="M 141,14.7 C 117.2,14.8 93.8,25.1 77.5,42.3 61.1,59.2 51.9,82.7 52.5,106.3 c 0.4,24.1 11.2,47.8 29,64 17.3,16 41.1,24.7 64.7,23.6 24.3,-0.9 47.8,-12.4 63.6,-30.7 15.6,-17.7 23.6,-41.6 21.8,-65.2 C 230.1,74.5 218.7,51.9 200.9,36.5 184.5,22.2 162.8,14.3 141,14.7 Z"/>
<path style="marker-start:url(#id1); marker-end:url(#id2); fill:none; stroke:#3465a4; stroke-width:1.9; stroke-dasharray:5.7, 1.9;" d="m 233,104.6 c -0,48.1 -41.2,89.2 -89.6,89.7 -48.4,0.5 -88.5,-37.3 -90.9,-85.6 -2.4,-48.3 33.8,-89.8 82,-94.1 48.2,-4.3 92.8,33.4 98,81.3"/>
<path style="fill:none; stroke:black; stroke-width:0.68;" d="m 214.1,99.9 36.6,-0"/>
<g transform="matrix(0.76695,0.21504,-0.215037,0.76663,-16.7594,-110.944)">
<g style="font-family:'Comic Sans MS'; font-size:20.8px; fill:#3465a4; stroke-width:0.6;">
<path d="m 128.9,200.5 q -0,0.6 -0.8,0.9 -0.7,0.3 -0.8,0.5 -0.1,0.2 -0.2,1 -0,1.5 2.1,3.4 2.9,2.6 5.6,2.7 1.3,0 2.3,-0.7 1,-0.8 1.1,-2 0,-1 -0.4,-2.1 -0.3,-0.6 -1.1,-1.9 -0.4,-0.6 -0.4,-0.9 0,-0.4 0.4,-0.7 0.3,-0.3 0.7,-0.3 0.5,0 0.8,0.4 2.2,2.8 2.1,5.5 -0.1,2.1 -1.8,3.5 -1.6,1.3 -3.8,1.2 -3.4,-0.2 -6.9,-3.2 -2.9,-2.5 -2.8,-5 0,-0.5 0,-0.9 0,-0.4 0.2,-0.7 -0.5,-0.4 -0.5,-0.9 0,-0.7 1,-0.8 0.8,-0.1 2,-0 0.4,0 0.7,0.3 0.4,0.3 0.4,0.8 z"/>
<path d="m 128.1,194.9 q -0,0.5 -0.4,0.8 -0.4,0.3 -0.9,0.3 -0.5,-0 -0.8,-0.4 -0.3,-0.4 -0.2,-0.9 0,-0.5 0.4,-0.8 0.4,-0.3 0.9,-0.3 0.5,0 0.8,0.4 0.3,0.4 0.2,0.9 z m 8.2,0.5 q 0.6,0 1.8,0.2 1.2,0.1 1.8,0.2 0.4,0 0.7,0.4 0.3,0.3 0.2,0.7 -0,0.4 -0.4,0.7 -0.3,0.2 -0.8,0.2 -0.6,-0 -1.8,-0.2 -1.2,-0.1 -1.8,-0.2 -0.9,-0.1 -2.3,-0.4 -1.4,-0.3 -2.4,-0.4 -0.5,-0 -0.7,-0.4 -0.3,-0.3 -0.2,-0.7 0,-0.4 0.4,-0.7 0.3,-0.3 0.8,-0.2 0.9,0.1 2.4,0.4 1.4,0.3 2.3,0.4 z"/>
<path d="m 135.3,183.4 q 1.2,0.3 1.1,1.2 -0.2,0.9 -1.1,0.7 -0.2,-0 -0.7,-0 l -0.8,-0.1 q -0,1.6 0.4,2.7 0.5,1 1.7,1.8 l 5.5,0.9 q 1,0.2 0.8,1.2 -0.2,0.9 -1.2,0.7 l -7,-1.2 q -0.3,-0 -1,-0.2 -0.7,-0.1 -1,-0.2 -1,-0.2 -0.9,-1.1 0.2,-1 1.8,-0.7 -1.5,-2.2 -1.1,-4.6 0.1,-0.8 0.8,-1.1 0.7,-0.3 1.9,-0 0.5,0 0.7,0.1 z"/>
<path d="m 144.9,178.3 q -0.5,2 -2.1,3 -1.6,1.1 -3.7,0.5 -2,-0.5 -3.8,-2.4 -2,-2.1 -1.5,-3.9 0.2,-1 1,-2 1,-1.4 1.8,-1.1 0.4,0.1 0.6,0.4 0.2,0.3 0.1,0.7 -0,0.3 -0.3,0.5 -0.2,0.2 -0.4,0.3 -0.6,0.5 -1,1.8 -0.3,1 1.3,2.4 1.4,1.3 2.6,1.6 1.3,0.3 2.3,-0.4 0.9,-0.6 1.2,-1.9 0.2,-0.6 0,-1.3 l -0.3,-1.3 q -0,-0.3 -0,-0.5 0,-0.4 0.5,-0.6 0.4,-0.2 0.7,-0 0.7,0.2 1,1.9 0.2,1.5 0,2.4 z"/>
<path d="m 143,162.5 q 0.7,0.2 2.1,0.7 1.4,0.5 2.1,0.7 0.2,0 0.7,0.2 0.4,0.1 0.7,0.2 0.4,0.1 0.6,0.5 0.2,0.4 0,0.8 -0.3,0.7 -1.2,0.6 0.2,1.4 -0.3,3 -0.4,1.3 -1.3,1.9 -0.9,0.7 -2.2,0.5 -2.7,-0.5 -4.7,-1.2 -1.3,-0.5 -2.9,-1.3 -0.8,-0.4 -0.5,-1.2 0.1,-0.4 0.5,-0.6 0.4,-0.2 0.8,-0 0.4,0.2 1.4,0.6 0.9,0.5 1.4,0.6 1.6,0.6 2.8,0.8 1.2,0.3 1.9,0.3 0.3,-0.3 0.5,-0.5 0.2,-0.3 0.3,-0.6 0.4,-1.3 0.5,-2.9 l -1.9,-0.7 -1.9,-0.6 q -2.1,-0.7 -3.5,-1.4 -0.8,-0.4 -0.6,-1.2 0.1,-0.4 0.5,-0.6 0.4,-0.2 0.8,-0 z"/>
<path d="m 155.7,150.8 q -0.4,0.8 -1.2,0.5 -1.1,-0.3 -3,-1 l -3,-1 q -0.7,-0.2 -1.4,-0.3 -1,-0 -1.1,0.3 -0.2,0.3 -0,1.5 0.1,1.1 0.3,1.6 0.9,0.4 1.7,0.8 l 2.6,0.9 q 1.5,0.5 2.5,0.9 0.4,0.2 0.5,0.6 0.2,0.4 -0,0.8 -0.2,0.4 -0.6,0.5 -0.4,0.1 -0.8,-0 -1.1,-0.5 -3.4,-1.3 -2.3,-0.8 -3.4,-1.3 -1,-0.5 -1.6,-0.4 0,0.8 0.3,1.8 l 0.7,1.7 q 0.2,0.3 0.4,0.7 0.6,0.3 1.6,0.9 1,0.6 1.5,0.8 0.3,0.1 0.8,0.3 0.5,0.1 0.8,0.2 0.4,0.2 0.5,0.6 0.1,0.4 -0,0.8 -0.5,1 -2.8,-0 -0.6,-0.3 -1.6,-0.9 -1,-0.6 -1.6,-0.9 -0.5,-0.2 -1.5,-0.6 -1,-0.4 -1.5,-0.6 -2.1,-1 -1.6,-1.9 0.2,-0.4 0.6,-0.5 0.5,-0.2 0.8,0 0.2,0 0.5,0.3 0.3,0.2 0.5,0.3 l 1,0.4 q -0.8,-0.9 -1.1,-2.2 -0.4,-1.3 -0,-2 0.7,-1.4 2.4,-1.3 -0.4,-0.8 -0.4,-1.7 -0,-0.9 0.4,-1.8 0.7,-1.5 2.6,-1.3 0.4,0 2.8,0.8 1.7,0.5 5.6,1.8 0.4,0.1 0.5,0.5 0.1,0.4 -0,0.8 z"/>
<path d="m 147.8,134.4 q -1.3,2.1 1.5,4.1 l 0.5,0.3 q 0.8,-1.5 1,-2 0.8,-1.4 1.7,-0.9 0.6,0.4 0.4,1.1 -0.1,0.3 -0.4,0.7 -0.3,0.4 -1.1,2.1 l 1.9,1.3 q 0.5,0.3 1.6,0.9 1.1,0.6 1.6,0.9 1.7,1 2.5,1.7 0.6,0.6 0.2,1.2 -0.2,0.4 -0.6,0.5 -0.4,0.1 -0.7,-0 -0,-0 -0.2,-0.1 -1,-0.9 -2.4,-1.7 l -2.4,-1.4 -2.5,-1.5 q -0.6,1.1 -0.7,1.4 -0.5,0.9 -1.4,0.4 -0.9,-0.5 0,-2.1 l 0.5,-0.9 q -0.5,-0.3 -1.2,-0.9 -1.8,-1.4 -2.3,-2.7 -0.6,-1.6 0.6,-3.5 0.7,-1.2 1.6,-0.7 0.8,0.5 0.2,1.6 z"/>
<path d="m 165.2,135 q -1.3,1.9 -3.1,2.4 -1.9,0.5 -3.8,-0.8 -2.1,-1.5 -2.9,-3.6 -0.8,-2.3 0.6,-4.2 1,-1.4 2.1,-1.9 1.3,-0.7 2.5,0.2 0.8,0.6 0.8,2 0,0.6 -0.3,2.4 l -0.8,4.2 q 1,0 1.9,-0.4 0.8,-0.4 1.5,-1.4 0.4,-0.6 0.7,-1.5 0.4,-1.2 0.2,-1.8 -0.2,-0.6 -0,-0.9 0.2,-0.3 0.6,-0.4 0.4,-0 0.7,0.1 0.9,0.7 0.5,2.6 -0.3,1.7 -1.2,2.9 z m -7.7,-5.1 q -0.7,1 -0.4,2.2 0.3,1.2 1.6,2.7 l 0.6,-3.4 q 0.3,-2 0.3,-3 -1.2,0.2 -2.1,1.5 z"/>
<path d="m 168.2,118.5 q 0.9,0.9 0.3,1.6 -0.6,0.7 -1.3,0 -0.1,-0.1 -0.6,-0.4 l -0.7,-0.5 q -0.9,1.3 -1,2.5 -0,1.1 0.6,2.4 l 4.3,3.6 q 0.8,0.7 0.1,1.4 -0.6,0.7 -1.4,0 l -5.4,-4.6 q -0.3,-0.2 -0.8,-0.7 -0.5,-0.5 -0.7,-0.7 -0.8,-0.7 -0.2,-1.3 0.6,-0.8 1.9,0.3 -0.2,-2.7 1.4,-4.5 0.5,-0.6 1.3,-0.5 0.7,0 1.7,0.9 0.4,0.3 0.5,0.5 z"/>
<path d="m 179,118.7 q -1.6,1.6 -3.4,1.8 -2,0.2 -3.6,-1.4 -1.9,-1.9 -2.2,-4 -0.4,-2.4 1.2,-4 1.2,-1.2 2.3,-1.6 1.4,-0.4 2.4,0.6 0.7,0.7 0.5,2.1 -0.1,0.6 -0.7,2.3 l -1.4,4 q 1,0.2 1.9,-0.1 0.9,-0.3 1.7,-1.1 0.5,-0.5 1,-1.4 0.6,-1.1 0.5,-1.7 -0.1,-0.6 0.1,-0.9 0.2,-0.3 0.6,-0.3 0.4,-0 0.6,0.2 0.8,0.8 0.1,2.7 -0.6,1.6 -1.6,2.6 z m -6.8,-6.3 q -0.9,0.9 -0.8,2.1 0.1,1.3 1.2,2.9 l 1.1,-3.3 q 0.7,-1.9 0.7,-3 -1.2,0 -2.3,1.2 z"/>
<path d="m 189.8,109.3 q -0.7,0.6 -1.4,-0 l -1.7,-1.5 q -0.9,-0.8 -1.6,-1.6 -0.2,-0.2 -0.6,-0.8 -0.4,-0.5 -0.6,-0.8 -1.4,-1.7 -2,-1.1 -0.9,0.7 -0.8,2.4 0,1.5 0.9,3.3 0.2,0.3 0.6,0.8 0.3,0.4 0.6,0.8 0.2,0.2 0.6,0.7 0.4,0.4 0.6,0.7 0.3,0.3 0.3,0.7 -0,0.4 -0.4,0.7 -0.3,0.3 -0.7,0.3 -0.4,-0 -0.7,-0.4 -0.2,-0.2 -0.6,-0.6 -0.4,-0.4 -0.6,-0.7 -0.7,-0.8 -1.8,-2.3 -1.1,-1.5 -1.8,-2.3 -0.2,-0.2 -0.7,-0.7 -0.4,-0.5 -0.6,-0.7 -0.3,-0.3 -0.2,-0.7 0,-0.4 0.4,-0.7 0.7,-0.6 1.6,0.3 l 0.8,0.9 q -0.2,-2.8 1.2,-4 1.2,-1.1 2.6,-0.4 1,0.4 2.2,1.8 l 0.7,0.8 0.6,0.7 q 0.5,0.6 1.6,1.5 1,0.9 1.6,1.5 0.3,0.3 0.2,0.7 -0,0.4 -0.4,0.7 z"/>
<path d="m 195.9,104.6 q -1.7,1.2 -3.5,1 -2,-0.2 -3.2,-2 -1.2,-1.7 -1.4,-4.2 -0.2,-2.9 1.4,-4 0.8,-0.6 2.1,-0.9 1.6,-0.4 2.1,0.3 0.2,0.3 0.2,0.7 -0,0.4 -0.3,0.6 -0.2,0.2 -0.5,0.2 -0.3,-0 -0.5,-0 -0.8,-0 -1.9,0.8 -0.8,0.6 -0.6,2.7 0.2,1.9 1,2.9 0.8,1.1 2,1.2 1.1,0 2.2,-0.7 0.5,-0.4 0.9,-1 l 0.6,-1.2 q 0.2,-0.3 0.3,-0.4 0.3,-0.2 0.7,-0.1 0.4,0 0.6,0.4 0.4,0.6 -0.4,2.1 -0.8,1.3 -1.5,1.8 z"/>
<path d="m 204.8,98.6 q -2,1.2 -3.8,0.9 -2,-0.3 -3.2,-2.2 -1.4,-2.3 -1.2,-4.4 0.2,-2.4 2.2,-3.6 1.4,-0.9 2.6,-0.9 1.5,-0 2.2,1.2 0.5,0.9 -0,2.2 -0.2,0.6 -1.3,2.1 l -2.4,3.6 q 0.9,0.4 1.9,0.4 1,-0 1.9,-0.7 0.6,-0.4 1.3,-1.1 0.9,-0.9 0.9,-1.5 0,-0.6 0.4,-0.9 0.3,-0.2 0.7,-0 0.4,0 0.6,0.4 0.6,1 -0.6,2.6 -1,1.4 -2.2,2.2 z m -5,-7.8 q -1.1,0.6 -1.3,1.9 -0.2,1.2 0.4,3.1 l 1.9,-2.9 q 1.1,-1.7 1.4,-2.7 -1.2,-0.2 -2.5,0.6 z"/>
</g>
</g>
<path style="marker-start:url(#id3); marker-end:url(#id4); opacity:0.7; fill:none; stroke:black; stroke-width:1.87; stroke-dasharray:5.6, 1.9;" d="M 210,52.3 77,158.3"/>
<text x="6.4" y="163.7" transform="matrix(0.776543,-0.630114,0.630378,0.776247,0,0)" style="font-family:'Comic Sans MS'; font-size:16.5px; color:black; opacity:0.66; fill:black; stroke-width:0.34;">Diameter</text>
<path style="marker-start:url(#id5); opacity:0.7; fill:#f57900; stroke:#f57900; stroke-width:1.87; stroke-dasharray:5.6, 1.9;" d="M 219.7,145.3 146,105.2"/>
<text x="192.4" y="20.4" transform="matrix(0.878262,0.478535,-0.478555,0.877864,0,0)" style="font-family:'Comic Sans MS'; font-size:16.5px; color:black; opacity:0.66; fill:#ce5c00; stroke-width:0.34;">Radius</text>
<text x="19.1" y="247" style="font-family:'Comic Sans MS'; font-size:16px; color:black; opacity:0.66; fill:black; stroke-width:0.34;">Diameter</text>
<text x="-0.7" y="223.6" style="font-family:'Comic Sans MS'; font-size:16px; color:black; fill:#3465a4; stroke-width:0.34;">Circumference</text>
<path style="fill:none; fill-opacity:0.75; stroke:black; stroke-width:1.08;" d="M 0.6,231.1 H 108"/>
<text x="123.8" y="235.9" style="font-family:'Comic Sans MS'; font-size:19.4px; color:black; fill:#f57900; stroke-width:0.34;">=</text>
<text x="145.1" y="242.7" style="font-family:'Times New Roman'; font-size:57.3px; color:black; fill:#f57900; stroke-width:0.34;">π</text>
<text x="189.2" y="230.1" transform="scale(0.972829,1.02793)" style="font-family:'Comic Sans MS'; font-size:19.9px; color:black; fill:#f57900; stroke-width:0.34;">=</text>
<text x="202.3" y="235.6" style="font-family:Georgia; font-size:22.3px; color:black; fill:#f57900; stroke-width:0.34;">3.14159...</text>
<circle cx="144.7" cy="104.3" r="2.22978" style="color:black; overflow:visible; fill:none; stroke:#204a87; stroke-width:1.08;"/>
</svg>
