<?xml version="1.0" encoding="UTF-8" standalone="no"?>
<svg
   xmlns:dc="http://purl.org/dc/elements/1.1/"
   xmlns:cc="http://creativecommons.org/ns#"
   xmlns:rdf="http://www.w3.org/1999/02/22-rdf-syntax-ns#"
   xmlns:svg="http://www.w3.org/2000/svg"
   xmlns="http://www.w3.org/2000/svg"
   xmlns:sodipodi="http://sodipodi.sourceforge.net/DTD/sodipodi-0.dtd"
   xmlns:inkscape="http://www.inkscape.org/namespaces/inkscape"
   width="79.8242"
   height="90.8657"
   id="svg2"
   sodipodi:version="0.32"
   inkscape:version="1.0.1 (3bc2e813f5, 2020-09-07)"
   sodipodi:docname="ratio-times-2.svg"
   version="1.1">
  <defs
     id="defs4" />
  <sodipodi:namedview
     id="base"
     pagecolor="#ffffff"
     bordercolor="#666666"
     borderopacity="1.0"
     gridtolerance="10000"
     guidetolerance="10"
     objecttolerance="10"
     inkscape:pageopacity="0.0"
     inkscape:pageshadow="2"
     inkscape:zoom="0.12368997"
     inkscape:cx="-1520.4306"
     inkscape:cy="1034.524"
     inkscape:document-units="px"
     inkscape:current-layer="layer1"
     showborder="true"
     inkscape:window-width="1920"
     inkscape:window-height="1005"
     inkscape:window-x="1911"
     inkscape:window-y="-9"
     showgrid="false"
     inkscape:window-maximized="1"
     inkscape:document-rotation="0" />
  <metadata
     id="metadata7">
    <rdf:RDF>
      <cc:Work
         rdf:about="">
        <dc:format>image/svg+xml</dc:format>
        <dc:type
           rdf:resource="http://purl.org/dc/dcmitype/StillImage" />
        <dc:title></dc:title>
      </cc:Work>
    </rdf:RDF>
  </metadata>
  <g
     inkscape:label="Layer 1"
     inkscape:groupmode="layer"
     id="layer1"
     transform="translate(1511.87,-7.55598)">
    <g
       id="g3264"
       transform="matrix(0.326658,0,0,0.309682,-947.689,32.0188)"
       style="fill:#19aeff;fill-opacity:1;stroke:none">
      <path
         inkscape:connector-curvature="0"
         d="m -1692.08,17.7057 c -0.28,0.1103 -0.38,0.3985 -0.68,0.5362 -0.22,0.41 -0.5,0.7624 -0.83,1.083 -0.3,0.2943 -0.53,0.6536 -0.74,1.0207 -0.23,0.5874 -0.53,1.1451 -0.78,1.7213 -0.27,0.6096 -0.5,1.2394 -0.71,1.8727 -0.2,0.6751 -0.43,1.3442 -0.62,2.0254 -0.17,0.7322 -0.33,1.4642 -0.46,2.2063 -0.15,0.6991 -0.19,1.4147 -0.25,2.1259 0,0.8186 0,1.6378 -0.1,2.457 0,0.8178 0,1.6326 0.1,2.4484 0,0.7715 0.13,1.5375 0.23,2.3016 0.1,0.7253 0.26,1.4385 0.44,2.1465 0.17,0.7128 0.39,1.4083 0.62,2.0981 0.26,0.7926 0.55,1.5747 0.84,2.3549 0.28,0.7577 0.6,1.5011 0.91,2.2436 0.37,0.8261 0.71,1.6635 1.06,2.4977 0.36,0.845 0.71,1.6929 1.05,2.5477 0.39,0.9679 0.72,1.96 1.03,2.961 0.31,1.0142 0.56,2.0477 0.8,3.0861 0.22,1.0283 0.4,2.0681 0.57,3.1105 0.16,1.0565 0.28,2.12 0.4,3.1844 0.1,1.0541 0.15,2.1136 0.16,3.1743 0,1.0013 0,2.0025 0,3.0035 0,1.0094 -0.11,2.0147 -0.19,3.0213 -0.1,0.9991 -0.21,1.9974 -0.36,2.9908 -0.15,1.0288 -0.31,2.0565 -0.5,3.0776 -0.21,1.0069 -0.39,2.0207 -0.63,3.0217 -0.24,0.9753 -0.48,1.9492 -0.77,2.9121 -0.26,1.0175 -0.61,2.0045 -0.95,2.9945 -0.33,0.9457 -0.77,1.8396 -1.15,2.7569 -0.4,0.859 -0.84,1.6856 -1.24,2.5436 -0.42,0.8083 -0.9,1.5852 -1.33,2.3873 -0.44,0.7671 -0.96,1.4725 -1.38,2.2576 0,0 -13.83,-3.0193 -13.83,-3.0193 v 0 c 0.56,-0.4836 0.81,-1.2988 1.3,-1.8656 0.47,-0.6174 0.84,-1.3113 1.26,-1.9689 0.48,-0.6045 0.77,-1.3434 1.17,-2.0036 0.4,-0.667 0.68,-1.4078 1.08,-2.0765 0.36,-0.6831 0.63,-1.4053 0.92,-2.1196 0.27,-0.8163 0.54,-1.6279 0.76,-2.4597 0.24,-0.8492 0.5,-1.6919 0.65,-2.5652 0.19,-0.8565 0.39,-1.7127 0.52,-2.5828 0.14,-0.8555 0.3,-1.7055 0.4,-2.5675 0.13,-0.8033 0.18,-1.6232 0.26,-2.4336 0,-0.8301 0.1,-1.6606 0.12,-2.4912 0,-0.8103 0,-1.6215 0,-2.4298 0,-0.8677 -0.16,-1.7282 -0.26,-2.5883 -0.12,-0.8438 -0.25,-1.6859 -0.41,-2.5196 -0.16,-0.7879 -0.33,-1.5728 -0.56,-2.3429 -0.22,-0.7517 -0.46,-1.4962 -0.75,-2.2191 -0.32,-0.8053 -0.65,-1.6052 -0.99,-2.4005 -0.34,-0.815 -0.67,-1.6338 -1.03,-2.4407 -0.37,-0.8749 -0.74,-1.7518 -1.07,-2.6432 -0.32,-0.8566 -0.64,-1.7115 -0.93,-2.5818 -0.32,-0.9453 -0.64,-1.8941 -0.89,-2.8659 -0.25,-0.9839 -0.49,-1.9686 -0.67,-2.97 -0.17,-0.9954 -0.31,-1.9971 -0.4,-3.0055 -0.1,-0.9881 -0.16,-1.9819 -0.19,-2.9755 -0.1,-1.0128 -0.1,-2.0289 0,-3.0436 0,-1.043 0.1,-2.0864 0.14,-3.1265 0.12,-0.9595 0.23,-1.9197 0.43,-2.8674 0.16,-0.9386 0.35,-1.8698 0.61,-2.7852 0.22,-0.8509 0.46,-1.6993 0.73,-2.5368 0.24,-0.7448 0.47,-1.4975 0.81,-2.1996 0.28,-0.781 0.57,-1.5577 0.9,-2.3101 0.26,-0.5485 0.52,-1.1122 0.92,-1.5572 0.27,-0.5693 0.6,-1.0464 0.92,-1.5768 0,0 13.61,3.9695 13.61,3.9695 z"
         id="path3258"
         style="color:#000000;display:inline;overflow:visible;visibility:visible;fill:#19aeff;fill-opacity:1;fill-rule:evenodd;stroke:none;stroke-width:2.685;marker:none;enable-background:accumulate" />
      <path
         inkscape:connector-curvature="0"
         d="m -1717.65,71.4765 c 0.46,0.3072 0.93,0.5959 1.36,0.937 0.46,0.2588 0.86,0.5885 1.3,0.8726 0.51,0.3953 1.04,0.7593 1.53,1.1724 0.58,0.4861 1.15,0.9838 1.71,1.5005 0.51,0.4472 1.04,0.8751 1.55,1.3318 0.55,0.4775 1.11,0.9537 1.65,1.4509 0.62,0.5756 1.21,1.18 1.79,1.7923 0.58,0.5976 1.12,1.2328 1.67,1.8516 0.56,0.6551 1.1,1.3303 1.63,2.0085 0.53,0.6858 1.05,1.3832 1.55,2.0948 0.51,0.7573 1,1.5234 1.47,2.3068 0.44,0.71 0.84,1.4418 1.25,2.1705 0.47,0.8281 0.88,1.6871 1.27,2.5564 0.38,0.8783 0.71,1.78 1.02,2.6878 0.3,0.9037 0.56,1.8219 0.8,2.7437 0.24,0.9232 0.45,1.8549 0.64,2.7899 0.2,0.947 0.33,1.906 0.46,2.865 0.12,0.92 0.22,1.842 0.32,2.764 0.11,0.978 0.16,1.961 0.22,2.942 0,0.988 0,1.977 0,2.965 0,0.149 0,0.298 0,0.447 0,0 -14.02,1.915 -14.02,1.915 v 0 c 0,-0.08 0,-0.156 0.1,-0.234 0.2,-0.622 0.14,-1.295 0.16,-1.94 0,-0.786 0,-1.576 -0.1,-2.36 -0.1,-0.848 -0.16,-1.696 -0.25,-2.542 -0.1,-0.768 -0.19,-1.534 -0.29,-2.3 -0.14,-0.79 -0.3,-1.579 -0.48,-2.361 -0.18,-0.735 -0.36,-1.468 -0.58,-2.19 -0.21,-0.667 -0.43,-1.33 -0.7,-1.9762 -0.26,-0.6088 -0.53,-1.21 -0.86,-1.7853 -0.37,-0.6652 -0.74,-1.3329 -1.14,-1.9804 -0.36,-0.5974 -0.74,-1.18 -1.13,-1.7552 -0.42,-0.5779 -0.84,-1.1454 -1.28,-1.7024 -0.44,-0.5452 -0.87,-1.0969 -1.34,-1.6131 -0.47,-0.5339 -0.96,-1.0541 -1.46,-1.5622 -0.45,-0.4546 -0.9,-0.9151 -1.4,-1.3288 -0.53,-0.4503 -1.04,-0.9141 -1.57,-1.3644 -0.56,-0.4624 -1.1,-0.9426 -1.64,-1.428 -0.42,-0.3539 -0.83,-0.7202 -1.29,-1.036 -0.4,-0.2637 -0.77,-0.5769 -1.19,-0.8264 -0.43,-0.303 -0.88,-0.5615 -1.3,-0.8771 -0.32,-0.1263 -0.58,-0.3693 -0.9,-0.4956 0,0 9.48,-10.5074 9.48,-10.5074 z"
         id="path3260"
         style="color:#000000;display:inline;overflow:visible;visibility:visible;fill:#19aeff;fill-opacity:1;fill-rule:evenodd;stroke:none;stroke-width:2.685;marker:none;enable-background:accumulate" />
      <path
         inkscape:connector-curvature="0"
         d="m -1677.13,90.3066 c -0.41,0.1578 -0.75,0.44 -1.13,0.626 0.11,0.072 -0.44,0.3271 -0.32,0.2582 2.33,-1.3541 9.34,-5.4005 7.01,-4.0539 -2.49,1.4345 -4.91,2.9977 -7.47,4.3174 -2.34,1.2111 9.32,-4.8572 6.82,-4.0194 -0.5,0.1072 -0.92,0.4857 -1.35,0.7578 -0.51,0.3586 -1,0.7669 -1.54,1.071 -0.57,0.3506 -1.1,0.768 -1.62,1.1838 -0.65,0.4797 -1.23,1.033 -1.84,1.5611 -0.67,0.6147 -1.38,1.1837 -2.03,1.8149 -0.7,0.581 -1.35,1.2092 -2.03,1.8109 -0.66,0.5337 -1.28,1.1146 -1.92,1.6694 -0.63,0.5521 -1.2,1.165 -1.82,1.7325 -0.59,0.6342 -1.21,1.2297 -1.76,1.8987 -0.58,0.617 -1.16,1.242 -1.69,1.91 -0.53,0.584 -1.07,1.159 -1.57,1.768 -0.52,0.562 -0.96,1.181 -1.44,1.767 -0.45,0.529 -0.84,1.101 -1.21,1.688 -0.38,0.62 -0.7,1.274 -1,1.937 -0.28,0.667 -0.57,1.336 -0.79,2.026 -0.15,0.39 -0.1,0.188 -0.2,0.606 0,0 -14.11,1.116 -14.11,1.116 v 0 c 0.12,-0.655 0.1,-0.321 0.18,-1.002 0.22,-0.975 0.44,-1.949 0.77,-2.893 0.32,-0.944 0.65,-1.882 1.04,-2.797 0.4,-0.93 0.82,-1.851 1.32,-2.733 0.47,-0.824 1.02,-1.587 1.54,-2.376 0.55,-0.735 1.08,-1.475 1.66,-2.1833 0.62,-0.6386 1.14,-1.3609 1.72,-2.0351 0.64,-0.6462 1.15,-1.3977 1.79,-2.04 0.61,-0.7437 1.28,-1.425 1.92,-2.1335 0.66,-0.7121 1.35,-1.386 2.04,-2.0596 0.68,-0.607 1.38,-1.188 2.03,-1.8236 0.71,-0.5656 1.34,-1.221 2.03,-1.8064 0.63,-0.5784 1.29,-1.1308 1.9,-1.7373 0.58,-0.5306 1.17,-1.0581 1.75,-1.5949 0.5,-0.4668 1.06,-0.8746 1.62,-1.2607 0.52,-0.4295 1.09,-0.7998 1.55,-1.2934 2.58,-2.1925 -2.42,2.0362 7.75,-4.5972 2.26,-1.4719 -9.32,5.4101 -6.99,4.0522 2.11,-1.2302 5.17,-3.4605 7.98,-4.5499 0.39,-0.2352 0.84,-0.3593 1.22,-0.6149 0,0 -1.81,14.0322 -1.81,14.0322 z"
         id="path3262"
         style="color:#000000;display:inline;overflow:visible;visibility:visible;fill:#19aeff;fill-opacity:1;fill-rule:evenodd;stroke:none;stroke-width:2.685;marker:none;enable-background:accumulate" />
    </g>
    <text
       xml:space="preserve"
       style="color:#000000;font-style:normal;font-variant:normal;font-weight:normal;font-stretch:normal;font-size:4.8454px;line-height:0%;font-family:'Trebuchet MS';-inkscape-font-specification:'Trebuchet MS';text-indent:0;text-align:start;text-decoration:none;text-decoration-line:none;letter-spacing:normal;word-spacing:normal;text-transform:none;writing-mode:lr-tb;direction:ltr;text-anchor:start;display:inline;overflow:visible;visibility:visible;fill:#73d216;fill-opacity:1;fill-rule:nonzero;stroke:none;stroke-width:0.403783px;marker:none;enable-background:accumulate"
       x="-1460.25"
       y="31.2862"
       id="text3155-1"><tspan
         sodipodi:role="line"
         id="tspan3157-7"
         x="-1460.25"
         y="31.2862"
         style="font-size:33.0384px;line-height:1.21;stroke-width:0.403783px">5</tspan></text>
    <text
       xml:space="preserve"
       style="color:#000000;font-style:normal;font-variant:normal;font-weight:normal;font-stretch:normal;font-size:4.8454px;line-height:0%;font-family:'Trebuchet MS';-inkscape-font-specification:'Trebuchet MS';text-indent:0;text-align:start;text-decoration:none;text-decoration-line:none;letter-spacing:normal;word-spacing:normal;text-transform:none;writing-mode:lr-tb;direction:ltr;text-anchor:start;display:inline;overflow:visible;visibility:visible;fill:#73d216;fill-opacity:1;fill-rule:nonzero;stroke:none;stroke-width:0.403783px;marker:none;enable-background:accumulate"
       x="-1510.66"
       y="31.5604"
       id="text3159-4"><tspan
         sodipodi:role="line"
         id="tspan2239-0"
         x="-1510.66"
         y="31.5604"
         style="font-size:33.0384px;line-height:1.21;stroke-width:0.403783px">4</tspan></text>
    <text
       xml:space="preserve"
       style="color:#000000;font-style:normal;font-variant:normal;font-weight:normal;font-stretch:normal;font-size:38.7632px;line-height:0%;font-family:'Trebuchet MS';-inkscape-font-specification:'Trebuchet MS';text-indent:0;text-align:start;text-decoration:none;text-decoration-line:none;letter-spacing:normal;word-spacing:normal;text-transform:none;writing-mode:lr-tb;direction:ltr;text-anchor:start;display:inline;overflow:visible;visibility:visible;fill:#73d216;fill-opacity:1;fill-rule:nonzero;stroke:none;stroke-width:0.403783px;marker:none;enable-background:accumulate"
       x="-1483.48"
       y="29.5003"
       id="text3163-9"><tspan
         sodipodi:role="line"
         id="tspan3165-4"
         x="-1483.48"
         y="29.5003"
         style="font-size:38.7632px;line-height:1.21;stroke-width:0.403783px">:</tspan></text>
    <text
       id="text3228"
       y="98.099"
       x="-1465.71"
       style="color:#000000;font-style:normal;font-variant:normal;font-weight:normal;font-stretch:normal;font-size:4.8454px;line-height:0%;font-family:'Trebuchet MS';-inkscape-font-specification:'Trebuchet MS';text-indent:0;text-align:start;text-decoration:none;text-decoration-line:none;letter-spacing:normal;word-spacing:normal;text-transform:none;writing-mode:lr-tb;direction:ltr;text-anchor:start;display:inline;overflow:visible;visibility:visible;fill:#009100;fill-opacity:1;fill-rule:nonzero;stroke:none;stroke-width:0.403783px;marker:none;enable-background:accumulate"
       xml:space="preserve"><tspan
         y="98.099"
         x="-1465.71"
         id="tspan3230"
         sodipodi:role="line"
         style="font-size:33.0384px;line-height:1.21;stroke-width:0.403783px">10</tspan></text>
    <text
       id="text3232"
       y="97.6153"
       x="-1511.89"
       style="color:#000000;font-style:normal;font-variant:normal;font-weight:normal;font-stretch:normal;font-size:4.8454px;line-height:0%;font-family:'Trebuchet MS';-inkscape-font-specification:'Trebuchet MS';text-indent:0;text-align:start;text-decoration:none;text-decoration-line:none;letter-spacing:normal;word-spacing:normal;text-transform:none;writing-mode:lr-tb;direction:ltr;text-anchor:start;display:inline;overflow:visible;visibility:visible;fill:#009100;fill-opacity:1;fill-rule:nonzero;stroke:none;stroke-width:0.403783px;marker:none;enable-background:accumulate"
       xml:space="preserve"><tspan
         y="97.6153"
         x="-1511.89"
         id="tspan3234"
         sodipodi:role="line"
         style="font-size:33.0384px;line-height:1.21;stroke-width:0.403783px">8</tspan></text>
    <text
       id="text3236"
       y="96.9066"
       x="-1484.85"
       style="color:#000000;font-style:normal;font-variant:normal;font-weight:normal;font-stretch:normal;font-size:38.7632px;line-height:0%;font-family:'Trebuchet MS';-inkscape-font-specification:'Trebuchet MS';text-indent:0;text-align:start;text-decoration:none;text-decoration-line:none;letter-spacing:normal;word-spacing:normal;text-transform:none;writing-mode:lr-tb;direction:ltr;text-anchor:start;display:inline;overflow:visible;visibility:visible;fill:#009100;fill-opacity:1;fill-rule:nonzero;stroke:none;stroke-width:0.403783px;marker:none;enable-background:accumulate"
       xml:space="preserve"><tspan
         y="96.9066"
         x="-1484.85"
         id="tspan3238"
         sodipodi:role="line"
         style="font-size:38.7632px;line-height:1.21;stroke-width:0.403783px">:</tspan></text>
    <text
       xml:space="preserve"
       style="color:#000000;font-style:normal;font-variant:normal;font-weight:normal;font-stretch:normal;font-size:4.8454px;line-height:0%;font-family:'Trebuchet MS';-inkscape-font-specification:'Trebuchet MS';text-indent:0;text-align:start;text-decoration:none;text-decoration-line:none;letter-spacing:0px;word-spacing:0px;text-transform:none;writing-mode:lr-tb;direction:ltr;baseline-shift:baseline;text-anchor:start;display:inline;overflow:visible;visibility:visible;fill:#204a87;fill-opacity:1;fill-rule:nonzero;stroke:#3465a4;stroke-width:0.403783px;marker:none;enable-background:accumulate"
       x="-1512.06"
       y="54.9719"
       id="text3240"><tspan
         sodipodi:role="line"
         id="tspan3242"
         x="-1512.06"
         y="54.9719"
         style="font-size:25.8422px;line-height:1.25;fill:#204a87;stroke:#3465a4;stroke-width:0.403783px">×2</tspan></text>
    <g
       style="fill:#19aeff;fill-opacity:1;stroke:none"
       transform="matrix(0.326658,0,0,0.309682,-895.196,32.0188)"
       id="g4049">
      <path
         style="color:#000000;display:inline;overflow:visible;visibility:visible;fill:#19aeff;fill-opacity:1;fill-rule:evenodd;stroke:none;stroke-width:2.685;marker:none;enable-background:accumulate"
         id="path4051"
         d="m -1692.08,17.7057 c -0.28,0.1103 -0.38,0.3985 -0.68,0.5362 -0.22,0.41 -0.5,0.7624 -0.83,1.083 -0.3,0.2943 -0.53,0.6536 -0.74,1.0207 -0.23,0.5874 -0.53,1.1451 -0.78,1.7213 -0.27,0.6096 -0.5,1.2394 -0.71,1.8727 -0.2,0.6751 -0.43,1.3442 -0.62,2.0254 -0.17,0.7322 -0.33,1.4642 -0.46,2.2063 -0.15,0.6991 -0.19,1.4147 -0.25,2.1259 0,0.8186 0,1.6378 -0.1,2.457 0,0.8178 0,1.6326 0.1,2.4484 0,0.7715 0.13,1.5375 0.23,2.3016 0.1,0.7253 0.26,1.4385 0.44,2.1465 0.17,0.7128 0.39,1.4083 0.62,2.0981 0.26,0.7926 0.55,1.5747 0.84,2.3549 0.28,0.7577 0.6,1.5011 0.91,2.2436 0.37,0.8261 0.71,1.6635 1.06,2.4977 0.36,0.845 0.71,1.6929 1.05,2.5477 0.39,0.9679 0.72,1.96 1.03,2.961 0.31,1.0142 0.56,2.0477 0.8,3.0861 0.22,1.0283 0.4,2.0681 0.57,3.1105 0.16,1.0565 0.28,2.12 0.4,3.1844 0.1,1.0541 0.15,2.1136 0.16,3.1743 0,1.0013 0,2.0025 0,3.0035 0,1.0094 -0.11,2.0147 -0.19,3.0213 -0.1,0.9991 -0.21,1.9974 -0.36,2.9908 -0.15,1.0288 -0.31,2.0565 -0.5,3.0776 -0.21,1.0069 -0.39,2.0207 -0.63,3.0217 -0.24,0.9753 -0.48,1.9492 -0.77,2.9121 -0.26,1.0175 -0.61,2.0045 -0.95,2.9945 -0.33,0.9457 -0.77,1.8396 -1.15,2.7569 -0.4,0.859 -0.84,1.6856 -1.24,2.5436 -0.42,0.8083 -0.9,1.5852 -1.33,2.3873 -0.44,0.7671 -0.96,1.4725 -1.38,2.2576 0,0 -13.83,-3.0193 -13.83,-3.0193 v 0 c 0.56,-0.4836 0.81,-1.2988 1.3,-1.8656 0.47,-0.6174 0.84,-1.3113 1.26,-1.9689 0.48,-0.6045 0.77,-1.3434 1.17,-2.0036 0.4,-0.667 0.68,-1.4078 1.08,-2.0765 0.36,-0.6831 0.63,-1.4053 0.92,-2.1196 0.27,-0.8163 0.54,-1.6279 0.76,-2.4597 0.24,-0.8492 0.5,-1.6919 0.65,-2.5652 0.19,-0.8565 0.39,-1.7127 0.52,-2.5828 0.14,-0.8555 0.3,-1.7055 0.4,-2.5675 0.13,-0.8033 0.18,-1.6232 0.26,-2.4336 0,-0.8301 0.1,-1.6606 0.12,-2.4912 0,-0.8103 0,-1.6215 0,-2.4298 0,-0.8677 -0.16,-1.7282 -0.26,-2.5883 -0.12,-0.8438 -0.25,-1.6859 -0.41,-2.5196 -0.16,-0.7879 -0.33,-1.5728 -0.56,-2.3429 -0.22,-0.7517 -0.46,-1.4962 -0.75,-2.2191 -0.32,-0.8053 -0.65,-1.6052 -0.99,-2.4005 -0.34,-0.815 -0.67,-1.6338 -1.03,-2.4407 -0.37,-0.8749 -0.74,-1.7518 -1.07,-2.6432 -0.32,-0.8566 -0.64,-1.7115 -0.93,-2.5818 -0.32,-0.9453 -0.64,-1.8941 -0.89,-2.8659 -0.25,-0.9839 -0.49,-1.9686 -0.67,-2.97 -0.17,-0.9954 -0.31,-1.9971 -0.4,-3.0055 -0.1,-0.9881 -0.16,-1.9819 -0.19,-2.9755 -0.1,-1.0128 -0.1,-2.0289 0,-3.0436 0,-1.043 0.1,-2.0864 0.14,-3.1265 0.12,-0.9595 0.23,-1.9197 0.43,-2.8674 0.16,-0.9386 0.35,-1.8698 0.61,-2.7852 0.22,-0.8509 0.46,-1.6993 0.73,-2.5368 0.24,-0.7448 0.47,-1.4975 0.81,-2.1996 0.28,-0.781 0.57,-1.5577 0.9,-2.3101 0.26,-0.5485 0.52,-1.1122 0.92,-1.5572 0.27,-0.5693 0.6,-1.0464 0.92,-1.5768 0,0 13.61,3.9695 13.61,3.9695 z"
         inkscape:connector-curvature="0" />
      <path
         style="color:#000000;display:inline;overflow:visible;visibility:visible;fill:#19aeff;fill-opacity:1;fill-rule:evenodd;stroke:none;stroke-width:2.685;marker:none;enable-background:accumulate"
         id="path4053"
         d="m -1717.65,71.4765 c 0.46,0.3072 0.93,0.5959 1.36,0.937 0.46,0.2588 0.86,0.5885 1.3,0.8726 0.51,0.3953 1.04,0.7593 1.53,1.1724 0.58,0.4861 1.15,0.9838 1.71,1.5005 0.51,0.4472 1.04,0.8751 1.55,1.3318 0.55,0.4775 1.11,0.9537 1.65,1.4509 0.62,0.5756 1.21,1.18 1.79,1.7923 0.58,0.5976 1.12,1.2328 1.67,1.8516 0.56,0.6551 1.1,1.3303 1.63,2.0085 0.53,0.6858 1.05,1.3832 1.55,2.0948 0.51,0.7573 1,1.5234 1.47,2.3068 0.44,0.71 0.84,1.4418 1.25,2.1705 0.47,0.8281 0.88,1.6871 1.27,2.5564 0.38,0.8783 0.71,1.78 1.02,2.6878 0.3,0.9037 0.56,1.8219 0.8,2.7437 0.24,0.9232 0.45,1.8549 0.64,2.7899 0.2,0.947 0.33,1.906 0.46,2.865 0.12,0.92 0.22,1.842 0.32,2.764 0.11,0.978 0.16,1.961 0.22,2.942 0,0.988 0,1.977 0,2.965 0,0.149 0,0.298 0,0.447 0,0 -14.02,1.915 -14.02,1.915 v 0 c 0,-0.08 0,-0.156 0.1,-0.234 0.2,-0.622 0.14,-1.295 0.16,-1.94 0,-0.786 0,-1.576 -0.1,-2.36 -0.1,-0.848 -0.16,-1.696 -0.25,-2.542 -0.1,-0.768 -0.19,-1.534 -0.29,-2.3 -0.14,-0.79 -0.3,-1.579 -0.48,-2.361 -0.18,-0.735 -0.36,-1.468 -0.58,-2.19 -0.21,-0.667 -0.43,-1.33 -0.7,-1.9762 -0.26,-0.6088 -0.53,-1.21 -0.86,-1.7853 -0.37,-0.6652 -0.74,-1.3329 -1.14,-1.9804 -0.36,-0.5974 -0.74,-1.18 -1.13,-1.7552 -0.42,-0.5779 -0.84,-1.1454 -1.28,-1.7024 -0.44,-0.5452 -0.87,-1.0969 -1.34,-1.6131 -0.47,-0.5339 -0.96,-1.0541 -1.46,-1.5622 -0.45,-0.4546 -0.9,-0.9151 -1.4,-1.3288 -0.53,-0.4503 -1.04,-0.9141 -1.57,-1.3644 -0.56,-0.4624 -1.1,-0.9426 -1.64,-1.428 -0.42,-0.3539 -0.83,-0.7202 -1.29,-1.036 -0.4,-0.2637 -0.77,-0.5769 -1.19,-0.8264 -0.43,-0.303 -0.88,-0.5615 -1.3,-0.8771 -0.32,-0.1263 -0.58,-0.3693 -0.9,-0.4956 0,0 9.48,-10.5074 9.48,-10.5074 z"
         inkscape:connector-curvature="0" />
      <path
         style="color:#000000;display:inline;overflow:visible;visibility:visible;fill:#19aeff;fill-opacity:1;fill-rule:evenodd;stroke:none;stroke-width:2.685;marker:none;enable-background:accumulate"
         id="path4055"
         d="m -1677.13,90.3066 c -0.41,0.1578 -0.75,0.44 -1.13,0.626 0.11,0.072 -0.44,0.3271 -0.32,0.2582 2.33,-1.3541 9.34,-5.4005 7.01,-4.0539 -2.49,1.4345 -4.91,2.9977 -7.47,4.3174 -2.34,1.2111 9.32,-4.8572 6.82,-4.0194 -0.5,0.1072 -0.92,0.4857 -1.35,0.7578 -0.51,0.3586 -1,0.7669 -1.54,1.071 -0.57,0.3506 -1.1,0.768 -1.62,1.1838 -0.65,0.4797 -1.23,1.033 -1.84,1.5611 -0.67,0.6147 -1.38,1.1837 -2.03,1.8149 -0.7,0.581 -1.35,1.2092 -2.03,1.8109 -0.66,0.5337 -1.28,1.1146 -1.92,1.6694 -0.63,0.5521 -1.2,1.165 -1.82,1.7325 -0.59,0.6342 -1.21,1.2297 -1.76,1.8987 -0.58,0.617 -1.16,1.242 -1.69,1.91 -0.53,0.584 -1.07,1.159 -1.57,1.768 -0.52,0.562 -0.96,1.181 -1.44,1.767 -0.45,0.529 -0.84,1.101 -1.21,1.688 -0.38,0.62 -0.7,1.274 -1,1.937 -0.28,0.667 -0.57,1.336 -0.79,2.026 -0.15,0.39 -0.1,0.188 -0.2,0.606 0,0 -14.11,1.116 -14.11,1.116 v 0 c 0.12,-0.655 0.1,-0.321 0.18,-1.002 0.22,-0.975 0.44,-1.949 0.77,-2.893 0.32,-0.944 0.65,-1.882 1.04,-2.797 0.4,-0.93 0.82,-1.851 1.32,-2.733 0.47,-0.824 1.02,-1.587 1.54,-2.376 0.55,-0.735 1.08,-1.475 1.66,-2.1833 0.62,-0.6386 1.14,-1.3609 1.72,-2.0351 0.64,-0.6462 1.15,-1.3977 1.79,-2.04 0.61,-0.7437 1.28,-1.425 1.92,-2.1335 0.66,-0.7121 1.35,-1.386 2.04,-2.0596 0.68,-0.607 1.38,-1.188 2.03,-1.8236 0.71,-0.5656 1.34,-1.221 2.03,-1.8064 0.63,-0.5784 1.29,-1.1308 1.9,-1.7373 0.58,-0.5306 1.17,-1.0581 1.75,-1.5949 0.5,-0.4668 1.06,-0.8746 1.62,-1.2607 0.52,-0.4295 1.09,-0.7998 1.55,-1.2934 2.58,-2.1925 -2.42,2.0362 7.75,-4.5972 2.26,-1.4719 -9.32,5.4101 -6.99,4.0522 2.11,-1.2302 5.17,-3.4605 7.98,-4.5499 0.39,-0.2352 0.84,-0.3593 1.22,-0.6149 0,0 -1.81,14.0322 -1.81,14.0322 z"
         inkscape:connector-curvature="0" />
    </g>
    <text
       id="text4057"
       y="54.9719"
       x="-1459.57"
       style="color:#000000;font-style:normal;font-variant:normal;font-weight:normal;font-stretch:normal;font-size:4.8454px;line-height:0%;font-family:'Trebuchet MS';-inkscape-font-specification:'Trebuchet MS';text-indent:0;text-align:start;text-decoration:none;text-decoration-line:none;letter-spacing:0px;word-spacing:0px;text-transform:none;writing-mode:lr-tb;direction:ltr;baseline-shift:baseline;text-anchor:start;display:inline;overflow:visible;visibility:visible;fill:#204a87;fill-opacity:1;fill-rule:nonzero;stroke:#3465a4;stroke-width:0.403783px;marker:none;enable-background:accumulate"
       xml:space="preserve"><tspan
         y="54.9719"
         x="-1459.57"
         id="tspan4059"
         sodipodi:role="line"
         style="font-size:25.8422px;line-height:1.25;fill:#204a87;stroke:#3465a4;stroke-width:0.403783px">×2</tspan></text>
  </g>
</svg>
