<?xml version="1.0" encoding="UTF-8" standalone="no"?>
<svg
   xmlns:dc="http://purl.org/dc/elements/1.1/"
   xmlns:cc="http://creativecommons.org/ns#"
   xmlns:rdf="http://www.w3.org/1999/02/22-rdf-syntax-ns#"
   xmlns:svg="http://www.w3.org/2000/svg"
   xmlns="http://www.w3.org/2000/svg"
   xmlns:sodipodi="http://sodipodi.sourceforge.net/DTD/sodipodi-0.dtd"
   xmlns:inkscape="http://www.inkscape.org/namespaces/inkscape"
   width="302.4"
   height="90.6"
   version="1.1"
   id="svg30"
   sodipodi:docname="remainder.svg"
   inkscape:version="1.0.1 (3bc2e813f5, 2020-09-07)">
  <metadata
     id="metadata34">
    <rdf:RDF>
      <cc:Work
         rdf:about="">
        <dc:format>image/svg+xml</dc:format>
        <dc:type
           rdf:resource="http://purl.org/dc/dcmitype/StillImage" />
      </cc:Work>
    </rdf:RDF>
  </metadata>
  <sodipodi:namedview
     pagecolor="#ffffff"
     bordercolor="#666666"
     borderopacity="1"
     objecttolerance="10"
     gridtolerance="10"
     guidetolerance="10"
     inkscape:pageopacity="0"
     inkscape:pageshadow="2"
     inkscape:window-width="640"
     inkscape:window-height="480"
     id="namedview32"
     showgrid="false"
     inkscape:current-layer="svg30" />
  <defs
     id="defs2" />
  <text
     x="91.5543"
     y="29.6"
     style="color:#000000;font-size:26.7px;font-family:Arial;overflow:visible;fill:#4e9a06;stroke-width:0.67px;stroke:none;"
     id="text4">=</text>
  <text
     x="131.254"
     y="29.6"
     style="color:#000000;font-size:26.7px;font-family:Arial;overflow:visible;fill:#4e9a06;stroke-width:0.67px;stroke:none;"
     id="text6">3 R 4</text>
  <text
     x="223.054"
     y="29.6"
     style="color:#000000;font-size:26.7px;font-family:Arial;overflow:visible;fill:#4e9a06;stroke-width:0.67px;stroke:none;"
     id="text8">=</text>
  <text
     x="125.754"
     y="89.5"
     style="color:#000000;font-size:18.9px;font-family:'Comic Sans MS';overflow:visible;fill:#0000ff;stroke-width:0.67px"
     id="text10">Remainder</text>
  <text
     x="284.015"
     y="14.745"
     transform="scale(0.998342,1.00166)"
     style="color:#000000;font-size:20.6px;font-family:Arial;overflow:visible;fill:#4e9a06;stroke-width:0.67px;stroke:none;"
     id="text12">4</text>
  <text
     x="283.615"
     y="39.445"
     transform="scale(0.998342,1.00166)"
     style="color:#000000;font-size:20.6px;font-family:Arial;overflow:visible;fill:#4e9a06;stroke-width:0.67px;stroke:none;"
     id="text14">5</text>
  <path
     style="fill:none;fill-opacity:0.75;stroke:#4e9a06;stroke-width:1.34"
     d="m 275.454,19.8 h 26.9"
     id="path16" />
  <text
     x="256.554"
     y="29.6"
     style="color:#000000;font-size:26.7px;font-family:Arial;overflow:visible;fill:#4e9a06;stroke-width:0.67px;stroke:none;"
     id="text18">3</text>
  <path
     style="fill:#0000ff;stroke-width:0.67px"
     d="m 162.554,73.9 c 0,0 0,0 0,0 -3.3,-2.4 -3.4,-2.3 -3.5,-2.3 0,0 0,-0.2 0,-0.3 0,-0.3 0,-0.6 0.1,-0.9 0,-0.4 0.2,-0.8 0.3,-1.2 0.1,-0.5 0.3,-0.9 0.5,-1.4 0.2,-0.5 0.4,-1 0.6,-1.5 0.2,-0.6 0.5,-1.1 0.8,-1.6 0.2,-0.5 0.5,-1 0.8,-1.4 0.2,-0.4 0.5,-0.8 0.7,-1.2 0.2,-0.3 0.5,-0.6 0.7,-1 0.2,-0.3 0.5,-0.5 0.8,-0.8 0.3,-0.2 0.6,-0.4 0.8,-0.6 0.3,-0.2 0.6,-0.4 0.8,-0.5 0.2,-0.2 0.5,-0.3 0.7,-0.4 0.2,-0.1 0.5,-0.2 0.7,-0.3 0.2,-0.1 0.4,-0.2 0.6,-0.3 0.2,0 0.4,-0.1 0.6,-0.2 0.2,0 0.4,-0.2 0.6,-0.2 0.2,-0.1 0.5,-0.2 0.7,-0.3 0.2,-0.1 0.5,-0.2 0.7,-0.3 0.2,-0.1 0.4,-0.2 0.6,-0.3 0.2,-0.1 0.5,-0.2 0.7,-0.3 0.3,-0.1 0.5,-0.2 0.8,-0.3 0.3,-0.1 0.5,-0.3 0.8,-0.4 0.3,-0.2 0.6,-0.3 0.9,-0.5 0.3,-0.2 0.7,-0.4 1,-0.6 0.3,-0.2 0.6,-0.4 0.9,-0.6 0.3,-0.2 0.7,-0.5 1,-0.7 0.4,-0.3 0.7,-0.6 1.1,-0.9 0.3,-0.3 0.6,-0.5 1,-0.8 0.3,-0.2 0.5,-0.4 0.7,-0.7 0.3,-0.2 0.5,-0.5 0.7,-0.8 0.3,-0.3 0.5,-0.6 0.8,-0.9 0.2,-0.3 0.5,-0.6 0.7,-0.9 0.2,-0.3 0.4,-0.5 0.6,-0.8 0.2,-0.3 0.3,-0.6 0.5,-0.8 0.2,-0.3 0.3,-0.6 0.4,-0.9 0.1,-0.3 0.2,-0.7 0.4,-1 0.1,-0.3 0.2,-0.7 0.3,-1 0,-0.3 0.1,-0.6 0.2,-0.9 0,-0.3 0.1,-0.6 0.2,-0.9 0,-0.3 0.1,-0.7 0.2,-1 0,-0.3 0,-0.7 0.1,-1 0,-0.3 0,-0.7 0.1,-1 0,-0.3 0,-0.7 0,-1 0,-0.3 0,-0.6 0,-1 0,-0.3 0,-0.6 0,-1 0,-0.3 0,-0.5 0,-0.8 0,0 0,0 0,-0.1 l 3.5,2.2 c 0,0 0,0 0,0.1 0,0.3 0,0.5 0,0.8 0,0.3 0,0.6 0,1 0,0.3 0,0.6 0,1 0,0.3 0,0.7 -0.1,1 0,0.3 0,0.7 -0.1,1 0,0.3 0,0.7 -0.1,1 0,0.3 -0.1,0.7 -0.2,1 0,0.3 -0.1,0.7 -0.2,1 0,0.3 -0.1,0.6 -0.2,0.9 -0.1,0.3 -0.2,0.7 -0.3,1 -0.1,0.3 -0.2,0.7 -0.4,1 -0.1,0.3 -0.3,0.6 -0.4,0.9 -0.2,0.3 -0.3,0.6 -0.5,0.9 -0.2,0.3 -0.4,0.6 -0.6,0.8 -0.2,0.3 -0.5,0.6 -0.7,0.9 -0.3,0.3 -0.5,0.6 -0.8,0.9 -0.2,0.3 -0.5,0.5 -0.7,0.8 -0.3,0.2 -0.5,0.5 -0.8,0.7 -0.3,0.3 -0.6,0.5 -1,0.8 -0.4,0.3 -0.7,0.6 -1.1,0.9 -0.3,0.2 -0.7,0.5 -1,0.7 -0.3,0.2 -0.6,0.4 -0.9,0.6 -0.3,0.2 -0.7,0.4 -1,0.6 -0.3,0.2 -0.6,0.4 -0.9,0.5 -0.3,0.1 -0.5,0.3 -0.8,0.4 -0.3,0.1 -0.5,0.3 -0.8,0.4 -0.2,0.1 -0.5,0.2 -0.7,0.3 -0.2,0 -0.4,0.2 -0.6,0.3 -0.2,0.1 -0.5,0.2 -0.7,0.3 -0.2,0.1 -0.5,0.2 -0.7,0.3 -0.2,0 -0.4,0.2 -0.6,0.3 -0.2,0 -0.4,0.2 -0.5,0.2 -0.2,0 -0.4,0.2 -0.6,0.3 -0.2,0.1 -0.5,0.2 -0.7,0.3 -0.2,0.1 -0.5,0.2 -0.7,0.4 -0.3,0.2 -0.6,0.3 -0.8,0.5 -0.3,0.2 -0.6,0.4 -0.8,0.6 -0.3,0.2 -0.5,0.5 -0.8,0.7 -0.2,0.3 -0.5,0.6 -0.7,0.9 -0.2,0.4 -0.5,0.7 -0.7,1.1 -0.3,0.5 -0.5,0.9 -0.8,1.4 -0.3,0.5 -0.6,1 -0.8,1.6 -0.2,0.5 -0.4,1 -0.6,1.5 -0.1,0.5 -0.3,0.9 -0.4,1.4 -0.1,0.4 -0.2,0.8 -0.3,1.2 0,0.3 -0.1,0.6 -0.1,0.8 0,0.1 0,0.3 0,0.4 0,0 -0.1,0.2 -3.4,-2.4 0,0 0,0 0,0 z"
     id="path20" />
  <path
     style="fill:#0000ff;stroke-width:0.67px"
     d="m 174.154,46.6 c 0,0.1 0,0 0.1,0 0.2,0 0.3,-0.2 0.4,-0.3 0.2,-0.2 0.5,-0.4 0.7,-0.6 0.3,-0.3 0.6,-0.6 0.9,-0.8 0.3,-0.3 0.6,-0.6 1,-0.9 0.3,-0.3 0.7,-0.6 1,-0.9 0.3,-0.3 0.6,-0.6 0.9,-0.9 0.3,-0.3 0.6,-0.6 0.9,-0.9 0.3,-0.3 0.6,-0.6 1,-0.9 0.3,-0.3 0.6,-0.6 0.9,-0.8 0.2,-0.2 0.5,-0.4 0.7,-0.6 0.2,-0.2 0.5,-0.4 0.7,-0.6 0.3,-0.2 0.5,-0.5 0.8,-0.7 0.2,-0.2 0.4,-0.4 0.6,-0.6 0.2,-0.2 0.3,-0.4 0.4,-0.5 0,0 0.1,-0.1 0.2,-0.2 l 3.4,2.4 c 0,0 -0.1,0.1 -0.2,0.2 -0.2,0.2 -0.3,0.4 -0.5,0.5 -0.2,0.2 -0.4,0.5 -0.7,0.7 -0.3,0.2 -0.5,0.5 -0.8,0.7 -0.2,0.2 -0.5,0.4 -0.7,0.6 -0.2,0.2 -0.5,0.4 -0.7,0.6 -0.3,0.3 -0.6,0.6 -0.9,0.8 -0.3,0.3 -0.6,0.6 -1,0.9 -0.3,0.3 -0.6,0.6 -0.9,0.9 -0.3,0.3 -0.6,0.6 -1,0.9 -0.3,0.3 -0.7,0.6 -1,0.9 -0.3,0.3 -0.7,0.6 -1,0.9 -0.3,0.3 -0.6,0.6 -0.9,0.9 -0.2,0.2 -0.5,0.4 -0.7,0.6 -0.2,0.1 -0.3,0.3 -0.5,0.4 0,0 -0.2,0.1 -0.3,0.2 z"
     id="path22" />
  <path
     style="fill:#0000ff;stroke-width:0.67px"
     d="m 185.654,38.9 c 0,0 0,0 0,0 0,0 0,-0.1 0,-0.2 0,0 0,-0.1 0,-0.2 0,0 0,-0.1 0,-0.2 0,0 0,0 0,-0.1 0,0 0,0 0,0 1.3,-0.5 2.6,-1.1 3.8,-1.6 0,0 0,0.2 0.1,0.3 0,0.1 0.1,0.2 0.2,0.4 0,0.2 0.1,0.4 0.2,0.5 0,0.2 0.2,0.5 0.2,0.7 0,0.2 0.1,0.5 0.2,0.7 0,0.3 0.1,0.5 0.2,0.8 0,0.2 0.1,0.5 0.2,0.7 0,0.2 0.1,0.4 0.2,0.7 0,0.2 0.1,0.4 0.2,0.6 0,0.2 0.2,0.4 0.3,0.7 0,0.2 0.2,0.4 0.3,0.6 0.1,0.2 0.2,0.4 0.3,0.6 0.1,0.2 0.2,0.4 0.3,0.5 0,0.2 0.2,0.3 0.3,0.5 0.7,1.2 0.7,1.4 0.8,1.5 0,0 0,0.1 0,0.2 0,0 0,0.2 0.1,0.2 0,0 0,0.2 0.1,0.3 0,0 0,0.1 0.1,0.2 0,0 0,0.1 0,0.2 0,0 0,0 0,0.1 0,0 0,0 0,0.1 0,0 0,0.1 0.1,0.2 0,0 0,0.1 0.1,0.2 0,0 0,0.1 0,0.1 0,0 0,0.1 0,0.2 0,0 0,0 0,0.1 0,0 0,0.1 0.1,0.1 0,0 0,0 0.1,0.1 0,0 0,0 0.1,0.1 0,0 0,0 0,0 0,0 0,0 0,0 0,0 0,0 0,0.1 0,0 0,0 0,0 0,0 0,0 0,0 l -3.8,1.7 c 0,0 0,0 0,0 0,0 0,0 0,-0.1 0,0 0,-0.2 0,0 0,0 0,0 0,0 0,0 0,0 0,0 0,0 0,-0.1 -0.1,-0.1 0,0 0,0 -0.1,-0.1 0,0 0,-0.1 -0.1,-0.2 0,0 -0.1,-0.1 -0.1,-0.2 0,0 0,0 0,-0.1 0,0 0,-0.1 -0.1,-0.2 0,0 0,0 0,0 0,0 0,-0.1 -0.1,-0.2 0,0 0,-0.1 -0.1,-0.2 0,0 0,-0.1 0,-0.2 0,0 0,-0.1 0,-0.1 0,0 0,-0.1 -0.1,-0.2 0,-0.1 -0.1,-0.2 -0.1,-0.3 0,0 0,-0.2 -0.1,-0.2 0,0 0,-0.2 -0.1,-0.2 0,0 0,0 -0.7,-1.4 0,-0.2 -0.2,-0.3 -0.3,-0.5 -0.1,-0.2 -0.2,-0.4 -0.3,-0.6 -0.1,-0.2 -0.2,-0.4 -0.3,-0.6 0,-0.2 -0.2,-0.4 -0.3,-0.6 -0.1,-0.2 -0.2,-0.5 -0.3,-0.7 0,-0.2 -0.2,-0.4 -0.2,-0.7 0,-0.2 -0.1,-0.4 -0.2,-0.7 0,-0.2 -0.1,-0.5 -0.2,-0.7 0,-0.2 -0.1,-0.5 -0.2,-0.7 0,-0.2 -0.1,-0.5 -0.2,-0.7 0,-0.2 -0.1,-0.5 -0.2,-0.7 0,-0.2 -0.1,-0.4 -0.2,-0.5 0,-0.1 0,-0.2 -0.2,-0.4 0,0 0,-0.2 0,-0.2 1.5,-0.6 3.9,-3 3.8,-1.5 0,0 0,0 0,0.1 0,0 0,0.1 0,0.2 0,0 0,0.1 0,0.2 0,0 0,0.1 0,0.2 0,0 0,0 0,0 z"
     id="path24" />
  <text
     x="-2.9457"
     y="29.6"
     style="color:#000000;font-size:26.7px;font-family:Arial;overflow:visible;fill:#4e9a06;stroke-width:0.67px;stroke:none;"
     id="text26">19 รท 5</text>
</svg>
