<?xml version="1.0" encoding="UTF-8" standalone="no"?>
<svg
   width="173.245"
   height="135.565"
   version="1.1"
   id="svg26"
   sodipodi:docname="run.svg"
   inkscape:version="1.1 (c68e22c387, 2021-05-23)"
   xmlns:inkscape="http://www.inkscape.org/namespaces/inkscape"
   xmlns:sodipodi="http://sodipodi.sourceforge.net/DTD/sodipodi-0.dtd"
   xmlns:xlink="http://www.w3.org/1999/xlink"
   xmlns="http://www.w3.org/2000/svg"
   xmlns:svg="http://www.w3.org/2000/svg">
  <sodipodi:namedview
     id="namedview28"
     pagecolor="#ffffff"
     bordercolor="#666666"
     borderopacity="1.0"
     inkscape:pageshadow="2"
     inkscape:pageopacity="0.0"
     inkscape:pagecheckerboard="0"
     showgrid="false"
     inkscape:current-layer="svg26" />
  <title
     id="title2">RUN</title>
  <g
     id="g17"
     transform="matrix(0.669178,0,0,0.669123,-13.7098,-27.2463)"
     style="stroke-width:1.49443">
    <title
       id="title4">Layer 1</title>
    <g
       id="Layer_1"
       style="stroke-width:1.49443">
      <g
         id="svg_19"
         style="stroke-width:1.49443">
        <g
           id="svg_20"
           style="stroke-width:1.49443">
          <path
             d="m 109.133,42.7625 c 10.115,-4.038 21.298,-1.269 30.866,2.97 10.676,5.017 21.583,12.316 25.963,23.775 1.965,4.676 0.675,10.132 -2.701,13.797 -2.656,2.269 -6.434,1.636 -9.617,1.315 -7.225,-1.551 -11.649,-7.978 -17.263,-12.188 -4.867,-4.284 -10.048,-8.922 -16.636,-10.107 -5.877,-0.971 -10.982,2.918 -14.749,6.952 -5.6689,6.993 -9.2499,15.397 -12.0419,23.882 -1.814,7.3995 -5.674,14.4605 -5.209,22.2705 -0.552,-7.204 -2.607,-14.216 -2.804,-21.4545 -0.368,-9.334 0.816,-18.72 3.16,-27.745 4.299,-9.672 10.943,-19.245 21.0319,-23.467 z"
             stroke-width="0.149443"
             stroke-miterlimit="10"
             stroke="#000000"
             fill="url(#svg_17)"
             id="svg_21"
             style="fill:url(#linearGradient845)" />
          <path
             d="m 109.133,42.7625 c 10.115,-4.038 21.298,-1.269 30.866,2.97 10.676,5.017 21.583,12.316 25.963,23.775 1.965,4.676 0.675,10.132 -2.701,13.797 -2.656,2.269 -6.434,1.636 -9.617,1.315 -7.225,-1.551 -11.649,-7.978 -17.263,-12.188 -4.867,-4.284 -10.048,-8.922 -16.636,-10.107 -5.877,-0.971 -10.982,2.918 -14.749,6.952 -5.6689,6.993 -9.2499,15.397 -12.0419,23.882 -1.814,7.3995 -5.674,14.4605 -5.209,22.2705 -0.552,-7.204 -2.607,-14.216 -2.804,-21.4545 -0.368,-9.334 0.816,-18.72 3.16,-27.745 4.299,-9.672 10.943,-19.245 21.0319,-23.467 z"
             fill="url(#svg_17)"
             id="svg_22"
             style="fill:url(#linearGradient847);stroke-width:3.04204" />
          <path
             d="m 201.357,48.9485 c 7.324,-0.85 15.021,2.023 19.936,7.537 3.334,4.104 5.573,9.274 5.537,14.615 -0.646,6.494 -3.914,12.911 -9.367,16.643 -6.428,4.556 -15.215,5.505 -22.448,2.347 -10.746,-4.083 -17.004,-17.916 -11.481,-28.365 3.108,-7.108 10.273,-11.733 17.823,-12.777 z"
             stroke-width="0.149443"
             stroke-miterlimit="10"
             stroke="#000000"
             fill="url(#svg_17)"
             id="svg_23"
             style="fill:url(#linearGradient849)" />
          <path
             d="m 201.357,48.9485 c 7.324,-0.85 15.021,2.023 19.936,7.537 3.334,4.104 5.573,9.274 5.537,14.615 -0.646,6.494 -3.914,12.911 -9.367,16.643 -6.428,4.556 -15.215,5.505 -22.448,2.347 -10.746,-4.083 -17.004,-17.916 -11.481,-28.365 3.108,-7.108 10.273,-11.733 17.823,-12.777 z"
             fill="url(#svg_17)"
             id="svg_24"
             style="fill:url(#linearGradient851);stroke-width:3.04204" />
          <path
             d="m 277.594,86.6975 c 0.433,-0.024 0.871,-0.035 1.313,-0.027 -0.184,3.852 0.82,7.701 0.184,11.538 -1.017,6.5955 -3.673,12.7905 -6.55,18.7635 -6.32,14.098 -18.271,25.74 -32.761,31.219 -6.652,2.346 -14.544,2.166 -20.538,-1.839 -9.694,-6.329 -17.318,-15.983 -20.652,-27.126 -2.111,-6.018 -2.184,-13.245 1.445,-18.699 1.815,-2.3895 4.266,-5.0585 7.545,-4.8795 3.388,0.313 6.416,2.348 8.462,4.9995 4.817,6.323 5.825,14.547 9.796,21.298 3.322,4.354 8.694,9.526 14.633,6.979 7.157,-3.026 13.18,-8.173 19,-13.22 7.358,-6.328 12.479,-14.775 16.567,-23.4725 0.821,-1.745 1.394,-3.605 1.556,-5.534 z"
             stroke-width="0.149443"
             stroke-miterlimit="10"
             stroke="#000000"
             fill="url(#svg_17)"
             id="svg_25"
             style="fill:url(#linearGradient853)" />
          <path
             d="m 277.594,86.6975 c 0.433,-0.024 0.871,-0.035 1.313,-0.027 -0.184,3.852 0.82,7.701 0.184,11.538 -1.017,6.5955 -3.673,12.7905 -6.55,18.7635 -6.32,14.098 -18.271,25.74 -32.761,31.219 -6.652,2.346 -14.544,2.166 -20.538,-1.839 -9.694,-6.329 -17.318,-15.983 -20.652,-27.126 -2.111,-6.018 -2.184,-13.245 1.445,-18.699 1.815,-2.3895 4.266,-5.0585 7.545,-4.8795 3.388,0.313 6.416,2.348 8.462,4.9995 4.817,6.323 5.825,14.547 9.796,21.298 3.322,4.354 8.694,9.526 14.633,6.979 7.157,-3.026 13.18,-8.173 19,-13.22 7.358,-6.328 12.479,-14.775 16.567,-23.4725 0.821,-1.745 1.394,-3.605 1.556,-5.534 z"
             fill="url(#svg_17)"
             id="svg_26"
             style="fill:url(#linearGradient855);stroke-width:3.04204" />
          <path
             d="m 98.7921,127.127 c 4.2569,-3.605 10.5439,-3.255 15.4949,-1.452 4.974,2.115 10.214,3.749 14.755,6.757 7.051,4.518 13.789,9.584 19.817,15.404 6.811,5.506 13.136,11.648 18.556,18.54 4,4.705 8.176,10.202 7.861,16.718 -2.955,9.494 -11.09,16.435 -19.553,21.081 -11.224,5.707 -23.743,7.971 -35.739,11.473 -5.188,1.675 -10.634,2.285 -16.029,2.866 -6.1089,0.33 -12.2509,1.59 -18.3559,0.509 3.912,-2.843 8.648,-4.108 12.948,-6.214 12.3469,-5.33 23.9679,-12.164 35.9979,-18.153 5.096,-2.467 10.087,-5.611 13.001,-10.634 -0.156,-1.104 -0.308,-2.205 -0.455,-3.303 -3.425,-3.467 -7.653,-5.945 -12.011,-8.045 -5.085,4.203 -10.947,7.4 -15.631,12.092 -12.854,9.568 -27.0629,17.069 -40.7519,25.346 -18.428,10.357 -35.862,22.431 -54.64,32.177 -1.094,0.392 -2.215,0.697 -3.362,0.916 7.211,-7.857 15.608,-14.544 22.708,-22.509 10.246,-10.732 20.492,-21.47 31.182,-31.764 11.29,-10.871 22.263,-22.062 32.7259,-33.733 -4.413,-4.08 -10.1109,-7.839 -11.4519,-14.096 -1.275,-4.732 -0.525,-10.322 2.933,-13.976 z"
             stroke-width="0.149443"
             stroke-miterlimit="10"
             stroke="#000000"
             fill="url(#svg_17)"
             id="svg_27"
             style="fill:url(#linearGradient857)" />
          <path
             d="m 98.7921,127.127 c 4.2569,-3.605 10.5439,-3.255 15.4949,-1.452 4.974,2.115 10.214,3.749 14.755,6.757 7.051,4.518 13.789,9.584 19.817,15.404 6.811,5.506 13.136,11.648 18.556,18.54 4,4.705 8.176,10.202 7.861,16.718 -2.955,9.494 -11.09,16.435 -19.553,21.081 -11.224,5.707 -23.743,7.971 -35.739,11.473 -5.188,1.675 -10.634,2.285 -16.029,2.866 -6.1089,0.33 -12.2509,1.59 -18.3559,0.509 3.912,-2.843 8.648,-4.108 12.948,-6.214 12.3469,-5.33 23.9679,-12.164 35.9979,-18.153 5.096,-2.467 10.087,-5.611 13.001,-10.634 -0.156,-1.104 -0.308,-2.205 -0.455,-3.303 -3.425,-3.467 -7.653,-5.945 -12.011,-8.045 -5.085,4.203 -10.947,7.4 -15.631,12.092 -12.854,9.568 -27.0629,17.069 -40.7519,25.346 -18.428,10.357 -35.862,22.431 -54.64,32.177 -1.094,0.392 -2.215,0.697 -3.362,0.916 7.211,-7.857 15.608,-14.544 22.708,-22.509 10.246,-10.732 20.492,-21.47 31.182,-31.764 11.29,-10.871 22.263,-22.062 32.7259,-33.733 -4.413,-4.08 -10.1109,-7.839 -11.4519,-14.096 -1.275,-4.732 -0.525,-10.322 2.933,-13.976 z"
             fill="url(#svg_17)"
             id="svg_28"
             style="fill:url(#linearGradient859);stroke-width:3.04204" />
        </g>
      </g>
    </g>
  </g>
  <defs
     id="defs24">
    <linearGradient
       y2="0"
       x2="1"
       y1="0"
       x1="0"
       spreadMethod="pad"
       id="svg_17">
      <stop
         offset="0.015625"
         stop-opacity="0.996094"
         stop-color="#00a1ff"
         id="stop19" />
      <stop
         offset="0.84375"
         stop-opacity="0.996094"
         stop-color="#49167f"
         id="stop21" />
    </linearGradient>
    <linearGradient
       inkscape:collect="always"
       xlink:href="#svg_17"
       id="linearGradient845"
       x1="80.8297"
       y1="42.6776"
       x2="159.221"
       y2="42.6776"
       spreadMethod="pad"
       gradientTransform="scale(1.04879,0.953481)"
       gradientUnits="userSpaceOnUse" />
    <linearGradient
       inkscape:collect="always"
       xlink:href="#svg_17"
       id="linearGradient847"
       x1="80.9676"
       y1="42.7632"
       x2="159.204"
       y2="42.7632"
       spreadMethod="pad"
       gradientTransform="scale(1.04826,0.953963)"
       gradientUnits="userSpaceOnUse" />
    <linearGradient
       inkscape:collect="always"
       xlink:href="#svg_17"
       id="linearGradient849"
       x1="176.937"
       y1="49.923"
       x2="221.37"
       y2="49.923"
       spreadMethod="pad"
       gradientTransform="scale(1.02513,0.97549)"
       gradientUnits="userSpaceOnUse" />
    <linearGradient
       inkscape:collect="always"
       xlink:href="#svg_17"
       id="linearGradient851"
       x1="177.02"
       y1="50.0326"
       x2="221.248"
       y2="50.0326"
       spreadMethod="pad"
       gradientTransform="scale(1.02523,0.97539)"
       gradientUnits="userSpaceOnUse" />
    <linearGradient
       inkscape:collect="always"
       xlink:href="#svg_17"
       id="linearGradient853"
       x1="172.64"
       y1="98.794"
       x2="244.825"
       y2="98.794"
       spreadMethod="pad"
       gradientTransform="scale(1.14126,0.876228)"
       gradientUnits="userSpaceOnUse" />
    <linearGradient
       inkscape:collect="always"
       xlink:href="#svg_17"
       id="linearGradient855"
       x1="172.666"
       y1="98.9467"
       x2="244.644"
       y2="98.9467"
       spreadMethod="pad"
       gradientTransform="scale(1.14168,0.875905)"
       gradientUnits="userSpaceOnUse" />
    <linearGradient
       inkscape:collect="always"
       xlink:href="#svg_17"
       id="linearGradient857"
       x1="17.895"
       y1="141.727"
       x2="153.764"
       y2="141.727"
       spreadMethod="pad"
       gradientTransform="scale(1.14067,0.876677)"
       gradientUnits="userSpaceOnUse" />
    <linearGradient
       inkscape:collect="always"
       xlink:href="#svg_17"
       id="linearGradient859"
       x1="18.1456"
       y1="141.823"
       x2="153.698"
       y2="141.823"
       spreadMethod="pad"
       gradientTransform="scale(1.1405,0.876808)"
       gradientUnits="userSpaceOnUse" />
  </defs>
</svg>
