<?xml version="1.0" encoding="UTF-8" standalone="no"?>
<!-- Copyright 2017 mathsisfun.com -->
<svg xmlns="http://www.w3.org/2000/svg" width="273.6" height="54.1" version="1.1">
<defs/>
<text x="173.2" y="32.6" style="font-family:'Comic Sans MS'; font-weight:bold; font-size:25px; overflow:visible; fill:#c4a000; stroke-width:0.58px;">x</text>
<text x="194.5" y="35.8" style="font-family:'Comic Sans MS'; font-weight:bold; font-size:28.1px; overflow:visible; fill:#c4a000; stroke-width:0.58px;">10</text>
<text x="-0.9" y="53" style="font-family:'Comic Sans MS'; font-size:14.1px; overflow:visible; fill:black; stroke-width:0.58px;">A Number</text>
<text x="127.6" y="53" style="font-family:'Comic Sans MS'; font-size:14.1px; overflow:visible; fill:black; stroke-width:0.58px;">In Scientific Notation</text>
<text x="230.4" y="18.8" style="font-family:'Comic Sans MS'; font-weight:bold; font-size:25px; overflow:visible; fill:#c4a000; stroke-width:0.58px;">2</text>
<g transform="matrix(0.390702,0,0,0.390702,-343.987,-152.963)">
<path style="overflow:visible; fill:#ffd700; stroke-width:4;" d="m 1074.7,456.5 c 1.5,-0.7 2.9,-1.6 4.3,-2.4 1.8,-1 3.7,-1.9 5.6,-2.8 1.9,-0.8 3.8,-1.5 5.7,-2.1 5.2,-1.8 10.5,-3 15.9,-3.8 1.9,-0.3 3.9,-0.3 5.9,-0.4 1.8,0 3.5,0.3 5.3,0.4 1.8,0.1 3.6,0.4 5.4,0.7 1.9,0.4 3.8,1 5.7,1.6 1.7,0.5 3.5,1 5.2,1.4 1.6,0.3 3.2,0.7 4.7,1.1 1.5,0.4 3.1,0.9 4.6,1.4 1.5,0.4 2.9,0.8 4.3,1.1 1.3,0.3 2.6,0.7 3.8,0.9 1.2,0.2 2.3,0.4 3.5,0.2 1.3,-0.2 2.6,-0.2 3.8,-0.5 1.2,-0.1 2.3,-0.3 3.5,-0.5 1,-0.1 2,-0.4 3,-0.6 0.9,-0.3 1.8,-0.5 2.7,-0.8 4,-1.5 -14.5,4.2 -6.9,1.9 0.9,-0.3 1.8,-0.6 2.6,-0.9 4.1,-1.4 7.8,-2.5 11.9,-3 l -8,9.9 c -3.6,1 -8.3,3.8 7.9,-2 -0.9,0.2 -1.7,0.4 -2.5,0.7 -4.2,1.3 -8.4,2.7 -12.7,3.5 -1,0.2 -2,0.4 -3,0.5 -1.1,0.2 -2.1,0.3 -3.2,0.5 -1.2,0.1 -2.5,0.2 -3.7,0.4 -1.5,0 -2.9,0.2 -4.4,0 -1.4,-0.3 -2.8,-0.6 -4.1,-0.9 -1.3,-0.3 -2.6,-0.7 -3.9,-1 -1.5,-0.4 -3,-0.8 -4.5,-1.3 -1.5,-0.4 -2.9,-0.8 -4.4,-1.2 -1.6,-0.4 -3.2,-0.7 -4.7,-1.1 -1.8,-0.5 -3.6,-1 -5.3,-1.5 -1.7,-0.5 -3.4,-0.8 -5.2,-1 -1.7,-0.2 -3.4,-0.3 -5.1,-0.4 -1.6,-0.1 -3.2,-0.2 -4.9,0 -1.8,0.2 -3.6,0.4 -5.4,0.8 -4,0.8 -13.1,3.5 4,-1.2 -1.9,0.5 -3.8,0.9 -5.6,1.6 -1.8,0.6 -3.6,1.3 -5.4,2.2 -1.5,0.8 -2.9,1.5 -4.3,2.3 z"/>
<path style="overflow:visible; fill:#ffd700; stroke-width:4;" d="m 1156.2,433.7 c 1.2,1 2.4,2.1 3.6,3.2 1.3,1.2 2.5,2.5 3.8,3.7 1.1,1 2.1,2 3.3,2.8 1,0.7 2,1.5 3,2.2 0.8,0.5 1.5,1.1 2.3,1.5 0.6,0.4 1.3,0.7 2,1 0.7,0.4 1.4,0.7 2.1,1.1 0.6,0.3 1.2,0.6 1.8,0.7 0.6,0.3 1.4,0.6 2,0.8 0.8,0.2 1.5,0.5 2.2,0.8 0.5,0.3 1,0.3 1.6,0.4 0.5,0 1,0 1.4,0 0.4,0 0.2,0 0.6,0 l -9.3,8.8 c -0.5,0 -0.2,0 -0.7,-0.2 -0.7,-0.2 -1.3,-0.4 -1.9,-0.6 -0.6,-0.2 -1.2,-0.5 -1.8,-0.7 -0.7,-0.2 -1.5,-0.4 -2.1,-0.7 -0.7,-0.3 -1.4,-0.6 -2.1,-0.9 -0.7,-0.4 -1.4,-0.8 -2.1,-1.2 -0.7,-0.3 -1.4,-0.7 -2.1,-1.1 -0.8,-0.4 -1.5,-0.9 -2.2,-1.4 -0.8,-0.6 -1.7,-1.2 -2.5,-1.8 -1.1,-0.8 -2.1,-1.6 -3.1,-2.4 -1.2,-1.1 -2.4,-2.1 -3.6,-3.3 -1.2,-1.2 -2.5,-2.4 -3.7,-3.6 -1.1,-1 -2.2,-2 -3.4,-3 l 11.1,-6.3 z"/>
<path style="overflow:visible; fill:#ffd700; stroke-width:4;" d="m 1145.9,477 c 0.9,-1.2 1.8,-2.4 2.7,-3.6 1.1,-1.4 2.3,-2.7 3.6,-4 1.1,-1.2 2.4,-2.3 3.6,-3.3 1.3,-1.1 2.5,-2.1 3.8,-3.1 1.2,-0.9 2.4,-1.7 3.6,-2.5 1,-0.7 2.1,-1.3 3.1,-2 0.9,-0.4 1.8,-1 2.7,-1.6 3.8,-2.4 8.1,-2.8 12.6,-4 4.4,-1 -14.2,4 -7.3,2 0.3,0 0.7,-0.2 1,-0.3 l 11.8,4.9 c -0.3,0 -0.6,0.1 -0.9,0.2 -4.1,1.2 -8.2,2.2 -12.3,3.4 16.5,-4.5 11,-2.9 7.3,-2.2 -0.9,0.3 -1.8,0.8 -2.6,1.3 -1.1,0.5 -2,1.1 -3,1.7 -1.2,0.7 -2.4,1.4 -3.5,2.2 -1.3,0.9 -2.6,1.7 -3.7,2.7 -1.2,1 -2.4,1.9 -3.6,2.9 -1.2,1.1 -2.4,2.3 -3.5,3.5 -1,1.1 -1.9,2.2 -2.7,3.4 z"/>
</g>
<text x="7" y="35" style="font-family:'Comic Sans MS'; font-weight:bold; font-size:28px; color:black; overflow:visible; fill:#f44800; stroke-width:0.39px;">700</text>
<text x="147.4" y="35" style="font-family:'Comic Sans MS'; font-weight:bold; font-size:28px; color:black; overflow:visible; fill:#c4a000; stroke-width:0.39px;">7</text>
</svg>
