<?xml version="1.0" encoding="UTF-8" standalone="no"?>
<svg
   xmlns:dc="http://purl.org/dc/elements/1.1/"
   xmlns:cc="http://creativecommons.org/ns#"
   xmlns:rdf="http://www.w3.org/1999/02/22-rdf-syntax-ns#"
   xmlns:svg="http://www.w3.org/2000/svg"
   xmlns="http://www.w3.org/2000/svg"
   xmlns:sodipodi="http://sodipodi.sourceforge.net/DTD/sodipodi-0.dtd"
   xmlns:inkscape="http://www.inkscape.org/namespaces/inkscape"
   width="317.7"
   height="90.9"
   version="1.1"
   id="svg36"
   sodipodi:docname="scientific-notation.svg"
   inkscape:version="1.0.1 (3bc2e813f5, 2020-09-07)">
  <metadata
     id="metadata40">
    <rdf:RDF>
      <cc:Work
         rdf:about="">
        <dc:format>image/svg+xml</dc:format>
        <dc:type
           rdf:resource="http://purl.org/dc/dcmitype/StillImage" />
      </cc:Work>
    </rdf:RDF>
  </metadata>
  <sodipodi:namedview
     pagecolor="#ffffff"
     bordercolor="#666666"
     borderopacity="1"
     objecttolerance="10"
     gridtolerance="10"
     guidetolerance="10"
     inkscape:pageopacity="0"
     inkscape:pageshadow="2"
     inkscape:window-width="640"
     inkscape:window-height="480"
     id="namedview38"
     showgrid="false"
     inkscape:current-layer="svg36" />
  <defs
     id="defs2" />
  <text
     x="105.9"
     y="69.3"
     style="font-family:'Comic Sans MS';font-weight:bold;font-size:28.1px;overflow:visible;fill:#3465a4;stroke-width:0.58px;"
     id="text4">=</text>
  <text
     x="246.2"
     y="68"
     style="font-family:'Comic Sans MS';font-weight:bold;font-size:25px;overflow:visible;fill:#0197fd;stroke-width:0.58px"
     id="text6">x</text>
  <text
     x="267.3"
     y="71.4"
     style="font-family:'Comic Sans MS';font-weight:bold;font-size:28.1px;overflow:visible;fill:#0197fd;stroke-width:0.58px"
     id="text8">10</text>
  <text
     x="304"
     y="52.3"
     style="font-family:'Comic Sans MS';font-weight:bold;font-size:25px;overflow:visible;fill:#6600cc;stroke-width:0.58px"
     id="text10">3</text>
  <text
     x="138.4"
     y="12.2"
     style="font-family:'Comic Sans MS';font-size:15.6px;overflow:visible;fill:#f44800;stroke-width:0.58px"
     id="text12">Digits</text>
  <text
     x="214.5"
     y="12.2"
     style="font-family:'Comic Sans MS';font-size:15.6px;overflow:visible;fill:#6600cc;stroke-width:0.58px"
     id="text14">Power of 10</text>
  <text
     x="8.9"
     y="90.1"
     style="font-family:'Comic Sans MS';font-size:14.1px;overflow:visible;fill:#f0a513;stroke-width:0.58px"
     id="text16">A Number</text>
  <text
     x="149.6"
     y="89.7"
     style="font-family:'Comic Sans MS';font-size:14.1px;overflow:visible;fill:#f0a513;stroke-width:0.58px"
     id="text18">In Scientific Notation</text>
  <path
     style="overflow:visible;fill:#f44800;stroke-width:0.58px"
     d="m 165.9,17.8 c 4.5,4.8 11.2,6.1 17.1,8.4 5.9,2 10.5,7.2 12.3,13 -1.5,0.2 -3.6,1.9 -3.8,-0.6 -2.2,-6 -7.7,-10 -13.7,-11.6 -5.4,-1.8 -10.8,-4 -14.9,-8 1,-0.4 2,-0.9 3,-1.3 z"
     id="path20" />
  <path
     style="overflow:visible;fill:#f44800;stroke-width:0.58px"
     d="m 185.6,34.8 c 3.6,1 6.8,3 9.3,5.6 -5.9,3.3 -1.1,-5.2 1.1,-6.7 1.3,-2.1 3.3,-1.5 5.2,-1.1 -1.2,1.7 -4,3.5 -4.8,5.8 -0.2,4.8 -5.1,4.5 -7.3,1.2 -2.3,-1.7 -7.8,-1.6 -3.7,-4.5 l 0.2,-0.2 z"
     id="path22" />
  <g
     transform="matrix(0.38657,0.050107,-0.066534,0.401194,152.4,-131.943)"
     id="g30">
    <path
       style="overflow:visible;fill:#6600cc;stroke-width:1px"
       d="m 347.3,328.7 c 12.2,19.7 33.2,33.1 55.2,39.3 9.6,1.8 19.2,0 28.8,0.1 -3.7,4.3 -7.6,7.9 -13.8,6.8 -16.4,1.8 -32.6,-3.5 -46.3,-12.3 -12.9,-7.3 -24.3,-17.7 -32.1,-30.4 2.7,-1.1 5.4,-2.5 8.2,-3.5 z"
       id="path24" />
    <path
       style="overflow:visible;fill:#6600cc;stroke-width:1px"
       d="m 410.9,355.4 c 7,4.8 14.4,9.7 23,10.7 -3.8,4 -8,7.8 -13.5,3.6 -4.5,-3.1 -23.6,-9 -11.8,-13.2 0.7,-0.2 1.5,-1.3 2.3,-1.1 z"
       id="path26" />
    <path
       style="overflow:visible;fill:#6600cc;stroke-width:1px"
       d="m 403.7,381.4 c 6.7,-5.2 15.8,-13.8 24.4,-12.4 11.2,2.4 -3.1,4.8 -7.3,8.1 -5.2,2.8 -9.2,7.7 -15.5,4.8 -0.2,-0.2 -1.8,-0.1 -1.6,-0.4 z"
       id="path28" />
  </g>
  <text
     x="141.5"
     y="69.6"
     style="font-family:'Comic Sans MS';font-weight:bold;font-size:25px;color:black;overflow:visible;fill:#f44800;stroke-width:0.39px"
     id="text32">5.3266</text>
  <text
     x="-1"
     y="69.6"
     style="font-family:'Comic Sans MS';font-weight:bold;font-size:25px;color:black;overflow:visible;fill:#f44800;stroke-width:0.39px"
     id="text34">5326.6</text>
</svg>
