<?xml version="1.0" encoding="UTF-8" standalone="no"?>
<svg
   xmlns:dc="http://purl.org/dc/elements/1.1/"
   xmlns:cc="http://creativecommons.org/ns#"
   xmlns:rdf="http://www.w3.org/1999/02/22-rdf-syntax-ns#"
   xmlns:svg="http://www.w3.org/2000/svg"
   xmlns="http://www.w3.org/2000/svg"
   xmlns:xlink="http://www.w3.org/1999/xlink"
   xmlns:sodipodi="http://sodipodi.sourceforge.net/DTD/sodipodi-0.dtd"
   xmlns:inkscape="http://www.inkscape.org/namespaces/inkscape"
   width="46.75"
   height="46.75"
   id="svg2"
   sodipodi:version="0.32"
   inkscape:version="1.0.1 (3bc2e813f5, 2020-09-07)"
   sodipodi:docname="info.svg"
   inkscape:export-filename="../../datas/wiki/blue_info.html"
   inkscape:export-xdpi="90.000000"
   inkscape:export-ydpi="90.000000"
   version="1.1">
  <defs
     id="defs4">
    <linearGradient
       id="linearGradient2842">
      <stop
         style="stop-color:#ffffff;stop-opacity:1"
         offset="0.0000000"
         id="stop2844" />
      <stop
         style="stop-color:#b8b8b8;stop-opacity:1"
         offset="1.0000000"
         id="stop2846" />
    </linearGradient>
    <linearGradient
       id="linearGradient2814">
      <stop
         id="stop2816"
         offset="0.0000000"
         style="stop-color:#d1d1d1;stop-opacity:1" />
      <stop
         id="stop2818"
         offset="1.0000000"
         style="stop-color:#381d96;stop-opacity:0" />
    </linearGradient>
    <linearGradient
       id="linearGradient2122">
      <stop
         style="stop-color:#8b6be7;stop-opacity:1"
         offset="0.0000000"
         id="stop2124" />
      <stop
         style="stop-color:#1d1aa2;stop-opacity:1"
         offset="1.0000000"
         id="stop2126" />
    </linearGradient>
    <linearGradient
       id="linearGradient1364">
      <stop
         style="stop-color:#0d0d6b;stop-opacity:1"
         offset="0.0000000"
         id="stop1366" />
      <stop
         style="stop-color:#090522;stop-opacity:1"
         offset="1.0000000"
         id="stop1368" />
    </linearGradient>
    <radialGradient
       inkscape:collect="always"
       xlink:href="#linearGradient2122"
       id="radialGradient1343"
       gradientUnits="userSpaceOnUse"
       gradientTransform="matrix(0.025214,1.02612,-0.978137,0.024047,38.8302,-3.5757)"
       cx="24.7643"
       cy="16.362"
       fx="24.7643"
       fy="16.362"
       r="27.5" />
    <radialGradient
       inkscape:collect="always"
       xlink:href="#linearGradient2814"
       id="radialGradient2812"
       gradientUnits="userSpaceOnUse"
       gradientTransform="matrix(0.011424,1.09885,-1.844,0.018788,52.1505,-5.66745)"
       cx="18.3872"
       cy="14.0468"
       fx="18.3872"
       fy="14.0468"
       r="27.5" />
    <linearGradient
       inkscape:collect="always"
       xlink:href="#linearGradient1364"
       id="linearGradient2832"
       gradientUnits="userSpaceOnUse"
       gradientTransform="translate(-0.002841,-0.002841)"
       x1="10.0182"
       y1="8.63068"
       x2="63.4876"
       y2="63.6603" />
    <linearGradient
       inkscape:collect="always"
       xlink:href="#linearGradient2842"
       id="linearGradient2848"
       x1="-0.607655"
       y1="23.3563"
       x2="-0.144424"
       y2="24.0987"
       gradientUnits="userSpaceOnUse"
       gradientTransform="matrix(20.9148,0,0,20.9148,42.1155,-456.251)" />
  </defs>
  <sodipodi:namedview
     id="base"
     pagecolor="#ffffff"
     bordercolor="#666666"
     borderopacity="1.0"
     inkscape:pageopacity="0.0"
     inkscape:pageshadow="2"
     inkscape:zoom="8.2031250"
     inkscape:cx="32.000000"
     inkscape:cy="32.000000"
     inkscape:document-units="px"
     inkscape:current-layer="layer1"
     showgrid="false"
     inkscape:grid-bbox="true"
     inkscape:grid-points="true"
     inkscape:window-width="1156"
     inkscape:window-height="693"
     inkscape:window-x="0"
     inkscape:window-y="25"
     showguides="false"
     inkscape:document-rotation="0" />
  <metadata
     id="metadata7">
    <rdf:RDF>
      <cc:Work
         rdf:about="">
        <dc:format>image/svg+xml</dc:format>
        <dc:type
           rdf:resource="http://purl.org/dc/dcmitype/StillImage" />
        <dc:title>Blue Info</dc:title>
        <dc:date>2005-10-27</dc:date>
        <dc:creator>
          <cc:Agent>
            <dc:title>Jean-Victor Balin</dc:title>
          </cc:Agent>
        </dc:creator>
        <dc:description>jean.victor.balin@gmail.com</dc:description>
        <cc:license
           rdf:resource="http://web.resource.org/cc/PublicDomain" />
        <dc:subject>
          <rdf:Bag>
            <rdf:li>icon</rdf:li>
          </rdf:Bag>
        </dc:subject>
      </cc:Work>
      <cc:License
         rdf:about="http://web.resource.org/cc/PublicDomain">
        <cc:permits
           rdf:resource="http://web.resource.org/cc/Reproduction" />
        <cc:permits
           rdf:resource="http://web.resource.org/cc/Distribution" />
        <cc:permits
           rdf:resource="http://web.resource.org/cc/DerivativeWorks" />
      </cc:License>
    </rdf:RDF>
  </metadata>
  <g
     inkscape:label="Calque 1"
     inkscape:groupmode="layer"
     id="layer1"
     transform="translate(-8.625,-8.625)">
    <path
       id="path1339"
       d="M 54.5,32 C 54.5,44.42 44.42,54.5 32,54.5 19.58,54.5 9.5,44.42 9.5,32 9.5,19.58 19.58,9.5 32,9.5 44.42,9.5 54.5,19.58 54.5,32 Z"
       style="fill:url(#radialGradient1343);fill-opacity:1;stroke:none;stroke-width:2;stroke-linecap:round;stroke-linejoin:round;stroke-miterlimit:4;stroke-opacity:1" />
    <path
       id="path1341"
       d="m 32.017,9.15625 c -9.4422,0 -17.5116,5.70875 -20.9545,13.81255 4.9438,2.833 10.3308,4.8871 16.1188,4.625 5.574,-0.3139 10.3722,-4.0629 16.0557,-3.7813 C 47.4511,23.7165 52.2443,25.2944 54.4885,29 53.1426,17.8467 43.6576,9.15625 32.017,9.15625 Z"
       style="fill:url(#radialGradient2812);fill-opacity:1;stroke:none;stroke-width:2;stroke-linecap:round;stroke-linejoin:round;stroke-miterlimit:4;stroke-opacity:1" />
    <path
       id="path2827"
       d="M 32,8.625 C 19.1131,8.625 8.625,19.1131 8.625,32 8.625,44.8869 19.1131,55.375 32,55.375 44.8869,55.375 55.375,44.8869 55.375,32 55.375,19.1131 44.8869,8.625 32,8.625 Z M 32,9.5 C 44.42,9.5 54.5,19.58 54.5,32 54.5,44.42 44.42,54.5 32,54.5 19.58,54.5 9.5,44.42 9.5,32 9.5,19.58 19.58,9.5 32,9.5 Z"
       style="fill:url(#linearGradient2832);fill-opacity:1;stroke:none;stroke-width:2;stroke-linecap:round;stroke-linejoin:round;stroke-miterlimit:4;stroke-opacity:1" />
    <path
       id="flowRoot2834"
       d="m 35.8203,25.922 h -2.7069 l -7.6842,1.2758 v 3.5367 h 0.9169 c 1.8773,0.2091 2.4013,0.9202 2.4013,3.5806 v 6.287 c 0,2.4888 -0.2621,2.9678 -1.921,3.3171 l -1.3971,0.3137 v 3.5346 h 13.6656 v -3.5346 l -1.3534,-0.3137 c -1.6591,-0.3974 -1.921,-0.8366 -1.921,-3.3171 V 25.8446 M 32.022,15.8892 c -2.314,0 -4.3223,1.966 -4.3223,4.2791 0,2.3153 1.8338,4.1914 4.1477,4.1914 2.3577,0 4.3224,-1.966 4.3224,-4.321 0,-2.3153 -1.7901,-4.1495 -4.1478,-4.1495"
       style="font-style:normal;font-variant:normal;font-weight:bold;font-stretch:normal;font-size:2.08753px;line-height:55.384%;font-family:'URW Bookman L';text-align:start;writing-mode:lr-tb;text-anchor:start;fill:url(#linearGradient2848);fill-opacity:1;stroke-width:20.9148" />
  </g>
</svg>
