<?xml version="1.0" encoding="UTF-8" standalone="no"?>
<svg
   xmlns:dc="http://purl.org/dc/elements/1.1/"
   xmlns:cc="http://creativecommons.org/ns#"
   xmlns:rdf="http://www.w3.org/1999/02/22-rdf-syntax-ns#"
   xmlns:svg="http://www.w3.org/2000/svg"
   xmlns="http://www.w3.org/2000/svg"
   xmlns:sodipodi="http://sodipodi.sourceforge.net/DTD/sodipodi-0.dtd"
   xmlns:inkscape="http://www.inkscape.org/namespaces/inkscape"
   height="51.0417"
   width="401.043"
   version="1.1"
   id="svg83"
   sodipodi:docname="links48.svg"
   inkscape:version="1.0.1 (3bc2e813f5, 2020-09-07)">
  <metadata
     id="metadata87">
    <rdf:RDF>
      <cc:Work
         rdf:about="">
        <dc:format>image/svg+xml</dc:format>
        <dc:type
           rdf:resource="http://purl.org/dc/dcmitype/StillImage" />
        <dc:title></dc:title>
      </cc:Work>
    </rdf:RDF>
  </metadata>
  <sodipodi:namedview
     pagecolor="#ffffff"
     bordercolor="#666666"
     borderopacity="1"
     objecttolerance="10"
     gridtolerance="10"
     guidetolerance="10"
     inkscape:pageopacity="0"
     inkscape:pageshadow="2"
     inkscape:window-width="640"
     inkscape:window-height="480"
     id="namedview85"
     showgrid="false"
     inkscape:current-layer="svg83"
     inkscape:snap-global="true"
     inkscape:document-rotation="0" />
  <defs
     id="defs17">
    <linearGradient
       id="c"
       y2="123.2"
       gradientUnits="userSpaceOnUse"
       x2="41.76"
       gradientTransform="matrix(0.3846,-1.05,-0.8399,-0.3078,111.5,150.5)"
       y1="79.43"
       x1="7.159">
      <stop
         style="stop-color:#d3b900"
         offset="0"
         id="stop2" />
      <stop
         style="stop-color:#fdffb8"
         offset="1"
         id="stop4" />
    </linearGradient>
    <linearGradient
       id="b"
       y2="14.36"
       gradientUnits="userSpaceOnUse"
       x2="98.99"
       gradientTransform="matrix(0.8285,0.305,-0.3913,1.063,-0.7207,-3.862)"
       y1="58.78"
       x1="112.7">
      <stop
         style="stop-color:#d3b900"
         offset="0"
         id="stop7" />
      <stop
         style="stop-color:#fdffb8"
         offset="1"
         id="stop9" />
    </linearGradient>
    <linearGradient
       id="a"
       y2="14.36"
       gradientUnits="userSpaceOnUse"
       x2="98.99"
       gradientTransform="matrix(0.8285,0.305,-0.3913,1.063,23.22,-26.61)"
       y1="58.78"
       x1="112.7">
      <stop
         style="stop-color:#d3b900"
         offset="0"
         id="stop12" />
      <stop
         style="stop-color:#fdffb8"
         offset="1"
         id="stop14" />
    </linearGradient>
    <linearGradient
       id="linearGradient3003"
       y2="425.4"
       gradientUnits="userSpaceOnUse"
       x2="-395.85"
       gradientTransform="matrix(-0.08806,0,0,0.08806,301.153,-97.798)"
       y1="274.71"
       x1="-344.15">
      <stop
         stop-color="#FFF"
         offset="0"
         id="stop2-7" />
      <stop
         stop-color="#FFF"
         stop-opacity="0"
         offset="1"
         id="stop4-2" />
    </linearGradient>
  </defs>
  <g
     id="g41"
     transform="matrix(0.3004,0,0,0.3004,205.422,3.23894)">
    <path
       inkscape:connector-curvature="0"
       id="path35"
       d="m 67.49,89.88 c -2.913,7.85 -8.627,14.32 -14.82,19.8 -5.647,4.82 -12.86,8.76 -20.52,8.08 -6.74,-0.65 -12.65,-5.52 -15.36,-11.6 -2.673,-6.319 -0.997,-13.57 2.185,-19.38 3.753,-6.737 9.125,-12.52 15.2,-17.22 5.562,-4.189 12.62,-7.231 19.69,-5.914 5.985,1.211 10.53,5.108 13.02,10.64 1.356,3.374 2.918,5.799 1.497,10.16 -1.569,-0.306 -10.06,1.623 -11.07,1.447 -1.007,-0.175 2.897,-3.538 -0.767,-9.545 -0.891,-1.461 -2.84,-1.785 -4.819,-1.863 -4.45,-0.711 -8.562,1.872 -11.93,4.482 -4.768,4.01 -9.224,8.674 -11.94,14.35 -1.537,3.243 -2.249,7.532 0.241,10.51 1.984,2.66 5.635,3.6 8.74,2.61 5.893,-1.75 10.41,-6.26 14.41,-10.73 2.356,-2.745 4.232,-5.306 5.515,-8.715 3.847,0.501 7.929,0.02 11.68,-0.888 -0.257,1.401 -0.482,2.43 -0.963,3.772 z"
       style="fill:url(#c);stroke:#000000;stroke-width:1pt" />
    <path
       inkscape:connector-curvature="0"
       id="path37"
       d="M 82.09,40.92 C 75.61,38.38 68.31,40.47 62.7,44.12 56.4,48.25 48.57,57.5 44.44,63.76 47.7,62.97 55.62,63.55 58.26,64.92 62.01,60.52 67.35,53.04 73,51.25 c 3.389,-1.191 7.396,0.176 9.269,3.252 2.284,3.672 0.788,8.284 -1.078,11.79 -2.899,5.167 -6.868,9.729 -11.43,13.5 -3.239,2.526 -7.456,4.96 -11.7,3.783 -3.518,-1.022 -5.978,-8.621 -5.978,-8.621 0,0 -3.793,-1.639 -9.907,2.169 -0.548,5.341 0.976,7.598 3.594,10.77 3.916,4.697 10.08,7.732 16.28,6.92 7.239,-0.781 13.52,-5.18 18.58,-10.16 6.044,-6.149 11.64,-13.41 13.38,-22.04 1.158,-5.464 0,-11.51 -3.761,-15.76 -2.209,-2.568 -4.986,-4.712 -8.158,-5.939 z"
       style="fill:url(#b);stroke:#000000;stroke-width:1pt" />
    <path
       inkscape:connector-curvature="0"
       id="path39"
       d="m 106,18.17 c -6.45,-2.54 -13.75,-0.45 -19.37,3.2 -6.295,4.132 -14.67,13.65 -18.8,19.91 3.255,-0.79 11.18,-1.977 13.82,-0.603 3.74,-4.402 9.627,-10.39 15.28,-12.18 3.391,-1.191 7.401,0.176 9.271,3.252 2.28,3.672 0.79,8.284 -1.08,11.79 -2.9,5.168 -6.867,9.73 -11.43,13.5 -3.239,2.526 -7.457,4.96 -11.7,3.783 -4.347,-0.711 -5.769,-7.34 -4.891,-9.707 0.167,-1.334 -8.121,0.813 -10.18,3.663 0.172,5.774 -0.07,5.798 2.779,10.37 3.917,4.696 10.09,7.731 16.28,6.919 7.238,-0.781 13.52,-5.18 18.57,-10.16 6.05,-6.149 11.65,-13.41 13.38,-22.04 1.16,-5.465 0,-11.52 -3.76,-15.76 -2.21,-2.567 -4.98,-4.711 -8.15,-5.939 z"
       style="fill:url(#a);stroke:#000000;stroke-width:1pt" />
  </g>
  <g
     id="g47"
     transform="translate(59.5205,7.49894)">
    <circle
       id="circle43"
       cy="16"
       r="16"
       style="fill:#5fccff"
       cx="16" />
    <path
       inkscape:connector-curvature="0"
       id="path45"
       d="m 22.1,12.1 c 0.7,-0.4 1.2,-1.1 1.4,-1.8 -0.6,0.4 -1.3,0.6 -2.1,0.8 -0.6,-0.6 -1.5,-1 -2.4,-1 -1.8,0 -3.3,1.5 -3.3,3.3 0,0.3 0,0.5 0.1,0.7 C 13.1,14 10.6,12.7 9,10.7 c -0.3,0.5 -0.4,1.1 -0.4,1.7 0,1.1 0.6,2.1 1.5,2.7 -0.5,0 -1,-0.2 -1.5,-0.4 0,1.6 1.1,2.9 2.6,3.2 -0.2,0 -0.5,0.1 -0.8,0.1 -0.2,0 -0.4,0 -0.6,-0.1 0.4,1.3 1.6,2.3 3.1,2.3 -1.1,0.9 -2.5,1.4 -4.1,1.4 H 8 c 1.4,0.9 3,1.4 4.7,1.5 h 0.8 c 5.7,-0.3 8.9,-5.1 8.9,-9.3 v -0.4 c 0.6,-0.5 1.2,-1 1.6,-1.7 -0.6,0.1 -1.2,0.3 -1.9,0.4 z"
       style="fill:#f4f4f4" />
  </g>
  <g
     id="g53"
     transform="translate(9.52084,7.49894)">
    <circle
       id="circle49"
       cy="16"
       r="16"
       style="fill:#383f87"
       cx="16" />
    <path
       inkscape:connector-curvature="0"
       id="path51"
       d="M 17,11.5 C 17,11.2 17.2,11 17.5,11 h 2 V 8 H 16 c -1.4,0 -2.5,1.1 -2.5,2.5 v 3 H 12 v 3 h 1.5 V 24 H 17 v -7.5 h 2 l 0.5,-3 H 17 Z"
       style="fill:#f4f4f4" />
  </g>
  <g
     id="g907"
     transform="translate(8.871,7.11894)">
    <circle
       id="circle55"
       style="fill:#0084c8"
       r="16"
       cx="266.65"
       cy="16.38" />
    <path
       inkscape:connector-curvature="0"
       id="path57"
       d="M 256.55,22.58 V 12.21 l 10.07,5.5 10.22,-5.57 v 10.44 z"
       style="fill:#f7f7f7;fill-rule:evenodd" />
    <path
       inkscape:connector-curvature="0"
       id="path59"
       d="M 256.95,9.68001 266.32,15.25 276.93,9.68001 Z"
       style="fill:#f5f5f5;fill-rule:evenodd" />
  </g>
  <g
     id="g65"
     transform="translate(-372.479,-810.131)">
    <circle
       id="circle61"
       cy="833.3"
       r="16"
       style="fill:#ff3939"
       cx="548" />
    <path
       inkscape:connector-curvature="0"
       id="path63"
       d="m 547.5,838.6 c -0.62,-0.5 -2,-1.84 -2,-2.51 0,-0.83 0.3,-1.33 1.54,-2.34 1.23,-1 2.15,-2.5 2.15,-4.34 0,-2 -0.92,-4.18 -2.46,-4.84 h 2.46 l 1.55,-1.34 h -7.71 c -3.39,0 -6.63,2.84 -6.63,6.01 0,3.34 2.31,6.02 5.86,6.02 h 0.77 c -0.16,0.5 -0.46,1 -0.46,1.5 0,1 0.46,1.67 1.08,2.34 h -1.39 c -4.32,0 -7.56,3.01 -7.56,6.01 0,3.01 3.55,4.85 7.87,4.85 4.78,0 7.55,-3.01 7.55,-6.02 0,-2.34 -0.62,-3.84 -2.62,-5.34 z m -4.01,-4.18 c -2,0 -3.85,-2.34 -4.16,-5.18 -0.31,-2.84 0.92,-5.01 2.93,-4.84 2,0 3.85,2.34 4.16,5.18 0.31,2.67 -1.08,5.01 -2.93,4.84 z m -0.77,14.2 c -2.93,0 -5.09,-2 -5.09,-4.51 0,-2.34 2.62,-4.34 5.55,-4.34 0.62,0 1.39,0.16 1.85,0.33 1.54,1.17 2.78,1.84 3.09,3.18 0,0.33 0.15,0.5 0.15,0.83 0,2.67 -1.54,4.51 -5.55,4.51 z m 12.18,-13.7 v -3.34 h -1.54 v 3.34 h -3.09 v 1.67 h 3.09 v 3.34 h 1.54 v -3.34 h 3.08 v -1.67 z"
       style="fill:#ffffff" />
  </g>
  <g
     id="g71"
     transform="translate(-371.98,-860.701)">
    <circle
       id="circle67"
       cy="884.2"
       r="16"
       style="fill:#fc2b36"
       cx="497.5" />
    <path
       inkscape:connector-curvature="0"
       id="path69"
       d="m 497.5,875.6 c -4.86,0 -8.83,3.97 -8.83,8.82 0,3.64 2.21,6.73 5.3,8.05 0,-0.66 0,-1.32 0.11,-1.98 0.22,-0.66 1.1,-4.86 1.1,-4.86 0,0 -0.33,-0.55 -0.33,-1.43 0,-1.32 0.77,-2.32 1.65,-2.32 0.78,0 1.22,0.56 1.22,1.33 0,0.77 -0.55,1.98 -0.77,3.09 -0.23,0.88 0.44,1.65 1.43,1.65 1.65,0 2.76,-2.1 2.76,-4.74 0,-1.99 -1.33,-3.42 -3.64,-3.42 -2.65,0 -4.3,1.98 -4.3,4.19 0,0.77 0.22,1.32 0.55,1.76 0.11,0.23 0.22,0.23 0.11,0.45 0,0.11 -0.11,0.55 -0.22,0.66 -0.11,0.22 -0.22,0.33 -0.44,0.22 -1.22,-0.55 -1.77,-1.88 -1.77,-3.42 0,-2.54 2.1,-5.52 6.29,-5.52 3.42,0 5.62,2.43 5.62,5.08 0,3.42 -1.87,6.06 -4.74,6.06 -0.99,0 -1.88,-0.55 -2.21,-1.1 0,0 -0.55,1.99 -0.66,2.43 -0.11,0.55 -0.44,1.21 -0.77,1.65 l -0.11,0.22 c 0.77,0.22 1.65,0.33 2.54,0.33 4.85,0 8.82,-3.97 8.82,-8.82 0,-4.85 -3.86,-8.38 -8.71,-8.38 z"
       style="fill:#f4f4f4" />
  </g>
  <g
     id="g921"
     transform="translate(2.55646,115.3)">
    <text
       id="text75"
       x="298.506"
       y="-91.8404"
       xml:space="preserve"
       style="color:#000000;font-size:20px;line-height:100%;font-family:sans-serif;text-indent:0;text-decoration:none;text-decoration-line:none;text-decoration-style:solid;text-decoration-color:#000000;letter-spacing:0px;word-spacing:0px;text-transform:none;white-space:normal;isolation:auto;mix-blend-mode:normal;solid-color:#000000;fill:#3465a4;color-rendering:auto;image-rendering:auto;shape-rendering:auto;text-rendering:auto"><tspan
         id="tspan73"
         y="-91.8404"
         x="298.506">Link</tspan></text>
    <text
       id="text79"
       x="299.093"
       y="-76.8504"
       xml:space="preserve"
       style="color:#000000;font-size:20px;line-height:100%;font-family:sans-serif;text-indent:0;text-decoration:none;text-decoration-line:none;text-decoration-style:solid;text-decoration-color:#000000;letter-spacing:0px;word-spacing:0px;text-transform:none;white-space:normal;isolation:auto;mix-blend-mode:normal;solid-color:#000000;fill:#19aeff;color-rendering:auto;image-rendering:auto;shape-rendering:auto;text-rendering:auto"><tspan
         id="tspan77"
         y="-76.8504"
         x="299.093">Here</tspan></text>
  </g>
  <g
     id="g883"
     transform="matrix(0.8386,0,0,0.8386,86.5638,67.5432)">
    <rect
       id="rect9"
       x="-362.067"
       y="-70.014"
       width="34.9896"
       height="34.9861"
       ry="5.28361"
       rx="5.28361"
       transform="scale(-1,1)"
       style="fill:#006699;stroke-width:0.174948" />
    <path
       id="path11"
       d="m 352.823,-68.5182 h -16.501 c -4.368,0 -7.885,3.545 -7.885,7.9484 v 16.0987 c 0.142,3.4372 0.686,1.2644 1.721,-2.5422 1.203,-4.4239 5.121,-8.2904 9.892,-11.1882 3.642,-2.2117 7.719,-3.624 15.139,-3.7584 4.209,-0.076 3.837,-5.4615 -2.366,-6.5583 z"
       style="opacity:0.781116;fill:url(#linearGradient3003);stroke-width:0.174948"
       inkscape:connector-curvature="0" />
    <path
       id="path13"
       d="m 338.273,-40.6509 v -15.9 h -5.285 v 15.9 z m -2.642,-18.0722 c 1.843,0 2.99,-1.2209 2.99,-2.7466 -0.03,-1.5602 -1.147,-2.7472 -2.955,-2.7472 -1.808,0 -2.99,1.187 -2.99,2.7472 0,1.5258 1.147,2.7466 2.92,2.7466 h 0.03 z"
       style="fill:#ffffff;stroke-width:0.174948"
       inkscape:connector-curvature="0" />
    <path
       id="path15"
       d="m 341.198,-40.6509 h 5.285 v -8.8793 c 0,-0.4752 0.03,-0.95 0.174,-1.2896 0.382,-0.9496 1.251,-1.9329 2.711,-1.9329 1.912,0 2.677,1.4581 2.677,3.5955 v 8.5061 h 5.285 v -9.1167 c 0,-4.8839 -2.607,-7.1563 -6.084,-7.1563 -2.851,0 -4.103,1.5935 -4.799,2.6789 h 0.04 v -2.306 h -5.285 c 0.07,1.492 0,15.8999 0,15.8999 z"
       style="fill:#ffffff;stroke-width:0.174948"
       inkscape:connector-curvature="0" />
  </g>
  <rect
     style="color:#000000;clip-rule:nonzero;display:inline;overflow:visible;visibility:visible;isolation:auto;color-interpolation:sRGB;color-interpolation-filters:linearRGB;solid-color:#000000;solid-opacity:1;vector-effect:none;fill:none;fill-opacity:1;fill-rule:nonzero;stroke:#013397;stroke-width:1.04167;stroke-linecap:butt;stroke-linejoin:miter;stroke-miterlimit:4;stroke-dasharray:none;stroke-dashoffset:0;stroke-opacity:1;marker:none;marker-start:none;marker-mid:none;marker-end:none;color-rendering:auto;image-rendering:auto;shape-rendering:auto;text-rendering:auto;enable-background:accumulate"
     id="rect878"
     width="50"
     height="50"
     x="0.520835"
     y="72.5208" />
  <rect
     style="color:#000000;clip-rule:nonzero;display:inline;overflow:visible;visibility:visible;isolation:auto;color-interpolation:sRGB;color-interpolation-filters:linearRGB;solid-color:#000000;solid-opacity:1;vector-effect:none;fill:none;fill-opacity:1;fill-rule:nonzero;stroke:#013397;stroke-width:1.04167;stroke-linecap:butt;stroke-linejoin:miter;stroke-miterlimit:4;stroke-dasharray:none;stroke-dashoffset:0;stroke-opacity:1;marker:none;marker-start:none;marker-mid:none;marker-end:none;color-rendering:auto;image-rendering:auto;shape-rendering:auto;text-rendering:auto;enable-background:accumulate"
     id="rect939"
     width="50"
     height="50"
     x="50.5205"
     y="72.5208" />
  <rect
     style="color:#000000;clip-rule:nonzero;display:inline;overflow:visible;visibility:visible;isolation:auto;color-interpolation:sRGB;color-interpolation-filters:linearRGB;solid-color:#000000;solid-opacity:1;vector-effect:none;fill:none;fill-opacity:1;fill-rule:nonzero;stroke:#013397;stroke-width:1.04167;stroke-linecap:butt;stroke-linejoin:miter;stroke-miterlimit:4;stroke-dasharray:none;stroke-dashoffset:0;stroke-opacity:1;marker:none;marker-start:none;marker-mid:none;marker-end:none;color-rendering:auto;image-rendering:auto;shape-rendering:auto;text-rendering:auto;enable-background:accumulate"
     id="rect941"
     width="50"
     height="50"
     x="100.52"
     y="72.5208" />
  <rect
     style="color:#000000;clip-rule:nonzero;display:inline;overflow:visible;visibility:visible;isolation:auto;color-interpolation:sRGB;color-interpolation-filters:linearRGB;solid-color:#000000;solid-opacity:1;vector-effect:none;fill:none;fill-opacity:1;fill-rule:nonzero;stroke:#013397;stroke-width:1.04167;stroke-linecap:butt;stroke-linejoin:miter;stroke-miterlimit:4;stroke-dasharray:none;stroke-dashoffset:0;stroke-opacity:1;marker:none;marker-start:none;marker-mid:none;marker-end:none;color-rendering:auto;image-rendering:auto;shape-rendering:auto;text-rendering:auto;enable-background:accumulate"
     id="rect943"
     width="50"
     height="50"
     x="150.521"
     y="72.5208" />
  <rect
     style="color:#000000;clip-rule:nonzero;display:inline;overflow:visible;visibility:visible;isolation:auto;color-interpolation:sRGB;color-interpolation-filters:linearRGB;solid-color:#000000;solid-opacity:1;vector-effect:none;fill:none;fill-opacity:1;fill-rule:nonzero;stroke:#013397;stroke-width:1.04167;stroke-linecap:butt;stroke-linejoin:miter;stroke-miterlimit:4;stroke-dasharray:none;stroke-dashoffset:0;stroke-opacity:1;marker:none;marker-start:none;marker-mid:none;marker-end:none;color-rendering:auto;image-rendering:auto;shape-rendering:auto;text-rendering:auto;enable-background:accumulate"
     id="rect945"
     width="50"
     height="50"
     x="200.521"
     y="72.5208" />
  <rect
     style="color:#000000;clip-rule:nonzero;display:inline;overflow:visible;visibility:visible;isolation:auto;color-interpolation:sRGB;color-interpolation-filters:linearRGB;solid-color:#000000;solid-opacity:1;vector-effect:none;fill:none;fill-opacity:1;fill-rule:nonzero;stroke:#013397;stroke-width:1.04167;stroke-linecap:butt;stroke-linejoin:miter;stroke-miterlimit:4;stroke-dasharray:none;stroke-dashoffset:0;stroke-opacity:1;marker:none;marker-start:none;marker-mid:none;marker-end:none;color-rendering:auto;image-rendering:auto;shape-rendering:auto;text-rendering:auto;enable-background:accumulate"
     id="rect947"
     width="50"
     height="50"
     x="250.521"
     y="72.5208" />
  <rect
     style="color:#000000;clip-rule:nonzero;display:inline;overflow:visible;visibility:visible;isolation:auto;color-interpolation:sRGB;color-interpolation-filters:linearRGB;solid-color:#000000;solid-opacity:1;vector-effect:none;fill:none;fill-opacity:1;fill-rule:nonzero;stroke:#013397;stroke-width:1.04167;stroke-linecap:butt;stroke-linejoin:miter;stroke-miterlimit:4;stroke-dasharray:none;stroke-dashoffset:0;stroke-opacity:1;marker:none;marker-start:none;marker-mid:none;marker-end:none;color-rendering:auto;image-rendering:auto;shape-rendering:auto;text-rendering:auto;enable-background:accumulate"
     id="rect949"
     width="50"
     height="50"
     x="300.521"
     y="72.5208" />
  <rect
     style="color:#000000;clip-rule:nonzero;display:inline;overflow:visible;visibility:visible;isolation:auto;color-interpolation:sRGB;color-interpolation-filters:linearRGB;solid-color:#000000;solid-opacity:1;vector-effect:none;fill:none;fill-opacity:1;fill-rule:nonzero;stroke:#013397;stroke-width:1.04167;stroke-linecap:butt;stroke-linejoin:miter;stroke-miterlimit:4;stroke-dasharray:none;stroke-dashoffset:0;stroke-opacity:1;marker:none;marker-start:none;marker-mid:none;marker-end:none;color-rendering:auto;image-rendering:auto;shape-rendering:auto;text-rendering:auto;enable-background:accumulate"
     id="rect951"
     width="50"
     height="50"
     x="350.522"
     y="72.5208" />
</svg>
